<svg width="24" height="24" viewBox="0 0 24 24" fill="none" xmlns="http://www.w3.org/2000/svg">
<path d="M11.0714 19.5H12.9286V12.0714H11.0714V19.5ZM12.9286 15.7857H14.7857V13.9286H12.9286V15.7857ZM14.7857 17.6428H16.6429V15.7857H14.7857V17.6428ZM16.6429 19.5H18.5V17.6428H16.6429V19.5ZM11.0714 15.7857H9.21429V13.9286H11.0714V15.7857Z" fill="white"/>
<path d="M14.7857 17.6428H7.35714V15.7857H14.7857V17.6428ZM16.6429 19.5H5.5V17.6428H16.6429V19.5Z" fill="white"/>
<path d="M11.0714 12.0714H12.9286V4.64285H11.0714V12.0714ZM12.9286 8.35714H14.7857V6.5H12.9286V8.35714ZM14.7857 10.2143H16.6429V8.35714H14.7857V10.2143ZM16.6429 12.0714H18.5V10.2143H16.6429V12.0714ZM11.0714 8.35714H9.21429V6.5H11.0714V8.35714Z" fill="white"/>
<path d="M14.7857 10.2143H7.35714V8.35714H14.7857V10.2143ZM16.6429 12.0714H5.5V10.2143H16.6429V12.0714Z" fill="white"/>
</svg>
