<svg width="24" height="24" viewBox="0 0 24 24" fill="none" xmlns="http://www.w3.org/2000/svg">
<path d="M13.3572 11.3571V13.1429H20.5V11.3571H13.3572ZM16.9286 13.1429L16.9286 14.9286H18.7143V13.1429H16.9286ZM15.1429 14.9286V16.7143L16.9286 16.7143V14.9286H15.1429ZM13.3571 16.7143V18.5H15.1429V16.7143H14.25H13.3571ZM16.9286 11.3571V9.57143H18.7143V11.3571H16.9286Z" fill="white"/>
<path d="M15.1429 14.9286L15.1429 7.78571L16.9286 7.78571L16.9286 14.9286H15.1429ZM13.3571 16.7143V6L15.1429 6L15.1429 16.7143H14.25H13.3571Z" fill="white"/>
<path d="M10.4724 11.3571V13.1429H3.32958V11.3571H10.4724ZM6.90101 13.1429L6.90101 14.9286H5.1153V13.1429H6.90101ZM8.68672 14.9286V16.7143L6.90101 16.7143V14.9286L8.68672 14.9286ZM10.4724 16.7143V18.5H8.68672V16.7143H10.4724ZM6.90101 11.3571V9.57143H5.1153V11.3571H6.90101Z" fill="white"/>
<path d="M8.68672 14.9286L8.68672 7.78571L6.90101 7.78571L6.90101 14.9286L8.68672 14.9286ZM10.4724 16.7143L10.4724 6L8.68672 6L8.68672 16.7143H10.4724Z" fill="white"/>
</svg>
