<svg width="24" height="24" viewBox="0 0 24 24" fill="none" xmlns="http://www.w3.org/2000/svg">
<path d="M11.0714 4.64285H12.9286V12.0714H11.0714V4.64285ZM12.9286 8.35714H14.7857V10.2143H12.9286V8.35714ZM14.7857 6.5H16.6429V8.35714H14.7857V6.5ZM16.6429 4.64285H18.5V6.5H16.6429V4.64285ZM11.0714 8.35714H9.21429V10.2143H11.0714V8.35714Z" fill="white"/>
<path d="M14.7857 6.5H7.35714V8.35714H14.7857V6.5ZM16.6429 4.64285H5.5V6.5H16.6429V4.64285Z" fill="white"/>
<path d="M11.0714 12.0714H12.9286V19.5H11.0714V12.0714ZM12.9286 15.7857H14.7857V17.6428H12.9286V15.7857ZM14.7857 13.9286H16.6429V15.7857H14.7857V13.9286ZM16.6429 12.0714H18.5V13.9286H16.6429V12.0714ZM11.0714 15.7857H9.21429V17.6428H11.0714V15.7857Z" fill="white"/>
<path d="M14.7857 13.9286H7.35714V15.7857H14.7857V13.9286ZM16.6429 12.0714H5.5V13.9286H16.6429V12.0714Z" fill="white"/>
</svg>
