<svg width="1440" height="810" viewBox="0 0 1440 810" fill="none" xmlns="http://www.w3.org/2000/svg">
<path opacity="0.05" d="M-73 -126C-21.083 -120.715 29.7137 -113.644 80.9135 -103.647C87.7185 -102.346 94.5235 -101.045 101.535 -99.7048C123.087 -95.5804 144.631 -91.4151 166.175 -87.2448C187.376 -83.1621 208.579 -79.0887 229.784 -75.025C243.838 -72.3315 257.891 -69.629 271.941 -66.9174C313.197 -59.0054 354.51 -51.6859 395.942 -44.7577C453.144 -35.1224 508.134 -24.5993 562.032 -2.53698C567.667 -0.41877 573.302 1.69944 579.108 3.88185C630.503 23.9424 670.182 41.1799 696.222 91.3752C700.884 103.395 705.425 115.463 709.855 127.57C736.333 193.687 768.216 259.521 828.612 301.242C856.755 311.002 883.34 310.949 913.043 311.934C977.657 315.054 1023.62 321.862 1069.72 370.067C1092.75 380.611 1092.75 380.611 1114.02 387.783C1114.02 390.707 1114.02 393.63 1114.02 396.642C1087.71 402.488 1061.4 408.335 1034.29 414.358C1091.36 432.493 1147.94 449.746 1206.48 462.525C1249.71 473.391 1279.73 486.338 1308.9 520.658C1314.96 527.761 1321.03 534.863 1327.27 542.181C1383.24 612.305 1422.44 687.398 1459.49 768.692C1464.09 778.752 1468.7 788.812 1473.44 799.177C1493.59 845.315 1509.21 886.608 1512.64 937C1450.61 934.823 1422.79 918.752 1379.77 874.992C1372.09 867.318 1364.42 859.645 1356.51 851.739C1349.57 844.796 1342.63 837.853 1335.47 830.7C1323.14 821.108 1323.14 821.108 1310.56 811.322C1304.17 806.024 1297.77 800.726 1291.18 795.267C1291.18 789.42 1291.18 783.574 1291.18 777.55C1285.34 777.55 1279.49 777.55 1273.47 777.55C1258.48 762.982 1258.48 762.982 1241.91 743.778C1236.42 737.509 1230.92 731.24 1225.26 724.781C1211.46 706.683 1211.46 706.683 1202.6 680.108C1186.64 670.488 1186.64 670.488 1167.17 662.392C1152.8 654.443 1138.48 646.421 1124.19 638.343C1111.77 631.414 1111.77 631.414 1099.1 624.346C1081.9 614.742 1064.74 605.077 1047.61 595.349C953.902 541.296 953.902 541.296 849.72 536.299C839.374 540.638 829.029 544.977 818.37 549.448C776.741 565.752 739.356 576.782 694.353 578.791C644.594 581.065 608.652 595.515 564.8 618.1C521.962 639.082 521.962 639.082 492.964 629.9C474.099 621.169 457.371 612.933 440.783 600.383C437.86 591.614 434.937 582.844 431.925 573.808C444.429 567.214 444.429 567.214 457.185 560.486C548.392 516.46 548.392 516.46 609.092 440.933C607.903 412.418 601.397 387.834 591.375 361.208C585.528 361.208 579.682 361.208 573.658 361.208C557.093 341.777 541.464 322.277 526.045 301.968C517.487 290.86 508.929 279.752 500.369 268.646C496.284 263.286 492.199 257.926 487.99 252.404C477.414 238.739 466.424 225.398 455.386 212.105C440.783 192.9 440.783 192.9 440.783 175.183C434.937 175.183 429.09 175.183 423.067 175.183C408.672 163.003 408.672 163.003 396.492 148.608C396.492 142.762 396.492 136.915 396.492 130.892C387.722 127.968 378.952 125.045 369.917 122.033C369.917 116.187 369.917 110.34 369.917 104.317C364.436 101.576 358.954 98.8356 353.307 96.012C341.127 89.9219 328.947 83.8318 316.767 77.7417C316.767 71.8952 316.767 66.0487 316.767 60.025C306.17 56.5536 295.573 53.0823 284.655 49.5057C268.783 44.1572 252.912 38.8048 237.042 33.45C227.827 30.4354 218.611 27.4208 209.117 24.3148C149.842 4.21709 93.3555 -18.7642 37.1755 -46.275C31.2712 -49.109 25.3669 -51.9431 19.2837 -54.863C-18.3879 -73.84 -44.6837 -94.6944 -73 -126Z" fill="white"/>
</svg>
