<svg width="118" height="79" viewBox="0 0 118 79" fill="none" xmlns="http://www.w3.org/2000/svg">
<path d="M0 0C3.85836 0.392754 7.63347 0.918298 11.4385 1.66126C11.9443 1.75793 12.45 1.85461 12.9711 1.95421C14.5728 2.26073 16.1739 2.57028 17.775 2.88021C19.3506 3.18362 20.9264 3.48635 22.5023 3.78836C23.5468 3.98853 24.5911 4.18938 25.6353 4.3909C28.7014 4.9789 31.7717 5.52287 34.8508 6.03776C39.102 6.75384 43.1887 7.5359 47.1943 9.17552C47.6131 9.33294 48.0319 9.49036 48.4634 9.65256C52.2829 11.1434 55.2318 12.4245 57.167 16.1549C57.5135 17.0482 57.851 17.945 58.1802 18.8448C60.148 23.7585 62.5175 28.6511 67.006 31.7517C69.0975 32.4771 71.0733 32.4731 73.2807 32.5464C78.0827 32.7783 81.4983 33.2842 84.925 36.8667C86.6361 37.6503 86.6361 37.6503 88.2167 38.1833C88.2167 38.4006 88.2167 38.6178 88.2167 38.8417C86.2614 39.2762 84.3062 39.7107 82.2917 40.1583C86.5332 41.5061 90.7379 42.7883 95.088 43.738C98.3013 44.5456 100.533 45.5077 102.7 48.0583C103.151 48.5862 103.601 49.114 104.066 49.6579C108.225 54.8694 111.138 60.4501 113.892 66.4917C114.234 67.2393 114.576 67.987 114.928 68.7573C116.426 72.1862 117.586 75.255 117.842 79C113.232 78.8382 111.164 77.6439 107.967 74.3917C107.396 73.8214 106.826 73.2511 106.239 72.6635C105.723 72.1476 105.207 71.6316 104.675 71.1C103.758 70.3872 103.758 70.3872 102.823 69.6599C102.348 69.2661 101.873 68.8724 101.383 68.4667C101.383 68.0322 101.383 67.5977 101.383 67.15C100.949 67.15 100.514 67.15 100.067 67.15C98.9532 66.0674 98.9532 66.0674 97.7213 64.6401C97.3132 64.1742 96.905 63.7083 96.4844 63.2283C95.4583 61.8833 95.4583 61.8833 94.8 59.9083C93.6137 59.1934 93.6137 59.1934 92.1667 58.5917C91.0992 58.001 90.0348 57.4047 88.9727 56.8044C88.0498 56.2895 88.0498 56.2895 87.1083 55.7642C85.8302 55.0504 84.5546 54.3322 83.2817 53.6092C76.3173 49.5921 76.3173 49.5921 68.5747 49.2207C67.8058 49.5432 67.0369 49.8657 66.2448 50.1979C63.151 51.4096 60.3727 52.2293 57.0281 52.3786C53.3302 52.5476 50.659 53.6215 47.4 55.3C44.2163 56.8593 44.2163 56.8593 42.0613 56.1769C40.6593 55.5281 39.4161 54.916 38.1833 53.9833C37.9661 53.3316 37.7488 52.6798 37.525 52.0083C38.4543 51.5183 38.4543 51.5183 39.4023 51.0183C46.1806 47.7463 46.1806 47.7463 50.6917 42.1333C50.6034 40.0141 50.1199 38.1871 49.375 36.2083C48.9405 36.2083 48.506 36.2083 48.0583 36.2083C46.8272 34.7642 45.6657 33.3151 44.5198 31.8057C43.8838 30.9802 43.2478 30.1547 42.6117 29.3293C42.3081 28.9309 42.0045 28.5326 41.6917 28.1222C40.9057 27.1067 40.0889 26.1152 39.2686 25.1272C38.1833 23.7 38.1833 23.7 38.1833 22.3833C37.7488 22.3833 37.3143 22.3833 36.8667 22.3833C35.7969 21.4781 35.7969 21.4781 34.8917 20.4083C34.8917 19.9738 34.8917 19.5393 34.8917 19.0917C34.2399 18.8744 33.5882 18.6572 32.9167 18.4333C32.9167 17.9988 32.9167 17.5643 32.9167 17.1167C32.5093 16.913 32.102 16.7093 31.6823 16.4995C30.7771 16.0469 29.8719 15.5943 28.9667 15.1417C28.9667 14.7072 28.9667 14.2727 28.9667 13.825C28.1791 13.567 27.3916 13.309 26.5802 13.0432C25.4006 12.6457 24.2211 12.248 23.0417 11.85C22.3568 11.626 21.672 11.4019 20.9664 11.1711C16.5612 9.67747 12.3632 7.96955 8.18802 5.925C7.74922 5.71438 7.31043 5.50376 6.85834 5.28676C4.05866 3.87643 2.10441 2.32657 0 0Z" fill="#262626"/>
</svg>
