<svg width="160" height="160" viewBox="0 0 160 160" fill="none" xmlns="http://www.w3.org/2000/svg">
<path d="M54.295 54C55.9222 55.3903 56.5733 56.733 57.2816 58.7274C61.37 59.7386 63.7279 58.8366 67.478 57.0308C70.3662 55.9298 72.8168 56.2787 75.7611 56.9916C79.1137 57.6877 81.6622 57.6266 84.7582 56.0313C86.8771 55.0269 88.4104 55.0441 90.7314 55.1819C91.0271 56.0594 91.0271 56.0594 91.3287 56.9546C92.5324 57.3879 92.5324 57.3879 93.718 57.5456C93.718 58.1306 93.718 58.7156 93.718 59.3184C93.0897 59.4829 93.0897 59.4829 92.4487 59.6507C90.0765 60.8242 88.7559 62.5917 87.1475 64.6367C89.0061 68.5147 91.3519 70.5847 94.9126 72.9097C98.0174 75.4776 100.091 78.4391 102.19 81.8359C103.641 84.1235 105.25 86.2778 106.871 88.4493C108.027 90.0106 109.145 91.593 110.256 93.1859C110.915 94.1101 111.574 95.0335 112.235 95.9559C112.484 96.317 112.734 96.678 112.991 97.05C114.95 99.6725 116.948 100.353 120 101.274C120 101.664 120 102.054 120 102.456C118.817 102.456 117.635 102.456 116.416 102.456C117.894 103.919 117.894 103.919 119.403 105.411C118.023 105.216 116.643 105.021 115.221 104.82C115.221 105.015 115.221 105.21 115.221 105.411C115.221 105.801 115.221 106.191 115.221 106.593C113.39 106.394 112.458 106.215 111.113 104.931C110.781 104.504 110.449 104.077 110.107 103.638C108.722 101.866 107.948 101 105.664 100.683C105.664 101.463 105.664 102.243 105.664 103.047C103.824 102.684 102.55 102.085 100.998 101.053C98.2541 99.3052 95.4843 98.056 92.3367 97.1747C90.7314 96.5468 90.7314 96.5468 89.9101 95.2911C89.7869 94.9255 89.6637 94.5598 89.5368 94.1831C88.7483 94.1831 87.9598 94.1831 87.1475 94.1831C87.012 93.7078 86.8765 93.2324 86.7368 92.7427C86.4781 92.243 86.2194 91.7433 85.9529 91.2285C84.547 90.822 84.547 90.822 82.9663 90.6375C81.0587 89.649 79.6894 88.5886 78.1877 87.092C77.432 86.4479 76.6726 85.808 75.9104 85.1714C73.9168 83.4643 72.2068 81.6684 70.5579 79.6361C69.8421 78.7356 69.8421 78.7356 68.6306 78.228C68.6306 77.643 68.6306 77.058 68.6306 76.4553C67.7574 76.5903 66.8867 76.7411 66.0173 76.8985C65.5323 76.9807 65.0472 77.063 64.5474 77.1478C63.1796 77.5152 63.1796 77.5152 62.6108 78.6943C62.4291 79.1255 62.2473 79.5566 62.0601 80.0008C61.4109 80.9279 60.7373 81.8385 60.0442 82.7339C59.6946 83.1924 59.345 83.651 58.9849 84.1235C57.8174 85.3856 57.1258 85.9692 55.4896 86.501C53.6627 86.5495 53.6627 86.5495 51.6444 86.3902C50.9799 86.3453 50.3154 86.3004 49.6308 86.254C46.2256 85.6397 43.9276 83.789 41.7513 81.1827C39.6775 76.7008 39.6775 76.7008 40.5567 74.0916C41.889 73.6137 41.889 73.6137 43.6552 73.2421C46.5706 72.5869 49.441 71.8704 52.3164 71.063C53.0209 70.8665 53.7254 70.67 54.4513 70.4675C56.019 70.113 56.019 70.113 56.6843 69.3641C54.3189 68.1941 51.9535 67.0241 49.5164 65.8186C49.7135 64.8435 49.9107 63.8685 50.1137 62.8639C50.7051 62.8639 51.2964 62.8639 51.9057 62.8639C51.9057 62.4739 51.9057 62.0839 51.9057 61.6821C50.4273 61.3896 50.4273 61.3896 48.9191 61.0911C48.722 60.5061 48.5249 59.9211 48.3218 59.3184C48.9131 59.3184 49.5045 59.3184 50.1137 59.3184C50.3109 58.7333 50.508 58.1483 50.7111 57.5456C52.288 58.1306 53.8649 58.7156 55.4896 59.3184C55.0954 58.7333 54.7012 58.1483 54.295 57.5456C54.2203 55.662 54.2203 55.662 54.295 54Z" fill="#262626"/>
</svg>
