<svg width="160" height="160" viewBox="0 0 160 160" fill="none" xmlns="http://www.w3.org/2000/svg">
<path d="M82.049 109.974C74.6001 111.414 67.339 113.918 59.8275 114.92C56.6978 115.358 53.5054 116.234 50 115.295C51.0015 114.168 52.1283 113.542 53.1924 113.542C62.3314 113.48 70.4688 109.912 78.6689 106.532C81.6109 105.342 84.4277 104.09 86.5559 101.524C87.9331 99.7714 87.6201 98.9576 85.6796 98.4568C81.8613 97.3927 78.1681 95.5148 73.9116 96.7667C72.3467 97.2049 70.594 96.0782 68.7787 96.3286C70.4688 94.8888 72.9727 95.7026 74.7253 94.2003C72.9101 92.1972 70.4688 93.6369 68.4032 92.8858C71.0322 90.3819 74.0994 91.7591 76.7284 92.1972C81.0475 93.011 85.1162 92.1346 89.2476 91.4461C91.7514 91.0705 91.188 88.5667 91.188 87.2522C91.3758 76.9865 89.3102 67.1589 85.1788 57.7696C83.3636 53.6382 80.5467 50.0077 79.1696 45C81.4231 47.1909 82.988 49.1939 84.3651 51.3848C90.4995 61.0871 96.8217 70.6643 100.452 81.7437C101.266 84.185 101.266 86.6262 101.203 89.0675C101.203 90.6323 101.516 91.6965 103.081 92.2598C106.023 93.3865 108.089 95.64 110.029 97.9561C105.585 98.9576 101.454 101.148 96.7591 101.148C96.3835 101.148 95.8827 101.461 95.5697 101.774C91.814 105.718 86.8689 107.784 82.049 109.974Z" fill="#262626"/>
</svg>
