<svg width="160" height="160" viewBox="0 0 160 160" fill="none" xmlns="http://www.w3.org/2000/svg">
<path fill-rule="evenodd" clip-rule="evenodd" d="M99.1176 61C99.1705 62.5071 98.8072 63.5082 97.9739 64.7582C97.9101 65.0833 97.8542 65.4102 97.8105 65.7386H98.1373V65.4118C98.3958 65.1813 98.3958 65.1813 98.7602 64.9114C99.5319 64.3335 100.259 63.7139 100.984 63.0789C101.45 62.7676 101.674 62.7333 102.222 62.7974C101.31 64.5312 101.31 64.5312 100.803 65.2177C100.414 65.714 100.41 65.7197 100.197 66.2607C100.981 65.8687 101.765 65.4769 102.549 65.085C102.717 64.9924 102.717 64.9923 102.887 64.8978C103.313 64.7093 103.581 64.7997 104.02 64.9216C103.862 65.0363 103.837 65.0545 103.72 65.1402C103.758 65.1245 103.803 65.1064 103.856 65.085C103.631 65.7821 103.316 66.1605 102.784 66.6577C102.214 67.1774 102.214 67.1774 101.895 67.8627L102.409 67.7555C102.632 67.7095 102.856 67.6636 103.08 67.6176L103.418 67.5468C103.962 67.4359 104.442 67.3725 105 67.3725C104.922 68.0712 104.517 68.38 104.02 68.8431L103.366 69.4967L104.837 69.6601C104.764 70.4844 104.41 70.8765 103.856 71.4575H103.529V71.7843L103.928 71.7741C104.346 71.7843 104.346 71.7843 104.51 71.9477C104.571 72.3971 104.571 72.3971 104.51 72.9281C104.122 73.3979 104.122 73.3979 103.693 73.7451H103.366V74.0719L104.02 74.2353L104.183 75.0523C103.243 75.7059 103.243 75.7059 102.876 75.7059V76.0327H103.203C103.154 76.6189 103.077 76.814 102.641 77.2275C102.222 77.5033 102.222 77.5033 101.895 77.5033L102.038 77.8403C102.062 78.405 101.98 78.4916 101.63 78.9126C101.217 79.3555 100.807 79.6813 100.261 79.9542L100.425 80.6078C99.5421 81.388 99.5421 81.388 98.9849 81.5984L98.6275 81.7516L98.556 82.0682C98.4641 82.4052 98.4641 82.4052 98.0147 82.6912C97.5115 82.8847 97.1969 82.9422 96.6667 82.8954L96.6156 83.2835C96.5033 83.7124 96.5033 83.7124 96.0131 84.0392C95.616 84.0094 95.3716 83.9355 95.1394 83.7751C95.1042 83.916 95.0688 84.058 95.0327 84.2026C94.8105 84.0638 94.5883 83.925 94.3644 83.785C94.3153 84.0305 94.2663 84.2766 94.2157 84.5294C93.19 84.7506 93.19 84.7506 92.5919 84.4579L92.2549 84.2026L91.9281 84.8562C91.3393 84.8973 91.0289 84.9065 90.5188 84.5907L90.1307 84.366C89.7807 84.5061 89.7807 84.5061 89.4771 84.6928C89.7296 86.9824 90.8742 88.2897 92.4183 89.9216C92.6411 90.1653 92.8626 90.4102 93.0821 90.6569L93.3534 90.9581C93.5621 91.2288 93.5621 91.2288 93.7255 91.719H94.0523C94.4812 92.107 94.4812 92.107 94.8693 92.5359V92.8627H95.1961C95.4552 93.1257 95.4552 93.1257 95.7476 93.4755C96.1464 93.9452 96.5484 94.3963 96.9935 94.8235L96.8301 95.3137L96.1765 94.8235L96.4216 95.1912C96.6667 95.6405 96.6667 95.6405 96.6667 96.2941L95.6863 95.9673L96.0131 96.9477C94.9395 96.9684 94.9395 96.9684 94.5221 96.8456C94.0793 96.757 93.7975 96.9228 93.3987 97.1111V96.7843H92.9085V97.9281H92.4183V98.4183C92.0915 98.4183 92.0915 98.4183 91.826 98.1732L91.6013 97.9281V98.2549H90.9477L90.7843 97.7647C90.4575 97.5672 90.4575 97.5672 90.1307 97.4379L89.9673 97.7647L89.1503 97.4379V97.1111H88.8235L88.9869 98.0915H88.4967L87.8431 96.7843H87.3529V97.1111H87.0261C86.5997 95.9554 86.3826 94.8359 86.2092 93.6185C86.0398 92.4385 85.8379 91.2985 85.5048 90.1526C85.3959 89.7713 85.306 89.3892 85.2185 89.0025L85.0654 88.451L84.7386 88.2876C84.6447 87.8466 84.5752 87.4317 84.5752 86.9804C84.4153 86.8136 84.2517 86.6502 84.085 86.4902L83.9216 86.1634C83.7557 86.8337 83.7557 86.8337 83.9216 87.4706C83.5146 87.5829 83.2061 87.634 82.7778 87.634C82.0969 87.6821 82.0969 87.6821 81.5523 88.0425C81.1798 88.4149 80.8409 88.4195 80.3268 88.451C79.9387 88.2978 79.9387 88.2978 79.6732 88.1242L79.4179 88.3693C78.8878 88.6955 78.4866 88.6496 77.8758 88.6144L77.7124 88.1242L77.3448 88.2876C76.8954 88.451 76.8954 88.451 76.2418 88.451V88.1242L75.9457 88.2876C75.5882 88.451 75.5882 88.451 75.098 88.451V87.634L74.6283 87.8791C73.87 88.2108 73.1333 88.1684 72.3203 88.1242V87.634L72.0241 87.8791C71.2609 88.2382 70.536 88.1634 69.7059 88.1242L69.5425 86.9804L69.0523 87.3072C68.3471 87.4189 67.7659 87.4212 67.1528 87.0417C66.9281 86.6536 66.9281 86.6536 66.969 86.1225L67.0915 85.6732L66.8107 85.8347C66.405 86.0146 66.1431 86.0389 65.7026 86.0306L65.3299 86.0274C64.9739 86.0005 64.6565 85.934 64.3137 85.8366V84.6928L61.6993 84.5294L61.5359 84.0392C61.8012 83.76 62.0741 83.4878 62.3529 83.2222H62.6797L62.5163 82.732H59.085L59.2484 81.915L59.6001 81.8308L60.0551 81.7108L60.509 81.5959C60.9136 81.463 60.9136 81.463 61.0158 81.0802L61.0458 80.7712L60.6679 80.6998C60.2288 80.6078 60.2288 80.6078 59.7386 80.4444V80.1176H60.0654V79.6275L59.7481 79.5732C58.8663 79.4115 58.1035 79.1953 57.2876 78.8105C57.0801 78.7249 56.8725 78.6398 56.6646 78.5551C56.1035 78.3021 55.8892 78.1765 55.6638 77.6054C55.4916 77.1798 55.2754 76.8859 55 76.5229V76.1961C55.7164 76.278 56.1111 76.5201 56.634 77.0131V77.3399H56.9608V77.0131C57.546 77.2832 58.0594 77.6365 58.5948 77.9935C58.8103 78.1069 59.0272 78.2182 59.2484 78.3203V78.8105C60.2067 79.1408 61.0678 79.188 62.0772 79.1781L62.5503 79.1762C64.0233 79.1586 65.4701 79.0121 66.9281 78.8105L65.7843 78.1569V77.8301C66.7239 77.973 66.7239 77.973 67.0915 78.1569C68.8165 78.3066 70.865 78.3531 72.4837 77.6667L72.6471 77.1765L72.9636 77.1356C73.7739 76.9372 74.517 76.5683 75.2614 76.1961C75.2427 75.9372 75.2218 75.6785 75.2002 75.4199L75.1657 74.9834C75.0978 74.5607 74.9684 74.2837 74.7712 73.9085C74.7508 73.4592 74.7508 73.4592 74.7712 73.0915H74.281L73.3824 71.2941L71.3399 70.3137C71.3399 70.3137 71.3397 70.098 71.3397 69.9869L71.3399 69.9868C71.4207 69.8251 71.4208 69.8251 71.5033 69.6601C71.8985 69.5367 72.2861 69.4302 72.6879 69.3333C73.5484 69.1247 73.5484 69.1247 74.3806 68.8259C74.8547 68.6485 75.2464 68.6306 75.7516 68.6287L76.252 68.6204C76.8009 68.6883 77.0938 68.8645 77.549 69.1699L78.1107 69.4048C79.3915 69.9666 80.2778 70.7373 80.9772 71.9424C81.0327 71.9442 81.0883 71.9459 81.1438 71.9477C81.634 72.1111 81.634 72.1111 81.7974 72.4379L82.2876 72.6013V72.9281C85.0507 72.9539 85.0507 72.9539 87.6797 72.2745C88.008 71.8637 88.0903 71.4799 88.1699 70.9673C88.2632 70.5771 88.3719 70.2058 88.4967 69.8235L88.9869 69.6601C89.6405 70.5588 89.6405 70.5588 89.6405 71.2941C90.8991 70.3349 91.8114 69.1238 92.7451 67.8627L93.0125 67.5104C94.0152 66.0681 94.4107 64.1342 94.7429 62.4387C94.8795 61.9435 95.0652 61.5831 95.3595 61.1634L95.6863 61L96.1765 61.1634C96.1854 61.6298 96.1918 62.096 96.1969 62.5625L96.2052 62.9586C96.212 63.7884 96.1177 64.4621 95.8497 65.2484C96.409 64.437 96.9277 63.615 97.4122 62.7565C97.8107 62.0652 98.1665 61.4995 98.7909 61H99.1176ZM99.9346 66.6261C99.8995 66.6612 99.8639 66.6919 99.8273 66.7191C99.8617 66.719 99.8974 66.719 99.9346 66.719V66.6261Z" fill="#262626"/>
</svg>
