<svg width="160" height="160" viewBox="0 0 160 160" fill="none" xmlns="http://www.w3.org/2000/svg">
<path d="M141.619 50.0018C141.753 50.0019 141.888 50.0021 142.027 50.0023C142.381 50.0252 142.381 50.0252 142.923 50.2059C143.243 50.2375 143.563 50.2632 143.883 50.2849C144.646 50.3488 145.271 50.4916 145.994 50.7478C146.5 50.85 147.006 50.939 147.514 51.0251C147.917 51.0975 148.309 51.1849 148.704 51.2898V51.8317L149.133 51.8994C149.607 52.0123 149.607 52.0124 149.968 52.3736C150.342 52.4897 150.342 52.4897 150.691 52.5543V52.9156C151.52 53.1606 151.52 53.1606 152.362 53.3559C152.77 53.487 152.953 53.6684 153.22 53.9995L153.401 54.5414H153.762V56.5285L151.956 56.3479L152.136 57.793H152.498C152.791 58.0639 152.791 58.064 153.039 58.335C152.949 58.6708 152.949 58.6709 152.678 59.0576C152.186 59.2293 151.738 59.3562 151.233 59.464L150.829 59.5586C149.951 59.7605 149.873 59.778 149.534 59.7796C149.589 60.0076 149.669 60.2051 149.777 60.4038C150.182 60.706 150.308 61.0608 150.51 61.5866C150.52 61.765 150.527 61.8912 150.531 61.9924C150.547 62.1555 150.545 62.331 150.526 62.5311L150.51 62.6705L150.349 62.689C150.058 62.7213 149.971 62.7206 149.607 62.6873V63.0318H149.065V63.3931C148.55 63.4798 148.034 63.5664 147.518 63.6528L147.081 63.7265C146.829 63.7686 146.578 63.8095 146.327 63.8495C146.289 63.8558 146.25 63.8625 146.208 63.8694C146.078 63.8911 145.948 63.9127 145.814 63.935L144.73 64.1157C144.732 64.0959 144.735 64.0761 144.737 64.0562C144.646 64.0682 144.59 64.0867 144.539 64.1219C144.493 64.1715 144.437 64.2275 144.368 64.2963C144.204 64.3042 144.096 64.3091 144.008 64.3115C144.05 64.8205 144.083 65.2412 144.007 65.7415C143.596 66.165 143.324 66.278 142.735 66.2926C142.478 66.2715 142.391 66.2641 142.161 66.2155C142.231 66.2348 142.304 66.2576 142.381 66.2834C141.559 66.5752 140.732 66.8474 139.886 67.0625L139.499 67.162C139.04 67.1927 138.412 67.3659 138.407 67.3673C138.407 67.3673 138.339 67.9544 138.226 68.4512L137.685 68.6319V68.9932L136.781 69.1738C135.727 69.5876 134.766 69.786 133.634 69.8406C133.16 69.8766 133.159 69.8766 132.714 70.082C132.23 70.2715 131.877 70.2871 131.362 70.2577C131.358 70.2199 131.354 70.1828 131.35 70.1464C131.333 70.3154 131.29 70.4021 131.181 70.619C130.671 70.7406 130.198 70.8273 129.734 70.8023C129.544 71.0705 129.543 71.0716 129.194 71.3416C128.562 71.3754 128.562 71.3754 127.93 71.3416C127.373 71.3147 127.373 71.3148 126.811 71.5208C126.073 71.7162 125.451 71.7389 124.689 71.7254L124.315 71.7205C124.014 71.7163 123.714 71.7098 123.413 71.7029C123.562 71.6446 123.58 71.6375 123.699 71.5908C123.486 71.6224 123.274 71.6506 123.06 71.6697C122.628 71.7085 122.211 71.7909 121.788 71.8835V72.2448C120.572 72.4652 119.363 72.4652 118.129 72.4706L117.482 72.4819L116.862 72.4847L116.299 72.4898C115.743 72.4141 115.658 72.274 115.284 71.8835C114.875 71.8013 114.875 71.8013 114.419 71.8101L113.903 71.7981L113.365 71.7932C110.351 71.7649 110.351 71.7648 109.257 70.7742C108.495 70.2366 107.671 70.3305 106.76 70.3028C105.225 70.2202 104.323 70.086 103.216 68.9501C102.579 68.4382 101.93 68.501 101.139 68.4858C100.245 68.4223 99.7432 67.8868 99.1051 67.3109C98.6904 66.9577 98.6903 66.9577 98.2019 67.0286C97.7612 67.176 97.7611 67.1761 97.3664 67.3899L97.039 67.548L96.6777 67.3673L96.3164 68.9932L95.5938 69.1738L95.7744 69.8964L95.0518 70.077V70.619H94.5099L94.3293 71.7029H93.7873L93.6067 72.4254H93.968V72.7867H93.6067L93.426 73.5093H93.0647V74.2319C92.8276 74.548 92.8276 74.5481 92.5228 74.7739H92.1712C92.1742 74.7987 92.1771 74.825 92.1805 74.8529C92.1778 74.9199 92.1729 74.9811 92.1664 75.0378C92.1653 75.0477 92.164 75.0574 92.1627 75.0671C92.1595 75.0915 92.1561 75.1152 92.1521 75.138C92.1502 75.1491 92.1477 75.1599 92.1456 75.1706C92.1423 75.1875 92.139 75.204 92.1352 75.22C92.1335 75.227 92.1315 75.2338 92.1297 75.2406C92.1251 75.2586 92.1202 75.2762 92.1149 75.2932C92.1089 75.3124 92.1026 75.3311 92.0957 75.3493C92.0942 75.3534 92.0927 75.3575 92.0911 75.3615C92.0869 75.3721 92.082 75.3824 92.0775 75.3927C92.0728 75.4035 92.0685 75.4144 92.0634 75.425C92.0581 75.436 92.0523 75.4466 92.0466 75.4573C92.041 75.468 92.0354 75.4788 92.0294 75.4894C92.0251 75.4968 92.0204 75.5041 92.0159 75.5114C92.0083 75.5241 92.0006 75.5368 91.9923 75.5492C91.9872 75.5569 91.9818 75.5645 91.9764 75.5721C91.9684 75.5836 91.9602 75.5952 91.9516 75.6067C91.9437 75.6171 91.9355 75.6273 91.9272 75.6377C91.9211 75.6455 91.9152 75.6535 91.9089 75.6612C91.8999 75.6721 91.8905 75.683 91.881 75.694C91.8723 75.7041 91.8636 75.7145 91.8545 75.7247C91.8475 75.7327 91.8402 75.7406 91.8328 75.7487C91.8225 75.7601 91.8118 75.7716 91.8009 75.7833C91.7926 75.7922 91.7841 75.8012 91.7755 75.8103C91.7636 75.8228 91.7513 75.8355 91.7388 75.8484C91.7128 75.8752 91.6855 75.9031 91.6568 75.9322C91.6434 75.9458 91.6298 75.9598 91.6158 75.974L91.5857 76.0045C90.8962 76.7443 90.1219 77.5808 89.9133 78.5985L89.8131 78.9287L89.2711 79.1094C88.9486 79.6072 88.8695 80.0145 88.8421 80.5997C88.8254 80.7941 88.8024 80.9664 88.7689 81.1277C88.6962 81.4871 88.5757 81.8006 88.3679 82.1691C88.21 82.4523 88.1007 82.7342 88.0241 83.0201C87.851 83.7577 87.8927 84.5388 88.0075 85.3131C88.2334 86.1054 88.4175 86.9362 88.5485 87.7804L88.9663 87.7579C89.4517 87.7804 89.4518 87.7805 89.9937 88.1417C90.429 88.1867 90.8662 88.2146 91.3034 88.232C92.0034 88.2602 92.6166 88.2971 93.2902 88.4931C93.6752 88.6014 94.0576 88.6854 94.4434 88.7556C95.1863 88.8283 95.9262 88.9389 96.6743 89.049C97.4023 89.1561 98.131 89.2599 98.8595 89.3632C99.0718 89.3934 99.0719 89.3934 99.2886 89.4242C99.5843 89.4659 99.8803 89.5051 100.176 89.5426C101.045 89.6487 101.915 89.746 102.788 89.8304C102.818 89.8333 102.848 89.8365 102.879 89.8393C102.939 89.8452 102.999 89.8513 103.059 89.8577C103.119 89.8641 103.178 89.8709 103.238 89.8778C103.476 89.9054 103.713 89.937 103.949 89.9725C104.185 90.008 104.419 90.0474 104.654 90.0906C104.771 90.1121 104.888 90.1347 105.006 90.1581C105.24 90.205 105.475 90.2555 105.71 90.3095C105.51 90.9088 105.282 91.1164 104.833 91.4311C104.768 91.4761 104.7 91.5233 104.626 91.574C104.506 91.6244 104.401 91.6684 104.308 91.7065C103.75 91.9352 103.616 91.95 103.222 91.8272C103.157 91.8067 103.084 91.7824 103 91.7547L102.82 92.2966C102.336 92.3998 101.913 92.49 101.54 92.5692C99.2974 93.044 98.8232 93.1181 97.6785 93.1725C97.4877 93.1816 97.2783 93.1901 97.039 93.1998V93.7418H97.4002L97.7608 94.3127C98.4911 95.4828 98.4703 95.6105 98.3035 96.6321C97.6795 97.0481 97.3923 97.0437 96.6551 97.0725C95.671 97.1362 94.654 97.2024 93.7873 97.716C93.6611 97.9539 93.5406 98.1949 93.426 98.4386C92.7677 98.8775 92.394 98.8291 91.6195 98.7999V98.4386H91.0776V98.7999H88.9098L88.9061 98.3643C88.9054 98.1525 88.9064 97.9423 88.9098 97.7329V97.1346C88.6838 97.8842 88.3041 98.5927 87.826 99.3418C87.3025 99.9315 86.8586 100.308 86.1437 100.629C85.7611 100.838 85.761 100.838 85.4776 101.148C85.1804 102.379 85.5456 103.735 85.8388 104.942H86.2001L86.3808 106.748H86.7421V107.29L87.6453 107.471L87.826 108.013C87.1293 108.053 86.6531 107.941 86.0195 107.652L86.7421 109.819L86.0195 109.458L85.6582 110C84.7794 109.617 84.2924 109.037 83.8517 108.194C83.714 107.547 83.7079 106.923 83.7162 106.263C83.7731 104.555 83.7731 104.555 82.9485 103.135L83.1291 102.774L82.4066 102.593C82.4066 102.593 82.4065 102.593 82.4066 102.592L82.1135 102.543C82.0903 102.68 82.0676 102.817 82.0453 102.955H81.5033C81.5732 103.749 81.6535 104.521 81.8646 105.292C82.057 106.002 82.1251 106.703 82.1815 107.435C82.2154 107.864 82.2154 107.864 82.4066 108.374H82.7678L82.5872 109.277H83.8517V109.458C82.3118 109.568 81.0939 109.649 79.8119 108.682C79.197 108.042 79.1068 107.465 79.0801 106.593L79.0589 105.983L79.042 105.348L79.0208 104.705C79.0038 104.182 78.9884 103.659 78.9743 103.135L78.3074 103.312C75.8793 103.914 73.2008 103.291 71.071 102.04C70.6925 101.807 70.3158 101.57 69.9419 101.329L69.4423 101.047C69.1198 100.839 69.0553 100.797 68.858 100.513V100.606C66.5245 100.797 64.141 100.954 61.8128 100.606L61.6322 100.245C62.2708 99.5865 62.9421 98.9825 63.6362 98.3829C63.9121 98.1381 64.1747 97.8784 64.4322 97.6144C65.0194 97.0419 65.665 96.5696 66.329 96.0902C66.4021 96.156 66.4687 96.2197 66.5301 96.2825C65.2059 92.4121 65.3003 88.6121 66.8741 84.7225C67.2259 83.8137 67.3737 82.9734 67.2322 81.9997C66.9824 81.5194 66.9824 81.5193 66.6903 81.0965C66.5837 80.5454 66.5837 80.5454 66.5209 79.9562C66.4032 79.0724 66.236 78.4013 65.7694 77.6423C65.6064 77.3029 65.6064 77.3029 65.5316 76.7843C65.4107 76.1388 65.1869 75.7495 64.8274 75.2029L64.502 74.6991C64.1785 74.2556 63.8379 73.8848 63.4386 73.5093L63.6193 73.148L64.5225 74.0513C64.3264 73.6101 64.1184 73.2762 63.8112 72.8996C63.4225 72.4049 63.1614 71.9106 62.8967 71.3416L63.9806 71.8835C63.6691 71.1958 63.3089 70.5294 62.8967 69.8982V70.077H62.5354L62.3547 70.619L61.8996 70.6599C61.3093 70.7313 60.7579 70.813 60.187 70.9803C59.7687 71.4989 59.7687 71.499 59.645 72.0642C59.3308 72.3784 58.8874 72.312 58.4595 72.3464L57.9056 72.3923L57.4773 72.4254V72.7867L57.0744 72.7945C55.9276 72.8348 55.9275 72.8349 54.9595 73.3964L54.5869 73.8706C54.127 74.247 53.6752 74.5157 53.1418 74.7739L52.5998 75.1351C52.221 75.1819 52.2209 75.1819 51.7883 75.1831L51.312 75.1845L50.8159 75.1803L50.3241 75.1845L49.4124 75.1819C48.9868 75.1352 48.9868 75.1352 48.5275 74.9146C48.381 74.8682 48.2346 74.8217 48.0836 74.7739C47.6935 74.9991 47.6935 74.9992 47.3469 75.3645C46.3886 76.1724 45.5617 76.2805 44.3352 76.3432C44.1426 76.3564 43.9499 76.3696 43.7515 76.3831C42.4971 76.4453 41.5201 76.3157 40.3469 75.8486C39.6172 75.6302 38.9716 75.6428 38.2158 75.6658C37.0062 75.6977 35.8465 75.6361 34.648 75.4626C34.4306 75.4351 34.4304 75.4352 34.2086 75.4072C33.4797 75.2917 33.1783 75.2308 32.6623 74.6722L32.3674 74.2319C31.8915 74.0731 31.8913 74.073 31.4641 74.0513L31.2835 74.5932C30.719 74.5984 30.1544 74.6017 29.5899 74.6045L29.103 74.6091L28.6373 74.6108C28.4244 74.6123 28.4243 74.6122 28.2072 74.6137C27.8512 74.5932 27.8511 74.5932 27.4899 74.4126C27.1039 73.8241 27.0895 73.3443 27.106 72.6513L27.1159 72.1121L27.1286 71.7029H26.406V72.0642C25.2931 72.3638 24.2223 72.4603 23.0753 72.4593L22.6932 72.4597C22.1371 72.4537 21.6986 72.4219 21.1673 72.2448V71.8835L20.8561 71.9026C19.8418 71.9381 19.1807 71.8031 18.2769 71.3416L18.0963 69.1738C17.0941 69.1121 17.094 69.1121 16.5156 69.3544C14.9577 69.8338 12.8569 69.5994 11.3552 69.0094C11.051 68.8125 11.051 68.8125 10.8591 68.3496C10.8733 67.5702 11.1394 67.1552 11.552 66.5086C11.796 66.0618 11.9087 65.7064 11.9543 65.1996L11.593 64.8383C11.2138 64.8444 10.8346 64.8507 10.4555 64.858C8.94466 64.7969 7.68637 64.3614 6.53485 63.3931C6.56872 62.8964 6.56873 62.8963 6.7155 62.3092C7.01227 62.0631 7.31315 61.8217 7.61873 61.5866V60.864L7.30895 60.7709L6.90744 60.6382L6.50733 60.5112C6.17356 60.3221 6.17355 60.3221 6.0035 59.9813C5.99291 59.5996 5.99292 59.5995 6.20743 59.2714C6.75247 58.7463 7.22262 58.3071 7.93487 58.0301C8.52835 57.8493 8.52846 57.8493 8.79294 57.4318C9.19432 56.8966 9.71701 56.7663 10.3284 56.5285L10.5091 56.3479C10.81 56.3405 11.1114 56.3402 11.4123 56.3479V55.9866L12.3156 55.6592L12.8653 55.4609C13.3071 55.298 13.7423 55.1249 14.1785 54.9479C14.814 54.7324 15.2648 54.6723 15.9285 54.722V54.3608C16.9583 53.9418 17.9815 53.8766 19.0785 53.7962C19.3849 53.7734 19.385 53.7735 19.6976 53.7502C29.9499 53.0618 29.95 53.0617 31.8254 53.9995C32.0852 54.0471 32.3464 54.0871 32.608 54.1229C32.7659 54.1449 32.9238 54.167 33.0864 54.1896C33.2552 54.2126 33.4241 54.2355 33.598 54.2591C33.9468 54.308 34.2957 54.3569 34.6445 54.4059C35.1869 54.4814 35.7293 54.5567 36.2717 54.6317C37.4408 54.8015 38.5953 55.0227 39.7513 55.264C39.8953 55.294 40.0394 55.3241 40.1878 55.355C40.799 55.4855 41.392 55.6229 41.9889 55.8102C42.7748 56.0154 43.5482 56.1062 44.3537 56.2018C47.3156 56.5603 50.0006 57.3282 52.7642 58.4359C54.7789 59.2013 56.8043 59.2539 58.939 59.3825C61.358 59.5503 61.3581 59.5502 62.1812 59.9665C62.5865 60.1667 62.8992 60.201 63.3483 60.2318C63.9487 60.2729 64.3759 60.3499 64.8838 60.6834C65.2183 61.0948 65.2183 61.0948 65.5386 61.5753L65.8618 62.0545L66.1483 62.4899L66.5096 63.0318V63.5737H66.8709C67.1179 63.9244 67.1179 63.9245 67.3903 64.3979L67.6782 64.8968L67.9548 65.3802L68.1863 65.7563C68.5559 66.3623 68.6774 66.6363 68.6774 67.3673H69.0387L69.4 68.9932H69.7613L69.8968 69.5125L70.1226 70.077L70.4803 70.2217C70.8451 70.4383 70.8452 70.4384 71.0152 70.9556L71.1274 71.5787C71.28 72.41 71.4848 72.975 71.929 73.69V74.2319H72.2903L72.4357 74.5812L72.629 75.0335L72.8196 75.4844C72.9812 75.8862 72.9812 75.8862 73.3742 76.0384V76.761H72.6516L72.8323 77.6642L72.471 77.8449L72.2903 78.2061L72.471 78.3868V78.7481L72.8323 78.9287L73.0129 79.1094V78.5674H73.9161C73.9499 78.6688 73.9837 78.7701 74.0178 78.8725C74.7249 78.6106 74.9863 78.6938 75.7226 78.9287L76.2646 79.29C76.9128 79.3732 77.5648 79.3569 78.2178 79.3578L78.7573 79.3712C80.0646 79.3764 80.7207 79.1225 81.6938 78.2252L82.0227 77.8787C82.506 77.3787 82.9993 76.9213 83.5356 76.4787C85.0484 75.1609 85.4793 73.2085 85.9292 71.319C86.4518 69.1931 87.4752 67.3534 88.506 65.4372C88.7106 65.0538 88.9108 64.6683 89.1088 64.2815L89.4405 63.6415L89.7277 63.0812C89.9937 62.6706 89.9937 62.6705 90.5357 62.4899L90.7163 61.9479C90.8748 61.8816 91.0356 61.8177 91.1979 61.7586C91.1579 61.7615 91.1178 61.7644 91.0776 61.7673V61.406H91.6195V60.6834L91.9808 60.5027V60.1415C94.0808 59.3687 96.0693 58.6531 98.3374 58.7189C100.457 58.7309 102.412 57.9417 104.355 57.1721C105.995 56.5279 107.63 55.9354 109.323 55.4446C109.455 55.4058 109.588 55.3669 109.724 55.327C110.359 55.1537 110.962 55.0667 111.615 55.0269C112.552 54.9437 113.313 54.6326 114.179 54.2782C115.163 53.8938 116.179 53.6071 117.192 53.3107C117.384 53.254 117.575 53.1972 117.772 53.1387C117.954 53.0863 118.135 53.0339 118.322 52.9798C118.485 52.9326 118.648 52.8854 118.816 52.8367C119.258 52.735 119.259 52.7349 119.981 52.7349V52.193H120.523C120.507 52.077 120.492 51.9611 120.476 51.8426L124.415 51.0546C124.383 51.1917 124.35 51.3298 124.317 51.4704C128.179 50.9959 128.179 50.9959 132.008 50.3167C133.444 50.0593 134.873 49.998 136.329 50.0012C136.501 50.0011 136.674 50.0009 136.852 50.0007C137.213 50.0006 137.574 50.0008 137.935 50.0016C138.489 50.0026 139.043 50.0017 139.596 50.0005C139.949 50.0006 140.301 50.0009 140.653 50.0012C140.901 50.0007 140.901 50.0006 141.154 50C141.308 50.0006 141.461 50.0012 141.619 50.0018Z" fill="#262626"/>
</svg>
