<svg width="160" height="160" viewBox="0 0 160 160" fill="none" xmlns="http://www.w3.org/2000/svg">
<path d="M103.806 72.3247C103.695 69.0116 103.962 65.702 102.809 62.5212C102.163 60.7172 101.945 58.7752 102.109 56.4583C103.184 57.7932 103.409 59.0728 103.587 60.3046C104.291 65.9417 105.28 71.5814 105.463 77.2609C105.645 83.1296 104.74 88.799 102.985 94.3658C102.741 95.2152 102.545 95.8757 103.294 96.7344C105.587 99.4528 105.279 102.1 102.655 104.393C102.035 104.955 101.613 104.526 101.381 104.003C100.408 101.77 98.239 100.993 96.297 101.211C91.3245 101.685 86.4564 101.119 81.5387 100.79C72.0814 100.181 62.6343 98.4841 52.5986 99.0055C55.3519 98.0376 60.939 97.6166 63.4456 97.7346C65.6683 97.85 67.8911 97.9654 70.1151 97.9388C76.5507 97.8569 82.9465 96.9703 89.4219 97.6932C93.2501 98.1547 97.1844 97.3871 100.843 95.7652C101.413 95.4867 101.371 94.9658 101.469 94.5409C102.408 90.2913 103.535 86.0908 103.577 81.6436C103.558 78.5679 104.155 75.498 103.806 72.3247Z" fill="#262626"/>
</svg>
