<svg width="160" height="160" viewBox="0 0 160 160" fill="none" xmlns="http://www.w3.org/2000/svg">
<path d="M54.6124 52.025C53.876 51.0143 50.8639 51.6746 52.4599 49C54.2495 49.3945 55.9895 49.7255 57.9058 49.5612C59.2424 49.4398 60.8477 49.4668 62.0016 50.8165C63.0068 51.9755 64.3988 50.4821 65.7286 50.877C67.6598 51.519 69.7682 52.5851 71.4587 52.8524C74.9668 53.2879 77.5992 55.2234 80.6199 56.3453C86.7179 58.5962 91.7916 62.1562 94.7174 68.2074C95.1709 69.183 95.6021 68.9492 96.3798 68.701C98.3594 68.0275 100.616 68.3651 102.425 66.7511C101.175 68.9516 102.04 71.7019 99.9835 73.4575C99.2768 74.0592 99.9 75.0558 100.622 75.72C103.892 78.539 105.592 81.9675 105.956 86.4367C106.413 91.5494 107.393 96.6122 107.433 101.845C107.449 104.49 106.907 107.008 106.704 109.569C106.641 110.078 106.832 110.849 105.864 110.786C105.178 110.758 104.492 110.73 104.25 109.896C104.101 109.246 103.839 108.581 103.86 107.952C104.138 102.011 101.297 96.6598 100.514 90.9321C99.8312 85.7913 96.6466 83.2126 92.3667 81.5897C90.3363 80.8205 88.1589 81.6993 86.0236 82.2386C81.8166 83.2676 78.7003 86.1556 75.0458 88.2874C74.7336 87.0995 75.8934 87.0137 76.1474 86.3558C76.7554 86.0865 77.1511 85.676 77.0371 84.7426C76.6485 85.0965 76.2598 85.4505 75.8711 85.8044C74.146 86.2797 73.0514 88.1547 70.6753 88.3194C73.4873 85.1063 77.0289 83.4201 80.1742 81.2252C86.09 77.0759 86.6187 75.1307 83.3807 67.8916C83.2886 67.7078 83.2035 67.4675 83.0549 67.2766L83.0478 67.3332C83.0611 66.3007 82.4383 65.7637 81.7024 65.2127L81.6528 65.1491C81.4971 65.0149 81.398 64.8877 81.2423 64.7535C80.9309 64.485 80.6195 64.2165 80.3647 63.955C80.216 63.7642 80.0673 63.5734 79.855 63.4322C79.6993 63.2979 79.5507 63.1071 79.4515 62.9799C78.9915 62.5206 78.5244 62.1179 78.0643 61.6586C77.9086 61.5243 77.7529 61.3901 77.5972 61.2559C77.4345 61.1782 77.2718 61.1006 77.109 61.0229C76.9534 60.8887 76.7977 60.7544 76.642 60.6202C76.5428 60.493 76.3801 60.4153 76.2104 60.3943C76.0547 60.26 75.899 60.1258 75.6867 59.9845C75.524 59.9069 75.3612 59.8292 75.2481 59.8151C75.0499 59.5607 74.8727 59.1365 74.4274 59.4835L74.5266 59.6107L74.477 59.5471C74.3213 59.4128 74.1586 59.3352 74.0595 59.208C73.8542 59.0101 73.5853 58.8618 73.3801 58.664C73.0476 58.5653 72.7152 58.4665 72.4393 58.3748C71.3072 57.7747 70.1682 57.2311 69.0927 56.6379C68.5339 56.5111 67.9751 56.3843 67.4234 56.2009C67.1545 56.0526 66.9422 55.9113 66.6733 55.763C66.3409 55.6643 66.0084 55.5656 65.7325 55.4739C63.4185 53.7502 60.5613 53.6254 57.8734 53.0619C57.3642 52.9986 56.9186 52.8859 56.4093 52.8227C56.3879 52.5327 56.2392 52.3419 55.9493 52.3634C55.5672 52.201 55.1146 52.1448 54.6124 52.025Z" fill="#262626"/>
</svg>
