<svg width="160" height="160" viewBox="0 0 160 160" fill="none" xmlns="http://www.w3.org/2000/svg">
<path d="M75.5486 64.9385C75.5486 64.5256 75.5486 64.1127 75.5486 63.6998C75.6862 63.2869 75.3422 63.1493 75.0669 63.0805C74.5852 56.7492 72.7271 50.762 70.6625 44.8437C69.0109 40.0952 66.3958 35.7597 63.8495 31.3553C62.4732 28.9467 62.0603 26.0564 60.6151 23.6477C60.3398 23.2348 59.7204 21.8585 60.8904 21.2391C61.9226 20.6886 62.8861 21.1703 63.6431 21.8585C67.0152 24.8865 70.5937 27.8456 73.0712 31.6306C78.3701 39.6135 84.2197 47.1835 89.6563 55.0976C91.5832 57.9191 91.7897 60.3278 92.0649 63.2869C92.409 66.5214 93.2349 69.7558 93.923 72.9215C94.1295 73.8161 94.7489 74.4355 95.8499 74.4355C97.9145 74.5043 99.979 74.7107 100.805 77.1882C100.942 77.5323 101.975 77.5323 102.663 77.7387C99.4973 80.4915 97.0887 84.2076 99.5661 89.0937C103.351 96.4572 102.456 104.509 100.942 112.217C99.4285 119.787 97.0198 127.219 94.9553 134.72C94.7489 135.477 94.4048 136.234 93.9919 136.922C93.6478 137.542 93.6478 138.78 92.5467 138.436C91.7209 138.161 91.0327 137.542 91.1703 136.372C91.9273 128.251 89.7251 120.406 88.3488 112.561C87.7294 108.913 87.4541 105.128 87.7982 101.412C88.1423 97.5583 86.4219 94.7368 84.5638 91.7776C83.9444 90.7453 83.1874 89.7819 82.4992 88.8184C80.9164 86.8915 77.4067 86.7539 76.0303 88.612C73.5529 91.9152 70.6625 94.8744 67.6345 97.6271C67.3593 97.7648 67.1528 97.9712 66.8775 98.1089C66.6711 98.1089 66.5334 98.1089 66.3958 98.2465C65.9829 98.1777 65.6388 98.1089 65.2259 98.0401C65.2259 97.0766 65.2259 96.1131 65.2259 95.1497C65.3635 94.9432 65.57 94.8056 65.7076 94.5992C65.5012 94.5303 65.3635 94.4615 65.1571 94.3927C65.0194 92.3282 64.1248 90.4701 63.5743 88.612C62.8173 85.6528 61.2344 85.2399 58.8258 85.2399C58.4129 85.2399 58.0688 85.1023 58 84.4141C63.0925 82.6936 68.3915 82.0743 73.8282 82.2119C77.4755 82.3495 78.0261 81.5237 77.8884 77.9452C77.7508 74.5731 76.3744 71.5451 75.6862 68.3795C75.6862 67.416 75.411 66.2461 75.5486 64.9385Z" fill="#262626"/>
</svg>
