<svg width="160" height="160" viewBox="0 0 160 160" fill="none" xmlns="http://www.w3.org/2000/svg">
<rect width="160" height="160" fill="#087BFF"/>
<path d="M21 40C24.8584 40.3928 28.6335 40.9183 32.4385 41.6613C32.9443 41.7579 33.45 41.8546 33.9711 41.9542C35.5728 42.2607 37.1739 42.5703 38.775 42.8802C40.3506 43.1836 41.9264 43.4864 43.5023 43.7884C44.5468 43.9885 45.5911 44.1894 46.6353 44.3909C49.7014 44.9789 52.7717 45.5229 55.8508 46.0378C60.102 46.7538 64.1887 47.5359 68.1943 49.1755C68.6131 49.3329 69.0319 49.4904 69.4634 49.6526C73.2829 51.1434 76.2318 52.4245 78.167 56.1549C78.5135 57.0482 78.851 57.945 79.1802 58.8448C81.148 63.7585 83.5175 68.6511 88.006 71.7517C90.0975 72.4771 92.0733 72.4731 94.2807 72.5464C99.0827 72.7783 102.498 73.2842 105.925 76.8667C107.636 77.6503 107.636 77.6503 109.217 78.1833C109.217 78.4006 109.217 78.6178 109.217 78.8417C107.261 79.2762 105.306 79.7107 103.292 80.1583C107.533 81.5061 111.738 82.7883 116.088 83.738C119.301 84.5456 121.533 85.5077 123.7 88.0583C124.151 88.5862 124.601 89.114 125.066 89.6579C129.225 94.8694 132.138 100.45 134.892 106.492C135.234 107.239 135.576 107.987 135.928 108.757C137.426 112.186 138.586 115.255 138.842 119C134.232 118.838 132.164 117.644 128.967 114.392C128.396 113.821 127.826 113.251 127.239 112.664C126.723 112.148 126.207 111.632 125.675 111.1C124.758 110.387 124.758 110.387 123.823 109.66C123.348 109.266 122.873 108.872 122.383 108.467C122.383 108.032 122.383 107.598 122.383 107.15C121.949 107.15 121.514 107.15 121.067 107.15C119.953 106.067 119.953 106.067 118.721 104.64C118.313 104.174 117.905 103.708 117.484 103.228C116.458 101.883 116.458 101.883 115.8 99.9083C114.614 99.1934 114.614 99.1934 113.167 98.5917C112.099 98.001 111.035 97.4047 109.973 96.8044C109.05 96.2895 109.05 96.2895 108.108 95.7642C106.83 95.0504 105.555 94.3322 104.282 93.6092C97.3173 89.5921 97.3173 89.5921 89.5747 89.2207C88.8058 89.5432 88.0369 89.8657 87.2448 90.1979C84.151 91.4096 81.3727 92.2293 78.0281 92.3786C74.3302 92.5476 71.659 93.6215 68.4 95.3C65.2163 96.8593 65.2163 96.8593 63.0613 96.1769C61.6593 95.5281 60.4161 94.916 59.1833 93.9833C58.9661 93.3316 58.7488 92.6798 58.525 92.0083C59.4543 91.5183 59.4543 91.5183 60.4023 91.0183C67.1806 87.7463 67.1806 87.7463 71.6917 82.1333C71.6034 80.0141 71.1199 78.1871 70.375 76.2083C69.9405 76.2083 69.506 76.2083 69.0583 76.2083C67.8272 74.7642 66.6657 73.3151 65.5198 71.8057C64.8838 70.9802 64.2478 70.1547 63.6117 69.3293C63.3081 68.9309 63.0045 68.5326 62.6917 68.1222C61.9057 67.1067 61.0889 66.1152 60.2686 65.1272C59.1833 63.7 59.1833 63.7 59.1833 62.3833C58.7488 62.3833 58.3143 62.3833 57.8667 62.3833C56.7969 61.4781 56.7969 61.4781 55.8917 60.4083C55.8917 59.9738 55.8917 59.5393 55.8917 59.0917C55.2399 58.8744 54.5882 58.6572 53.9167 58.4333C53.9167 57.9988 53.9167 57.5643 53.9167 57.1167C53.5093 56.913 53.102 56.7093 52.6823 56.4995C51.7771 56.0469 50.8719 55.5943 49.9667 55.1417C49.9667 54.7072 49.9667 54.2727 49.9667 53.825C49.1791 53.567 48.3916 53.309 47.5802 53.0432C46.4006 52.6457 45.2211 52.248 44.0417 51.85C43.3568 51.626 42.672 51.4019 41.9664 51.1711C37.5612 49.6775 33.3632 47.9695 29.188 45.925C28.7492 45.7144 28.3104 45.5038 27.8583 45.2868C25.0587 43.8764 23.1044 42.3266 21 40Z" fill="#262626"/>
</svg>
