<svg width="160" height="160" viewBox="0 0 160 160" fill="none" xmlns="http://www.w3.org/2000/svg">
<path d="M72.3447 152.021C71.6431 151.568 70.3119 148.232 69.4639 144.801C69.3839 144.477 69.1713 143.671 68.9914 143.009C68.8115 142.347 68.6643 141.662 68.6643 141.486C68.6643 141.31 68.6008 141.003 68.5231 140.805C68.4455 140.606 68.3016 139.95 68.2033 139.345C67.9719 137.922 67.7781 136.917 67.4912 135.656C67.2639 134.656 67.261 134.687 67.3502 137.226C67.5115 141.817 67.405 145.582 67.0907 146.406C67.0032 146.635 66.9315 146.974 66.9315 147.159C66.9315 147.658 65.9841 150.611 65.732 150.897C65.612 151.033 65.5138 151.22 65.5138 151.312C65.5138 151.577 65.0371 151.689 64.8267 151.473C64.4551 151.092 63.9847 149.906 63.4734 148.059C63.3658 147.67 63.2138 147.23 63.1356 147.08C63.0574 146.93 62.9935 146.655 62.9935 146.47C62.9935 146.284 62.9287 145.877 62.8496 145.565C62.7705 145.253 62.6253 144.609 62.5269 144.134C62.4285 143.659 62.2853 142.988 62.2087 142.642C62.0548 141.948 61.7807 140.433 61.655 139.581C61.5098 138.596 61.2706 136.836 61.2656 136.715C61.2629 136.651 61.2008 136.598 61.1276 136.598C61.0544 136.598 60.9902 137.477 60.9849 138.551C60.9796 139.626 60.932 140.575 60.879 140.66C60.8259 140.746 60.7095 141.156 60.6201 141.572C60.1775 143.633 59.8301 144.613 59.1 145.861C58.6159 146.688 57.9013 147.588 57.7281 147.588C57.3707 147.588 56.4492 144.903 56.2229 143.202C56.1244 142.463 56.0104 141.645 55.9695 141.386C55.8024 140.326 55.5799 138.115 55.4246 135.97C55.3339 134.718 55.2025 133.093 55.1324 132.359L55.0051 131.024L54.9672 132.123C54.9464 132.728 54.9328 133.572 54.9369 134C54.9411 134.428 54.8715 134.866 54.7823 134.973C54.693 135.08 54.6392 135.331 54.6626 135.53C54.7063 135.9 54.4097 137.369 54.1777 137.932C53.4088 139.798 52.2465 141.387 51.7261 141.282C51.1384 141.164 50.4462 139.355 50.054 136.912C49.6644 134.485 49.5871 133.686 49.4616 130.789C49.3887 129.105 49.3166 127.692 49.3013 127.649C49.286 127.605 49.0333 128.29 48.7398 129.17C48.1283 131.003 47.8039 131.574 47.374 131.574C46.601 131.574 45.4838 129.668 45.0271 127.57C44.7775 126.423 44.4649 123.431 44.5186 122.703C44.8088 118.773 45.3662 115.073 46.0509 112.529C46.1857 112.029 46.296 111.352 46.296 111.025C46.296 110.698 46.3432 110.384 46.4008 110.326C46.4584 110.269 46.5251 110.027 46.5489 109.79C46.6704 108.578 46.9716 106.814 47.098 106.573C47.1767 106.423 47.2412 106.057 47.2412 105.758C47.2412 105.46 47.3121 105.172 47.3987 105.119C47.4853 105.065 47.5562 104.814 47.5562 104.56C47.5562 104.306 47.611 104.098 47.6779 104.098C47.7449 104.098 47.8895 103.692 47.9994 103.196C48.1093 102.699 48.2769 101.94 48.3719 101.508C48.467 101.076 48.6472 100.488 48.7724 100.201C49.7919 97.8624 49.9657 97.1493 50.0228 95.0707C50.0537 93.9481 50.1515 92.5705 50.2403 92.0092C50.4756 90.5204 50.7199 89.3061 50.856 88.9476C50.9215 88.7749 51.0639 88.1391 51.1723 87.5346C51.2807 86.9302 51.433 86.2733 51.5106 86.075C51.5883 85.8766 51.6518 85.6117 51.6518 85.4864C51.6518 85.2919 52.4614 83.5302 53.0193 82.5106C53.1138 82.3379 53.3548 81.8221 53.5547 81.3645C53.8836 80.612 54.9422 79.4491 55.2984 79.4491C55.6424 79.4491 61.4182 73.9453 61.4182 73.6175C61.4182 73.5435 61.4755 73.483 61.5454 73.483C61.6972 73.483 62.6784 72.1245 62.6784 71.9144C62.6784 71.6302 60.4771 71.1886 57.6377 70.9033C55.5165 70.6901 53.4765 70.6107 49.289 70.5783C46.8198 70.5592 44.0198 70.4629 43.0668 70.3642C42.1138 70.2656 40.9442 70.1549 40.4677 70.1183C39.3468 70.0322 38.6831 69.9358 35.8207 69.4437C34.0108 69.1325 32.9234 69.0379 31.1738 69.0393C28.1892 69.0417 27.427 69.2013 25.7848 70.1681C25.0511 70.6 24.1383 71.0729 23.7561 71.219C23.374 71.3652 22.8133 71.6721 22.51 71.9011C21.7995 72.4376 20.1981 73.483 20.0867 73.483C20.0395 73.483 19.6971 73.6969 19.3258 73.9583C18.9545 74.2197 18.2254 74.7272 17.7056 75.0861C17.1858 75.445 16.2997 76.1019 15.7366 76.5458C15.1734 76.9898 14.5949 77.4184 14.451 77.4983C14.3071 77.5782 13.9461 77.8647 13.649 78.1349C13.3518 78.4052 12.9379 78.7158 12.7292 78.8251C12.5205 78.9344 12.2906 79.1241 12.2182 79.2465C12.1458 79.3689 11.9611 79.5176 11.8077 79.5768C11.5513 79.6759 11.121 80.0338 8.70539 82.1573C8.23881 82.5675 7.8045 82.9031 7.74025 82.9031C7.676 82.9031 7.28092 83.221 6.86229 83.6096C6.44366 83.9982 6.06187 84.3161 6.01387 84.3161C5.96587 84.3161 5.62518 84.581 5.25679 84.9049C4.64053 85.4466 4.13026 85.834 1.96639 87.4033C1.12987 88.01 0.161561 88.4702 0.0194897 88.3286C-0.0841234 88.2253 0.242219 87.5812 0.600152 87.1824C0.737911 87.0289 1.10853 86.5862 1.42375 86.1985C2.23612 85.1994 3.85361 83.419 6.28517 80.8474C6.67504 80.4351 7.31301 79.7525 7.70288 79.3305C8.09275 78.9085 9.09309 77.8264 9.92585 76.9258C10.7586 76.0253 11.6194 75.0766 11.8386 74.8175C12.0578 74.5585 12.617 73.9507 13.0811 73.4668C13.5453 72.983 14.1731 72.2797 14.4764 71.904C14.7796 71.5282 15.2581 70.9903 15.5396 70.7086C15.8212 70.4269 16.0516 70.1234 16.0516 70.0342C16.0516 69.945 16.1048 69.8714 16.1697 69.8707C16.2978 69.8694 16.6817 69.1203 16.6817 68.8718C16.6817 68.7878 16.7943 68.5951 16.932 68.4435C17.0696 68.2919 17.241 67.9331 17.3128 67.6462C17.5955 66.5162 18.0786 65.0181 18.3226 64.5144C19.0059 63.1041 21.5441 61.1865 23.5339 60.5773C25.4028 60.0052 25.8201 59.9464 27.5017 60.0184C28.8658 60.0768 29.5967 60.2076 31.1738 60.6756C32.2568 60.997 33.2102 61.3254 33.2925 61.4054C33.3748 61.4854 33.5377 61.5509 33.6545 61.5509C33.7713 61.5509 34.1604 61.6922 34.519 61.8649C34.8776 62.0376 35.2853 62.1789 35.425 62.1789C35.5647 62.1789 35.7463 62.2398 35.8286 62.3143C36.1331 62.5899 39.182 63.4203 40.8236 63.6748C42.6832 63.9632 44.2219 63.905 45.5755 63.4952C47.4283 62.9343 48.7818 62.4243 49.4465 62.0365C49.8364 61.8091 50.4232 61.4836 50.7506 61.3133C51.078 61.1429 51.6805 60.702 52.0896 60.3334C52.4986 59.9648 53.2759 59.3638 53.817 58.9978C54.358 58.6318 54.8011 58.2793 54.8015 58.2146C54.8019 58.1498 54.881 58.0968 54.9772 58.0968C55.2207 58.0968 56.6926 57.1311 56.6926 56.9714C56.6926 56.8996 56.7684 56.8408 56.8611 56.8408C56.9538 56.8408 57.3387 56.6289 57.7165 56.3698C58.0942 56.1108 58.4363 55.8988 58.4767 55.8988C58.6235 55.8988 61.656 53.9578 61.707 53.8311C61.7359 53.7594 61.8954 53.7008 62.0615 53.7008C62.2275 53.7008 62.3634 53.6462 62.3634 53.5795C62.3634 53.5128 62.6196 53.3207 62.9327 53.1526C63.2459 52.9845 63.8724 52.4392 64.325 51.9407C65.1819 50.9968 65.2987 50.6931 65.6707 48.4412C65.9128 46.9763 66.0066 42.7688 65.8284 41.3762C65.7399 40.6854 65.625 39.7316 65.573 39.2566C65.521 38.7817 65.4155 38.2741 65.3386 38.1287C65.2617 37.9833 65.1988 37.6872 65.1988 37.4707C65.1988 37.2543 65.1279 37.0335 65.0413 36.9801C64.9546 36.9267 64.8837 36.7239 64.8837 36.5293C64.8837 36.3348 64.742 35.8831 64.5687 35.5257C64.3954 35.1682 64.2537 34.8035 64.2537 34.7151C64.2537 34.6267 64.041 34.0917 63.7811 33.5261C63.5212 32.9605 63.3085 32.4288 63.3085 32.3446C63.3085 32.2604 63.2554 32.1905 63.1904 32.1891C63.1254 32.1878 62.895 31.8169 62.6784 31.365C62.1512 30.2649 61.7828 29.7977 60.9163 29.13C60.5181 28.8232 59.7497 27.6385 59.9489 27.6385C60.0041 27.6385 59.9304 27.5075 59.785 27.3473C59.5963 27.1395 59.529 26.8136 59.5501 26.2091C59.5785 25.3978 59.6585 25.1974 60.4133 24.0486C60.6339 23.7129 60.7535 23.2667 60.7656 22.7347C60.7756 22.2917 60.8399 21.8891 60.9084 21.8401C60.9769 21.7911 61.1563 21.3524 61.3071 20.8652C61.4578 20.3781 61.6862 19.8925 61.8147 19.7862C61.9432 19.68 62.0483 19.3897 62.0483 19.1412C62.0483 18.8927 62.1074 18.6894 62.1796 18.6894C62.2518 18.6894 62.3109 18.5948 62.3109 18.4791C62.3109 18.3633 62.4708 17.9218 62.6664 17.4978C62.8619 17.0738 63.0946 16.5503 63.1836 16.3344C63.4979 15.5714 64.1228 14.4611 64.7452 13.5594C64.9947 13.198 65.1988 12.8267 65.1988 12.7343C65.1988 12.642 65.2544 12.5664 65.3224 12.5664C65.3903 12.5664 65.57 12.357 65.7217 12.1011C65.8734 11.8452 66.0839 11.5449 66.1895 11.4338C66.2952 11.3227 66.7003 10.8433 67.0898 10.3683C67.4793 9.89342 67.9578 9.37577 68.1532 9.21802C68.3486 9.06028 68.5967 8.846 68.7045 8.74185C69.51 7.96385 70.4065 7.64747 70.6577 8.05254C70.832 8.33375 70.7453 11.026 70.5558 11.2149C70.4685 11.3019 70.3968 11.518 70.3964 11.695C70.396 11.872 70.2188 12.3644 70.0026 12.7892C69.7864 13.214 69.6094 13.6469 69.6094 13.7513C69.6094 13.8556 69.5031 14.0289 69.3732 14.1364C69.2432 14.2439 69.1369 14.4536 69.1369 14.6025C69.1369 14.9684 68.759 15.6867 68.275 16.2411C68.0559 16.492 67.8767 16.7485 67.8767 16.8112C67.8767 16.8739 67.6506 17.1455 67.3742 17.4148C66.9978 17.7816 66.9385 17.9044 67.1379 17.9044C67.2843 17.9044 67.4041 17.8423 67.4041 17.7665C67.4041 17.6906 67.6168 17.5407 67.8767 17.4334C68.1366 17.3261 68.3493 17.1915 68.3493 17.1342C68.3493 17.077 68.5442 16.9151 68.7824 16.7746C69.0207 16.6341 69.3928 16.3719 69.6094 16.1921C70.9736 15.0597 71.3513 14.7254 72.4649 13.6654C75.7078 10.5784 76.2493 10.2646 76.9856 11.0457C77.1739 11.2456 77.3281 11.524 77.3281 11.6645C77.3281 11.8049 77.3966 11.9621 77.4804 12.0137C77.718 12.16 77.5566 14.1752 77.2569 14.8048C76.893 15.5692 75.5395 16.8705 74.7458 17.2191C74.39 17.3754 74.0634 17.5406 74.0201 17.5862C73.8795 17.7343 72.5403 18.3354 71.8935 18.5407C71.052 18.8078 71.4215 18.9058 72.5124 18.7048C73.0719 18.6017 75.4757 18.5773 79.1777 18.6372C84.0379 18.7158 85.0121 18.7692 85.243 18.9695C85.4337 19.1349 85.4699 19.266 85.3611 19.3967C85.1222 19.6836 83.1154 19.791 81.2661 19.6159C79.2256 19.4227 77.1498 19.4323 76.9455 19.6359C76.8465 19.7346 77.0955 19.7894 77.651 19.7912C78.974 19.7954 82.2337 20.3738 85.1562 21.123C86.5407 21.4779 90.1593 22.8296 90.4734 23.1092C90.5557 23.1825 90.7481 23.2425 90.901 23.2425C91.054 23.2425 91.4828 23.3409 91.8541 23.4613C92.2253 23.5816 93.167 23.8712 93.9468 24.1048C97.0988 25.0492 99.578 25.9582 101.948 27.0386C103.658 27.8179 103.599 27.7803 103.351 27.9331C102.946 28.1826 103.249 28.7824 103.949 29.1179C104.323 29.2973 104.707 29.5718 104.801 29.728C104.977 30.0174 104.953 30.0496 104.214 30.5431C104.085 30.6294 103.941 30.8414 103.894 31.0141C103.823 31.2755 103.995 31.4201 104.919 31.8776C107.288 33.0496 107.886 33.3793 108.158 33.6613C108.43 33.9441 108.423 33.9514 107.943 33.8872C107.581 33.8386 107.469 33.876 107.527 34.0267C107.571 34.1399 107.695 34.2326 107.804 34.2326C108.197 34.2326 109.778 35.3968 109.778 35.6865C109.778 35.8465 109.995 36.093 110.268 36.2417C111.484 36.9057 111.748 37.1458 111.692 37.5381C111.662 37.7493 111.568 38.0066 111.483 38.1098C111.375 38.2411 111.472 38.4296 111.806 38.7378C112.128 39.0354 112.298 39.3562 112.33 39.7276C112.375 40.259 112.357 40.2788 111.786 40.3259C111.461 40.3527 111.198 40.4233 111.201 40.4829C111.204 40.5424 111.523 40.791 111.91 41.0352C112.461 41.3833 112.613 41.5716 112.613 41.9066C112.613 42.1416 112.698 42.4187 112.802 42.5223C112.906 42.6259 112.936 42.7107 112.868 42.7107C112.8 42.7107 112.884 42.9403 113.053 43.2209C113.445 43.8713 113.612 44.5733 113.43 44.806C113.022 45.3283 113.107 45.703 113.723 46.1098C114.566 46.6657 115.059 47.3827 115.057 48.0487C115.055 48.57 115.024 48.6007 114.464 48.647C113.975 48.6873 113.874 48.755 113.876 49.0395C113.877 49.2285 113.944 49.4869 114.024 49.6135C114.118 49.7604 114.108 49.9191 113.997 50.0519C113.871 50.2039 113.873 50.3091 114.006 50.4418C114.106 50.5418 114.188 50.7819 114.188 50.9754C114.188 51.1689 114.264 51.3739 114.357 51.4309C114.449 51.4879 114.483 51.6433 114.432 51.7763C114.325 52.0552 114.716 52.7112 115.232 53.1159C116.076 53.7785 116.277 55.2268 115.577 55.6003C115.28 55.7585 115.284 55.7779 115.681 56.144C116.025 56.4623 116.063 56.5761 115.917 56.8481C115.681 57.2886 115.35 57.389 114.863 57.1679C114.579 57.0389 114.406 57.0326 114.291 57.1473C114.175 57.262 114.188 57.3118 114.333 57.3118C114.456 57.3118 114.51 57.4281 114.465 57.5984C114.409 57.8133 114.587 57.9952 115.176 58.3256C115.609 58.5679 116.227 59.03 116.551 59.3524C117.204 60.0033 116.628 59.8975 122.616 60.4663C125.951 60.7831 126.528 60.8798 127.499 61.2846C127.932 61.4651 128.322 61.66 128.366 61.7177C128.409 61.7754 128.622 61.8758 128.838 61.9409C129.729 62.2088 130.563 62.6709 130.987 63.1317C131.235 63.4008 131.721 63.7526 132.067 63.9133C132.836 64.2699 133.157 64.5254 133.294 64.8907C133.352 65.0438 133.525 65.2085 133.678 65.2567C135.576 65.8528 136.531 66.5411 136.331 67.1684C136.271 67.3572 136.38 67.6283 136.633 67.9219C137.091 68.4526 137.119 68.5915 136.793 68.7162C136.414 68.8612 136.503 68.9951 137.49 69.7586C138.175 70.2894 138.402 70.5581 138.346 70.7728C138.281 71.0217 138.416 71.0931 139.264 71.256C139.811 71.3611 140.578 71.5108 140.967 71.5886C141.357 71.6664 141.889 71.771 142.149 71.821C143.26 72.0347 145.179 72.0969 145.772 71.9384C146.644 71.7051 149.05 71.4176 150.161 71.4137C151.247 71.41 151.743 71.7147 151.327 72.1295C151.195 72.2609 150.901 72.415 150.674 72.4718C150.098 72.6159 150.158 72.8539 150.773 72.8606C151.449 72.868 152.644 73.1689 154.715 73.8535C156.037 74.2905 156.586 74.5633 157.196 75.087C157.627 75.4569 157.98 75.8159 157.98 75.8848C157.98 75.9538 157.749 76.1073 157.468 76.2259L156.956 76.4416L157.429 76.6166C158.137 76.8787 159.888 77.7816 159.982 77.9333C160.028 78.0063 159.983 78.2188 159.882 78.4056C159.709 78.728 159.607 78.7431 157.855 78.704C153.544 78.6075 149.679 78.3893 149.266 78.2191C149.023 78.1184 148.368 78.036 147.812 78.036C146.699 78.036 145.897 77.8841 144.118 77.3361C142.548 76.8527 141.353 76.5371 139.707 76.1714C139.317 76.0847 138.36 75.8718 137.581 75.6981C134.131 74.9297 134.066 74.9281 133.829 75.6025C133.798 75.6889 133.4 75.7443 132.943 75.7257L132.113 75.6919L132.218 76.2478C132.382 77.123 132.167 77.251 130.532 77.251H129.114L129.205 77.7044C129.35 78.428 128.956 78.6655 127.893 78.4949C127.416 78.4185 126.778 78.3226 126.475 78.2818C125.055 78.0908 124.593 77.98 123.64 77.6014C123.077 77.3777 122.549 77.1366 122.466 77.0658C122.384 76.995 122.22 76.937 122.103 76.937C121.985 76.937 121.627 76.7353 121.307 76.4888C120.987 76.2423 120.478 75.9479 120.174 75.8345C119.871 75.7211 119.552 75.5766 119.465 75.5132C119.379 75.4499 118.67 75.0639 117.89 74.6554C117.111 74.247 116.012 73.6548 115.449 73.3395C114.886 73.0241 114.303 72.7909 114.153 72.8213C114.004 72.8516 113.721 73.1615 113.524 73.5099C113.314 73.8825 112.927 74.2652 112.585 74.4392C112.016 74.7288 111.982 74.7288 111.009 74.4404C109.045 73.8584 108.85 73.9183 110.288 74.6617C111.396 75.2338 111.534 75.3604 111.425 75.7032C111.374 75.8637 111.391 75.995 111.463 75.995C111.656 75.995 112.119 77.1394 112.24 77.9132C112.309 78.3536 112.581 78.8976 113.03 79.4901C113.407 79.9875 113.716 80.4962 113.716 80.6205C113.716 80.7448 113.833 80.9119 113.977 80.9919C114.213 81.1237 114.203 81.1875 113.872 81.667C113.671 81.9583 113.373 82.3459 113.21 82.5283C113.047 82.7108 112.935 82.9319 112.96 83.0197C113.051 83.3291 112.125 84.0223 111.69 83.9718C111.33 83.9301 111.282 83.9747 111.328 84.3045C111.365 84.5619 111.263 84.7759 111.013 84.9648C110.694 85.2065 110.671 85.2872 110.841 85.563C110.949 85.7384 111.038 86.1629 111.038 86.5065C111.038 87.1683 110.755 87.4561 110.103 87.4561C109.864 87.4561 109.778 87.5568 109.778 87.8346C109.778 88.1234 109.619 88.2916 109.108 88.5439C108.267 88.9597 107.524 89.6058 107.651 89.8114C107.705 89.8976 107.646 89.9682 107.521 89.9682C107.396 89.9682 107.178 90.1448 107.036 90.3607C106.854 90.6372 106.636 90.7532 106.297 90.7532C105.61 90.7532 105.313 91.0915 105.549 91.6067C105.65 91.828 105.794 92.0092 105.87 92.0092C105.945 92.0092 105.849 92.2211 105.657 92.4802C105.41 92.8138 105.176 92.9512 104.854 92.9512C104.479 92.9512 104.417 93.0032 104.497 93.2518C104.771 94.114 103.987 94.878 102.828 94.878C102.317 94.878 102.237 94.9309 102.158 95.3227C102 96.1108 100.988 96.8218 100.23 96.6774C99.6651 96.5698 99.3813 96.6863 99.3813 97.0257C99.3813 97.4167 98.8651 97.8277 98.2535 97.9237C97.6346 98.0209 97.176 98.2422 97.176 98.4437C97.176 98.5225 97.0165 98.7657 96.8215 98.9839C96.6266 99.2022 96.2899 99.636 96.0733 99.948C95.8567 100.26 95.4701 100.764 95.2142 101.069C94.852 101.499 94.7582 101.752 94.7911 102.205C94.8265 102.695 94.72 102.927 94.1304 103.649C93.584 104.317 93.4451 104.601 93.5066 104.921C93.5982 105.399 92.7243 107.386 92.4111 107.412C91.9163 107.454 91.28 107.351 90.8038 107.153L90.2845 106.937L90.2069 107.623C90.1498 108.128 89.96 108.512 89.4923 109.069C88.9888 109.67 88.8688 109.928 88.9193 110.3C88.9545 110.559 89.0164 111.213 89.0569 111.753C89.1266 112.681 89.1026 112.768 88.6245 113.323C88.3462 113.646 88.068 113.934 88.0064 113.961C87.8753 114.02 87.9802 114.672 88.3123 115.86C88.5711 116.787 88.5078 117.964 88.1666 118.57C87.8433 119.144 87.3733 119.641 87.1548 119.641C86.9121 119.641 85.8009 119.013 85.6398 118.785C85.5762 118.695 85.523 118.886 85.5217 119.21C85.5204 119.534 85.5803 119.798 85.6549 119.798C85.7303 119.798 85.7314 120.06 85.6575 120.387C85.5843 120.711 85.4894 121.159 85.4466 121.382C85.3505 121.883 84.4982 122.977 84.0825 123.132C83.8028 123.236 83.783 123.357 83.8629 124.466C83.9113 125.137 84.0302 126.156 84.1273 126.73C84.2243 127.304 84.2683 128.267 84.2249 128.871C84.1598 129.778 84.0735 130.047 83.73 130.417C83.5012 130.663 83.3139 130.918 83.3139 130.983C83.3139 131.049 83.1712 131.245 82.9967 131.419C82.6913 131.723 82.6634 131.725 82.2485 131.461C82.0114 131.31 81.7273 131.065 81.6171 130.917C81.5068 130.768 81.3119 130.543 81.1839 130.415C81.0558 130.287 80.9511 130.137 80.9511 130.081C80.9511 129.851 79.0198 126.707 78.8782 126.707C78.7096 126.707 78.8538 127.322 79.0785 127.562C79.1554 127.644 79.2183 127.851 79.2183 128.023C79.2183 128.194 79.3493 128.727 79.5094 129.208C79.9026 130.389 80.1635 131.494 80.1635 131.979C80.1635 132.199 80.2303 132.504 80.312 132.656C80.3937 132.808 80.4774 133.302 80.498 133.753C80.5187 134.204 80.5831 134.602 80.6412 134.638C80.6992 134.674 80.7606 135.5 80.7776 136.475C80.7947 137.449 80.8621 138.798 80.9276 139.473C80.9931 140.147 80.9897 140.734 80.9201 140.777C80.8505 140.82 80.7936 141.246 80.7936 141.724C80.7936 142.841 80.2638 144.579 79.7575 145.123C79.2809 145.635 79.1649 145.645 78.7562 145.208C78.3814 144.807 77.1705 142.387 77.1705 142.039C77.1705 141.906 77.0997 141.754 77.013 141.7C76.9264 141.647 76.8555 141.465 76.8555 141.296C76.8555 141 76.7986 140.847 76.4075 140.093C76.3074 139.9 76.2254 139.614 76.2254 139.457C76.2254 139.301 76.169 139.105 76.1 139.023C75.9778 138.878 75.8544 138.517 75.4317 137.069C75.3183 136.68 75.1669 136.295 75.0954 136.213C75.0238 136.131 74.9652 135.88 74.9652 135.656C74.9652 135.431 74.9 135.18 74.8203 135.098C74.6909 134.965 74.371 133.978 73.5759 131.26C73.437 130.785 73.2675 130.373 73.1992 130.344C73.1309 130.315 73.0749 130.085 73.0749 129.833C73.0749 129.582 73.0088 129.376 72.9279 129.376C72.847 129.376 72.7513 129.181 72.7152 128.944C72.6541 128.542 72.648 128.547 72.626 129.022C72.613 129.303 72.6733 129.533 72.7599 129.533C72.8465 129.533 72.9174 129.745 72.9174 130.004C72.9174 130.263 72.9736 130.475 73.0422 130.475C73.1108 130.475 73.1745 130.669 73.1837 130.906C73.1928 131.144 73.3155 131.974 73.4563 132.751C73.5971 133.528 73.7779 134.816 73.858 135.612C73.9381 136.409 74.0409 137.327 74.0864 137.653C74.1637 138.208 74.3205 141.668 74.3853 144.252C74.401 144.878 74.3607 145.39 74.2958 145.39C74.2308 145.39 74.1781 145.69 74.1787 146.057C74.1813 147.74 73.5613 150.835 73.0555 151.664C72.7529 152.16 72.6447 152.214 72.3447 152.021ZM72.3949 127.933C72.3447 127.808 72.3073 127.845 72.2998 128.028C72.2929 128.193 72.3302 128.286 72.3825 128.234C72.4348 128.182 72.4404 128.046 72.3949 127.933ZM142.987 74.5019C142.943 74.4578 141.779 74.136 140.401 73.7868C138.667 73.3474 137.732 73.182 137.363 73.2498C137.024 73.3124 136.885 73.4024 136.982 73.4984C137.117 73.6331 140.666 74.3102 142.07 74.4693C142.373 74.5036 142.722 74.5431 142.845 74.5569C142.967 74.5707 143.032 74.546 142.987 74.5019ZM149.904 72.7601C149.851 72.708 149.715 72.7024 149.602 72.7477C149.476 72.7979 149.513 72.8351 149.697 72.8426C149.863 72.8494 149.956 72.8123 149.904 72.7601Z" fill="#262626"/>
</svg>
