<svg width="160" height="160" viewBox="0 0 160 160" fill="none" xmlns="http://www.w3.org/2000/svg">
<path fill-rule="evenodd" clip-rule="evenodd" d="M72.4475 50C73.1913 50.186 73.1913 50.186 73.5632 50.5579L73.7383 50.9966C73.9357 51.4889 74.1704 51.8506 74.4814 52.278C74.963 52.9799 75.2369 53.625 75.4751 54.4375C75.6115 54.8431 75.7849 55.177 76.0039 55.5438C76.2841 56.0201 76.4529 56.3449 76.5385 56.8804H76.9105C77.7785 58.5856 77.7785 58.5856 78.0959 59.3792C78.4416 60.1369 78.8688 60.802 79.3228 61.4988C79.8222 62.2781 80.293 63.0733 80.7638 63.8701C81.1471 64.5146 81.5477 65.1298 81.9894 65.7366C82.9411 67.1484 83.2202 68.8286 83.5003 70.4785C83.7498 71.9452 84.2241 73.2046 85.0206 74.462C85.4154 75.1604 85.423 75.8023 85.4645 76.5918L85.5073 77.1569C85.5768 78.6714 85.5768 78.6714 85.0344 79.4044L84.5347 79.939C84.2988 80.5471 84.1308 81.1653 83.9768 81.7986H83.7908C83.6155 83.2261 83.6155 83.2261 83.5076 83.8361C83.3562 84.8934 83.3847 85.9629 83.3841 87.0286L83.3772 87.686L83.3761 88.3201C83.3753 88.5095 83.3745 88.699 83.3737 88.8942C83.435 89.6112 83.5908 90.1525 84.1047 90.6664C84.5527 90.9446 84.5527 90.9446 85.1855 91.0848C85.8924 91.2994 86.0801 91.5105 86.5802 92.0262C87.7474 92.6809 88.8072 92.6571 90.1243 92.6385C90.3371 92.6378 90.5499 92.637 90.7691 92.6362C91.4455 92.6331 92.1218 92.626 92.7981 92.6189C93.258 92.6161 93.718 92.6136 94.1779 92.6113C95.3025 92.6052 96.4271 92.5958 97.5516 92.5841V92.2122C98.6575 91.7616 99.7256 91.4929 100.899 91.2824C101.209 91.221 101.519 91.1591 101.829 91.0964V90.7245L103.502 90.3526V89.9807C104.135 89.6028 104.678 89.5402 105.408 89.4925L106.016 89.4504L106.478 89.4228V89.0509C108.699 88.3104 111.978 88.3885 114.096 89.4141C114.67 89.7687 115.115 90.2504 115.589 90.7245C116.252 91.204 116.872 91.554 117.635 91.8402C118.181 92.1073 118.719 92.3804 119.25 92.6763C119.959 92.9978 120.614 93.1335 121.377 93.2582C122.99 93.5364 122.99 93.5364 123.586 93.6998V94.0717L124.329 94.4436V94.8155L124.701 95.0015C123.334 95.3445 122.052 95.4431 120.647 95.4787C119.979 95.5023 119.412 95.5245 118.775 95.7388C117.862 96.0405 116.928 96.0622 115.973 96.1289C114.191 96.2352 114.191 96.2352 112.428 96.4892L112.242 96.8611L111.545 96.8204C105.466 96.3438 105.466 96.3438 99.5972 97.6049C99.3422 97.6551 99.0864 97.7013 98.8301 97.7444C97.5692 98.0022 96.4487 98.6828 95.3202 99.2785C94.5256 99.6911 93.7398 100.063 92.9027 100.383C92.2785 100.624 91.7399 100.896 91.1826 101.266C90.5853 101.662 89.3695 101.882 89.3695 101.882V102.068C89.2571 102.099 89.1447 102.13 89.0289 102.161C88.5145 102.303 88.0006 102.447 87.4867 102.591L86.9507 102.738C86.0266 102.998 85.1978 103.284 84.3487 103.741C84.0993 103.833 83.8475 103.919 83.5933 103.997C82.6684 104.294 81.7677 104.644 80.8628 104.997C80.3265 105.203 79.7881 105.398 79.2465 105.589C78.4543 105.873 77.6906 106.2 76.9221 106.542C75.6273 107.106 74.2493 107.647 72.8194 107.647V108.018C70.1013 108.706 67.5251 108.983 64.7303 108.995C64.4862 108.996 64.242 108.998 63.9905 109C63.7571 108.999 63.5238 108.998 63.2833 108.998L62.6495 108.996C61.9671 108.943 61.3889 108.769 60.7322 108.576C60.0959 108.452 59.456 108.354 58.8153 108.255C58.6355 108.227 58.4557 108.199 58.2705 108.169C57.7004 108.08 57.1301 107.991 56.5598 107.902C56.1716 107.841 55.7833 107.78 55.3951 107.719C54.4469 107.57 53.4986 107.422 52.5501 107.275V106.903L52.0024 106.875C50.6666 106.804 49.3364 106.716 48.0055 106.58C45.9667 106.374 43.9353 106.293 41.8881 106.242C39.9092 106.193 37.9602 106.067 36 105.787V105.415L36.5579 105.229L36.8731 104.87C37.4429 104.358 38.037 104.244 38.7661 104.09C39.0253 104.032 39.2844 103.973 39.5433 103.914C39.6682 103.886 39.7931 103.858 39.9218 103.829C40.1484 103.773 40.3712 103.707 40.5926 103.637C40.6619 103.612 40.7445 103.583 40.8465 103.546C40.927 103.52 41.0071 103.496 41.0869 103.473C41.1888 103.439 41.2907 103.404 41.3927 103.37C41.7218 103.295 42.0511 103.221 42.3806 103.149C43.5119 102.847 44.2374 102.262 45.1119 101.51C45.8334 100.98 46.4968 100.646 47.3317 100.352C48.1507 100.045 48.9159 99.6141 49.6903 99.2102L50.1908 98.9531L50.6535 98.7119C51.0625 98.5347 51.0625 98.5347 51.6204 98.5347V98.1628L52.0852 98.0458C53.6612 97.6254 55.1041 97.0696 56.5853 96.394C57.1991 96.1172 57.1991 96.1172 57.7569 95.9313C58.1432 95.3518 58.2219 94.7532 58.3148 94.0717H57.9429C57.795 93.5495 57.7331 93.0848 57.7322 92.5427L57.7315 92.0999L57.7337 91.6427L57.7315 91.1832L57.7322 90.7412C57.7324 90.6086 57.7327 90.4761 57.733 90.3395C57.7859 89.5497 58.1126 89.1835 58.6867 88.679H59.0586V88.1211H58.6867L58.6983 87.4819C58.764 86.8537 58.764 86.8537 58.5008 86.6335C58.5127 86.2649 58.5382 85.8967 58.5705 85.5293L58.6213 84.9199C58.6867 84.402 58.6867 84.402 58.8727 84.0301H59.2446L59.1981 83.5419C59.2446 82.9143 59.2446 82.9143 59.5954 82.4124C60.0502 81.7021 60.2044 81.0912 60.3719 80.2761C60.7068 78.6631 60.7068 78.6631 61.2901 78.2654C61.7899 78.1376 61.7899 78.1376 62.2199 78.0794L62.4058 76.9637H62.7778L62.9288 76.5337C63.149 76.0354 63.3241 75.8448 63.7075 75.4761C63.9608 75.1077 64.2089 74.7358 64.4514 74.3603L64.8233 73.8024C64.8741 73.4433 64.8741 73.4433 64.8596 73.0564L64.856 72.6297L64.8465 72.1869L64.8414 71.7377C64.8371 71.3722 64.8304 71.0067 64.8233 70.6412L65.1952 70.4552L65.1887 69.9526L65.1836 69.293L65.177 68.6392C65.1919 68.1475 65.2349 67.7592 65.3811 67.294H65.7531L65.74 66.8792L65.7298 66.3293L65.7167 65.7867C65.7549 65.2205 65.9016 64.8358 66.125 64.3187L66.1947 63.6794C66.3109 63.017 66.3109 63.017 66.6828 62.4823C67.1074 61.819 67.1488 61.3967 67.1717 60.6271C67.2583 60.1255 67.4944 59.8865 67.7986 59.4838C67.917 59.0487 67.917 59.0487 67.9729 58.5889C68.0818 57.9638 68.2066 57.4892 68.5424 56.9501C68.9678 56.2323 69.1155 55.646 69.2862 54.8349H69.6581L69.6857 54.4201L69.7279 53.8702L69.7671 53.3276C69.8445 52.7865 69.9926 52.3563 70.216 51.8596H70.9598V50.9298C71.4188 51.144 71.7126 51.3106 72.0756 51.6736L72.4475 50ZM90.8681 96.5765C90.9229 96.5389 90.786 96.6375 90.8681 96.5765C90.804 96.5925 90.9314 96.5607 90.8681 96.5765C90.8644 96.6094 90.8717 96.5436 90.8681 96.5765Z" fill="#262626"/>
</svg>
