<svg width="160" height="160" viewBox="0 0 160 160" fill="none" xmlns="http://www.w3.org/2000/svg">
<path d="M59.882 49.5166C60.2366 49.6413 60.2366 49.6413 60.5708 49.6888V50.5499H61.6041L62.293 52.272L62.1208 51.0665H62.4652L62.9818 52.4442L63.6707 52.272L64.0151 52.6164L64.5317 52.4442V52.7887L64.8761 52.9609C64.9851 53.3167 64.9851 53.3167 65.0699 53.7466L65.1573 54.1778L65.2206 54.5108L65.6834 54.4785C66.2538 54.683 66.2538 54.683 66.5142 55.1162C66.73 55.5986 66.9305 56.0821 67.1149 56.5773L66.9427 55.3718C67.3733 55.7463 67.5344 56.0143 67.6315 56.5773L68.3204 56.4051V56.9217H68.6648L69.0092 57.4384L69.1814 56.7495L69.6981 57.2662L69.5259 57.7828H70.2147V58.2994L70.9036 58.4716V59.3327H71.248L71.4202 58.9883L71.6139 59.4726C71.9996 60.1283 72.2918 60.2262 72.9701 60.5382C73.6232 61.1001 74.0244 61.6326 74.3478 62.4325V63.1214L75.0366 63.2936V63.638H75.3811C75.8977 64.6713 75.8977 64.6713 76.0484 65.0372C76.3205 65.4907 76.6807 65.7346 77.1032 66.049C77.5342 66.3854 77.9384 66.7112 78.3194 67.1038C78.63 67.4367 78.63 67.4367 78.9975 67.5989C79.3419 67.7711 79.3419 67.7711 79.6648 68.1047C80.0218 68.4879 80.0218 68.4879 80.5366 68.7075C81.1231 69.0067 81.4679 69.3687 81.9251 69.8376C82.2109 70.0119 82.4978 70.1842 82.7862 70.3542C83.0191 70.5805 83.2493 70.8096 83.475 71.0431L83.8194 71.2153L83.8793 70.5426C83.9755 69.6782 84.1775 68.8655 84.4114 68.0294C84.7021 66.972 85.2362 64.7445 85.4667 63.6722H85.8112H86.1556L86.5 63.5C86.5073 63.8443 86.2374 65.3602 86.2304 65.7045L86.0582 65.8767C86.0457 66.2246 86.0438 66.5728 86.0474 66.9208C86.0485 67.0585 86.0496 67.1961 86.0508 67.336L86.7965 68.0321C86.9625 68.1395 87.0907 68.2345 87.0914 68.2877C87.08 68.282 87.0659 68.2754 87.0494 68.268L87.0704 68.2877L87.08 68.3059C87.0838 68.2999 87.0876 68.2938 87.0914 68.2877H87.4359C87.491 68.6187 87.5461 68.9496 87.6029 69.29L87.6199 69.3218C87.8053 69.3369 87.8093 69.3373 88.0063 69.3533C88.4691 69.4932 88.4691 69.4932 88.7813 69.913C88.9858 70.3543 88.9858 70.3542 88.9858 70.6987L89.3194 70.7955C89.6746 71.0431 89.6746 71.0431 89.8038 71.6674L89.8468 72.2486L90.5357 72.4208L90.7079 73.4541L91.2245 73.6263C91.3453 74.0263 91.4596 74.4284 91.569 74.8318C91.7345 75.0662 91.9063 75.2965 92.0856 75.5206L92.2578 75.9619C92.397 76.3892 92.397 76.3892 92.7099 76.6292C93.0636 77.0312 92.9466 77.4093 92.9466 77.9316L93.205 78.276C93.4633 78.6204 93.4633 78.6204 93.4525 79.1263C93.4101 79.6796 93.4101 79.6796 93.8185 80.095C94.1521 80.5147 94.1521 80.5147 94.1091 80.9991L93.9799 81.3758L94.4966 81.7525C95.0042 82.1696 95.0042 82.1696 95.0778 82.7212C95.6398 82.9389 96.4576 83.5545 96.9936 83.8298C98.0425 84.3606 99.1101 84.8489 100.18 85.3367V85.6811C99.1524 85.5765 98.2691 85.1853 97.3273 84.7877C97.149 84.7129 96.9706 84.638 96.7869 84.5609C93.7971 83.2864 90.7959 81.9107 88.0104 80.2315C87.6031 79.9771 87.6031 79.9771 87.0914 79.8259C86.8146 80.9165 86.5407 82.0049 86.3212 83.1087C86.2304 83.4423 86.2304 83.4423 86.0535 83.7868C85.8762 84.1512 85.8312 84.4187 85.7999 84.82C85.7573 85.3655 85.6169 85.7123 85.3693 86.1977C84.5345 88.4919 84.6164 90.7692 84.6891 93.1807C84.6804 93.6028 84.6805 93.6029 84.5083 93.9473C84.4731 94.2911 84.4454 94.6357 84.4222 94.9805C84.3552 95.9755 84.3552 95.9755 84.1639 96.3582C84.1131 96.6949 84.0673 97.0323 84.0239 97.37C83.8554 98.5077 83.5966 99.6078 83.1306 100.664L82.7862 100.836C82.7247 101.15 82.7247 101.15 82.7108 101.525C82.6458 102.256 82.474 102.882 82.2271 103.571C82.1138 103.889 82.0179 104.213 81.9251 104.538C81.7178 105.264 81.4781 105.976 81.2363 106.691C81.15 106.949 81.0639 107.208 80.9779 107.466L80.8501 107.849C80.759 108.122 80.6685 108.397 80.5783 108.671L80.4398 109.091L80.3146 109.473C80.203 109.791 80.203 109.791 80.0308 110.135L79.3419 109.963V110.996C78.9545 111.007 78.9544 111.007 78.4809 110.824C76.5743 108.167 76.8907 103.946 76.8879 100.857C76.8876 100.689 76.8874 100.521 76.8871 100.348C76.8868 97.8939 76.9708 95.457 77.1677 93.0108C77.1841 92.803 77.1841 92.803 77.2007 92.5909C77.3911 90.2252 77.3911 90.2252 77.792 89.1253C77.8834 88.7332 77.962 88.3404 78.0396 87.9454C78.1434 87.5489 78.2625 87.2339 78.4809 86.8866C78.4809 86.4888 78.6531 84.541 78.6531 84.1312L78.2071 84.0619L77.6306 83.9697L77.0554 83.8789C76.5865 83.7868 76.5865 83.7868 76.4143 83.6146C76.0345 83.5677 75.654 83.5255 75.2734 83.4854C74.1704 83.3388 73.5959 83.341 72.7481 82.6522C72.1855 82.5027 71.9706 82.604 71.5 82.5813C71.7283 80.8115 71.7328 80.4186 71.9368 79.6537C72.0505 79.5969 72.3363 79.1956 72.4535 79.137L72.6008 78.8175C72.8454 78.3591 73.1121 78.1679 73.5405 77.8777L73.9368 77.5999C74.4387 77.374 74.6909 77.4304 75.2088 77.5871V77.2427L74.8644 77.0705C75.0842 76.9606 75.304 76.8505 75.5301 76.7375L75.5324 76.7261L75.5502 76.7099C75.5321 76.5916 75.6574 76.4733 75.6246 76.3514C75.2943 75.6918 74.8333 75.3905 74.2402 74.9717C73.8655 74.7033 73.5033 74.4302 73.1423 74.1429V73.7985H72.7979L72.7481 73.483C72.5984 73.0265 72.439 72.9107 72.0445 72.6468L71.7283 72.4295C71.3984 72.2214 71.3984 72.2214 70.9036 72.0764C70.6022 71.7858 70.6022 71.7858 70.3869 71.3875L70.5591 70.3542C70.3333 69.9473 70.3333 69.9473 70.0425 69.6654L70.3869 70.5265H70.0425C69.3405 69.4416 69.3405 69.4416 69.4075 68.8259L69.5259 68.4599L69.3536 68.2877L69.0953 67.8464L68.837 67.4267H68.6648L69.0092 67.9433H68.6648L68.3204 68.2877C68.1504 68.0735 67.9821 67.858 67.8145 67.6419L67.53 67.2787C67.2887 66.9124 67.2149 66.6413 67.1149 66.2212L66.7382 65.8445C66.1234 65.2297 65.6844 64.5419 65.2206 63.8102L65.3928 63.4658C65.1742 62.907 64.825 62.4159 64.5021 61.9123C59.5375 54.1509 59.5376 54.1509 59.5376 51.5832H59.1932C58.9448 51.0865 59.0048 50.6503 59.0102 50.0978L59.0149 49.4776L59.0209 49H59.5376L59.882 49.5166Z" fill="#262626"/>
</svg>
