<svg width="104" height="105" viewBox="0 0 104 105" fill="none" xmlns="http://www.w3.org/2000/svg">
<mask id="path-1-inside-1_401_3552" fill="white">
<path d="M43.6579 35.0938C43.6755 36.1723 43.6755 36.1723 43.5173 36.6497C44.0616 36.5686 44.3723 36.2979 44.7826 35.9425C45.0495 36.2111 44.9405 36.5893 44.9418 36.9453C44.9232 37.2155 44.9232 37.2155 44.7826 37.4985C45.0145 37.5451 45.2465 37.5918 45.4855 37.6399C45.4855 38.2934 45.4855 38.9469 45.4855 39.6203C45.7638 39.6903 45.7638 39.6903 46.0478 39.7617C46.0413 39.8997 46.0348 40.0378 46.028 40.18C46.023 40.36 46.0179 40.5399 46.0127 40.7254C46.0061 40.9042 45.9996 41.0831 45.9929 41.2674C46.011 41.424 46.0291 41.5807 46.0478 41.742C46.1406 41.8121 46.2334 41.8821 46.329 41.9542C46.4218 42.0242 46.5145 42.0943 46.6101 42.1664C46.6651 42.641 46.6651 42.641 46.6453 43.1831C46.6402 43.3631 46.6351 43.543 46.6299 43.7285C46.6234 43.8665 46.6169 44.0045 46.6101 44.1468C46.7203 44.1876 46.8305 44.2284 46.944 44.2705C47.3131 44.4297 47.3131 44.4297 47.5942 44.7126C47.6227 45.3038 47.6415 45.8428 47.4536 46.41C47.5435 46.4392 47.6334 46.4684 47.726 46.4984C48.016 46.6929 48.016 46.6929 48.139 47.0554C48.1614 47.6766 48.0349 48.2177 47.8754 48.8147C47.9682 48.8147 48.061 48.8147 48.1565 48.8147C48.5025 49.5882 48.3971 50.0153 48.1565 50.795C48.3885 50.9351 48.6205 51.0751 48.8595 51.2194C48.8461 51.3284 48.8326 51.4375 48.8188 51.5498C48.8032 51.6917 48.7877 51.8336 48.7716 51.9797C48.7553 52.1209 48.739 52.262 48.7222 52.4074C48.7211 52.5288 48.72 52.6503 48.7189 52.7754C48.8117 52.8688 48.9044 52.9621 49 53.0583C49.0174 53.2129 49.0348 53.3676 49.0528 53.5269C49.1517 54.1144 49.3356 54.3052 49.703 54.7557C49.7578 55.0372 49.8059 55.3202 49.8435 55.6045C49.9363 55.6978 50.0291 55.7912 50.1247 55.8874C50.3101 56.3044 50.448 56.7147 50.5464 57.1604C50.4537 57.1604 50.3609 57.1604 50.2653 57.1604C50.2839 57.2441 50.3026 57.3278 50.3218 57.4141C50.3591 57.5817 50.3971 57.7528 50.3971 57.7528L50.5464 57.5848C50.5464 57.5848 51.6848 57.0019 52.3301 56.8245C53.05 56.6196 53.6965 56.3134 54.3707 55.9901C54.9886 55.7007 55.623 55.456 56.2576 55.2066C58.9706 54.1281 61.1832 52.9427 63.3394 50.9365C63.5791 50.7208 63.8192 50.5057 64.0599 50.2911C64.1647 50.1976 64.2694 50.104 64.3773 50.0077C64.4524 49.9407 64.5274 49.8738 64.6047 49.8049C64.6975 49.8516 64.7902 49.8982 64.8858 49.9463C64.3672 51.1742 63.5127 52.0048 62.3554 52.6339C63.0331 52.4325 63.6257 52.1376 64.2356 51.7852C64.3321 51.7302 64.4286 51.6753 64.5279 51.6186C65.3552 51.1424 66.1631 50.6366 66.9624 50.1143C67.393 49.8365 67.7597 49.6278 68.2598 49.522C67.7117 50.229 67.1829 50.7094 66.4257 51.1824C66.1339 51.3583 66.1339 51.3583 65.8699 51.6438C66.1541 51.535 66.4382 51.4259 66.7222 51.3167C66.8887 51.2527 67.0553 51.1887 67.2269 51.1227C67.5835 50.9816 67.9302 50.8335 68.2774 50.6713C68.6816 50.5121 68.6816 50.5121 69.1033 50.6536C68.8882 50.8286 68.6731 51.0035 68.4581 51.1785C68.2412 51.3561 68.2412 51.3561 68.1192 51.6438C68.212 51.6438 68.3048 51.6438 68.4004 51.6438C68.4004 51.7371 68.4004 51.8305 68.4004 51.9267C68.1224 52.1497 67.8303 52.3446 67.5355 52.5444C67.2305 52.8156 67.2278 52.9548 67.1352 53.3412C66.8902 53.5932 66.8902 53.5932 66.5904 53.8363C66.2837 54.0868 66.0299 54.305 65.7947 54.6253C65.4684 55.0561 65.0817 55.2186 64.6047 55.463C64.5119 55.463 64.4191 55.463 64.3235 55.463C64.3235 55.5564 64.3235 55.6497 64.3235 55.7459C64.5091 55.7926 64.6946 55.8393 64.8858 55.8874C64.4654 56.3592 64.0519 56.616 63.48 56.8775C63.5728 57.0176 63.6656 57.1576 63.7612 57.3019C63.6512 57.3566 63.5412 57.4113 63.4278 57.4677C63.2856 57.5413 63.1433 57.615 62.9968 57.6909C62.8549 57.7631 62.713 57.8353 62.5668 57.9097C62.1664 58.1837 62.16 58.2632 62.0742 58.7164C61.5827 58.9728 61.2251 59.1408 60.6684 59.1408C60.7148 59.3275 60.7612 59.5142 60.809 59.7066C60.3914 59.8466 59.9739 59.9867 59.5437 60.131C59.5437 60.271 59.5437 60.411 59.5437 60.5553C59.1958 60.6954 59.1958 60.6954 58.8408 60.8382C58.8872 61.0249 58.9336 61.2117 58.9814 61.404C58.703 61.4507 58.4247 61.4974 58.1379 61.5455C58.1843 61.6388 58.2307 61.7322 58.2785 61.8284C58.1467 62.129 58.1467 62.129 57.9973 62.3942C57.7653 62.3942 57.5334 62.3942 57.2944 62.3942C57.248 62.6743 57.2016 62.9544 57.1538 63.2429C56.9219 63.2429 56.6899 63.2429 56.4509 63.2429C56.4045 63.4296 56.3581 63.6164 56.3103 63.8087C56.1248 63.8087 55.9392 63.8087 55.748 63.8087C55.7016 64.0888 55.6552 64.3689 55.6074 64.6575C55.5146 64.6108 55.4218 64.5641 55.3262 64.516C55.3262 64.7494 55.3262 64.9828 55.3262 65.2233C55.4832 65.273 55.6401 65.3228 55.8018 65.3741C56.024 65.4447 56.2463 65.5152 56.4685 65.5857C56.5867 65.6233 56.7049 65.6608 56.8267 65.6994C57.4943 65.9115 58.1617 66.1245 58.8287 66.3389C59.0339 66.4048 59.0339 66.4048 59.2433 66.472C59.5086 66.5573 59.7739 66.6427 60.0391 66.7282C61.2635 67.1215 62.4722 67.4306 63.7348 67.6722C65.2204 67.9625 66.6702 68.322 68.1192 68.7596C68.1192 68.853 68.1192 68.9463 68.1192 69.0425C68.5368 69.1359 68.9543 69.2292 69.3845 69.3254C69.3381 69.4188 69.2917 69.5121 69.2439 69.6083C69.4759 69.655 69.7078 69.7017 69.9468 69.7498C69.9468 69.8431 69.9468 69.9365 69.9468 70.0327C68.5317 70.0927 66.7529 70.1233 65.4482 69.4669C65.2575 69.4329 65.0658 69.4048 64.8738 69.3801C64.6968 69.3564 64.6968 69.3564 64.5162 69.3322C64.3888 69.3154 64.2615 69.2986 64.1302 69.2812C62.5566 69.065 60.9457 68.8363 59.4145 68.3998C58.7835 68.2606 58.1221 68.3091 57.4789 68.3087C57.3311 68.307 57.1833 68.3053 57.0311 68.3035C56.2377 68.302 55.5272 68.3596 54.7584 68.5555C54.3632 68.6453 53.9905 68.6395 53.5865 68.627C52.5648 68.6115 51.5497 68.646 50.5289 68.6889C44.9898 68.9069 44.9898 68.9069 43.0143 68.3297C42.5867 68.2089 42.2185 68.1497 41.7776 68.1231C41.1648 68.0756 40.5884 67.9815 39.9918 67.8346C39.707 67.7614 39.707 67.7614 39.3526 67.7164C39.0187 67.628 39.0187 67.628 38.553 67.3362C37.9924 66.992 37.5561 67.0165 36.91 67.0622C36.91 67.3889 36.91 67.7157 36.91 68.0523C36.5937 68.0877 36.5937 68.0877 36.2071 68.0523C35.7926 67.7187 35.5965 67.3894 35.3636 66.9207C35.2679 66.8244 35.1722 66.7282 35.0736 66.629C34.5228 66.0747 34.6172 65.3657 34.6164 64.6246C34.6377 63.5749 34.9142 62.9416 35.6535 62.2174C36.7535 61.3537 37.9439 61.1853 39.2999 61.2626C38.7829 59.1486 38.1481 57.1446 36.821 55.3934C36.4565 54.8895 36.2994 54.4039 36.1631 53.8009C36.1277 53.6653 36.1277 53.6653 36.0915 53.5269C35.1748 49.7019 36.3875 45.2489 37.894 41.742C37.9901 41.5137 38.0862 41.2853 38.1823 41.0569C38.7096 39.8195 39.2797 38.6349 40.0028 37.4985C40.0903 37.3606 40.1778 37.2228 40.268 37.0807C40.7557 36.3441 40.7557 36.3441 40.9869 36.0839C41.126 36.0839 41.2652 36.0839 41.4086 36.0839C41.4086 36.4107 41.4086 36.7374 41.4086 37.0741C41.9139 36.8674 42.1515 36.6025 42.4718 36.1635C43.2582 35.0938 43.2582 35.0938 43.6579 35.0938Z"/>
</mask>
<path d="M43.6579 35.0938C43.6755 36.1723 43.6755 36.1723 43.5173 36.6497C44.0616 36.5686 44.3723 36.2979 44.7826 35.9425C45.0495 36.2111 44.9405 36.5893 44.9418 36.9453C44.9232 37.2155 44.9232 37.2155 44.7826 37.4985C45.0145 37.5451 45.2465 37.5918 45.4855 37.6399C45.4855 38.2934 45.4855 38.9469 45.4855 39.6203C45.7638 39.6903 45.7638 39.6903 46.0478 39.7617C46.0413 39.8997 46.0348 40.0378 46.028 40.18C46.023 40.36 46.0179 40.5399 46.0127 40.7254C46.0061 40.9042 45.9996 41.0831 45.9929 41.2674C46.011 41.424 46.0291 41.5807 46.0478 41.742C46.1406 41.8121 46.2334 41.8821 46.329 41.9542C46.4218 42.0242 46.5145 42.0943 46.6101 42.1664C46.6651 42.641 46.6651 42.641 46.6453 43.1831C46.6402 43.3631 46.6351 43.543 46.6299 43.7285C46.6234 43.8665 46.6169 44.0045 46.6101 44.1468C46.7203 44.1876 46.8305 44.2284 46.944 44.2705C47.3131 44.4297 47.3131 44.4297 47.5942 44.7126C47.6227 45.3038 47.6415 45.8428 47.4536 46.41C47.5435 46.4392 47.6334 46.4684 47.726 46.4984C48.016 46.6929 48.016 46.6929 48.139 47.0554C48.1614 47.6766 48.0349 48.2177 47.8754 48.8147C47.9682 48.8147 48.061 48.8147 48.1565 48.8147C48.5025 49.5882 48.3971 50.0153 48.1565 50.795C48.3885 50.9351 48.6205 51.0751 48.8595 51.2194C48.8461 51.3284 48.8326 51.4375 48.8188 51.5498C48.8032 51.6917 48.7877 51.8336 48.7716 51.9797C48.7553 52.1209 48.739 52.262 48.7222 52.4074C48.7211 52.5288 48.72 52.6503 48.7189 52.7754C48.8117 52.8688 48.9044 52.9621 49 53.0583C49.0174 53.2129 49.0348 53.3676 49.0528 53.5269C49.1517 54.1144 49.3356 54.3052 49.703 54.7557C49.7578 55.0372 49.8059 55.3202 49.8435 55.6045C49.9363 55.6978 50.0291 55.7912 50.1247 55.8874C50.3101 56.3044 50.448 56.7147 50.5464 57.1604C50.4537 57.1604 50.3609 57.1604 50.2653 57.1604C50.2839 57.2441 50.3026 57.3278 50.3218 57.4141C50.3591 57.5817 50.3971 57.7528 50.3971 57.7528L50.5464 57.5848C50.5464 57.5848 51.6848 57.0019 52.3301 56.8245C53.05 56.6196 53.6965 56.3134 54.3707 55.9901C54.9886 55.7007 55.623 55.456 56.2576 55.2066C58.9706 54.1281 61.1832 52.9427 63.3394 50.9365C63.5791 50.7208 63.8192 50.5057 64.0599 50.2911C64.1647 50.1976 64.2694 50.104 64.3773 50.0077C64.4524 49.9407 64.5274 49.8738 64.6047 49.8049C64.6975 49.8516 64.7902 49.8982 64.8858 49.9463C64.3672 51.1742 63.5127 52.0048 62.3554 52.6339C63.0331 52.4325 63.6257 52.1376 64.2356 51.7852C64.3321 51.7302 64.4286 51.6753 64.5279 51.6186C65.3552 51.1424 66.1631 50.6366 66.9624 50.1143C67.393 49.8365 67.7597 49.6278 68.2598 49.522C67.7117 50.229 67.1829 50.7094 66.4257 51.1824C66.1339 51.3583 66.1339 51.3583 65.8699 51.6438C66.1541 51.535 66.4382 51.4259 66.7222 51.3167C66.8887 51.2527 67.0553 51.1887 67.2269 51.1227C67.5835 50.9816 67.9302 50.8335 68.2774 50.6713C68.6816 50.5121 68.6816 50.5121 69.1033 50.6536C68.8882 50.8286 68.6731 51.0035 68.4581 51.1785C68.2412 51.3561 68.2412 51.3561 68.1192 51.6438C68.212 51.6438 68.3048 51.6438 68.4004 51.6438C68.4004 51.7371 68.4004 51.8305 68.4004 51.9267C68.1224 52.1497 67.8303 52.3446 67.5355 52.5444C67.2305 52.8156 67.2278 52.9548 67.1352 53.3412C66.8902 53.5932 66.8902 53.5932 66.5904 53.8363C66.2837 54.0868 66.0299 54.305 65.7947 54.6253C65.4684 55.0561 65.0817 55.2186 64.6047 55.463C64.5119 55.463 64.4191 55.463 64.3235 55.463C64.3235 55.5564 64.3235 55.6497 64.3235 55.7459C64.5091 55.7926 64.6946 55.8393 64.8858 55.8874C64.4654 56.3592 64.0519 56.616 63.48 56.8775C63.5728 57.0176 63.6656 57.1576 63.7612 57.3019C63.6512 57.3566 63.5412 57.4113 63.4278 57.4677C63.2856 57.5413 63.1433 57.615 62.9968 57.6909C62.8549 57.7631 62.713 57.8353 62.5668 57.9097C62.1664 58.1837 62.16 58.2632 62.0742 58.7164C61.5827 58.9728 61.2251 59.1408 60.6684 59.1408C60.7148 59.3275 60.7612 59.5142 60.809 59.7066C60.3914 59.8466 59.9739 59.9867 59.5437 60.131C59.5437 60.271 59.5437 60.411 59.5437 60.5553C59.1958 60.6954 59.1958 60.6954 58.8408 60.8382C58.8872 61.0249 58.9336 61.2117 58.9814 61.404C58.703 61.4507 58.4247 61.4974 58.1379 61.5455C58.1843 61.6388 58.2307 61.7322 58.2785 61.8284C58.1467 62.129 58.1467 62.129 57.9973 62.3942C57.7653 62.3942 57.5334 62.3942 57.2944 62.3942C57.248 62.6743 57.2016 62.9544 57.1538 63.2429C56.9219 63.2429 56.6899 63.2429 56.4509 63.2429C56.4045 63.4296 56.3581 63.6164 56.3103 63.8087C56.1248 63.8087 55.9392 63.8087 55.748 63.8087C55.7016 64.0888 55.6552 64.3689 55.6074 64.6575C55.5146 64.6108 55.4218 64.5641 55.3262 64.516C55.3262 64.7494 55.3262 64.9828 55.3262 65.2233C55.4832 65.273 55.6401 65.3228 55.8018 65.3741C56.024 65.4447 56.2463 65.5152 56.4685 65.5857C56.5867 65.6233 56.7049 65.6608 56.8267 65.6994C57.4943 65.9115 58.1617 66.1245 58.8287 66.3389C59.0339 66.4048 59.0339 66.4048 59.2433 66.472C59.5086 66.5573 59.7739 66.6427 60.0391 66.7282C61.2635 67.1215 62.4722 67.4306 63.7348 67.6722C65.2204 67.9625 66.6702 68.322 68.1192 68.7596C68.1192 68.853 68.1192 68.9463 68.1192 69.0425C68.5368 69.1359 68.9543 69.2292 69.3845 69.3254C69.3381 69.4188 69.2917 69.5121 69.2439 69.6083C69.4759 69.655 69.7078 69.7017 69.9468 69.7498C69.9468 69.8431 69.9468 69.9365 69.9468 70.0327C68.5317 70.0927 66.7529 70.1233 65.4482 69.4669C65.2575 69.4329 65.0658 69.4048 64.8738 69.3801C64.6968 69.3564 64.6968 69.3564 64.5162 69.3322C64.3888 69.3154 64.2615 69.2986 64.1302 69.2812C62.5566 69.065 60.9457 68.8363 59.4145 68.3998C58.7835 68.2606 58.1221 68.3091 57.4789 68.3087C57.3311 68.307 57.1833 68.3053 57.0311 68.3035C56.2377 68.302 55.5272 68.3596 54.7584 68.5555C54.3632 68.6453 53.9905 68.6395 53.5865 68.627C52.5648 68.6115 51.5497 68.646 50.5289 68.6889C44.9898 68.9069 44.9898 68.9069 43.0143 68.3297C42.5867 68.2089 42.2185 68.1497 41.7776 68.1231C41.1648 68.0756 40.5884 67.9815 39.9918 67.8346C39.707 67.7614 39.707 67.7614 39.3526 67.7164C39.0187 67.628 39.0187 67.628 38.553 67.3362C37.9924 66.992 37.5561 67.0165 36.91 67.0622C36.91 67.3889 36.91 67.7157 36.91 68.0523C36.5937 68.0877 36.5937 68.0877 36.2071 68.0523C35.7926 67.7187 35.5965 67.3894 35.3636 66.9207C35.2679 66.8244 35.1722 66.7282 35.0736 66.629C34.5228 66.0747 34.6172 65.3657 34.6164 64.6246C34.6377 63.5749 34.9142 62.9416 35.6535 62.2174C36.7535 61.3537 37.9439 61.1853 39.2999 61.2626C38.7829 59.1486 38.1481 57.1446 36.821 55.3934C36.4565 54.8895 36.2994 54.4039 36.1631 53.8009C36.1277 53.6653 36.1277 53.6653 36.0915 53.5269C35.1748 49.7019 36.3875 45.2489 37.894 41.742C37.9901 41.5137 38.0862 41.2853 38.1823 41.0569C38.7096 39.8195 39.2797 38.6349 40.0028 37.4985C40.0903 37.3606 40.1778 37.2228 40.268 37.0807C40.7557 36.3441 40.7557 36.3441 40.9869 36.0839C41.126 36.0839 41.2652 36.0839 41.4086 36.0839C41.4086 36.4107 41.4086 36.7374 41.4086 37.0741C41.9139 36.8674 42.1515 36.6025 42.4718 36.1635C43.2582 35.0938 43.2582 35.0938 43.6579 35.0938Z" fill="#262626" stroke="white" stroke-width="2" mask="url(#path-1-inside-1_401_3552)"/>
</svg>
