<svg width="104" height="104" viewBox="0 0 104 104" fill="none" xmlns="http://www.w3.org/2000/svg">
<mask id="path-1-inside-1_401_3554" fill="white">
<path d="M48.7097 27.9492L48.7098 27.9492C48.8921 27.9933 48.8921 27.9933 49.2572 28.2593L49.4068 28.3696C49.678 28.5646 49.9213 28.745 50.1386 29.0008L50.2777 29.1751C50.4233 29.2649 50.5466 29.3444 50.6705 29.4635L50.8036 29.6075L50.9534 29.769L51.1114 29.9419C51.808 30.7015 52.4792 31.4637 53.044 32.3281C53.1198 32.4455 53.1969 32.5621 53.2758 32.6774C53.4097 32.8729 53.5089 33.0225 53.5627 33.2556L53.2756 33.3218L53.3087 33.4654C53.4771 33.4171 53.4771 33.4171 53.6676 33.3826C53.8648 33.5059 53.8648 33.5059 54.0886 33.8455L54.1804 33.9872C54.3695 34.2761 54.557 34.5656 54.7362 34.8607C54.8238 35.0075 54.9132 35.1523 55.0066 35.2955C55.2577 35.6763 55.4963 36.0624 55.7255 36.4567L55.848 36.669C56.1963 37.2712 56.5359 37.8777 56.8679 38.4891C57.0573 38.8389 57.2439 39.1901 57.4441 39.5338C57.9377 40.3699 58.3623 41.2277 58.7438 42.1198L58.8295 42.3221L58.973 42.289C59.0792 42.501 59.1837 42.7138 59.2866 42.9274L59.4037 43.1724C59.6411 43.6495 59.7874 44.134 59.9133 44.6505L59.9688 44.8848C60.0998 45.4304 60.162 45.8517 60.0579 46.4075C59.9466 46.9631 59.9328 47.4631 59.9941 48.0258L60.1377 47.9926C60.389 48.0546 60.6268 48.1095 60.8848 48.136C61.9548 48.2141 63.0703 48.3925 63.9533 49.0511L64.1185 49.1911C64.3657 49.3956 64.4612 49.5956 64.5771 49.8885C64.6604 50.12 64.6878 50.2279 64.9082 50.3446C65.1138 50.4183 65.1138 50.4183 65.4491 50.6985L65.4491 50.6985C64.9485 50.8249 64.6006 50.9753 64.2327 51.3412L64.2327 51.3412C64.1128 51.4604 64.1128 51.4604 63.9148 51.6053L63.7871 51.6867L63.8202 51.8303L63.6214 51.9517C63.4339 52.1586 63.2662 52.332 63.0339 52.4886C62.9093 52.561 62.7847 52.6335 62.6606 52.7068L62.528 52.7857L62.528 52.7858C61.9623 53.1402 61.9623 53.1402 61.4127 53.5196C61.4882 53.8467 61.6072 54.0214 61.8265 54.2697L61.9538 54.4107C62.9189 55.5918 63.2171 57.4108 63.1161 58.8959C63.0811 59.4096 63.1109 59.911 63.1474 60.4243L63.1659 60.6619L63.1826 60.8869C63.1988 61.087 63.2063 61.2477 63.1641 61.4441C63.1164 61.5971 63.1165 61.5971 63.1167 61.7824L63.1197 62.0041L63.1217 62.2638C63.1243 62.5712 63.1231 62.8785 63.1213 63.1858L63.1199 63.3979C63.1183 63.7453 63.1164 64.0915 63.0986 64.4384C63.0853 64.6944 63.0813 64.9487 63.0805 65.205L63.0804 65.3773L63.0796 65.7245L63.0794 65.9871L62.9358 66.0202C63.0504 66.4053 63.034 66.7868 62.9816 67.1814C62.9192 67.5342 62.8728 67.8857 62.8455 68.2428C62.8207 68.6086 62.8001 68.9737 62.7513 69.3372L62.7092 69.6256C62.6712 69.959 62.6226 70.2824 62.5438 70.6088C62.4929 70.8083 62.4423 71.0076 62.3982 71.2088L62.3611 71.3812L62.2832 71.732C62.2602 71.8434 62.2362 71.9546 62.211 72.0655C62.2032 72.0893 62.1957 72.1116 62.1882 72.1327C62.1305 72.3005 61.9887 72.7065 61.9731 72.7548L61.8973 72.9881L61.8232 73.2187L61.7447 73.4533C61.6674 73.6889 61.625 73.8503 61.4399 74.0174L61.323 74.1034L61.3171 74.2418C61.3176 74.4711 61.3176 74.4711 61.1132 74.8322L61.1131 74.8322L60.9696 74.8653L61.0027 75.0089L60.8039 75.1303L60.837 75.2739L60.6935 75.307L60.6714 75.5389C60.5347 75.6224 60.5347 75.6224 60.4008 75.6769L60.1579 75.2794L59.8708 75.3456C59.7274 75.198 59.6614 75.093 59.6007 74.8941L59.5568 74.681L59.5113 74.4658L59.4788 74.302H59.4788C59.2991 74.301 59.299 74.301 59.0868 74.2413C58.8645 73.942 58.7911 73.6567 58.7386 73.2964C58.7056 73.04 58.6693 72.7887 58.6176 72.5351L58.441 72.4247C58.1836 72.1282 58.0699 71.9053 58.0119 71.518L57.9924 71.3611L57.9471 71.0458L57.9165 70.8069C57.7564 70.7682 57.7564 70.7682 57.5797 70.6921L57.5797 70.6921C57.3719 70.5219 57.3314 70.3815 57.2749 70.123L57.244 69.9604C57.1743 69.6385 57.1175 69.3198 57.0835 68.9921L57.0609 68.7363L56.6467 68.9075C56.5078 68.7005 56.4067 68.5193 56.3334 68.2801L56.2817 68.0419C56.2471 67.8876 56.2158 67.7325 56.1886 67.5768C56.1904 67.3623 56.2053 67.2437 56.0869 67.063C55.7671 66.7093 55.6265 66.3793 55.5758 65.9037L55.631 65.8154C55.6141 65.4603 55.6121 65.114 55.373 64.8402L55.2225 64.7001C55.0667 64.2424 55.0896 63.8351 55.1398 63.3583L55.2833 63.3252L55.222 63.2145C54.9657 62.7212 54.8325 62.2702 54.9943 61.724L55.0847 61.4811L54.908 61.3706L54.8749 61.2271L54.7313 61.2602L54.6817 61.0449L54.5436 60.7743C54.4846 60.611 54.4223 60.4489 54.3559 60.2884L54.1793 60.178C54.1547 60.0577 54.127 59.938 54.0965 59.8191C53.8793 59.7089 53.8377 59.6704 53.7496 59.4319C53.6631 59.0961 53.6228 58.7702 53.3859 58.5079C52.9354 58.0692 52.6922 57.3848 52.5145 56.7915C52.4749 56.6462 52.4341 56.5012 52.3906 56.357C52.3023 56.3018 52.3023 56.3018 52.261 56.1551L52.2222 55.9754L52.1827 55.7952L52.1532 55.6558L51.9379 55.6916L51.657 55.7372C51.4823 55.7659 51.3072 55.7924 51.1318 55.8159C50.8806 55.7919 50.6393 55.7973 50.3871 55.8034C50.1218 55.81 49.865 55.812 49.6006 55.789C48.8941 55.7149 48.2324 55.8422 47.5539 56.0365C47.3551 56.1579 47.3551 56.1579 47.2142 56.2184L47.0469 56.2839L46.8521 56.3612C46.1149 56.6534 45.3837 56.959 44.6564 57.2748L44.3245 57.4194C43.6296 57.7187 42.9532 58.0339 42.2921 58.4028C41.5808 58.8002 40.8705 59.1375 40.0611 59.277L39.9949 58.9899L40.3924 58.747L40.3428 58.5316C40.5006 58.3728 40.5728 58.324 40.8004 58.3032L40.9722 58.3108C40.9391 58.1673 40.9391 58.1673 41.0062 58.0511C41.1576 57.8334 41.2631 57.6699 41.3215 57.4081L41.3312 57.2452L41.4747 57.2121L41.4251 56.9968L41.6238 56.8753L41.5907 56.7318C41.6742 56.5648 41.7687 56.4548 41.9031 56.3242C42.1057 56.1302 42.3402 55.9424 42.3766 55.6527L42.3638 55.495C42.4117 55.1412 42.3864 54.8738 42.2921 54.5288L42.1485 54.5619C42.0823 54.2748 42.0823 54.2748 42.1168 54.0967L42.1596 53.9545L42.0161 53.9877L42.016 53.9876C41.8955 53.902 41.8955 53.902 41.751 53.822C41.5404 53.8323 41.3818 53.8348 41.177 53.7775L40.9815 53.7019C40.7833 53.6274 40.7833 53.6274 40.6302 53.5514L40.5971 53.4078C40.3616 53.3847 40.182 53.3373 39.9626 53.2447L39.7134 53.1203C39.562 53.046 39.4122 52.968 39.2665 52.8832L39.2334 52.7396L39.0898 52.7728C38.7751 52.6792 38.7751 52.6792 38.35 52.1874L38.4831 52.1541L38.6585 52.1115C38.7703 52.084 38.8828 52.0594 38.996 52.0384C39.5493 52.0728 39.5493 52.0728 40.104 52.0772H40.1041C40.2169 52.0787 40.3298 52.0805 40.4426 52.0827C41.2884 52.116 42.1021 52.0597 42.9436 51.9677C43.8227 51.8713 44.7025 51.7896 45.5838 51.7157L45.797 51.6979C46.2667 51.6585 46.7365 51.6194 47.2063 51.5807C47.1567 51.3653 50.5361 49.6928 50.5145 49.6303L50.4317 49.3813L50.427 49.3675C50.3284 49.0765 50.2621 48.8806 50.3703 48.5828L50.5139 48.5497L50.4654 48.3512L50.4038 48.0931C50.3657 47.9349 50.33 47.7761 50.2986 47.6165C50.3363 47.3182 50.3363 47.3182 50.3062 47.0147C50.2937 46.8641 50.2851 46.713 50.2821 46.5619C50.3759 46.2231 50.3759 46.2231 50.308 45.8756C50.2639 45.6448 50.2639 45.6448 50.249 45.4356L50.249 45.4356C50.3803 45.231 50.4171 45.1997 50.3956 44.9431C50.3488 44.7023 50.301 44.4644 50.2712 44.2209C50.4084 44.0458 50.4084 44.0458 50.3389 43.8178L50.2823 43.6135L50.4811 43.4921C50.449 43.2814 50.449 43.2814 50.3387 43.1617C50.1444 42.9421 50.0126 42.7604 49.9345 42.4744C49.8747 42.162 49.8426 41.8657 49.6741 41.5918C49.4887 41.3553 49.3442 41.161 49.2443 40.8742C49.1696 40.5761 49.0496 40.3063 49.1905 40.019L49.2776 39.9141C49.1523 39.709 49.0404 39.5051 48.9385 39.2875L48.9382 39.2869C48.7672 38.8643 48.5909 38.4287 48.7632 37.9916L48.8692 37.816L48.8137 37.6879C48.499 37.1443 48.3037 36.4269 48.4055 35.8061L48.6209 35.7565L48.5546 35.4693C48.379 35.0525 48.2764 34.6304 48.1738 34.1899C48.1351 33.9785 48.1351 33.9785 48.1903 33.8902L48.4533 33.8626L48.7094 33.8461C48.5637 33.5997 48.4503 33.3778 48.3537 33.1071L48.2722 32.8318C48.1898 32.5591 48.1248 32.3684 48.1518 32.0847L48.2954 32.0516L48.2622 31.908L48.461 31.7866C48.3384 31.5118 48.2479 31.2397 48.1777 30.947L48.1429 30.7968C48.0758 30.5278 48.0218 30.2804 48.0375 30.0008C48.0857 29.832 48.0857 29.832 48.2524 29.6943L48.4115 29.6056L48.3066 29.4786C48.1948 29.0862 48.1631 28.774 48.2018 28.3688L48.649 28.3412C48.6159 28.1977 48.6159 28.1977 48.7097 27.9492Z"/>
</mask>
<path d="M48.7097 27.9492L48.7098 27.9492C48.8921 27.9933 48.8921 27.9933 49.2572 28.2593L49.4068 28.3696C49.678 28.5646 49.9213 28.745 50.1386 29.0008L50.2777 29.1751C50.4233 29.2649 50.5466 29.3444 50.6705 29.4635L50.8036 29.6075L50.9534 29.769L51.1114 29.9419C51.808 30.7015 52.4792 31.4637 53.044 32.3281C53.1198 32.4455 53.1969 32.5621 53.2758 32.6774C53.4097 32.8729 53.5089 33.0225 53.5627 33.2556L53.2756 33.3218L53.3087 33.4654C53.4771 33.4171 53.4771 33.4171 53.6676 33.3826C53.8648 33.5059 53.8648 33.5059 54.0886 33.8455L54.1804 33.9872C54.3695 34.2761 54.557 34.5656 54.7362 34.8607C54.8238 35.0075 54.9132 35.1523 55.0066 35.2955C55.2577 35.6763 55.4963 36.0624 55.7255 36.4567L55.848 36.669C56.1963 37.2712 56.5359 37.8777 56.8679 38.4891C57.0573 38.8389 57.2439 39.1901 57.4441 39.5338C57.9377 40.3699 58.3623 41.2277 58.7438 42.1198L58.8295 42.3221L58.973 42.289C59.0792 42.501 59.1837 42.7138 59.2866 42.9274L59.4037 43.1724C59.6411 43.6495 59.7874 44.134 59.9133 44.6505L59.9688 44.8848C60.0998 45.4304 60.162 45.8517 60.0579 46.4075C59.9466 46.9631 59.9328 47.4631 59.9941 48.0258L60.1377 47.9926C60.389 48.0546 60.6268 48.1095 60.8848 48.136C61.9548 48.2141 63.0703 48.3925 63.9533 49.0511L64.1185 49.1911C64.3657 49.3956 64.4612 49.5956 64.5771 49.8885C64.6604 50.12 64.6878 50.2279 64.9082 50.3446C65.1138 50.4183 65.1138 50.4183 65.4491 50.6985L65.4491 50.6985C64.9485 50.8249 64.6006 50.9753 64.2327 51.3412L64.2327 51.3412C64.1128 51.4604 64.1128 51.4604 63.9148 51.6053L63.7871 51.6867L63.8202 51.8303L63.6214 51.9517C63.4339 52.1586 63.2662 52.332 63.0339 52.4886C62.9093 52.561 62.7847 52.6335 62.6606 52.7068L62.528 52.7857L62.528 52.7858C61.9623 53.1402 61.9623 53.1402 61.4127 53.5196C61.4882 53.8467 61.6072 54.0214 61.8265 54.2697L61.9538 54.4107C62.9189 55.5918 63.2171 57.4108 63.1161 58.8959C63.0811 59.4096 63.1109 59.911 63.1474 60.4243L63.1659 60.6619L63.1826 60.8869C63.1988 61.087 63.2063 61.2477 63.1641 61.4441C63.1164 61.5971 63.1165 61.5971 63.1167 61.7824L63.1197 62.0041L63.1217 62.2638C63.1243 62.5712 63.1231 62.8785 63.1213 63.1858L63.1199 63.3979C63.1183 63.7453 63.1164 64.0915 63.0986 64.4384C63.0853 64.6944 63.0813 64.9487 63.0805 65.205L63.0804 65.3773L63.0796 65.7245L63.0794 65.9871L62.9358 66.0202C63.0504 66.4053 63.034 66.7868 62.9816 67.1814C62.9192 67.5342 62.8728 67.8857 62.8455 68.2428C62.8207 68.6086 62.8001 68.9737 62.7513 69.3372L62.7092 69.6256C62.6712 69.959 62.6226 70.2824 62.5438 70.6088C62.4929 70.8083 62.4423 71.0076 62.3982 71.2088L62.3611 71.3812L62.2832 71.732C62.2602 71.8434 62.2362 71.9546 62.211 72.0655C62.2032 72.0893 62.1957 72.1116 62.1882 72.1327C62.1305 72.3005 61.9887 72.7065 61.9731 72.7548L61.8973 72.9881L61.8232 73.2187L61.7447 73.4533C61.6674 73.6889 61.625 73.8503 61.4399 74.0174L61.323 74.1034L61.3171 74.2418C61.3176 74.4711 61.3176 74.4711 61.1132 74.8322L61.1131 74.8322L60.9696 74.8653L61.0027 75.0089L60.8039 75.1303L60.837 75.2739L60.6935 75.307L60.6714 75.5389C60.5347 75.6224 60.5347 75.6224 60.4008 75.6769L60.1579 75.2794L59.8708 75.3456C59.7274 75.198 59.6614 75.093 59.6007 74.8941L59.5568 74.681L59.5113 74.4658L59.4788 74.302H59.4788C59.2991 74.301 59.299 74.301 59.0868 74.2413C58.8645 73.942 58.7911 73.6567 58.7386 73.2964C58.7056 73.04 58.6693 72.7887 58.6176 72.5351L58.441 72.4247C58.1836 72.1282 58.0699 71.9053 58.0119 71.518L57.9924 71.3611L57.9471 71.0458L57.9165 70.8069C57.7564 70.7682 57.7564 70.7682 57.5797 70.6921L57.5797 70.6921C57.3719 70.5219 57.3314 70.3815 57.2749 70.123L57.244 69.9604C57.1743 69.6385 57.1175 69.3198 57.0835 68.9921L57.0609 68.7363L56.6467 68.9075C56.5078 68.7005 56.4067 68.5193 56.3334 68.2801L56.2817 68.0419C56.2471 67.8876 56.2158 67.7325 56.1886 67.5768C56.1904 67.3623 56.2053 67.2437 56.0869 67.063C55.7671 66.7093 55.6265 66.3793 55.5758 65.9037L55.631 65.8154C55.6141 65.4603 55.6121 65.114 55.373 64.8402L55.2225 64.7001C55.0667 64.2424 55.0896 63.8351 55.1398 63.3583L55.2833 63.3252L55.222 63.2145C54.9657 62.7212 54.8325 62.2702 54.9943 61.724L55.0847 61.4811L54.908 61.3706L54.8749 61.2271L54.7313 61.2602L54.6817 61.0449L54.5436 60.7743C54.4846 60.611 54.4223 60.4489 54.3559 60.2884L54.1793 60.178C54.1547 60.0577 54.127 59.938 54.0965 59.8191C53.8793 59.7089 53.8377 59.6704 53.7496 59.4319C53.6631 59.0961 53.6228 58.7702 53.3859 58.5079C52.9354 58.0692 52.6922 57.3848 52.5145 56.7915C52.4749 56.6462 52.4341 56.5012 52.3906 56.357C52.3023 56.3018 52.3023 56.3018 52.261 56.1551L52.2222 55.9754L52.1827 55.7952L52.1532 55.6558L51.9379 55.6916L51.657 55.7372C51.4823 55.7659 51.3072 55.7924 51.1318 55.8159C50.8806 55.7919 50.6393 55.7973 50.3871 55.8034C50.1218 55.81 49.865 55.812 49.6006 55.789C48.8941 55.7149 48.2324 55.8422 47.5539 56.0365C47.3551 56.1579 47.3551 56.1579 47.2142 56.2184L47.0469 56.2839L46.8521 56.3612C46.1149 56.6534 45.3837 56.959 44.6564 57.2748L44.3245 57.4194C43.6296 57.7187 42.9532 58.0339 42.2921 58.4028C41.5808 58.8002 40.8705 59.1375 40.0611 59.277L39.9949 58.9899L40.3924 58.747L40.3428 58.5316C40.5006 58.3728 40.5728 58.324 40.8004 58.3032L40.9722 58.3108C40.9391 58.1673 40.9391 58.1673 41.0062 58.0511C41.1576 57.8334 41.2631 57.6699 41.3215 57.4081L41.3312 57.2452L41.4747 57.2121L41.4251 56.9968L41.6238 56.8753L41.5907 56.7318C41.6742 56.5648 41.7687 56.4548 41.9031 56.3242C42.1057 56.1302 42.3402 55.9424 42.3766 55.6527L42.3638 55.495C42.4117 55.1412 42.3864 54.8738 42.2921 54.5288L42.1485 54.5619C42.0823 54.2748 42.0823 54.2748 42.1168 54.0967L42.1596 53.9545L42.0161 53.9877L42.016 53.9876C41.8955 53.902 41.8955 53.902 41.751 53.822C41.5404 53.8323 41.3818 53.8348 41.177 53.7775L40.9815 53.7019C40.7833 53.6274 40.7833 53.6274 40.6302 53.5514L40.5971 53.4078C40.3616 53.3847 40.182 53.3373 39.9626 53.2447L39.7134 53.1203C39.562 53.046 39.4122 52.968 39.2665 52.8832L39.2334 52.7396L39.0898 52.7728C38.7751 52.6792 38.7751 52.6792 38.35 52.1874L38.4831 52.1541L38.6585 52.1115C38.7703 52.084 38.8828 52.0594 38.996 52.0384C39.5493 52.0728 39.5493 52.0728 40.104 52.0772H40.1041C40.2169 52.0787 40.3298 52.0805 40.4426 52.0827C41.2884 52.116 42.1021 52.0597 42.9436 51.9677C43.8227 51.8713 44.7025 51.7896 45.5838 51.7157L45.797 51.6979C46.2667 51.6585 46.7365 51.6194 47.2063 51.5807C47.1567 51.3653 50.5361 49.6928 50.5145 49.6303L50.4317 49.3813L50.427 49.3675C50.3284 49.0765 50.2621 48.8806 50.3703 48.5828L50.5139 48.5497L50.4654 48.3512L50.4038 48.0931C50.3657 47.9349 50.33 47.7761 50.2986 47.6165C50.3363 47.3182 50.3363 47.3182 50.3062 47.0147C50.2937 46.8641 50.2851 46.713 50.2821 46.5619C50.3759 46.2231 50.3759 46.2231 50.308 45.8756C50.2639 45.6448 50.2639 45.6448 50.249 45.4356L50.249 45.4356C50.3803 45.231 50.4171 45.1997 50.3956 44.9431C50.3488 44.7023 50.301 44.4644 50.2712 44.2209C50.4084 44.0458 50.4084 44.0458 50.3389 43.8178L50.2823 43.6135L50.4811 43.4921C50.449 43.2814 50.449 43.2814 50.3387 43.1617C50.1444 42.9421 50.0126 42.7604 49.9345 42.4744C49.8747 42.162 49.8426 41.8657 49.6741 41.5918C49.4887 41.3553 49.3442 41.161 49.2443 40.8742C49.1696 40.5761 49.0496 40.3063 49.1905 40.019L49.2776 39.9141C49.1523 39.709 49.0404 39.5051 48.9385 39.2875L48.9382 39.2869C48.7672 38.8643 48.5909 38.4287 48.7632 37.9916L48.8692 37.816L48.8137 37.6879C48.499 37.1443 48.3037 36.4269 48.4055 35.8061L48.6209 35.7565L48.5546 35.4693C48.379 35.0525 48.2764 34.6304 48.1738 34.1899C48.1351 33.9785 48.1351 33.9785 48.1903 33.8902L48.4533 33.8626L48.7094 33.8461C48.5637 33.5997 48.4503 33.3778 48.3537 33.1071L48.2722 32.8318C48.1898 32.5591 48.1248 32.3684 48.1518 32.0847L48.2954 32.0516L48.2622 31.908L48.461 31.7866C48.3384 31.5118 48.2479 31.2397 48.1777 30.947L48.1429 30.7968C48.0758 30.5278 48.0218 30.2804 48.0375 30.0008C48.0857 29.832 48.0857 29.832 48.2524 29.6943L48.4115 29.6056L48.3066 29.4786C48.1948 29.0862 48.1631 28.774 48.2018 28.3688L48.649 28.3412C48.6159 28.1977 48.6159 28.1977 48.7097 27.9492Z" fill="#262626"/>
<path d="M47.2063 51.5807L47.124 51.0875L46.5996 51.1751L46.7191 51.6931L47.2063 51.5807ZM62.1882 72.1327L62.6595 72.2997L62.661 72.2953L62.1882 72.1327ZM62.211 72.0655L62.6867 72.2195L62.8786 71.6269L62.2585 71.5678L62.211 72.0655ZM61.7979 72.5574L61.298 72.5483L61.2969 72.6099L61.3107 72.6698L61.7979 72.5574ZM61.8311 72.701L62.0716 73.1394L62.3493 72.987L62.3302 72.6708L61.8311 72.701ZM61.703 72.74L61.5574 72.2617L61.4822 72.2846L61.4177 72.3294L61.703 72.74ZM49.4812 50.2999L49.2411 49.8613L47.0932 51.0372L47.3333 51.4758L47.5734 51.9144L49.7213 50.7384L49.4812 50.2999ZM47.2063 51.5807L47.2887 52.0738C47.3631 52.0614 47.4392 52.0313 47.4699 52.0194C47.5183 52.0005 47.5761 51.9761 47.6395 51.9485C47.7669 51.8928 47.9326 51.817 48.1212 51.729C48.499 51.5526 48.9819 51.3213 49.4616 51.0915C49.9428 50.861 50.4208 50.632 50.7931 50.458C50.9795 50.3709 51.1362 50.2992 51.2521 50.2485C51.3104 50.2229 51.3546 50.2044 51.3851 50.1925C51.4331 50.1737 51.4136 50.1847 51.3696 50.1923L51.2847 49.6995L51.1997 49.2068C51.1265 49.2194 51.0513 49.2493 51.0204 49.2613C50.9722 49.2802 50.9145 49.3046 50.8512 49.3323C50.7239 49.388 50.5583 49.4639 50.3698 49.552C49.9921 49.7285 49.5092 49.9599 49.0296 50.1896C48.5484 50.4202 48.0705 50.6491 47.6982 50.8228C47.5118 50.9098 47.3552 50.9815 47.2394 51.032C47.1811 51.0574 47.1371 51.0758 47.1067 51.0877C47.0586 51.1064 47.0789 51.095 47.124 51.0875L47.2063 51.5807ZM47.2229 51.6525L47.7101 51.5401L47.6935 51.4683L47.2063 51.5807L46.7191 51.6931L46.7357 51.7649L47.2229 51.6525ZM62.1882 72.1327L62.661 72.2953C62.6719 72.2638 62.6818 72.2348 62.6867 72.2195L62.211 72.0655L61.7353 71.9115C61.7353 71.9115 61.7349 71.9129 61.7337 71.9165C61.7326 71.9198 61.7311 71.924 61.7293 71.9293C61.7257 71.9399 61.721 71.9536 61.7154 71.97L62.1882 72.1327ZM62.211 72.0655L62.2585 71.5678C62.1313 71.5557 62.0323 71.5931 61.9803 71.6181C61.9256 71.6444 61.8851 71.6752 61.8607 71.6954C61.8125 71.7354 61.7751 71.7785 61.7527 71.8058C61.7054 71.8632 61.6581 71.9323 61.6228 71.9845C61.5817 72.0453 61.5511 72.0918 61.5205 72.1349C61.4834 72.1873 61.4806 72.1846 61.5021 72.1653L61.8356 72.5378L62.1691 72.9103C62.2114 72.8725 62.2454 72.8324 62.268 72.8044C62.2926 72.7739 62.3159 72.7421 62.3363 72.7133C62.3754 72.6582 62.4197 72.5912 62.4511 72.5447C62.4884 72.4896 62.5114 72.4576 62.5247 72.4415C62.5325 72.432 62.5229 72.4453 62.4991 72.4651C62.487 72.4751 62.4578 72.4981 62.4135 72.5194C62.3719 72.5395 62.2823 72.5746 62.1636 72.5633L62.211 72.0655ZM61.8356 72.5378L61.502 72.1653C61.5099 72.1583 61.5255 72.145 61.5483 72.1302L61.8201 72.5499L62.0919 72.9696C62.1243 72.9486 62.1503 72.9271 62.1691 72.9103L61.8356 72.5378ZM61.8201 72.5499L61.5484 72.1302C61.5675 72.1178 61.6003 72.0987 61.6453 72.0832C61.6904 72.0677 61.76 72.0516 61.8453 72.0597L61.7979 72.5574L61.7506 73.0552C61.9251 73.0718 62.0506 72.9963 62.0918 72.9697L61.8201 72.5499ZM61.7979 72.5574L61.3107 72.6698L61.3439 72.8134L61.8311 72.701L62.3183 72.5886L62.2852 72.445L61.7979 72.5574ZM61.8311 72.701L61.6854 72.2227L61.5574 72.2617L61.703 72.74L61.8487 73.2183L61.9767 73.1793L61.8311 72.701ZM61.703 72.74L61.4177 72.3294C61.3885 72.3497 61.3574 72.372 61.3306 72.3939C61.32 72.4026 61.2927 72.4251 61.2645 72.4563C61.253 72.469 61.2184 72.5079 61.1884 72.5661C61.175 72.5922 61.0599 72.8131 61.2039 73.0534C61.3457 73.2903 61.5907 73.296 61.618 73.2969C61.6821 73.2991 61.7319 73.2882 61.7484 73.2844C61.7884 73.2754 61.8202 73.2631 61.8311 73.2588C61.8594 73.2478 61.8866 73.235 61.904 73.2266C61.9426 73.208 61.9857 73.1854 62.0157 73.1695C62.0315 73.1611 62.0452 73.1537 62.055 73.1484C62.0599 73.1457 62.0639 73.1435 62.0667 73.142C62.0681 73.1412 62.0693 73.1406 62.0701 73.1402C62.0705 73.1399 62.0708 73.1398 62.0711 73.1396C62.0712 73.1396 62.0713 73.1395 62.0714 73.1395C62.0714 73.1394 62.0715 73.1394 62.0715 73.1394C62.0715 73.1394 62.0715 73.1394 62.0715 73.1394C62.0716 73.1394 62.0716 73.1394 61.8311 72.701C61.5906 72.2626 61.5906 72.2626 61.5906 72.2626C61.5906 72.2626 61.5906 72.2626 61.5906 72.2626C61.5906 72.2626 61.5906 72.2626 61.5906 72.2626C61.5906 72.2626 61.5906 72.2626 61.5906 72.2626C61.5905 72.2627 61.5903 72.2628 61.5901 72.2629C61.5896 72.2631 61.5889 72.2636 61.5878 72.2641C61.5858 72.2653 61.5826 72.267 61.5786 72.2691C61.5706 72.2735 61.5592 72.2796 61.5463 72.2865C61.5189 72.3011 61.4899 72.3161 61.4697 72.3258C61.4578 72.3316 61.459 72.3306 61.4681 72.327C61.4694 72.3265 61.4933 72.3169 61.5276 72.3091C61.5412 72.306 61.5887 72.2954 61.6511 72.2975C61.6829 72.2985 61.743 72.3034 61.813 72.3304C61.8873 72.359 61.9901 72.42 62.0618 72.5397C62.1339 72.6601 62.1392 72.7808 62.1283 72.8622C62.1181 72.9383 62.0926 72.9945 62.0778 73.0233C62.0487 73.0799 62.0156 73.1167 62.0064 73.1268C61.9927 73.142 61.9813 73.1526 61.976 73.1573C61.97 73.1628 61.9655 73.1665 61.9637 73.168C61.9591 73.1717 61.9641 73.1674 61.9883 73.1506L61.703 72.74ZM61.8311 72.701C62.3302 72.6708 62.3302 72.6707 62.3302 72.6707C62.3302 72.6707 62.3301 72.6707 62.3301 72.6707C62.3301 72.6707 62.3301 72.6707 62.3301 72.6707C62.3301 72.6707 62.3301 72.6706 62.3301 72.6706C62.3301 72.6705 62.3301 72.6704 62.3301 72.6703C62.3301 72.6701 62.3301 72.6698 62.3301 72.6695C62.33 72.6687 62.33 72.6677 62.3299 72.6664C62.3297 72.6638 62.3295 72.66 62.3292 72.6554C62.3286 72.6461 62.3277 72.633 62.3267 72.6176C62.3246 72.5872 62.3216 72.546 62.3182 72.5067L61.8201 72.5499L61.3219 72.5932C61.3246 72.6239 61.3271 72.6583 61.329 72.6859C61.33 72.6995 61.3307 72.7111 61.3312 72.7191C61.3315 72.7232 61.3317 72.7263 61.3318 72.7284C61.3319 72.7294 61.3319 72.7302 61.3319 72.7307C61.332 72.7309 61.332 72.7311 61.332 72.7312C61.332 72.7312 61.332 72.7313 61.332 72.7313C61.332 72.7313 61.332 72.7313 61.332 72.7313C61.332 72.7313 61.332 72.7313 61.332 72.7313C61.332 72.7313 61.332 72.7313 61.332 72.7313C61.332 72.7312 61.332 72.7312 61.8311 72.701ZM61.8201 72.5499L62.3182 72.5066C62.3181 72.5054 62.3179 72.5031 62.3178 72.5026L61.8197 72.5462L61.3216 72.5897C61.3218 72.5918 61.3218 72.592 61.3219 72.5932L61.8201 72.5499ZM61.8197 72.5462L62.3178 72.5024C62.3156 72.4767 62.3127 72.4471 62.3093 72.4204C62.3077 72.4077 62.3052 72.3893 62.3015 72.3696C62.2997 72.3599 62.2965 72.3441 62.2915 72.3255C62.2888 72.3153 62.2765 72.2681 62.2479 72.2146C62.2357 72.1918 62.1973 72.1224 62.1199 72.06C62.0252 71.9837 61.8445 71.9033 61.6351 71.9791C61.4736 72.0376 61.3977 72.1569 61.3771 72.1908C61.3488 72.2376 61.3345 72.2786 61.3285 72.2971C61.3082 72.3596 61.3041 72.4172 61.3037 72.4218C61.3003 72.4585 61.2989 72.5032 61.298 72.5483L61.7979 72.5574L62.2979 72.5666C62.2987 72.5234 62.2997 72.5109 62.2994 72.5142C62.2992 72.5161 62.2985 72.5235 62.2969 72.5342C62.2959 72.5406 62.2915 72.5694 62.2796 72.606C62.2741 72.6231 62.2603 72.663 62.2324 72.709C62.2123 72.7422 62.1368 72.8609 61.9758 72.9193C61.7669 72.995 61.5867 72.9146 61.4925 72.8387C61.4156 72.7767 61.3777 72.708 61.366 72.6862C61.3384 72.6345 61.3272 72.5903 61.3255 72.584C61.3215 72.5692 61.3194 72.5582 61.3187 72.5543C61.3171 72.5459 61.3167 72.5421 61.3173 72.5465C61.3183 72.5541 61.3198 72.5687 61.3217 72.59L61.8197 72.5462ZM61.7979 72.5574L62.0252 73.0028C62.0341 72.9983 62.0429 72.9937 62.0514 72.9893L61.8197 72.5462L61.588 72.1031C61.5824 72.1061 61.5766 72.109 61.5707 72.112L61.7979 72.5574ZM61.8197 72.5462L62.0516 72.9892C62.058 72.9858 62.0646 72.9823 62.0713 72.9788L61.8356 72.5378L61.5999 72.0968C61.5962 72.0988 61.5922 72.1009 61.5879 72.1032L61.8197 72.5462ZM61.8356 72.5378L62.0712 72.9788C62.2034 72.9082 62.3363 72.8223 62.4471 72.6917C62.5581 72.5609 62.6166 72.4206 62.6595 72.2997L62.1882 72.1327L61.7169 71.9656C61.6877 72.048 61.678 72.0525 61.6846 72.0447C61.6911 72.037 61.6838 72.052 61.6 72.0968L61.8356 72.5378ZM48.7098 27.9492L48.9445 26.9772L48.0645 26.7647L47.7658 27.6192L48.7098 27.9492ZM48.7097 27.9492L49.6452 28.3027L49.6496 28.291L49.6537 28.2792L48.7097 27.9492ZM48.649 28.3412L48.7105 29.3393L49.8888 29.2667L49.6234 28.1164L48.649 28.3412ZM48.2018 28.3688L48.1402 27.3707L47.2873 27.4233L47.2063 28.2739L48.2018 28.3688ZM48.3066 29.4786L47.3449 29.7526L47.4022 29.954L47.5356 30.1154L48.3066 29.4786ZM48.4115 29.6056L48.8984 30.4791L49.9471 29.8945L49.1825 28.9688L48.4115 29.6056ZM48.2524 29.6943L47.7655 28.8208L47.6859 28.8652L47.6156 28.9233L48.2524 29.6943ZM48.0375 30.0008L47.0759 29.7264L47.0454 29.8334L47.0391 29.9445L48.0375 30.0008ZM48.1429 30.7968L49.1171 30.5711L49.1152 30.563L49.1132 30.5549L48.1429 30.7968ZM48.1777 30.947L47.2035 31.1727L47.2053 31.1801L48.1777 30.947ZM48.461 31.7866L48.9824 32.6399L49.7325 32.1816L49.3742 31.3789L48.461 31.7866ZM48.2622 31.908L47.7409 31.0547L47.1258 31.4305L47.2878 32.1328L48.2622 31.908ZM48.2954 32.0516L48.5202 33.026L49.4946 32.8012L49.2698 31.8268L48.2954 32.0516ZM48.1518 32.0847L47.927 31.1103L47.2247 31.2723L47.1563 31.9898L48.1518 32.0847ZM48.2722 32.8318L49.2311 32.5479L49.2295 32.5427L48.2722 32.8318ZM48.3537 33.1071L47.3949 33.3911L47.4027 33.4173L47.4118 33.4431L48.3537 33.1071ZM48.7094 33.8461L48.7738 34.844L50.3991 34.739L49.5701 33.3371L48.7094 33.8461ZM48.4533 33.8626L48.3888 32.8647L48.3688 32.866L48.349 32.8681L48.4533 33.8626ZM48.1903 33.8902L48.086 32.8957L47.6009 32.9466L47.3424 33.3601L48.1903 33.8902ZM48.1738 34.1899L47.1902 34.3701L47.1945 34.3935L47.1999 34.4168L48.1738 34.1899ZM48.5546 35.4693L49.529 35.2446L49.5096 35.1605L49.4761 35.0809L48.5546 35.4693ZM48.6209 35.7565L48.8457 36.7309L49.8201 36.5061L49.5953 35.5317L48.6209 35.7565ZM48.4055 35.8061L48.1807 34.8317L47.5273 34.9825L47.4187 35.6443L48.4055 35.8061ZM48.8137 37.6879L49.7311 37.2901L49.7081 37.237L49.6791 37.1869L48.8137 37.6879ZM48.8692 37.816L49.7255 38.3325L49.9917 37.8911L49.7867 37.4181L48.8692 37.816ZM48.7632 37.9916L47.907 37.4751L47.8637 37.5468L47.8329 37.6248L48.7632 37.9916ZM48.9382 39.2869L48.0113 39.662L48.0117 39.6631L48.9382 39.2869ZM48.9385 39.2875L48.0119 39.6637L48.0218 39.6879L48.0328 39.7115L48.9385 39.2875ZM49.2776 39.9141L50.0467 40.5533L50.5039 40.0031L50.131 39.3927L49.2776 39.9141ZM49.1905 40.019L48.4214 39.3798L48.3451 39.4716L48.2926 39.5788L49.1905 40.019ZM49.2443 40.8742L48.2743 41.1172L48.2852 41.1609L48.3 41.2033L49.2443 40.8742ZM49.6741 41.5918L50.5258 41.0678L50.4962 41.0196L50.4612 40.975L49.6741 41.5918ZM49.9345 42.4744L48.9523 42.6623L48.9596 42.7004L48.9698 42.7379L49.9345 42.4744ZM50.3387 43.1617L49.5899 43.8244L49.5964 43.8318L49.6031 43.8391L50.3387 43.1617ZM50.4811 43.4921L51.0025 44.3454L51.5698 43.9987L51.4696 43.3414L50.4811 43.4921ZM50.2823 43.6135L49.7609 42.7602L49.1172 43.1535L49.3186 43.8804L50.2823 43.6135ZM50.3389 43.8178L49.3751 44.0847L49.3786 44.0973L49.3824 44.1098L50.3389 43.8178ZM50.2712 44.2209L49.4841 43.604L49.2282 43.9306L49.2786 44.3425L50.2712 44.2209ZM50.3956 44.9431L51.3921 44.8595L51.3876 44.8054L51.3772 44.7522L50.3956 44.9431ZM50.249 45.4356L49.4074 44.8955L49.2118 45.2003L49.2568 45.5596L50.249 45.4356ZM50.249 45.4356L51.2465 45.3646L51.2446 45.338L51.2413 45.3116L50.249 45.4356ZM50.308 45.8756L49.3258 46.0632L49.3266 46.0674L50.308 45.8756ZM50.2821 46.5619L49.3184 46.295L49.2794 46.4358L49.2823 46.5818L50.2821 46.5619ZM50.3062 47.0147L49.3097 47.0977L49.3103 47.1056L49.3111 47.1134L50.3062 47.0147ZM50.2986 47.6165L49.3065 47.491L49.2862 47.6514L49.3175 47.8099L50.2986 47.6165ZM50.4038 48.0931L51.3765 47.8609L51.376 47.8588L50.4038 48.0931ZM50.4654 48.3512L49.4927 48.5834L49.4939 48.5883L50.4654 48.3512ZM50.5139 48.5497L50.7386 49.5241L51.7255 49.2964L51.4853 48.3125L50.5139 48.5497ZM50.3703 48.5828L50.1455 47.6084L49.616 47.7305L49.4304 48.2412L50.3703 48.5828ZM50.427 49.3675L51.3742 49.0468L51.3741 49.0467L50.427 49.3675ZM50.4317 49.3813L51.3805 49.0656L51.3788 49.0606L50.4317 49.3813ZM50.5145 49.6303L49.5656 49.946L49.5695 49.9575L50.5145 49.6303ZM47.2063 51.5807L47.2884 52.5773L48.4406 52.4824L48.1807 51.3559L47.2063 51.5807ZM45.797 51.6979L45.8802 52.6944L45.8805 52.6944L45.797 51.6979ZM45.5838 51.7157L45.5006 50.7192L45.5003 50.7192L45.5838 51.7157ZM42.9436 51.9677L43.0522 52.9618L43.0526 52.9617L42.9436 51.9677ZM40.4426 52.0827L40.482 51.0834L40.4718 51.083L40.4616 51.0828L40.4426 52.0827ZM40.1041 52.0772L40.1176 51.0772H40.1041V52.0772ZM40.104 52.0772L40.0962 53.0772H40.104V52.0772ZM38.996 52.0384L39.0581 51.0403L38.9349 51.0327L38.8134 51.0552L38.996 52.0384ZM38.6585 52.1115L38.8941 53.0834L38.8974 53.0826L38.6585 52.1115ZM38.4831 52.1541L38.2475 51.1822L38.24 51.1841L38.4831 52.1541ZM38.35 52.1874L38.1068 51.2174L36.5312 51.6124L37.5934 52.8414L38.35 52.1874ZM39.0898 52.7728L38.805 53.7313L39.0577 53.8064L39.3146 53.7472L39.0898 52.7728ZM39.2334 52.7396L40.2078 52.5148L39.983 51.5404L39.0086 51.7652L39.2334 52.7396ZM39.2665 52.8832L38.2921 53.108L38.3894 53.5298L38.7635 53.7475L39.2665 52.8832ZM39.7134 53.1203L40.1599 52.2255L40.154 52.2226L39.7134 53.1203ZM39.9626 53.2447L39.5161 54.1395L39.5445 54.1536L39.5737 54.166L39.9626 53.2447ZM40.5971 53.4078L41.5715 53.183L41.41 52.4827L40.6947 52.4126L40.5971 53.4078ZM40.6302 53.5514L39.6558 53.7762L39.7621 54.2368L40.1855 54.447L40.6302 53.5514ZM40.9815 53.7019L41.3425 52.7692L41.3332 52.7657L40.9815 53.7019ZM41.177 53.7775L40.8161 54.7101L40.8613 54.7276L40.9079 54.7406L41.177 53.7775ZM41.751 53.822L42.2356 52.9473L41.9865 52.8093L41.7021 52.8232L41.751 53.822ZM42.016 53.9876L41.4369 54.8029L41.445 54.8085L42.016 53.9876ZM42.0161 53.9877L41.445 54.8086L41.8089 55.0617L42.2409 54.9621L42.0161 53.9877ZM42.1596 53.9545L43.1172 54.2428L43.6139 52.5928L41.9348 52.9801L42.1596 53.9545ZM42.1168 54.0967L41.1593 53.8084L41.1447 53.8568L41.1351 53.9064L42.1168 54.0967ZM42.1485 54.5619L41.1741 54.7867L41.3989 55.7611L42.3733 55.5363L42.1485 54.5619ZM42.2921 54.5288L43.2567 54.2652L43.0035 53.3384L42.0673 53.5544L42.2921 54.5288ZM42.3638 55.495L41.3728 55.361L41.3584 55.468L41.3671 55.5756L42.3638 55.495ZM42.3766 55.6527L43.3688 55.7771L43.3816 55.6748L43.3733 55.5721L42.3766 55.6527ZM41.9031 56.3242L41.2115 55.6019L41.2062 55.607L41.9031 56.3242ZM41.5907 56.7318L40.6963 56.2845L40.5355 56.6061L40.6163 56.9566L41.5907 56.7318ZM41.6238 56.8753L42.1452 57.7286L42.7603 57.3528L42.5983 56.6505L41.6238 56.8753ZM41.4251 56.9968L40.9037 56.1435L40.2886 56.5193L40.4507 57.2216L41.4251 56.9968ZM41.4747 57.2121L41.6995 58.1865L42.6739 57.9617L42.4491 56.9873L41.4747 57.2121ZM41.3312 57.2452L41.1064 56.2708L40.3773 56.439L40.3329 57.1859L41.3312 57.2452ZM41.3215 57.4081L42.2975 57.6257L42.315 57.5475L42.3198 57.4674L41.3215 57.4081ZM41.0062 58.0511L40.1852 57.4802L40.1612 57.5146L40.1403 57.5509L41.0062 58.0511ZM40.9722 58.3108L40.928 59.3099L42.2424 59.368L41.9466 58.086L40.9722 58.3108ZM40.8004 58.3032L40.8446 57.3042L40.7768 57.3012L40.7093 57.3074L40.8004 58.3032ZM40.3428 58.5316L39.6334 57.8268L39.2443 58.2185L39.3684 58.7564L40.3428 58.5316ZM40.3924 58.747L40.9138 59.6003L41.5289 59.2245L41.3669 58.5222L40.3924 58.747ZM39.9949 58.9899L39.4735 58.1366L38.8585 58.5124L39.0205 59.2147L39.9949 58.9899ZM40.0611 59.277L39.0867 59.5018L39.2992 60.4231L40.231 60.2625L40.0611 59.277ZM42.2921 58.4028L41.8049 57.5295L41.8043 57.5298L42.2921 58.4028ZM44.3245 57.4194L44.7201 58.3378L44.7237 58.3362L44.3245 57.4194ZM44.6564 57.2748L44.2581 56.3576L44.2571 56.358L44.6564 57.2748ZM46.8521 56.3612L47.2207 57.2908L47.2208 57.2908L46.8521 56.3612ZM47.0469 56.2839L46.6819 55.3529L46.6783 55.3544L47.0469 56.2839ZM47.2142 56.2184L47.5792 57.1494L47.5939 57.1436L47.6085 57.1374L47.2142 56.2184ZM47.5539 56.0365L47.2787 55.0751L47.1482 55.1124L47.0325 55.1831L47.5539 56.0365ZM49.6006 55.789L49.4963 56.7836L49.5052 56.7845L49.5142 56.7853L49.6006 55.789ZM50.3871 55.8034L50.363 54.8037L50.3623 54.8037L50.3871 55.8034ZM51.1318 55.8159L51.0369 56.8113L51.1507 56.8222L51.2641 56.8071L51.1318 55.8159ZM51.657 55.7372L51.4967 54.7501L51.4951 54.7504L51.657 55.7372ZM51.9379 55.6916L52.0982 56.6787L52.1019 56.6781L51.9379 55.6916ZM52.1532 55.6558L53.1316 55.4488L52.9334 54.5124L51.9892 54.6693L52.1532 55.6558ZM52.1827 55.7952L51.2044 56.0022L51.2059 56.0093L52.1827 55.7952ZM52.2222 55.9754L53.1997 55.7643L53.199 55.7612L52.2222 55.9754ZM52.261 56.1551L51.2836 56.3662L51.29 56.3961L51.2983 56.4257L52.261 56.1551ZM52.3906 56.357L53.3479 56.0678L53.2392 55.7082L52.9207 55.5091L52.3906 56.357ZM52.5145 56.7915L51.5496 57.0542L51.5529 57.0664L51.5565 57.0785L52.5145 56.7915ZM53.3859 58.5079L54.1279 57.8375L54.1065 57.8138L54.0836 57.7915L53.3859 58.5079ZM53.7496 59.4319L52.7812 59.6813L52.7939 59.7306L52.8116 59.7784L53.7496 59.4319ZM54.0965 59.8191L55.0651 59.5706L54.9526 59.132L54.5487 58.9272L54.0965 59.8191ZM54.1793 60.178L53.1994 60.3777L53.2852 60.7984L53.6492 61.0259L54.1793 60.178ZM54.3559 60.2884L55.2801 59.9065L55.1577 59.6103L54.886 59.4404L54.3559 60.2884ZM54.5436 60.7743L53.6032 61.1142L53.6244 61.173L53.6528 61.2287L54.5436 60.7743ZM54.6817 61.0449L55.6561 60.8201L55.6284 60.7001L55.5724 60.5904L54.6817 61.0449ZM54.7313 61.2602L53.7569 61.485L53.9817 62.4594L54.9561 62.2346L54.7313 61.2602ZM54.8749 61.2271L55.8493 61.0023L55.6245 60.0279L54.6501 60.2527L54.8749 61.2271ZM54.908 61.3706L53.9336 61.5954L54.0267 61.999L54.3779 62.2186L54.908 61.3706ZM55.0847 61.4811L56.0219 61.8299L56.3064 61.0655L55.6148 60.6331L55.0847 61.4811ZM54.9943 61.724L54.0571 61.3752L54.0451 61.4073L54.0354 61.4401L54.9943 61.724ZM55.222 63.2145L54.3347 63.6756L54.3407 63.6872L54.347 63.6986L55.222 63.2145ZM55.2833 63.3252L55.5081 64.2996L56.8004 64.0015L56.1583 62.8411L55.2833 63.3252ZM55.1398 63.3583L54.915 62.3839L54.2199 62.5443L54.1453 63.2537L55.1398 63.3583ZM55.2225 64.7001L54.2758 65.0223L54.3569 65.2604L54.541 65.4318L55.2225 64.7001ZM55.373 64.8402L56.1261 64.1824L56.0922 64.1435L56.0545 64.1084L55.373 64.8402ZM55.631 65.8154L56.479 66.3454L56.6447 66.0803L56.6299 65.7679L55.631 65.8154ZM55.5758 65.9037L54.7278 65.3737L54.5448 65.6665L54.5814 66.0098L55.5758 65.9037ZM56.0869 67.063L56.9231 66.5147L56.8806 66.4499L56.8286 66.3924L56.0869 67.063ZM56.1886 67.5768L55.1886 67.5683L55.1878 67.6593L55.2035 67.7489L56.1886 67.5768ZM56.2817 68.0419L57.259 67.8298L57.2574 67.8229L56.2817 68.0419ZM56.3334 68.2801L55.3562 68.4923L55.365 68.5332L55.3773 68.5732L56.3334 68.2801ZM56.6467 68.9075L55.8165 69.4649L56.2726 70.1441L57.0287 69.8316L56.6467 68.9075ZM57.0609 68.7363L58.0569 68.6479L57.9367 67.2923L56.6789 67.8121L57.0609 68.7363ZM57.0835 68.9921L56.0875 69.0805L56.0881 69.0879L56.0889 69.0953L57.0835 68.9921ZM57.244 69.9604L58.2265 69.7738L58.2241 69.7612L58.2213 69.7486L57.244 69.9604ZM57.2749 70.123L56.2924 70.3096L56.295 70.323L56.2979 70.3364L57.2749 70.123ZM57.5797 70.6921L56.9459 71.4656L57.0555 71.5554L57.1857 71.6112L57.5797 70.6921ZM57.5797 70.6921L57.9755 69.7737L57.9737 69.773L57.5797 70.6921ZM57.9165 70.8069L58.9084 70.6798L58.8209 69.9965L58.1512 69.8348L57.9165 70.8069ZM57.9471 71.0458L56.9552 71.1729L56.9562 71.1804L56.9573 71.188L57.9471 71.0458ZM57.9924 71.3611L58.9848 71.2377L58.9836 71.2283L58.9823 71.219L57.9924 71.3611ZM58.0119 71.518L57.0196 71.6414L57.0211 71.6537L57.0229 71.666L58.0119 71.518ZM58.441 72.4247L57.6857 73.0802L57.7839 73.1933L57.9109 73.2727L58.441 72.4247ZM58.6176 72.5351L59.5975 72.3353L59.5117 71.9147L59.1477 71.6872L58.6176 72.5351ZM58.7386 73.2964L57.7468 73.4243L57.7479 73.4324L57.7491 73.4405L58.7386 73.2964ZM59.0868 74.2413L58.284 74.8375L58.4875 75.1115L58.816 75.2039L59.0868 74.2413ZM59.4788 74.302L59.473 75.302H59.4788V74.302ZM59.4788 74.302L60.4598 74.1076L60.3 73.302H59.4788V74.302ZM59.5113 74.4658L58.5303 74.6603L58.533 74.6727L59.5113 74.4658ZM59.5568 74.681L60.5363 74.4794L60.5352 74.4741L59.5568 74.681ZM59.6007 74.8941L58.6212 75.0956L58.6306 75.1415L58.6443 75.1862L59.6007 74.8941ZM59.8708 75.3456L59.1533 76.0422L59.5461 76.4468L60.0956 76.32L59.8708 75.3456ZM60.1579 75.2794L61.0112 74.758L60.6354 74.1429L59.9331 74.305L60.1579 75.2794ZM60.4008 75.6769L59.5475 76.1983L59.9907 76.9236L60.7779 76.6031L60.4008 75.6769ZM60.6714 75.5389L61.1928 76.3922L61.6194 76.1315L61.6669 75.6338L60.6714 75.5389ZM60.6935 75.307L60.4687 74.3326L59.7664 74.4946L59.698 75.2122L60.6935 75.307ZM60.837 75.2739L61.0618 76.2483L62.0363 76.0235L61.8114 75.0491L60.837 75.2739ZM60.8039 75.1303L60.2825 74.277L59.6675 74.6528L59.8295 75.3552L60.8039 75.1303ZM61.0027 75.0089L61.5241 75.8622L62.1391 75.4864L61.9771 74.7841L61.0027 75.0089ZM60.9696 74.8653L60.7448 73.8909L59.7704 74.1157L59.9952 75.0901L60.9696 74.8653ZM61.1131 74.8322L61.338 75.8066L61.7969 75.7007L62.0076 75.2794L61.1131 74.8322ZM61.1132 74.8322L60.243 74.3394L60.2303 74.3619L60.2187 74.385L61.1132 74.8322ZM61.3171 74.2418L60.318 74.1994L60.3171 74.2216L60.3171 74.2438L61.3171 74.2418ZM61.323 74.1034L60.7302 73.298L60.3442 73.5821L60.3239 74.061L61.323 74.1034ZM61.4399 74.0174L62.0327 74.8227L62.0729 74.7931L62.1099 74.7597L61.4399 74.0174ZM61.7447 73.4533L60.7964 73.136L60.7947 73.1413L61.7447 73.4533ZM61.8232 73.2187L62.7716 73.536L62.7753 73.5246L61.8232 73.2187ZM61.8973 72.9881L60.9462 72.6792L60.9452 72.6823L61.8973 72.9881ZM61.9731 72.7548L62.9242 73.0637L62.9245 73.0628L61.9731 72.7548ZM62.1882 72.1327L61.2456 71.7986L61.2426 71.8073L62.1882 72.1327ZM62.211 72.0655L63.161 72.3778L63.1757 72.333L63.1862 72.2871L62.211 72.0655ZM62.2832 71.732L61.307 71.5151L61.3054 71.5225L61.3038 71.5299L62.2832 71.732ZM62.3611 71.3812L63.3374 71.5981L63.3388 71.5915L62.3611 71.3812ZM62.3982 71.2088L61.4214 70.9947L61.4206 70.9986L62.3982 71.2088ZM62.5438 70.6088L63.5128 70.8562L63.5159 70.8435L62.5438 70.6088ZM62.7092 69.6256L61.7197 69.4812L61.7174 69.4968L61.7156 69.5126L62.7092 69.6256ZM62.7513 69.3372L63.7409 69.4816L63.7424 69.4703L62.7513 69.3372ZM62.8455 68.2428L61.8484 68.1668L61.8478 68.1752L62.8455 68.2428ZM62.9816 67.1814L63.9663 67.3557L63.9701 67.3344L63.9729 67.3131L62.9816 67.1814ZM62.9358 66.0202L62.711 65.0458L61.6738 65.2851L61.9773 66.3053L62.9358 66.0202ZM63.0794 65.9871L63.3042 66.9615L64.0786 66.7828L64.0794 65.988L63.0794 65.9871ZM63.0796 65.7245L62.0796 65.7221L62.0796 65.7235L63.0796 65.7245ZM63.0804 65.3773L64.0804 65.3797L64.0804 65.3779L63.0804 65.3773ZM63.0805 65.205L62.0805 65.2021L62.0805 65.2043L63.0805 65.205ZM63.0986 64.4384L64.0973 64.4904L64.0973 64.4896L63.0986 64.4384ZM63.1199 63.3979L62.1199 63.3914L62.1199 63.3934L63.1199 63.3979ZM63.1213 63.1858L64.1213 63.1924L64.1213 63.1918L63.1213 63.1858ZM63.1217 62.2638L62.1217 62.2716L62.1217 62.2722L63.1217 62.2638ZM63.1197 62.0041L64.1196 61.9963L64.1196 61.9905L63.1197 62.0041ZM63.1167 61.7824L62.1166 61.7835L62.1167 61.796L63.1167 61.7824ZM63.1641 61.4441L64.1189 61.7413L64.1323 61.6983L64.1417 61.6544L63.1641 61.4441ZM63.1826 60.8869L62.1854 60.961L62.1859 60.9675L63.1826 60.8869ZM63.1659 60.6619L64.1632 60.5879L64.1629 60.5842L63.1659 60.6619ZM63.1474 60.4243L62.1499 60.4952L62.1504 60.5021L63.1474 60.4243ZM63.1161 58.8959L64.1138 58.9638L64.1138 58.9637L63.1161 58.8959ZM61.9538 54.4107L62.7281 53.7779L62.7125 53.7589L62.696 53.7405L61.9538 54.4107ZM61.8265 54.2697L61.0769 54.9317L61.0842 54.9398L61.8265 54.2697ZM61.4127 53.5196L60.8445 52.6968L60.2857 53.0827L60.4383 53.7444L61.4127 53.5196ZM62.528 52.7858L62.0135 51.9283L62.0052 51.9332L61.9971 51.9383L62.528 52.7858ZM62.528 52.7857L62.0162 51.9266L62.0135 51.9282L62.528 52.7857ZM62.6606 52.7068L62.1521 51.8457L62.1488 51.8477L62.6606 52.7068ZM63.0339 52.4886L63.5364 53.3532L63.5652 53.3364L63.5928 53.3178L63.0339 52.4886ZM63.6214 51.9517L63.1 51.0984L62.9771 51.1735L62.8805 51.2802L63.6214 51.9517ZM63.8202 51.8303L64.3416 52.6836L64.9566 52.3078L64.7946 51.6055L63.8202 51.8303ZM63.7871 51.6867L63.2494 50.8436L62.6539 51.2233L62.8127 51.9115L63.7871 51.6867ZM63.9148 51.6053L64.4525 52.4484L64.4794 52.4312L64.5052 52.4123L63.9148 51.6053ZM64.2327 51.3412L64.9378 52.0502L64.9398 52.0483L64.2327 51.3412ZM64.2327 51.3412L63.5276 50.6321L63.5256 50.634L64.2327 51.3412ZM65.4491 50.6985L65.6938 51.6681L67.8788 51.1165L66.0038 49.8664L65.4491 50.6985ZM65.4491 50.6985L64.8077 51.4657L64.8493 51.5005L64.8944 51.5305L65.4491 50.6985ZM64.9082 50.3446L64.4402 51.2283L64.5035 51.2618L64.5708 51.2859L64.9082 50.3446ZM64.5771 49.8885L65.518 49.55L65.5127 49.5351L65.5069 49.5205L64.5771 49.8885ZM64.1185 49.1911L63.472 49.9541L63.481 49.9615L64.1185 49.1911ZM63.9533 49.0511L64.5998 48.2882L64.5761 48.2681L64.5512 48.2495L63.9533 49.0511ZM60.8848 48.136L60.7828 49.1308L60.7974 49.1323L60.812 49.1333L60.8848 48.136ZM60.1377 47.9926L60.3769 47.0217L60.1453 46.9646L59.9129 47.0182L60.1377 47.9926ZM59.9941 48.0258L59 48.134L59.1219 49.2533L60.2189 49.0002L59.9941 48.0258ZM60.0579 46.4075L61.0385 46.6039L61.0407 46.5917L60.0579 46.4075ZM59.9688 44.8848L58.9957 45.115L58.9964 45.1182L59.9688 44.8848ZM59.9133 44.6505L60.8865 44.4202L60.8849 44.4135L59.9133 44.6505ZM59.4037 43.1724L58.5014 43.6035L58.5048 43.6108L58.5084 43.618L59.4037 43.1724ZM59.2866 42.9274L60.1889 42.4963L60.1876 42.4937L59.2866 42.9274ZM58.973 42.289L59.8673 41.8414L59.515 41.1377L58.7483 41.3146L58.973 42.289ZM58.8295 42.3221L57.9086 42.712L58.236 43.4853L59.0543 43.2965L58.8295 42.3221ZM58.7438 42.1198L59.6647 41.7299L59.6633 41.7266L58.7438 42.1198ZM57.4441 39.5338L56.58 40.0372L56.583 40.0422L57.4441 39.5338ZM56.8679 38.4891L57.7473 38.013L57.7467 38.0119L56.8679 38.4891ZM55.848 36.669L54.9817 37.1686L54.9824 37.1697L55.848 36.669ZM55.7255 36.4567L56.5918 35.9571L56.59 35.954L55.7255 36.4567ZM55.0066 35.2955L54.169 35.8418L54.1717 35.8458L55.0066 35.2955ZM54.7362 34.8607L55.5949 34.3482L55.591 34.3416L54.7362 34.8607ZM54.1804 33.9872L53.3408 34.5305L53.3438 34.535L54.1804 33.9872ZM54.0886 33.8455L54.9282 33.3022L54.9236 33.2951L54.0886 33.8455ZM53.6676 33.3826L54.1977 32.5346L53.8698 32.3297L53.4894 32.3986L53.6676 33.3826ZM53.3087 33.4654L52.3343 33.6902L52.5712 34.7172L53.5844 34.4266L53.3087 33.4654ZM53.2756 33.3218L53.0508 32.3474L52.0764 32.5722L52.3012 33.5466L53.2756 33.3218ZM53.5627 33.2556L53.7875 34.23L54.7619 34.0052L54.5371 33.0308L53.5627 33.2556ZM53.2758 32.6774L52.4502 33.2417L52.451 33.2429L53.2758 32.6774ZM53.044 32.3281L53.8839 31.7853L53.8811 31.7812L53.044 32.3281ZM51.1114 29.9419L50.3733 30.6165L50.3744 30.6178L51.1114 29.9419ZM50.9534 29.769L51.6916 29.0944L51.6867 29.0891L50.9534 29.769ZM50.8036 29.6075L50.0695 30.2865L50.0703 30.2873L50.8036 29.6075ZM50.6705 29.4635L51.4046 28.7845L51.3847 28.763L51.3635 28.7426L50.6705 29.4635ZM50.2777 29.1751L49.4962 29.7989L49.6047 29.9348L49.7527 30.0261L50.2777 29.1751ZM50.1386 29.0008L50.9201 28.3769L50.9106 28.365L50.9008 28.3534L50.1386 29.0008ZM49.4068 28.3696L48.8133 29.1745L48.8229 29.1814L49.4068 28.3696ZM49.2572 28.2593L49.8506 27.4544L49.8461 27.4511L49.2572 28.2593ZM48.7098 27.9492L47.7658 27.6192L47.7658 27.6192L48.7097 27.9492L49.6537 28.2792L49.6537 28.2792L48.7098 27.9492ZM48.7097 27.9492L47.7743 27.5958C47.7532 27.6516 47.7287 27.716 47.7095 27.7722C47.6905 27.828 47.6607 27.9206 47.6435 28.0314C47.6016 28.3022 47.6657 28.5274 47.6746 28.566L48.649 28.3412L49.6234 28.1164C49.6212 28.107 49.6198 28.1008 49.6186 28.0954C49.618 28.0929 49.6176 28.0911 49.6173 28.0898C49.6172 28.0892 49.6171 28.0887 49.617 28.0884C49.6169 28.088 49.6169 28.0879 49.6169 28.0879C49.6169 28.0879 49.6169 28.0881 49.617 28.0884C49.6171 28.0888 49.6172 28.0893 49.6173 28.09C49.6176 28.0914 49.618 28.0936 49.6185 28.0965C49.6196 28.1022 49.6211 28.1113 49.6226 28.123C49.6259 28.1474 49.629 28.1815 49.6289 28.2225C49.6288 28.2642 49.6253 28.303 49.6199 28.3377C49.6104 28.3995 49.5961 28.4366 49.6024 28.418C49.6086 28.3998 49.6194 28.371 49.6452 28.3027L48.7097 27.9492ZM48.649 28.3412L48.5874 27.3431L48.1402 27.3707L48.2018 28.3688L48.2633 29.3669L48.7105 29.3393L48.649 28.3412ZM48.2018 28.3688L47.2063 28.2739C47.1553 28.809 47.2006 29.2463 47.3449 29.7526L48.3066 29.4786L49.2683 29.2046C49.189 28.9262 49.171 28.739 49.1972 28.4637L48.2018 28.3688ZM48.3066 29.4786L47.5356 30.1154L47.6405 30.2424L48.4115 29.6056L49.1825 28.9688L49.0776 28.8418L48.3066 29.4786ZM48.4115 29.6056L47.9246 28.7321L47.7655 28.8208L48.2524 29.6943L48.7393 30.5678L48.8984 30.4791L48.4115 29.6056ZM48.2524 29.6943L47.6156 28.9233C47.5811 28.9517 47.5284 28.995 47.4825 29.0367C47.4319 29.0826 47.355 29.1573 47.2817 29.2618C47.2037 29.373 47.1576 29.4782 47.1278 29.5604C47.1039 29.6264 47.0844 29.6966 47.0759 29.7264L48.0375 30.0008L48.9991 30.2752C49.0057 30.2522 49.0089 30.241 49.0114 30.2326C49.0138 30.2246 49.0124 30.2299 49.0082 30.2416C48.9972 30.272 48.9705 30.337 48.9194 30.4099C48.8729 30.4761 48.8302 30.5144 48.828 30.5164C48.8266 30.5177 48.8295 30.515 48.8412 30.5051C48.853 30.4952 48.8674 30.4834 48.8892 30.4653L48.2524 29.6943ZM48.0375 30.0008L47.0391 29.9445C47.0142 30.3871 47.1036 30.762 47.1726 31.0388L48.1429 30.7968L49.1132 30.5549C49.048 30.2936 49.0294 30.1736 49.0359 30.0571L48.0375 30.0008ZM48.1429 30.7968L47.1687 31.0225L47.2035 31.1727L48.1777 30.947L49.1519 30.7213L49.1171 30.5711L48.1429 30.7968ZM48.1777 30.947L47.2053 31.1801C47.2888 31.5284 47.3984 31.8594 47.5479 32.1942L48.461 31.7866L49.3742 31.3789C49.2783 31.1642 49.207 30.951 49.1502 30.7139L48.1777 30.947ZM48.461 31.7866L47.9396 30.9333L47.7409 31.0547L48.2622 31.908L48.7836 32.7613L48.9824 32.6399L48.461 31.7866ZM48.2622 31.908L47.2878 32.1328L47.321 32.2764L48.2954 32.0516L49.2698 31.8268L49.2367 31.6832L48.2622 31.908ZM48.2954 32.0516L48.0706 31.0772L47.927 31.1103L48.1518 32.0847L48.3766 33.0591L48.5202 33.026L48.2954 32.0516ZM48.1518 32.0847L47.1563 31.9898C47.1076 32.5009 47.2419 32.8792 47.3149 33.121L48.2722 32.8318L49.2295 32.5427C49.2061 32.4654 49.191 32.4166 49.1766 32.3663C49.1635 32.32 49.1563 32.2903 49.152 32.2684C49.1456 32.236 49.1439 32.2151 49.1473 32.1796L48.1518 32.0847ZM48.2722 32.8318L47.3134 33.1158L47.3949 33.3911L48.3537 33.1071L49.3126 32.8232L49.231 32.5479L48.2722 32.8318ZM48.3537 33.1071L47.4118 33.4431C47.5364 33.7922 47.6821 34.0735 47.8486 34.3551L48.7094 33.8461L49.5701 33.3371C49.4453 33.126 49.3642 32.9634 49.2956 32.7712L48.3537 33.1071ZM48.7094 33.8461L48.6449 32.8481L48.3888 32.8647L48.4533 33.8626L48.5178 34.8605L48.7738 34.844L48.7094 33.8461ZM48.4533 33.8626L48.349 32.8681L48.086 32.8957L48.1903 33.8902L48.2947 34.8847L48.5576 34.8572L48.4533 33.8626ZM48.1903 33.8902L47.3424 33.3601C47.3335 33.3743 47.1667 33.6065 47.1484 33.939C47.138 34.1274 47.1838 34.3351 47.1902 34.3701L48.1738 34.1899L49.1575 34.0097C49.1465 33.9497 49.1431 33.9303 49.1416 33.9206C49.1397 33.9073 49.15 33.9648 49.1453 34.0489C49.1427 34.097 49.1355 34.1522 49.1205 34.2116C49.1057 34.2709 49.0866 34.3205 49.0691 34.359C49.0529 34.3946 49.0385 34.4194 49.0344 34.4263C49.0313 34.4317 49.0294 34.4345 49.0383 34.4203L48.1903 33.8902ZM48.1738 34.1899L47.1999 34.4168C47.3016 34.8536 47.4203 35.3529 47.6332 35.8578L48.5546 35.4693L49.4761 35.0809C49.3376 34.7522 49.2512 34.4072 49.1478 33.9631L48.1738 34.1899ZM48.5546 35.4693L47.5802 35.6941L47.6465 35.9813L48.6209 35.7565L49.5953 35.5317L49.529 35.2446L48.5546 35.4693ZM48.6209 35.7565L48.3961 34.7821L48.1807 34.8317L48.4055 35.8061L48.6303 36.7805L48.8457 36.7309L48.6209 35.7565ZM48.4055 35.8061L47.4187 35.6443C47.2694 36.5548 47.5532 37.5065 47.9482 38.1889L48.8137 37.6879L49.6791 37.1869C49.4448 36.7822 49.3381 36.299 49.3924 35.968L48.4055 35.8061ZM48.8137 37.6879L47.8962 38.0857L47.9517 38.2138L48.8692 37.816L49.7867 37.4181L49.7311 37.2901L48.8137 37.6879ZM48.8692 37.816L48.0129 37.2994L47.907 37.4751L48.7632 37.9916L49.6195 38.5081L49.7255 38.3325L48.8692 37.816ZM48.7632 37.9916L47.8329 37.6248C47.4893 38.4964 47.8745 39.3242 48.0113 39.662L48.9382 39.2869L49.8652 38.9118C49.7727 38.6832 49.7243 38.5555 49.702 38.4458C49.6926 38.3996 49.6923 38.3749 49.6928 38.3651C49.6929 38.3627 49.6931 38.3611 49.6932 38.3602C49.6933 38.3593 49.6934 38.3589 49.6934 38.3588C49.6934 38.3588 49.6934 38.3589 49.6933 38.359C49.6933 38.3591 49.6933 38.3589 49.6936 38.3584L48.7632 37.9916ZM48.9382 39.2869L48.0117 39.6631L48.0119 39.6637L48.9385 39.2875L49.865 38.9112L49.8648 38.9106L48.9382 39.2869ZM48.9385 39.2875L48.0328 39.7115C48.1528 39.9677 48.2829 40.2041 48.4243 40.4355L49.2776 39.9141L50.131 39.3927C50.0217 39.2139 49.928 39.0426 49.8441 38.8634L48.9385 39.2875ZM49.2776 39.9141L48.5086 39.275L48.4214 39.3798L49.1905 40.019L49.9596 40.6581L50.0467 40.5533L49.2776 39.9141ZM49.1905 40.019L48.2926 39.5788C48.1056 39.9602 48.106 40.3213 48.1483 40.5952C48.1784 40.7905 48.2668 41.0873 48.2743 41.1172L49.2443 40.8742L50.2143 40.6311C50.2018 40.5812 50.189 40.5346 50.1781 40.4954C50.1659 40.4516 50.1583 40.425 50.1493 40.3922C50.1324 40.3302 50.1269 40.3032 50.1248 40.2899C50.1233 40.28 50.1274 40.2994 50.1235 40.3365C50.1192 40.3774 50.1071 40.4209 50.0884 40.4592L49.1905 40.019ZM49.2443 40.8742L48.3 41.2033C48.4586 41.6583 48.6951 41.9637 48.887 42.2087L49.6741 41.5918L50.4612 40.975C50.2824 40.7468 50.2299 40.6636 50.1886 40.5451L49.2443 40.8742ZM49.6741 41.5918L48.8225 42.1159C48.8353 42.1367 48.8532 42.1736 48.8745 42.2594C48.8856 42.304 48.8962 42.3559 48.9089 42.4249C48.9189 42.4788 48.9375 42.5851 48.9523 42.6623L49.9345 42.4744L50.9166 42.2866C50.8777 42.0827 50.8167 41.5404 50.5258 41.0678L49.6741 41.5918ZM49.9345 42.4744L48.9698 42.7379C49.1064 43.2379 49.3521 43.5558 49.5899 43.8244L50.3387 43.1617L51.0875 42.4989C51.0037 42.4042 50.9663 42.354 50.9441 42.3179C50.927 42.2902 50.9129 42.2613 50.8991 42.2109L49.9345 42.4744ZM50.3387 43.1617L49.6031 43.8391C49.6183 43.8556 49.625 43.8629 49.6297 43.8682C49.6341 43.8731 49.6292 43.8678 49.6203 43.8566C49.5971 43.8274 49.5557 43.7695 49.5208 43.6885C49.4899 43.6168 49.4799 43.5629 49.4798 43.5627C49.4796 43.5617 49.4805 43.5662 49.483 43.5815C49.4855 43.5967 49.4883 43.6152 49.4925 43.6427L50.4811 43.4921L51.4696 43.3414C51.463 43.2974 51.4533 43.2324 51.4417 43.1741C51.4292 43.111 51.4062 43.01 51.3576 42.897C51.2583 42.6666 51.0928 42.5044 51.0743 42.4843L50.3387 43.1617ZM50.4811 43.4921L49.9597 42.6387L49.7609 42.7602L50.2823 43.6135L50.8037 44.4668L51.0025 44.3454L50.4811 43.4921ZM50.2823 43.6135L49.3186 43.8804L49.3751 44.0847L50.3389 43.8178L51.3026 43.5509L51.246 43.3466L50.2823 43.6135ZM50.3389 43.8178L49.3824 44.1098C49.4046 44.1822 49.4032 44.1803 49.4002 44.1668C49.3948 44.1421 49.3706 44.027 49.3964 43.8736C49.4231 43.7144 49.4874 43.6076 49.5095 43.5734C49.5218 43.5544 49.5296 43.546 49.4841 43.604L50.2712 44.2209L51.0583 44.8377C51.0814 44.8082 51.1407 44.7341 51.1894 44.6588C51.2479 44.5682 51.3336 44.4142 51.3688 44.2047C51.403 44.0009 51.3744 43.8321 51.3537 43.7378C51.3354 43.6548 51.308 43.5674 51.2953 43.5259L50.3389 43.8178ZM50.2712 44.2209L49.2786 44.3425C49.3137 44.6284 49.3694 44.9046 49.414 45.1341L50.3956 44.9431L51.3772 44.7522C51.3281 44.5 51.2884 44.3005 51.2638 44.0992L50.2712 44.2209ZM50.3956 44.9431L49.3991 45.0268C49.4008 45.0469 49.4012 45.0571 49.4014 45.0605C49.4015 45.0637 49.4011 45.0562 49.402 45.041C49.4029 45.0252 49.4052 45.001 49.4109 44.971C49.4167 44.9403 49.4251 44.909 49.4358 44.8784C49.4567 44.8186 49.4794 44.783 49.4744 44.7913C49.4718 44.7956 49.4665 44.8041 49.454 44.8235C49.4444 44.8383 49.4244 44.869 49.4074 44.8955L50.249 45.4356L51.0907 45.9757C51.1089 45.9472 51.1556 45.8762 51.1863 45.8255C51.2244 45.7623 51.2796 45.6645 51.3235 45.5393C51.4186 45.2675 51.4057 45.021 51.3921 44.8595L50.3956 44.9431ZM50.249 45.4356L49.2568 45.5596L49.2568 45.5596L50.249 45.4356L51.2413 45.3116L51.2413 45.3115L50.249 45.4356ZM50.249 45.4356L49.2516 45.5066C49.2695 45.7592 49.2752 45.7984 49.3258 46.0632L50.308 45.8756L51.2903 45.6879C51.2661 45.5613 51.2615 45.5356 51.2587 45.5146C51.2564 45.4971 51.2547 45.4796 51.2465 45.3646L50.249 45.4356ZM50.308 45.8756L49.3266 46.0674C49.3452 46.1626 49.3528 46.2025 49.3568 46.2294C49.3595 46.2474 49.3549 46.2244 49.3564 46.1843C49.358 46.1439 49.3643 46.1209 49.3604 46.1377C49.3545 46.1636 49.3441 46.202 49.3184 46.295L50.2821 46.5619L51.2458 46.8289C51.2804 46.704 51.3463 46.4892 51.355 46.2598C51.3636 46.0313 51.3145 45.812 51.2894 45.6838L50.308 45.8756ZM50.2821 46.5619L49.2823 46.5818C49.2858 46.7573 49.2957 46.9297 49.3097 47.0977L50.3062 47.0147L51.3028 46.9317C51.2917 46.7985 51.2844 46.6688 51.2819 46.5421L50.2821 46.5619ZM50.3062 47.0147L49.3111 47.1134C49.319 47.1934 49.3234 47.2377 49.326 47.2716C49.3271 47.2866 49.3276 47.2953 49.3278 47.3C49.3279 47.3023 49.3279 47.3036 49.3279 47.3042C49.3279 47.3045 49.3279 47.3047 49.3279 47.3048C49.3279 47.3048 49.3279 47.3049 49.3279 47.3049C49.3279 47.3049 49.3279 47.3049 49.3279 47.3049C49.3279 47.3049 49.3279 47.3049 49.3279 47.3049C49.3279 47.3049 49.3279 47.3049 49.3279 47.3049C49.3279 47.3049 49.3279 47.3049 49.3279 47.3049C49.3279 47.3049 49.3279 47.3049 49.3279 47.305C49.3279 47.305 49.3279 47.3052 49.3279 47.3054C49.3279 47.3059 49.3278 47.3071 49.3277 47.3092C49.3274 47.3136 49.3268 47.3218 49.3252 47.3363C49.3218 47.3692 49.3164 47.4123 49.3065 47.491L50.2986 47.6165L51.2907 47.742C51.3069 47.6139 51.3259 47.475 51.3278 47.3303C51.3296 47.1864 51.3143 47.0465 51.3013 46.916L50.3062 47.0147ZM50.2986 47.6165L49.3175 47.8099C49.3522 47.9864 49.3911 48.1593 49.4316 48.3274L50.4038 48.0931L51.376 47.8588C51.3402 47.7106 51.3078 47.5659 51.2797 47.4231L50.2986 47.6165ZM50.4038 48.0931L49.4311 48.3253L49.4927 48.5834L50.4654 48.3512L51.4381 48.119L51.3765 47.8609L50.4038 48.0931ZM50.4654 48.3512L49.4939 48.5883L49.5424 48.7868L50.5139 48.5497L51.4853 48.3125L51.4369 48.114L50.4654 48.3512ZM50.5139 48.5497L50.2891 47.5753L50.1455 47.6084L50.3703 48.5828L50.5951 49.5572L50.7386 49.5241L50.5139 48.5497ZM50.3703 48.5828L49.4304 48.2412C49.1919 48.8975 49.3817 49.3985 49.4798 49.6883L50.427 49.3675L51.3741 49.0467C51.3478 48.9689 51.3331 48.925 51.3224 48.8876C51.3127 48.8538 51.3124 48.8462 51.3133 48.8532C51.3146 48.8634 51.3156 48.8824 51.3131 48.9044C51.3106 48.9255 51.3068 48.9337 51.3101 48.9244L50.3703 48.5828ZM50.427 49.3675L49.4798 49.6882L49.4845 49.702L50.4317 49.3813L51.3788 49.0606L51.3742 49.0468L50.427 49.3675ZM50.4317 49.3813L49.4828 49.697L49.5656 49.946L50.5145 49.6303L51.4634 49.3147L51.3805 49.0656L50.4317 49.3813ZM50.5145 49.6303L49.5695 49.9575C49.4699 49.6697 49.5273 49.4231 49.5723 49.2969C49.6175 49.1697 49.6784 49.0812 49.7096 49.0391C49.7726 48.954 49.8344 48.9003 49.851 48.8859C49.8761 48.864 49.8962 48.849 49.905 48.8426C49.9152 48.8351 49.9224 48.8303 49.9249 48.8286C49.9296 48.8255 49.9175 48.8335 49.8763 48.8573C49.7998 48.9015 49.6811 48.9668 49.5248 49.0511C49.2341 49.208 48.7803 49.4485 48.3736 49.6689C47.9545 49.8959 47.5185 50.1373 47.186 50.3393C47.0239 50.4378 46.8605 50.5425 46.7307 50.6409C46.6707 50.6865 46.5804 50.7585 46.4973 50.8494C46.4573 50.8932 46.3858 50.9769 46.3245 51.0945C46.2716 51.1962 46.1529 51.4631 46.2319 51.8055L47.2063 51.5807L48.1807 51.3559C48.2566 51.6848 48.1416 51.9354 48.0985 52.0181C48.0471 52.1168 47.9917 52.1789 47.9737 52.1986C47.9347 52.2413 47.9119 52.2552 47.9395 52.2343C47.985 52.1998 48.0772 52.138 48.2246 52.0485C48.5112 51.8744 48.9093 51.6533 49.3262 51.4274C49.7554 51.1949 50.1394 50.9921 50.4747 50.8111C50.6314 50.7266 50.7728 50.6492 50.8767 50.5891C50.9258 50.5608 50.9841 50.5263 51.0358 50.4917C51.0568 50.4777 51.108 50.4432 51.1626 50.3958C51.1849 50.3764 51.2509 50.3184 51.3165 50.2298C51.349 50.1859 51.4108 50.0959 51.4565 49.9673C51.502 49.8397 51.5594 49.5919 51.4595 49.3032L50.5145 49.6303ZM47.2063 51.5807L47.1242 50.5841C46.6538 50.6228 46.1835 50.662 45.7134 50.7014L45.797 51.6979L45.8805 52.6944C46.35 52.6551 46.8192 52.6159 47.2884 52.5773L47.2063 51.5807ZM45.797 51.6979L45.7137 50.7014L45.5006 50.7192L45.5838 51.7157L45.6671 52.7122L45.8802 52.6944L45.797 51.6979ZM45.5838 51.7157L45.5003 50.7192C44.6132 50.7936 43.7245 50.876 42.8345 50.9737L42.9436 51.9677L43.0526 52.9617C43.9209 52.8665 44.7917 52.7856 45.6673 52.7122L45.5838 51.7157ZM42.9436 51.9677L42.8349 50.9736C42.0176 51.063 41.2584 51.1141 40.482 51.0834L40.4426 52.0827L40.4032 53.0819C41.3185 53.118 42.1867 53.0564 43.0522 52.9618L42.9436 51.9677ZM40.4426 52.0827L40.4616 51.0828C40.3468 51.0807 40.2322 51.0788 40.1176 51.0773L40.1041 52.0772L40.0906 53.0771C40.2017 53.0786 40.3127 53.0804 40.4236 53.0825L40.4426 52.0827ZM40.1041 52.0772V51.0772H40.104V52.0772V53.0772H40.1041V52.0772ZM40.104 52.0772L40.1118 51.0772C39.5752 51.073 39.5933 51.0737 39.0581 51.0403L38.996 52.0384L38.9338 53.0365C39.5052 53.072 39.5234 53.0727 40.0962 53.0772L40.104 52.0772ZM38.996 52.0384L38.8134 51.0552C38.6795 51.0801 38.5481 51.1089 38.4196 51.1405L38.6585 52.1115L38.8974 53.0826C38.9925 53.0592 39.0862 53.0387 39.1786 53.0216L38.996 52.0384ZM38.6585 52.1115L38.4228 51.1397L38.2475 51.1822L38.4831 52.1541L38.7188 53.1259L38.8941 53.0834L38.6585 52.1115ZM38.4831 52.1541L38.24 51.1841L38.1068 51.2174L38.35 52.1874L38.5931 53.1574L38.7263 53.124L38.4831 52.1541ZM38.35 52.1874L37.5934 52.8414C37.77 53.0456 37.954 53.2659 38.1408 53.4137C38.4067 53.6241 38.6711 53.6915 38.805 53.7313L39.0898 52.7728L39.3746 51.8142C39.3325 51.8017 39.3089 51.7946 39.29 51.7885C39.2725 51.7829 39.2721 51.7823 39.28 51.7855C39.3102 51.7979 39.3497 51.8199 39.3817 51.8452C39.3987 51.8586 39.3916 51.8563 39.338 51.7977C39.2854 51.7403 39.2167 51.661 39.1065 51.5335L38.35 52.1874ZM39.0898 52.7728L39.3146 53.7472L39.4582 53.714L39.2334 52.7396L39.0086 51.7652L38.865 51.7983L39.0898 52.7728ZM39.2334 52.7396L38.259 52.9644L38.2921 53.108L39.2665 52.8832L40.2409 52.6584L40.2078 52.5148L39.2334 52.7396ZM39.2665 52.8832L38.7635 53.7475C38.9358 53.8477 39.1077 53.937 39.2727 54.018L39.7134 53.1203L40.154 52.2226C40.0163 52.155 39.8887 52.0883 39.7695 52.0189L39.2665 52.8832ZM39.7134 53.1203L39.2668 54.0151L39.5161 54.1395L39.9626 53.2447L40.4092 52.3499L40.1599 52.2255L39.7134 53.1203ZM39.9626 53.2447L39.5737 54.166C39.8803 54.2954 40.1579 54.3695 40.4995 54.403L40.5971 53.4078L40.6947 52.4126C40.5654 52.3999 40.4837 52.3792 40.3516 52.3234L39.9626 53.2447ZM40.5971 53.4078L39.6227 53.6326L39.6558 53.7762L40.6302 53.5514L41.6046 53.3266L41.5715 53.183L40.5971 53.4078ZM40.6302 53.5514L40.1855 54.447C40.2546 54.4813 40.3201 54.5143 40.3952 54.5464C40.465 54.5763 40.5401 54.6043 40.6298 54.638L40.9815 53.7019L41.3332 52.7657C41.2247 52.725 41.2007 52.7157 41.1827 52.708C41.1699 52.7025 41.159 52.6974 41.075 52.6557L40.6302 53.5514ZM40.9815 53.7019L40.6206 54.6344L40.8161 54.7101L41.177 53.7775L41.538 52.8449L41.3424 52.7693L40.9815 53.7019ZM41.177 53.7775L40.9079 54.7406C41.275 54.8432 41.5678 54.8322 41.8 54.8208L41.751 53.822L41.7021 52.8232C41.5993 52.8282 41.5531 52.8287 41.5191 52.8267C41.4948 52.8253 41.4753 52.8226 41.4462 52.8144L41.177 53.7775ZM41.751 53.822L41.2664 54.6967C41.3042 54.7177 41.3262 54.7299 41.3431 54.7394C41.3583 54.748 41.3623 54.7506 41.3625 54.7507C41.3652 54.7524 41.3686 54.7544 41.4369 54.8029L42.016 53.9876L42.5951 53.1724C42.543 53.1353 42.4861 53.0945 42.4226 53.0548C42.3618 53.0168 42.2984 52.982 42.2356 52.9473L41.751 53.822ZM42.016 53.9876L41.445 54.8085L41.445 54.8086L42.0161 53.9877L42.5871 53.1667L42.5871 53.1667L42.016 53.9876ZM42.0161 53.9877L42.2409 54.9621L42.3844 54.9289L42.1596 53.9545L41.9348 52.9801L41.7913 53.0133L42.0161 53.9877ZM42.1596 53.9545L41.2021 53.6663L41.1593 53.8084L42.1168 54.0967L43.0744 54.385L43.1172 54.2428L42.1596 53.9545ZM42.1168 54.0967L41.1351 53.9064C41.1229 53.9695 41.0828 54.1451 41.0972 54.3564C41.108 54.5146 41.1504 54.684 41.1741 54.7867L42.1485 54.5619L43.1229 54.3371C43.1145 54.3005 43.1079 54.2718 43.1023 54.2469C43.0967 54.222 43.0931 54.2055 43.0907 54.1939C43.0884 54.1822 43.0882 54.1801 43.0888 54.184C43.0894 54.1886 43.0913 54.2015 43.0926 54.2204C43.0939 54.2402 43.0944 54.2619 43.0935 54.2843C43.0927 54.3063 43.0908 54.3231 43.0896 54.3324C43.0886 54.3405 43.088 54.3427 43.0897 54.3335C43.0915 54.3236 43.0939 54.3111 43.0985 54.287L42.1168 54.0967ZM42.1485 54.5619L42.3733 55.5363L42.5169 55.5032L42.2921 54.5288L42.0673 53.5544L41.9237 53.5875L42.1485 54.5619ZM42.2921 54.5288L41.3274 54.7923C41.3909 55.0247 41.4005 55.1563 41.3728 55.361L42.3638 55.495L43.3548 55.6291C43.4228 55.1262 43.3818 54.723 43.2567 54.2652L42.2921 54.5288ZM42.3638 55.495L41.3671 55.5756L41.3798 55.7334L42.3766 55.6527L43.3733 55.5721L43.3605 55.4144L42.3638 55.495ZM42.3766 55.6527L41.3843 55.5283C41.3905 55.4789 41.4052 55.4381 41.4188 55.4104C41.4312 55.3854 41.4395 55.3774 41.4304 55.3885C41.4204 55.4006 41.4012 55.4217 41.3619 55.4597C41.3427 55.4783 41.3219 55.4979 41.296 55.5221C41.2719 55.5448 41.2415 55.5732 41.2115 55.6019L41.9031 56.3242L42.5946 57.0466C42.6493 56.9942 42.8356 56.8282 42.9739 56.6603C43.1338 56.4663 43.319 56.1741 43.3688 55.7771L42.3766 55.6527ZM41.9031 56.3242L41.2062 55.607C41.0281 55.7801 40.8488 55.9796 40.6963 56.2845L41.5907 56.7318L42.4851 57.179C42.4969 57.1556 42.5052 57.1436 42.514 57.1323C42.526 57.1171 42.548 57.0919 42.5999 57.0414L41.9031 56.3242ZM41.5907 56.7318L40.6163 56.9566L40.6494 57.1001L41.6238 56.8753L42.5983 56.6505L42.5651 56.507L41.5907 56.7318ZM41.6238 56.8753L41.1024 56.022L40.9037 56.1435L41.4251 56.9968L41.9465 57.8501L42.1452 57.7286L41.6238 56.8753ZM41.4251 56.9968L40.4507 57.2216L40.5003 57.4369L41.4747 57.2121L42.4491 56.9873L42.3995 56.772L41.4251 56.9968ZM41.4747 57.2121L41.2499 56.2377L41.1064 56.2708L41.3312 57.2452L41.556 58.2196L41.6995 58.1865L41.4747 57.2121ZM41.3312 57.2452L40.3329 57.1859L40.3233 57.3488L41.3215 57.4081L42.3198 57.4674L42.3294 57.3045L41.3312 57.2452ZM41.3215 57.4081L40.3455 57.1905C40.3361 57.2323 40.3262 57.2566 40.3122 57.2835C40.2919 57.3223 40.2607 57.3715 40.1852 57.4802L41.0062 58.0511L41.8273 58.622C41.9914 58.3859 42.1944 58.0883 42.2975 57.6257L41.3215 57.4081ZM41.0062 58.0511L40.1403 57.5509C40.1309 57.5672 40.0956 57.6269 40.0664 57.6878C40.0299 57.7637 39.9806 57.8845 39.9601 58.041C39.9403 58.1923 39.9556 58.3167 39.9673 58.3879C39.9773 58.4489 39.9924 58.5121 39.9978 58.5356L40.9722 58.3108L41.9466 58.086C41.9355 58.0378 41.9381 58.0472 41.9409 58.0642C41.9454 58.0913 41.9587 58.1816 41.9432 58.3004C41.927 58.4244 41.8881 58.5144 41.8694 58.5533C41.8581 58.577 41.848 58.593 41.8721 58.5513L41.0062 58.0511ZM40.9722 58.3108L41.0164 57.3118L40.8446 57.3042L40.8004 58.3032L40.7562 59.3023L40.928 59.3099L40.9722 58.3108ZM40.8004 58.3032L40.7093 57.3074C40.5401 57.3229 40.3157 57.3573 40.0819 57.4796C39.8658 57.5926 39.7139 57.7457 39.6334 57.8268L40.3428 58.5316L41.0522 59.2365C41.0862 59.2022 41.0944 59.1956 41.0909 59.1985C41.0833 59.2049 41.0546 59.2279 41.009 59.2518C40.9615 59.2766 40.9187 59.2904 40.8903 59.2973C40.8673 59.3029 40.8621 59.3018 40.8914 59.2991L40.8004 58.3032ZM40.3428 58.5316L39.3684 58.7564L39.418 58.9718L40.3924 58.747L41.3669 58.5222L41.3172 58.3069L40.3428 58.5316ZM40.3924 58.747L39.8711 57.8937L39.4735 58.1366L39.9949 58.9899L40.5163 59.8432L40.9138 59.6003L40.3924 58.747ZM39.9949 58.9899L39.0205 59.2147L39.0867 59.5018L40.0611 59.277L41.0355 59.0522L40.9693 58.7651L39.9949 58.9899ZM40.0611 59.277L40.231 60.2625C41.2094 60.0939 42.0383 59.6901 42.7799 59.2757L42.2921 58.4028L41.8043 57.5298C41.1233 57.9104 40.5316 58.1812 39.8913 58.2915L40.0611 59.277ZM42.2921 58.4028L42.7794 59.276C43.3995 58.9301 44.0419 58.6299 44.7201 58.3378L44.3245 57.4194L43.9288 56.501C43.2173 56.8075 42.507 57.1378 41.8049 57.5295L42.2921 58.4028ZM44.3245 57.4194L44.7237 58.3362L45.0556 58.1917L44.6564 57.2748L44.2571 56.358L43.9252 56.5025L44.3245 57.4194ZM44.6564 57.2748L45.0547 58.1921C45.7736 57.8799 46.4948 57.5786 47.2207 57.2908L46.8521 56.3612L46.4836 55.4316C45.7351 55.7283 44.9939 56.0381 44.2581 56.3576L44.6564 57.2748ZM46.8521 56.3612L47.2208 57.2908L47.4156 57.2135L47.0469 56.2839L46.6783 55.3544L46.4835 55.4316L46.8521 56.3612ZM47.0469 56.2839L47.4119 57.215L47.5792 57.1494L47.2142 56.2184L46.8492 55.2874L46.6819 55.3529L47.0469 56.2839ZM47.2142 56.2184L47.6085 57.1374C47.8095 57.0511 47.8543 57.0248 48.0753 56.8898L47.5539 56.0365L47.0325 55.1831C46.9811 55.2145 46.9487 55.2343 46.9237 55.2493C46.8994 55.2638 46.8916 55.268 46.8902 55.2687C46.89 55.2689 46.8905 55.2686 46.8909 55.2684C46.8912 55.2683 46.8898 55.269 46.8856 55.2709C46.8741 55.2761 46.8584 55.2829 46.8199 55.2994L47.2142 56.2184ZM47.5539 56.0365L47.8291 56.9979C48.4586 56.8176 48.9764 56.729 49.4963 56.7836L49.6006 55.789L49.7049 54.7945C48.8118 54.7008 48.0062 54.8668 47.2787 55.0751L47.5539 56.0365ZM49.6006 55.789L49.5142 56.7853C49.8365 56.8132 50.1392 56.8098 50.4119 56.8031L50.3871 55.8034L50.3623 54.8037C50.1044 54.8101 49.8934 54.8107 49.687 54.7928L49.6006 55.789ZM50.3871 55.8034L50.4111 56.8031C50.6704 56.7969 50.854 56.7939 51.0369 56.8113L51.1318 55.8159L51.2266 54.8204C50.9073 54.7899 50.6081 54.7978 50.363 54.8037L50.3871 55.8034ZM51.1318 55.8159L51.2641 56.8071C51.4513 56.7821 51.6364 56.754 51.8189 56.724L51.657 55.7372L51.4951 54.7504C51.3282 54.7778 51.1632 54.8028 50.9994 54.8246L51.1318 55.8159ZM51.657 55.7372L51.8172 56.7243L52.0982 56.6787L51.9379 55.6916L51.7777 54.7045L51.4967 54.7501L51.657 55.7372ZM51.9379 55.6916L52.1019 56.6781L52.3172 56.6423L52.1532 55.6558L51.9892 54.6693L51.7739 54.7051L51.9379 55.6916ZM52.1532 55.6558L51.1749 55.8629L51.2044 56.0022L52.1827 55.7952L53.161 55.5881L53.1316 55.4488L52.1532 55.6558ZM52.1827 55.7952L51.2059 56.0093L51.2454 56.1895L52.2222 55.9754L53.199 55.7612L53.1595 55.581L52.1827 55.7952ZM52.2222 55.9754L51.2447 56.1864L51.2836 56.3662L52.261 56.1551L53.2385 55.9441L53.1997 55.7643L52.2222 55.9754ZM52.261 56.1551L51.2983 56.4257C51.306 56.4528 51.3211 56.5077 51.3377 56.5575C51.3551 56.6096 51.3928 56.7155 51.4665 56.8304C51.5504 56.9611 51.6471 57.0523 51.7289 57.1153C51.7893 57.1617 51.8536 57.2006 51.8605 57.205L52.3906 56.357L52.9207 55.5091C52.8835 55.4858 52.9146 55.5041 52.9488 55.5304C53.0045 55.5732 53.0821 55.6449 53.1498 55.7503C53.2073 55.84 53.2317 55.915 53.2347 55.924C53.237 55.9309 53.2367 55.9307 53.2237 55.8846L52.261 56.1551ZM52.3906 56.357L51.4333 56.6462C51.4732 56.7783 51.5113 56.9137 51.5496 57.0542L52.5145 56.7915L53.4793 56.5288C53.4385 56.3787 53.3951 56.2241 53.3479 56.0678L52.3906 56.357ZM52.5145 56.7915L51.5565 57.0785C51.7304 57.6587 52.0304 58.5837 52.6882 59.2243L53.3859 58.5079L54.0836 57.7915C53.8404 57.5547 53.6541 57.1109 53.4724 56.5045L52.5145 56.7915ZM53.3859 58.5079L52.6439 59.1783C52.6367 59.1704 52.6487 59.1758 52.6727 59.25C52.6858 59.2906 52.6992 59.3409 52.7172 59.4161C52.7323 59.4788 52.757 59.5873 52.7812 59.6813L53.7496 59.4319L54.718 59.1825C54.6754 59.0171 54.5778 58.3355 54.1279 57.8375L53.3859 58.5079ZM53.7496 59.4319L52.8116 59.7784C52.8562 59.8993 52.9432 60.1364 53.1359 60.3476C53.3244 60.5542 53.5504 60.6634 53.6442 60.7109L54.0965 59.8191L54.5487 58.9272C54.4971 58.901 54.4917 58.8967 54.5005 58.9024C54.5171 58.9129 54.5631 58.9445 54.6134 58.9996C54.664 59.0551 54.692 59.1049 54.7027 59.1259C54.7095 59.1394 54.7062 59.1354 54.6877 59.0854L53.7496 59.4319ZM54.0965 59.8191L53.1278 60.0676C53.1545 60.1716 53.1785 60.2749 53.1994 60.3777L54.1793 60.178L55.1591 59.9782C55.131 59.8404 55.0994 59.7044 55.0651 59.5706L54.0965 59.8191ZM54.1793 60.178L53.6492 61.0259L53.8259 61.1364L54.3559 60.2884L54.886 59.4404L54.7093 59.33L54.1793 60.178ZM54.3559 60.2884L53.4318 60.6703C53.4918 60.8156 53.5488 60.9636 53.6032 61.1142L54.5436 60.7743L55.4841 60.4344C55.4205 60.2584 55.3527 60.0821 55.2801 59.9065L54.3559 60.2884ZM54.5436 60.7743L53.6528 61.2287L53.7909 61.4993L54.6817 61.0449L55.5724 60.5904L55.4344 60.3199L54.5436 60.7743ZM54.6817 61.0449L53.7072 61.2696L53.7569 61.485L54.7313 61.2602L55.7057 61.0354L55.6561 60.8201L54.6817 61.0449ZM54.7313 61.2602L54.9561 62.2346L55.0997 62.2015L54.8749 61.2271L54.6501 60.2527L54.5066 60.2858L54.7313 61.2602ZM54.8749 61.2271L53.9005 61.4519L53.9336 61.5954L54.908 61.3706L55.8824 61.1458L55.8493 61.0023L54.8749 61.2271ZM54.908 61.3706L54.3779 62.2186L54.5546 62.329L55.0847 61.4811L55.6148 60.6331L55.4381 60.5227L54.908 61.3706ZM55.0847 61.4811L54.1475 61.1322L54.0571 61.3752L54.9943 61.724L55.9314 62.0729L56.0219 61.8299L55.0847 61.4811ZM54.9943 61.724L54.0354 61.4401C53.7682 62.3425 54.0236 63.0771 54.3347 63.6756L55.222 63.2145L56.1093 62.7533C55.9077 62.3653 55.8969 62.1978 55.9531 62.0079L54.9943 61.724ZM55.222 63.2145L54.347 63.6986L54.4083 63.8093L55.2833 63.3252L56.1583 62.8411L56.097 62.7303L55.222 63.2145ZM55.2833 63.3252L55.0585 62.3508L54.915 62.3839L55.1398 63.3583L55.3646 64.3328L55.5081 64.2996L55.2833 63.3252ZM55.1398 63.3583L54.1453 63.2537C54.0929 63.7511 54.0454 64.3451 54.2758 65.0223L55.2225 64.7001L56.1692 64.3778C56.0881 64.1397 56.0863 63.9192 56.1343 63.463L55.1398 63.3583ZM55.2225 64.7001L54.541 65.4318L54.6914 65.572L55.373 64.8402L56.0545 64.1084L55.904 63.9683L55.2225 64.7001ZM55.373 64.8402L54.6198 65.498C54.5926 65.4668 54.595 65.4438 54.6042 65.4904C54.6096 65.5182 54.6151 65.5592 54.6198 65.6242C54.6249 65.6943 54.6273 65.7602 54.6321 65.8629L55.631 65.8154L56.6299 65.7679C56.6183 65.5232 56.6405 64.7713 56.1261 64.1824L55.373 64.8402ZM55.631 65.8154L54.783 65.2854L54.7278 65.3737L55.5758 65.9037L56.4238 66.4338L56.479 66.3454L55.631 65.8154ZM55.5758 65.9037L54.5814 66.0098C54.6533 66.6839 54.8759 67.2147 55.3451 67.7337L56.0869 67.063L56.8286 66.3924C56.6582 66.2039 56.5997 66.0747 56.5701 65.7977L55.5758 65.9037ZM56.0869 67.063L55.2506 67.6114C55.2469 67.6058 55.2329 67.5832 55.2188 67.5461C55.2119 67.5281 55.206 67.5093 55.2013 67.4905C55.1967 67.4718 55.1938 67.4557 55.1921 67.4431C55.189 67.4203 55.19 67.4114 55.1901 67.4358C55.1902 67.4477 55.19 67.4625 55.1897 67.4859C55.1894 67.5069 55.1888 67.5374 55.1886 67.5683L56.1886 67.5768L57.1885 67.5852C57.1898 67.4322 57.2358 66.9915 56.9231 66.5147L56.0869 67.063ZM56.1886 67.5768L55.2035 67.7489C55.2337 67.9217 55.2682 68.0925 55.306 68.261L56.2817 68.0419L57.2574 67.8229C57.2259 67.6828 57.1979 67.5434 57.1736 67.4047L56.1886 67.5768ZM56.2817 68.0419L55.3045 68.2541L55.3562 68.4923L56.3334 68.2801L57.3106 68.068L57.2589 67.8298L56.2817 68.0419ZM56.3334 68.2801L55.3773 68.5732C55.4898 68.9402 55.6471 69.2125 55.8165 69.4649L56.6467 68.9075L57.477 68.35C57.3685 68.1885 57.3236 68.0984 57.2895 67.9871L56.3334 68.2801ZM56.6467 68.9075L57.0287 69.8316L57.4428 69.6605L57.0609 68.7363L56.6789 67.8121L56.2648 67.9833L56.6467 68.9075ZM57.0609 68.7363L56.0648 68.8247L56.0875 69.0805L57.0835 68.9921L58.0796 68.9038L58.0569 68.6479L57.0609 68.7363ZM57.0835 68.9921L56.0889 69.0953C56.1278 69.4703 56.1919 69.8269 56.2667 70.1721L57.244 69.9604L58.2213 69.7486C58.1567 69.4502 58.1073 69.1694 58.0782 68.889L57.0835 68.9921ZM57.244 69.9604L56.2616 70.1469L56.2924 70.3096L57.2749 70.123L58.2573 69.9365L58.2265 69.7738L57.244 69.9604ZM57.2749 70.123L56.2979 70.3364C56.324 70.456 56.3689 70.6677 56.4714 70.8784C56.5895 71.1209 56.7531 71.3076 56.9459 71.4656L57.5797 70.6921L58.2135 69.9186C58.2012 69.9085 58.2086 69.913 58.224 69.9317C58.2318 69.9411 58.2402 69.9525 58.2487 69.9657C58.2571 69.9788 58.2641 69.9916 58.2697 70.0029C58.2806 70.0253 58.2826 70.0359 58.2782 70.0209C58.276 70.0132 58.2728 70.0011 58.2682 69.9819C58.2636 69.9626 58.2584 69.9396 58.2519 69.9096L57.2749 70.123ZM57.5797 70.6921L57.1857 71.6112L57.1858 71.6112L57.5797 70.6921L57.9737 69.773L57.9736 69.7729L57.5797 70.6921ZM57.5797 70.6921L57.184 71.6105C57.257 71.6419 57.3436 71.68 57.4317 71.7101C57.5264 71.7424 57.616 71.7631 57.6818 71.779L57.9165 70.8069L58.1512 69.8348C58.1078 69.8243 58.0886 69.8197 58.0748 69.8161C58.0655 69.8136 58.0691 69.8144 58.077 69.817C58.0835 69.8192 58.0833 69.8195 58.0666 69.8126C58.0476 69.8048 58.0223 69.7939 57.9755 69.7738L57.5797 70.6921ZM57.9165 70.8069L56.9246 70.934L56.9552 71.1729L57.9471 71.0458L58.939 70.9187L58.9084 70.6798L57.9165 70.8069ZM57.9471 71.0458L56.9573 71.188L57.0026 71.5032L57.9924 71.3611L58.9823 71.219L58.937 70.9037L57.9471 71.0458ZM57.9924 71.3611L57.0001 71.4845L57.0196 71.6414L58.0119 71.518L59.0043 71.3946L58.9848 71.2377L57.9924 71.3611ZM58.0119 71.518L57.0229 71.666C57.0624 71.9298 57.1282 72.1843 57.2503 72.4385C57.3706 72.6889 57.5243 72.8942 57.6857 73.0802L58.441 72.4247L59.1962 71.7692C59.1003 71.6587 59.0684 71.6043 59.053 71.5723C59.0395 71.5441 59.0194 71.4935 59.0009 71.37L58.0119 71.518ZM58.441 72.4247L57.9109 73.2727L58.0876 73.3831L58.6176 72.5351L59.1477 71.6872L58.971 71.5767L58.441 72.4247ZM58.6176 72.5351L57.6378 72.735C57.6822 72.9528 57.7148 73.1759 57.7468 73.4243L58.7386 73.2964L59.7304 73.1686C59.6963 72.9042 59.6564 72.6246 59.5975 72.3353L58.6176 72.5351ZM58.7386 73.2964L57.7491 73.4405C57.8117 73.8709 57.9188 74.3457 58.284 74.8375L59.0868 74.2413L59.8896 73.645C59.8103 73.5382 59.7704 73.4425 59.7282 73.1524L58.7386 73.2964ZM59.0868 74.2413L58.816 75.2039C58.8962 75.2265 59.0187 75.2628 59.1418 75.2819C59.2793 75.3032 59.4059 75.3016 59.473 75.302L59.4788 74.302L59.4846 73.3021C59.4613 73.3019 59.4451 73.3018 59.4314 73.3017C59.4179 73.3015 59.4117 73.3013 59.4093 73.3012C59.408 73.3012 59.4246 73.3018 59.4482 73.3055C59.4687 73.3086 59.478 73.3116 59.4618 73.3074C59.4424 73.3024 59.4149 73.2948 59.3577 73.2787L59.0868 74.2413ZM59.4788 74.302V75.302H59.4788V74.302V73.302H59.4788V74.302ZM59.4788 74.302L58.4979 74.4965L58.5304 74.6603L59.5113 74.4658L60.4922 74.2714L60.4598 74.1076L59.4788 74.302ZM59.5113 74.4658L58.533 74.6727L58.5784 74.8878L59.5568 74.681L60.5352 74.4741L60.4897 74.2589L59.5113 74.4658ZM59.5568 74.681L58.5773 74.8825L58.6212 75.0956L59.6007 74.8941L60.5801 74.6926L60.5363 74.4794L59.5568 74.681ZM59.6007 74.8941L58.6443 75.1862C58.7553 75.5497 58.909 75.7905 59.1533 76.0422L59.8708 75.3456L60.5883 74.649C60.5664 74.6265 60.5568 74.6152 60.5538 74.6114C60.5517 74.6089 60.5553 74.6131 60.5607 74.622C60.5632 74.6261 60.5653 74.63 60.567 74.6334C60.5687 74.6366 60.5694 74.6384 60.5693 74.6382C60.5689 74.6373 60.5648 74.6273 60.557 74.602L59.6007 74.8941ZM59.8708 75.3456L60.0956 76.32L60.3827 76.2538L60.1579 75.2794L59.9331 74.305L59.646 74.3712L59.8708 75.3456ZM60.1579 75.2794L59.3046 75.8008L59.5475 76.1983L60.4008 75.6769L61.2541 75.1555L61.0112 74.758L60.1579 75.2794ZM60.4008 75.6769L60.7779 76.6031C60.8314 76.5813 60.9095 76.5504 60.9895 76.5096C61.0656 76.4708 61.1379 76.4258 61.1928 76.3922L60.6714 75.5389L60.15 74.6856C60.1134 74.7079 60.095 74.7192 60.0815 74.7271C60.0703 74.7338 60.0726 74.7321 60.0807 74.728C60.0896 74.7235 60.0943 74.7216 60.087 74.7247C60.076 74.7294 60.0602 74.7359 60.0238 74.7507L60.4008 75.6769ZM60.6714 75.5389L61.6669 75.6338L61.689 75.4019L60.6935 75.307L59.698 75.2122L59.6759 75.444L60.6714 75.5389ZM60.6935 75.307L60.9183 76.2814L61.0618 76.2483L60.837 75.2739L60.6122 74.2995L60.4687 74.3326L60.6935 75.307ZM60.837 75.2739L61.8114 75.0491L61.7783 74.9055L60.8039 75.1303L59.8295 75.3552L59.8626 75.4987L60.837 75.2739ZM60.8039 75.1303L61.3253 75.9837L61.5241 75.8622L61.0027 75.0089L60.4813 74.1556L60.2825 74.277L60.8039 75.1303ZM61.0027 75.0089L61.9771 74.7841L61.944 74.6405L60.9696 74.8653L59.9952 75.0901L60.0283 75.2337L61.0027 75.0089ZM60.9696 74.8653L61.1944 75.8397L61.338 75.8066L61.1131 74.8322L60.8883 73.8578L60.7448 73.8909L60.9696 74.8653ZM61.1131 74.8322L62.0076 75.2794L62.0076 75.2794L61.1132 74.8322L60.2187 74.385L60.2187 74.385L61.1131 74.8322ZM61.1132 74.8322L61.9833 75.3249C62.0603 75.1889 62.1738 74.9975 62.2372 74.8141C62.3268 74.5548 62.3173 74.3267 62.3171 74.2398L61.3171 74.2418L60.3171 74.2438C60.3172 74.2749 60.3172 74.2905 60.317 74.3025C60.3168 74.3134 60.3166 74.3094 60.3176 74.2977C60.3187 74.2843 60.3212 74.2621 60.3268 74.2347C60.3325 74.2069 60.3396 74.1819 60.3468 74.161C60.3535 74.1415 60.3589 74.1299 60.3593 74.1289C60.3595 74.1285 60.3565 74.1351 60.3473 74.1524C60.3382 74.1697 60.3257 74.1925 60.3077 74.2246C60.2898 74.2567 60.2689 74.2936 60.243 74.3394L61.1132 74.8322ZM61.3171 74.2418L62.3162 74.2842L62.3221 74.1458L61.323 74.1034L60.3239 74.061L60.318 74.1994L61.3171 74.2418ZM61.323 74.1034L61.9158 74.9088L62.0327 74.8227L61.4399 74.0174L60.8471 73.212L60.7302 73.298L61.323 74.1034ZM61.4399 74.0174L62.1099 74.7597C62.5247 74.3853 62.6329 73.9538 62.6948 73.7653L61.7447 73.4533L60.7947 73.1413C60.7893 73.1575 60.7842 73.1732 60.7796 73.1874C60.7748 73.2021 60.7707 73.2149 60.7666 73.2275C60.7583 73.2527 60.752 73.2717 60.7463 73.288C60.7348 73.3209 60.7303 73.3303 60.7307 73.3293C60.7324 73.3257 60.7388 73.3134 60.75 73.2982C60.7552 73.2912 60.76 73.2854 60.764 73.281C60.768 73.2767 60.7702 73.2747 60.7698 73.2751L61.4399 74.0174ZM61.7447 73.4533L62.6931 73.7706L62.7716 73.536L61.8232 73.2187L60.8749 72.9014L60.7964 73.136L61.7447 73.4533ZM61.8232 73.2187L62.7753 73.5246L62.8494 73.294L61.8973 72.9881L60.9452 72.6823L60.8711 72.9129L61.8232 73.2187ZM61.8973 72.9881L62.8484 73.2971L62.9242 73.0637L61.9731 72.7548L61.022 72.4458L60.9462 72.6792L61.8973 72.9881ZM61.9731 72.7548L62.9245 73.0628C62.9235 73.0657 62.9248 73.0617 62.9308 73.0444C62.9357 73.0298 62.9424 73.0104 62.9505 72.9871C62.9665 72.9405 62.9873 72.8807 63.0096 72.8164C63.0538 72.6892 63.1044 72.5436 63.1338 72.458L62.1882 72.1327L61.2426 71.8073C61.1913 71.9564 61.0409 72.3874 61.0217 72.4467L61.9731 72.7548ZM62.1882 72.1327L63.1308 72.4667C63.1415 72.4363 63.1516 72.4063 63.161 72.3778L62.211 72.0655L61.261 71.7533C61.2548 71.7722 61.2498 71.7869 61.2456 71.7986L62.1882 72.1327ZM62.211 72.0655L63.1862 72.2871C63.213 72.1691 63.2384 72.0514 63.2626 71.9341L62.2832 71.732L61.3038 71.5299C61.2821 71.6354 61.2595 71.7401 61.2359 71.844L62.211 72.0655ZM62.2832 71.732L63.2594 71.9489L63.3373 71.5981L62.3611 71.3812L61.385 71.1643L61.307 71.5151L62.2832 71.732ZM62.3611 71.3812L63.3388 71.5915L63.3759 71.4191L62.3982 71.2088L61.4206 70.9986L61.3835 71.171L62.3611 71.3812ZM62.3982 71.2088L63.375 71.423C63.415 71.2407 63.4615 71.0569 63.5127 70.8562L62.5438 70.6088L61.5749 70.3614C61.5243 70.5598 61.4697 70.7746 61.4214 70.9947L62.3982 71.2088ZM62.5438 70.6088L63.5159 70.8435C63.608 70.4621 63.6623 70.0943 63.7028 69.7387L62.7092 69.6256L61.7156 69.5126C61.6802 69.8236 61.6373 70.1026 61.5717 70.3741L62.5438 70.6088ZM62.7092 69.6256L63.6987 69.7701L63.7408 69.4816L62.7513 69.3372L61.7618 69.1927L61.7197 69.4812L62.7092 69.6256ZM62.7513 69.3372L63.7424 69.4703C63.7968 69.0657 63.8196 68.6589 63.8432 68.3105L62.8455 68.2428L61.8478 68.1752C61.8219 68.5583 61.8035 68.8817 61.7602 69.204L62.7513 69.3372ZM62.8455 68.2428L63.8426 68.3189C63.8671 67.9983 63.909 67.6797 63.9663 67.3557L62.9816 67.1814L61.9969 67.0072C61.9294 67.3887 61.8785 67.7731 61.8484 68.1668L62.8455 68.2428ZM62.9816 67.1814L63.9729 67.3131C64.0317 66.8702 64.0689 66.3221 63.8943 65.7351L62.9358 66.0202L61.9773 66.3053C62.0318 66.4886 62.0363 66.7033 61.9903 67.0498L62.9816 67.1814ZM62.9358 66.0202L63.1606 66.9946L63.3042 66.9615L63.0794 65.9871L62.8546 65.0127L62.711 65.0458L62.9358 66.0202ZM63.0794 65.9871L64.0794 65.988L64.0796 65.7255L63.0796 65.7245L62.0796 65.7235L62.0794 65.9861L63.0794 65.9871ZM63.0796 65.7245L64.0796 65.7268L64.0804 65.3797L63.0804 65.3773L62.0804 65.3749L62.0796 65.7221L63.0796 65.7245ZM63.0804 65.3773L64.0804 65.3779L64.0805 65.2056L63.0805 65.205L62.0805 65.2043L62.0804 65.3767L63.0804 65.3773ZM63.0805 65.205L64.0805 65.2079C64.0813 64.9593 64.0851 64.7232 64.0973 64.4904L63.0986 64.4384L62.1 64.3865C62.0854 64.6656 62.0813 64.9382 62.0805 65.2021L63.0805 65.205ZM63.0986 64.4384L64.0973 64.4896C64.1164 64.1158 64.1183 63.7471 64.1199 63.4024L63.1199 63.3979L62.1199 63.3934C62.1183 63.7435 62.1163 64.0671 62.0999 64.3873L63.0986 64.4384ZM63.1199 63.3979L64.1199 63.4044L64.1213 63.1924L63.1213 63.1858L62.1213 63.1793L62.1199 63.3914L63.1199 63.3979ZM63.1213 63.1858L64.1213 63.1918C64.1231 62.8836 64.1243 62.5703 64.1217 62.2553L63.1217 62.2638L62.1217 62.2722C62.1243 62.572 62.1231 62.8734 62.1213 63.1799L63.1213 63.1858ZM63.1217 62.2638L64.1217 62.256L64.1196 61.9963L63.1197 62.0041L62.1197 62.0119L62.1217 62.2716L63.1217 62.2638ZM63.1197 62.0041L64.1196 61.9905L64.1166 61.7688L63.1167 61.7824L62.1167 61.796L62.1197 62.0176L63.1197 62.0041ZM63.1167 61.7824L64.1167 61.7813C64.1166 61.7574 64.1166 61.74 64.1167 61.725C64.1167 61.7102 64.1169 61.7023 64.117 61.6981C64.1172 61.6902 64.117 61.7094 64.1127 61.74C64.1106 61.7553 64.108 61.7692 64.1055 61.7811C64.103 61.7923 64.1011 61.7993 64.1009 61.7999C64.1009 61.8001 64.1019 61.7964 64.1052 61.7856C64.1086 61.7746 64.1127 61.7614 64.1189 61.7413L63.1641 61.4441L62.2093 61.1469C62.1935 61.1976 62.1518 61.322 62.1321 61.4623C62.1219 61.5352 62.1188 61.5987 62.1176 61.6477C62.1165 61.6923 62.1166 61.7422 62.1167 61.7835L63.1167 61.7824ZM63.1641 61.4441L64.1417 61.6544C64.2163 61.3076 64.1971 61.0248 64.1794 60.8062L63.1826 60.8869L62.1859 60.9675C62.1936 61.0631 62.196 61.1129 62.1954 61.1515C62.1949 61.1829 62.1923 61.2064 62.1864 61.2338L63.1641 61.4441ZM63.1826 60.8869L64.1799 60.8128L64.1632 60.5879L63.1659 60.6619L62.1687 60.736L62.1854 60.961L63.1826 60.8869ZM63.1659 60.6619L64.1629 60.5842L64.1443 60.3465L63.1474 60.4243L62.1504 60.5021L62.1689 60.7397L63.1659 60.6619ZM63.1474 60.4243L64.1449 60.3534C64.1084 59.8404 64.084 59.401 64.1138 58.9638L63.1161 58.8959L62.1184 58.828C62.0782 59.4182 62.1134 59.9816 62.1499 60.4952L63.1474 60.4243ZM63.1161 58.8959L64.1138 58.9637C64.2233 57.3528 63.9199 55.2364 62.7281 53.7779L61.9538 54.4107L61.1794 55.0435C61.918 55.9473 62.2108 57.4689 62.1184 58.828L63.1161 58.8959ZM61.9538 54.4107L62.696 53.7405L62.5687 53.5995L61.8265 54.2697L61.0842 54.9398L61.2116 55.0809L61.9538 54.4107ZM61.8265 54.2697L62.576 53.6077C62.4799 53.4989 62.4481 53.4528 62.4322 53.4251C62.4222 53.4078 62.4062 53.3775 62.3871 53.2949L61.4127 53.5196L60.4383 53.7444C60.5645 54.2914 60.7949 54.6123 61.0769 54.9317L61.8265 54.2697ZM61.4127 53.5196L61.981 54.3425C62.5182 53.9715 62.5058 53.9797 63.0589 53.6332L62.528 52.7858L61.9971 51.9383C61.4187 52.3006 61.4063 52.3088 60.8445 52.6968L61.4127 53.5196ZM62.528 52.7858L63.0425 53.6433L63.0425 53.6432L62.528 52.7857L62.0135 51.9282L62.0135 51.9283L62.528 52.7858ZM62.528 52.7857L63.0398 53.6448L63.1723 53.5659L62.6606 52.7068L62.1488 51.8477L62.0162 51.9266L62.528 52.7857ZM62.6606 52.7068L63.169 53.5679C63.2897 53.4966 63.4115 53.4257 63.5364 53.3532L63.0339 52.4886L62.5313 51.624C62.407 51.6963 62.2796 51.7704 62.1521 51.8457L62.6606 52.7068ZM63.0339 52.4886L63.5928 53.3178C63.9298 53.0906 64.1638 52.8424 64.3624 52.6233L63.6214 51.9517L62.8805 51.2802C62.7039 51.4749 62.6026 51.5733 62.4749 51.6594L63.0339 52.4886ZM63.6214 51.9517L64.1428 52.805L64.3416 52.6836L63.8202 51.8303L63.2988 50.9769L63.1 51.0984L63.6214 51.9517ZM63.8202 51.8303L64.7946 51.6055L64.7615 51.4619L63.7871 51.6867L62.8127 51.9115L62.8458 52.0551L63.8202 51.8303ZM63.7871 51.6867L64.3248 52.5298L64.4525 52.4484L63.9148 51.6053L63.377 50.7621L63.2494 50.8436L63.7871 51.6867ZM63.9148 51.6053L64.5052 52.4123C64.5921 52.3487 64.6726 52.2905 64.742 52.2328C64.8227 52.1658 64.8853 52.1025 64.9378 52.0502L64.2327 51.3412L63.5275 50.6321C63.495 50.6644 63.4809 50.6784 63.4702 50.6887C63.466 50.6926 63.4644 50.6941 63.4642 50.6943C63.4642 50.6943 63.4643 50.6941 63.4641 50.6944C63.4628 50.6954 63.4556 50.7013 63.4321 50.7189C63.4076 50.7372 63.3755 50.7607 63.3243 50.7982L63.9148 51.6053ZM64.2327 51.3412L64.9398 52.0483L64.9398 52.0483L64.2327 51.3412L63.5256 50.634L63.5256 50.6341L64.2327 51.3412ZM64.2327 51.3412L64.9378 52.0503C65.1374 51.8518 65.301 51.7673 65.6938 51.6681L65.4491 50.6985L65.2043 49.7289C64.596 49.8825 64.0638 50.0988 63.5276 50.6321L64.2327 51.3412ZM65.4491 50.6985L66.0038 49.8664L66.0038 49.8664L65.4491 50.6985L64.8944 51.5305L64.8944 51.5305L65.4491 50.6985ZM65.4491 50.6985L66.0904 49.9312C65.9482 49.8124 65.8073 49.6922 65.6776 49.6073C65.4973 49.4893 65.3379 49.4363 65.2456 49.4032L64.9082 50.3446L64.5708 51.2859C64.6316 51.3077 64.6371 51.3101 64.636 51.3097C64.6203 51.3029 64.5991 51.2917 64.5825 51.2808C64.575 51.2759 64.5828 51.2803 64.6248 51.3141C64.6664 51.3476 64.721 51.3933 64.8077 51.4657L65.4491 50.6985ZM64.9082 50.3446L65.3762 49.4609C65.3687 49.4569 65.3928 49.4687 65.4292 49.5001C65.47 49.5354 65.5067 49.5783 65.5351 49.623C65.5595 49.6614 65.5681 49.6862 65.5619 49.6708C65.559 49.6635 65.5545 49.6516 65.5467 49.63C65.5429 49.6194 65.5388 49.6081 65.5339 49.5944C65.5292 49.5812 65.5238 49.5659 65.518 49.55L64.5771 49.8885L63.6361 50.227C63.656 50.2822 63.7269 50.5067 63.8474 50.6962C64.0081 50.9489 64.2193 51.1113 64.4402 51.2283L64.9082 50.3446ZM64.5771 49.8885L65.5069 49.5205C65.3726 49.1812 65.201 48.7888 64.756 48.4206L64.1185 49.1911L63.481 49.9615C63.5226 49.9959 63.5355 50.0147 63.5461 50.0319C63.5657 50.0636 63.5917 50.1162 63.6473 50.2566L64.5771 49.8885ZM64.1185 49.1911L64.765 48.4281L64.5998 48.2882L63.9533 49.0511L63.3069 49.814L63.472 49.954L64.1185 49.1911ZM63.9533 49.0511L64.5512 48.2495C63.4224 47.4076 62.0534 47.2186 60.9576 47.1386L60.8848 48.136L60.812 49.1333C61.8561 49.2096 62.7182 49.3774 63.3555 49.8527L63.9533 49.0511ZM60.8848 48.136L60.9868 47.1412C60.8038 47.1224 60.6246 47.0827 60.3769 47.0217L60.1377 47.9926L59.8984 48.9636C60.1535 49.0264 60.4498 49.0966 60.7828 49.1308L60.8848 48.136ZM60.1377 47.9926L59.9129 47.0182L59.7693 47.0514L59.9941 48.0258L60.2189 49.0002L60.3625 48.9671L60.1377 47.9926ZM59.9941 48.0258L60.9882 47.9175C60.9368 47.4454 60.9493 47.0489 61.0384 46.6039L60.0579 46.4075L59.0773 46.2112C58.9439 46.8773 58.9288 47.4807 59 48.134L59.9941 48.0258ZM60.0579 46.4075L61.0407 46.5917C61.1824 45.8358 61.0862 45.2557 60.9412 44.6514L59.9688 44.8848L58.9964 45.1182C59.1133 45.605 59.1416 45.8676 59.075 46.2233L60.0579 46.4075ZM59.9688 44.8848L60.9419 44.6545L60.8865 44.4202L59.9133 44.6505L58.9402 44.8807L58.9957 45.115L59.9688 44.8848ZM59.9133 44.6505L60.8849 44.4135C60.7513 43.8659 60.584 43.2998 60.2989 42.7269L59.4037 43.1724L58.5084 43.618C58.6981 43.9992 58.8235 44.4022 58.9418 44.8874L59.9133 44.6505ZM59.4037 43.1724L60.3059 42.7413L60.1889 42.4963L59.2866 42.9274L58.3843 43.3586L58.5014 43.6035L59.4037 43.1724ZM59.2866 42.9274L60.1876 42.4937C60.0824 42.2751 59.9756 42.0578 59.8673 41.8414L58.973 42.289L58.0788 42.7366C58.1828 42.9443 58.285 43.1524 58.3856 43.3612L59.2866 42.9274ZM58.973 42.289L58.7483 41.3146L58.6047 41.3477L58.8295 42.3221L59.0543 43.2965L59.1978 43.2634L58.973 42.289ZM58.8295 42.3221L59.7504 41.9322L59.6647 41.7299L58.7438 42.1198L57.823 42.5096L57.9086 42.712L58.8295 42.3221ZM58.7438 42.1198L59.6633 41.7266C59.2673 40.8005 58.8236 39.9036 58.3053 39.0255L57.4441 39.5338L56.583 40.0422C57.0517 40.8362 57.4574 41.6548 57.8244 42.513L58.7438 42.1198ZM57.4441 39.5338L58.3082 39.0305C58.1182 38.7042 57.942 38.3726 57.7473 38.013L56.8679 38.4891L55.9885 38.9652C56.1726 39.3051 56.3697 39.676 56.58 40.0372L57.4441 39.5338ZM56.8679 38.4891L57.7467 38.0119C57.4106 37.3928 57.0666 36.7786 56.7136 36.1683L55.848 36.669L54.9824 37.1697C55.3261 37.7639 55.6613 38.3625 55.9891 38.9663L56.8679 38.4891ZM55.848 36.669L56.7143 36.1695L56.5918 35.9571L55.7255 36.4567L54.8592 36.9562L54.9817 37.1686L55.848 36.669ZM55.7255 36.4567L56.59 35.954C56.3517 35.5442 56.1033 35.1422 55.8416 34.7452L55.0066 35.2955L54.1717 35.8458C54.412 36.2104 54.6408 36.5805 54.861 36.9593L55.7255 36.4567ZM55.0066 35.2955L55.8442 34.7492C55.7597 34.6196 55.6775 34.4865 55.5949 34.3482L54.7362 34.8607L53.8775 35.3732C53.9702 35.5285 54.0668 35.6849 54.169 35.8418L55.0066 35.2955ZM54.7362 34.8607L55.591 34.3416C55.4024 34.0312 55.2071 33.7298 55.017 33.4394L54.1804 33.9872L53.3438 34.535C53.5319 34.8223 53.7116 35.1 53.8815 35.3797L54.7362 34.8607ZM54.1804 33.9872L55.0199 33.444L54.9282 33.3022L54.0886 33.8455L53.2491 34.3887L53.3408 34.5305L54.1804 33.9872ZM54.0886 33.8455L54.9236 33.2951C54.8704 33.2145 54.8204 33.1385 54.7771 33.0762C54.7334 33.0134 54.6774 32.9365 54.6079 32.86C54.4471 32.6833 54.2765 32.5839 54.1977 32.5346L53.6676 33.3826L53.1375 34.2306C53.1639 34.247 53.1789 34.2564 53.1909 34.2642C53.2022 34.2715 53.2027 34.2721 53.1981 34.2688C53.1924 34.2646 53.1807 34.2558 53.1662 34.2429C53.1513 34.2298 53.1385 34.2169 53.1284 34.2058C53.1114 34.1871 53.1097 34.1816 53.1352 34.2182C53.1609 34.2553 53.1949 34.3067 53.2537 34.3958L54.0886 33.8455ZM53.6676 33.3826L53.4894 32.3986C53.4037 32.4141 53.3286 32.4275 53.2551 32.4444C53.179 32.462 53.1086 32.4825 53.033 32.5042L53.3087 33.4654L53.5844 34.4266C53.6772 34.4 53.691 34.3964 53.7047 34.3932C53.7209 34.3895 53.741 34.3856 53.8458 34.3666L53.6676 33.3826ZM53.3087 33.4654L54.2831 33.2406L54.25 33.097L53.2756 33.3218L52.3012 33.5466L52.3343 33.6902L53.3087 33.4654ZM53.2756 33.3218L53.5004 34.2963L53.7875 34.23L53.5627 33.2556L53.3379 32.2812L53.0508 32.3474L53.2756 33.3218ZM53.5627 33.2556L54.5371 33.0308C54.4371 32.5972 54.2375 32.3118 54.1005 32.112L53.2758 32.6774L52.451 33.2429C52.521 33.345 52.5479 33.3872 52.5659 33.4211C52.5772 33.4424 52.5828 33.4565 52.5883 33.4804L53.5627 33.2556ZM53.2758 32.6774L54.1013 32.1131C54.0282 32.0062 53.956 31.8969 53.8838 31.7853L53.044 32.3281L52.2041 32.8709C52.2837 32.994 52.3656 33.1179 52.4502 33.2417L53.2758 32.6774ZM53.044 32.3281L53.8811 31.7812C53.2684 30.8432 52.5491 30.0301 51.8484 29.266L51.1114 29.9419L50.3744 30.6178C51.067 31.373 51.6901 32.0841 52.2068 32.875L53.044 32.3281ZM51.1114 29.9419L51.8496 29.2673L51.6916 29.0944L50.9534 29.769L50.2152 30.4436L50.3733 30.6165L51.1114 29.9419ZM50.9534 29.769L51.6867 29.0891L51.537 28.9276L50.8036 29.6075L50.0703 30.2873L50.2201 30.4489L50.9534 29.769ZM50.8036 29.6075L51.5378 28.9285L51.4046 28.7845L50.6705 29.4635L49.9364 30.1426L50.0695 30.2865L50.8036 29.6075ZM50.6705 29.4635L51.3635 28.7426C51.1571 28.5442 50.9551 28.4179 50.8028 28.324L50.2777 29.1751L49.7527 30.0261C49.8916 30.1118 49.936 30.1446 49.9775 30.1845L50.6705 29.4635ZM50.2777 29.1751L51.0593 28.5512L50.9201 28.3769L50.1386 29.0008L49.357 29.6246L49.4962 29.7989L50.2777 29.1751ZM50.1386 29.0008L50.9008 28.3534C50.5959 27.9944 50.2605 27.7518 49.9907 27.5578L49.4068 28.3696L48.8229 29.1814C49.0955 29.3774 49.2468 29.4955 49.3764 29.6481L50.1386 29.0008ZM49.4068 28.3696L50.0003 27.5647L49.8506 27.4544L49.2572 28.2593L48.6637 29.0641L48.8133 29.1744L49.4068 28.3696ZM49.2572 28.2593L49.8461 27.4511C49.6915 27.3384 49.5397 27.2256 49.4078 27.1509C49.2051 27.0361 49.0357 26.9992 48.9445 26.9772L48.7098 27.9492L48.475 28.9213C48.5002 28.9274 48.5108 28.9299 48.5185 28.932C48.5247 28.9336 48.519 28.9323 48.5074 28.9284C48.4944 28.9241 48.4779 28.918 48.4599 28.91C48.4423 28.9022 48.4293 28.8952 48.4222 28.8911C48.413 28.886 48.421 28.8897 48.4681 28.9228C48.5137 28.9549 48.5741 28.9989 48.6682 29.0674L49.2572 28.2593Z" fill="white" mask="url(#path-1-inside-1_401_3554)"/>
</svg>
