<svg width="104" height="104" viewBox="0 0 104 104" fill="none" xmlns="http://www.w3.org/2000/svg">
<mask id="path-1-inside-1_401_3550" fill="white">
<path d="M65.0465 38.2244C65.5854 38.5042 66.0269 38.512 66.6229 38.4415C66.7503 38.399 66.8777 38.3566 67.009 38.3128C67.2313 38.3041 67.454 38.3019 67.6765 38.3048C67.7925 38.3059 67.9084 38.3071 68.0279 38.3083C68.1163 38.3098 68.2047 38.3113 68.2958 38.3128C68.2958 38.3978 68.2958 38.4827 68.2958 38.5702C68.1484 38.634 68.0009 38.6979 67.8489 38.7637C66.0243 39.5527 66.0243 39.5527 64.9178 41.1357C64.8418 41.3525 64.7667 41.5696 64.6926 41.7871C64.6541 41.8764 64.6156 41.9656 64.576 42.0575C64.3013 42.696 64.2085 43.2818 64.3066 43.9746C64.4553 44.3013 64.4553 44.3013 64.6926 44.618C65.9045 46.634 65.7707 49.129 65.2978 51.3651C65.0601 52.2326 64.5559 53.5807 63.7591 54.0557C63.685 54.0836 63.6108 54.1114 63.5344 54.1402C63.4889 54.311 63.4463 54.4827 63.4058 54.6549C63.1564 54.9444 63.1564 54.9444 62.891 55.1696C62.8061 55.1696 62.7211 55.1696 62.6336 55.1696C62.4305 55.3699 62.4305 55.3699 62.2315 55.6199C62.1622 55.7035 62.0928 55.7871 62.0214 55.8733C61.9686 55.9383 61.9159 56.0033 61.8615 56.0703C61.7766 56.0278 61.6917 55.9854 61.6041 55.9416C61.5617 55.9841 61.5192 56.0266 61.4755 56.0703C61.2589 56.2454 61.0417 56.4195 60.824 56.5931C60.7057 56.6874 60.5874 56.7818 60.4656 56.8791C60.3742 56.9519 60.2828 57.0247 60.1886 57.0997C60.1037 57.0573 60.0187 57.0148 59.9312 56.9711C60.0162 56.8437 60.1011 56.7163 60.1886 56.585C60.0479 56.6408 59.9073 56.6965 59.7623 56.7539C59.6832 56.7853 59.6041 56.8166 59.5225 56.8489C59.2794 56.9601 59.2794 56.9601 59.1008 57.1606C58.8627 57.3956 58.6375 57.4991 58.3307 57.6305C58.1836 57.6947 58.1836 57.6947 58.0336 57.7602C57.7664 57.863 57.5067 57.9338 57.2288 58.0005C57.2742 58.0868 57.3197 58.173 57.3665 58.2619C57.5729 58.6545 57.7789 59.0473 57.9848 59.4401C58.0563 59.5758 58.1278 59.7116 58.2015 59.8515C58.2703 59.9829 58.3392 60.1144 58.4101 60.2498C58.4735 60.3704 58.5368 60.4911 58.6021 60.6153C58.773 60.9601 58.773 60.9601 58.9003 61.3181C58.9647 61.4593 58.9647 61.4593 59.0304 61.6034C59.1578 61.6459 59.2852 61.6884 59.4165 61.7321C59.4165 61.8595 59.4165 61.9869 59.4165 62.1182C59.5473 62.3695 59.6882 62.6156 59.8347 62.858C59.9165 62.9951 59.9983 63.1321 60.0825 63.2732C60.16 63.4016 60.2375 63.53 60.3173 63.6623C60.832 64.5256 60.832 64.5256 60.832 64.8204C61.0868 64.8628 61.3416 64.9053 61.6041 64.9491C61.6041 65.034 61.6041 65.1189 61.6041 65.2064C61.6881 65.2268 61.772 65.2472 61.8585 65.2682C62.6158 65.4704 63.1007 65.6882 63.6631 66.2358C63.6207 66.3632 63.5782 66.4906 63.5344 66.6219C63.4495 66.4945 63.3646 66.3671 63.2771 66.2358C63.0627 66.2303 62.848 66.2306 62.6336 66.2358C62.5062 66.1509 62.3788 66.066 62.2476 65.9785C62.5407 66.4181 62.5998 66.4178 63.084 66.5334C63.3972 66.6269 63.3972 66.6269 63.6631 66.7505C63.8642 67.1607 63.8642 67.1607 63.9205 67.5226C63.8356 67.5226 63.7506 67.5226 63.6631 67.5226C63.5782 67.3952 63.4933 67.2678 63.4058 67.1366C63.3314 67.1658 63.2571 67.195 63.1806 67.225C62.891 67.2652 62.891 67.2652 62.6417 67.0964C62.5541 67.0247 62.4665 66.953 62.3763 66.8792C62.1629 66.7907 61.9484 66.7048 61.7328 66.6219C61.3454 66.3636 61.2657 66.2566 61.0894 65.8498C60.962 66.0197 60.8346 66.1895 60.7033 66.3645C60.6264 66.2451 60.5494 66.1256 60.4701 66.0026C60.2172 65.6073 60.2172 65.6073 59.9634 65.3673C59.9103 65.3142 59.8572 65.2611 59.8025 65.2064C59.8025 65.1215 59.8025 65.0366 59.8025 64.9491C59.6858 64.9146 59.569 64.8801 59.4487 64.8445C59.0594 64.7023 58.8376 64.5549 58.5157 64.3057C58.4015 64.2659 58.2874 64.226 58.1698 64.185C58.0716 64.1399 57.9734 64.0948 57.8722 64.0483C57.8298 63.8785 57.7873 63.7086 57.7436 63.5336C57.4038 63.6185 57.0641 63.7035 56.7141 63.791C56.799 63.6211 56.8839 63.4512 56.9714 63.2762C57.9008 63.1523 58.5081 63.5815 59.2878 64.0483C59.3727 64.0908 59.4577 64.1332 59.5452 64.177C58.9646 62.2882 57.9793 60.503 56.9319 58.836C56.5854 58.2819 56.5854 58.2819 56.5854 58.0005C56.4447 58.0429 56.304 58.0854 56.1591 58.1292C55.6846 58.2578 55.6846 58.2578 55.2985 58.2578C55.3835 58.088 55.4684 57.9181 55.5559 57.7431C55.4577 57.7431 55.3595 57.7431 55.2583 57.7431C54.6622 57.7431 54.1995 57.659 53.6256 57.4858C53.183 57.9283 53.2311 58.5024 53.2224 59.1013C53.2257 59.8085 53.3301 60.4763 53.4647 61.1692C53.488 61.2917 53.5112 61.4142 53.5351 61.5404C53.926 63.6482 53.926 63.6482 54.7838 65.5924C54.7838 65.6774 54.7838 65.7623 54.7838 65.8498C55.0115 65.8749 55.2395 65.8988 55.4674 65.9222C55.5943 65.9356 55.7212 65.949 55.852 65.9629C56.2121 65.9998 56.2121 65.9998 56.5854 65.8498C57.522 65.7755 57.522 65.7755 57.9366 66.1072C58.0003 66.1921 58.064 66.277 58.1296 66.3645C57.8324 66.2796 57.5351 66.1947 57.2288 66.1072C57.2288 66.1921 57.2288 66.277 57.2288 66.3645C56.8891 66.3645 56.5493 66.3645 56.1993 66.3645C56.1993 66.4494 56.1993 66.5344 56.1993 66.6219C56.3252 66.6385 56.3252 66.6385 56.4537 66.6555C57.2435 66.7825 57.709 66.9311 58.2583 67.5226C58.3709 67.8202 58.3709 67.8202 58.387 68.0373C58.2835 67.9099 58.2835 67.9099 58.1779 67.78C57.8958 67.4863 57.8958 67.4863 57.5344 67.5226C56.9901 67.5226 56.6206 67.3435 56.1305 67.1205C55.8164 66.9891 55.8164 66.9891 55.476 67.0079C55.1698 67.0079 55.1698 67.0079 54.7838 66.7505C54.8687 67.0902 54.9536 67.43 55.0411 67.78C54.9562 67.78 54.8713 67.78 54.7838 67.78C54.7413 67.8649 54.6988 67.9498 54.6551 68.0373C54.59 67.8526 54.5259 67.6676 54.4621 67.4824C54.4083 67.3279 54.4083 67.3279 54.3535 67.1702C54.269 66.8792 54.269 66.8792 54.269 66.4932C54.1416 66.5356 54.0142 66.5781 53.883 66.6219C53.883 66.5369 53.883 66.452 53.883 66.3645C53.6706 66.322 53.4583 66.2796 53.2395 66.2358C53.2395 66.1509 53.2395 66.066 53.2395 65.9785C52.9847 65.936 52.7299 65.8935 52.4674 65.8498C52.4037 65.5313 52.4037 65.5313 52.3387 65.2064C52.1264 65.2489 51.9141 65.2913 51.6953 65.3351C51.7802 65.1652 51.8652 64.9954 51.9527 64.8204C52.4312 64.8856 52.8193 64.964 53.2395 65.2064C53.2395 65.2913 53.2395 65.3763 53.2395 65.4638C53.4094 65.5062 53.5793 65.5487 53.7543 65.5924C53.4899 63.9835 53.1679 62.3977 52.7731 60.8153C52.7343 60.659 52.6956 60.5027 52.6556 60.3417C52.5033 59.7419 52.3605 59.1964 52.0814 58.6439C52.0517 58.293 52.0517 58.293 52.0572 57.92C52.0581 57.7963 52.0589 57.6726 52.0597 57.5451C52.0814 57.2284 52.0814 57.2284 52.21 56.9711C52.0747 56.9578 51.9393 56.9445 51.7999 56.9308C51.3092 56.8424 51.3092 56.8424 51.0117 56.6413C50.3741 56.3003 49.648 56.3772 48.9688 56.577C48.8493 56.6221 48.7299 56.6672 48.6068 56.7137C48.3066 56.7566 48.0063 56.7995 47.706 56.8424C47.4479 56.9259 47.1906 57.012 46.9339 57.0997C46.6633 57.1806 46.3925 57.261 46.1216 57.341C45.0441 57.674 44.161 58.0338 43.2829 58.7504C43.0733 58.9012 43.0733 58.9012 42.816 58.9012C42.816 58.9861 42.816 59.0711 42.816 59.1586C42.6315 59.3355 42.6315 59.3355 42.3736 59.5446C41.9477 59.8995 41.6203 60.2664 41.2798 60.7027C40.5503 61.5367 39.5039 61.976 38.4406 62.2468C37.9877 62.27 37.9877 62.27 37.6685 62.2468C37.6685 62.1619 37.6685 62.077 37.6685 61.9895C37.5836 61.9895 37.4986 61.9895 37.4111 61.9895C37.8313 60.9853 38.8819 60.2365 39.6938 59.5416C40.0767 59.207 40.4487 58.8611 40.8213 58.5152C41.349 58.0258 41.8807 57.5432 42.4249 57.0721C43.7595 55.964 43.7595 55.964 44.8749 54.6549C43.6258 55.0453 42.4488 55.4927 41.2717 56.0703C41.3991 55.8155 41.3991 55.8155 41.5291 55.5556C41.614 55.5556 41.699 55.5556 41.7865 55.5556C41.7865 55.4707 41.7865 55.3857 41.7865 55.2982C41.7015 55.2558 41.6166 55.2133 41.5291 55.1696C42.0501 54.607 42.4966 54.2048 43.202 53.8828C43.6821 53.5621 43.6821 53.5621 43.9565 53.074C44.1342 52.6498 44.377 52.3594 44.6739 52.0089C45.0883 51.5194 45.0883 51.5194 45.4746 51.0082C45.5315 50.9377 45.5884 50.8672 45.6471 50.7945C45.732 50.7945 45.8169 50.7945 45.9044 50.7945C45.9044 50.7096 45.9044 50.6247 45.9044 50.5372C45.9894 50.5372 46.0743 50.5372 46.1618 50.5372C46.1923 50.4675 46.2228 50.3978 46.2543 50.3261C46.956 49.034 48.1182 48.042 49.3161 47.2298C50.217 46.6104 50.9512 45.8957 51.7145 45.1157C52.4242 44.3934 53.1547 43.7083 54.0157 43.1669C54.8301 42.6353 55.2771 41.8824 55.7876 41.0744C56.2256 40.3813 56.2256 40.3813 56.4567 40.1143C56.5416 40.1143 56.6266 40.1143 56.7141 40.1143C56.7489 40.0402 56.7837 39.966 56.8196 39.8896C56.9731 39.5965 57.1441 39.3422 57.3414 39.0768C57.4048 38.9904 57.4681 38.904 57.5334 38.815C57.7552 38.5566 57.9731 38.3695 58.2583 38.1841C58.3432 38.1841 58.4282 38.1841 58.5157 38.1841C58.5157 38.0992 58.5157 38.0143 58.5157 37.9268C60.5894 36.6145 62.9977 36.904 65.0465 38.2244Z"/>
</mask>
<path d="M65.0465 38.2244C65.5854 38.5042 66.0269 38.512 66.6229 38.4415C66.7503 38.399 66.8777 38.3566 67.009 38.3128C67.2313 38.3041 67.454 38.3019 67.6765 38.3048C67.7925 38.3059 67.9084 38.3071 68.0279 38.3083C68.1163 38.3098 68.2047 38.3113 68.2958 38.3128C68.2958 38.3978 68.2958 38.4827 68.2958 38.5702C68.1484 38.634 68.0009 38.6979 67.8489 38.7637C66.0243 39.5527 66.0243 39.5527 64.9178 41.1357C64.8418 41.3525 64.7667 41.5696 64.6926 41.7871C64.6541 41.8764 64.6156 41.9656 64.576 42.0575C64.3013 42.696 64.2085 43.2818 64.3066 43.9746C64.4553 44.3013 64.4553 44.3013 64.6926 44.618C65.9045 46.634 65.7707 49.129 65.2978 51.3651C65.0601 52.2326 64.5559 53.5807 63.7591 54.0557C63.685 54.0836 63.6108 54.1114 63.5344 54.1402C63.4889 54.311 63.4463 54.4827 63.4058 54.6549C63.1564 54.9444 63.1564 54.9444 62.891 55.1696C62.8061 55.1696 62.7211 55.1696 62.6336 55.1696C62.4305 55.3699 62.4305 55.3699 62.2315 55.6199C62.1622 55.7035 62.0928 55.7871 62.0214 55.8733C61.9686 55.9383 61.9159 56.0033 61.8615 56.0703C61.7766 56.0278 61.6917 55.9854 61.6041 55.9416C61.5617 55.9841 61.5192 56.0266 61.4755 56.0703C61.2589 56.2454 61.0417 56.4195 60.824 56.5931C60.7057 56.6874 60.5874 56.7818 60.4656 56.8791C60.3742 56.9519 60.2828 57.0247 60.1886 57.0997C60.1037 57.0573 60.0187 57.0148 59.9312 56.9711C60.0162 56.8437 60.1011 56.7163 60.1886 56.585C60.0479 56.6408 59.9073 56.6965 59.7623 56.7539C59.6832 56.7853 59.6041 56.8166 59.5225 56.8489C59.2794 56.9601 59.2794 56.9601 59.1008 57.1606C58.8627 57.3956 58.6375 57.4991 58.3307 57.6305C58.1836 57.6947 58.1836 57.6947 58.0336 57.7602C57.7664 57.863 57.5067 57.9338 57.2288 58.0005C57.2742 58.0868 57.3197 58.173 57.3665 58.2619C57.5729 58.6545 57.7789 59.0473 57.9848 59.4401C58.0563 59.5758 58.1278 59.7116 58.2015 59.8515C58.2703 59.9829 58.3392 60.1144 58.4101 60.2498C58.4735 60.3704 58.5368 60.4911 58.6021 60.6153C58.773 60.9601 58.773 60.9601 58.9003 61.3181C58.9647 61.4593 58.9647 61.4593 59.0304 61.6034C59.1578 61.6459 59.2852 61.6884 59.4165 61.7321C59.4165 61.8595 59.4165 61.9869 59.4165 62.1182C59.5473 62.3695 59.6882 62.6156 59.8347 62.858C59.9165 62.9951 59.9983 63.1321 60.0825 63.2732C60.16 63.4016 60.2375 63.53 60.3173 63.6623C60.832 64.5256 60.832 64.5256 60.832 64.8204C61.0868 64.8628 61.3416 64.9053 61.6041 64.9491C61.6041 65.034 61.6041 65.1189 61.6041 65.2064C61.6881 65.2268 61.772 65.2472 61.8585 65.2682C62.6158 65.4704 63.1007 65.6882 63.6631 66.2358C63.6207 66.3632 63.5782 66.4906 63.5344 66.6219C63.4495 66.4945 63.3646 66.3671 63.2771 66.2358C63.0627 66.2303 62.848 66.2306 62.6336 66.2358C62.5062 66.1509 62.3788 66.066 62.2476 65.9785C62.5407 66.4181 62.5998 66.4178 63.084 66.5334C63.3972 66.6269 63.3972 66.6269 63.6631 66.7505C63.8642 67.1607 63.8642 67.1607 63.9205 67.5226C63.8356 67.5226 63.7506 67.5226 63.6631 67.5226C63.5782 67.3952 63.4933 67.2678 63.4058 67.1366C63.3314 67.1658 63.2571 67.195 63.1806 67.225C62.891 67.2652 62.891 67.2652 62.6417 67.0964C62.5541 67.0247 62.4665 66.953 62.3763 66.8792C62.1629 66.7907 61.9484 66.7048 61.7328 66.6219C61.3454 66.3636 61.2657 66.2566 61.0894 65.8498C60.962 66.0197 60.8346 66.1895 60.7033 66.3645C60.6264 66.2451 60.5494 66.1256 60.4701 66.0026C60.2172 65.6073 60.2172 65.6073 59.9634 65.3673C59.9103 65.3142 59.8572 65.2611 59.8025 65.2064C59.8025 65.1215 59.8025 65.0366 59.8025 64.9491C59.6858 64.9146 59.569 64.8801 59.4487 64.8445C59.0594 64.7023 58.8376 64.5549 58.5157 64.3057C58.4015 64.2659 58.2874 64.226 58.1698 64.185C58.0716 64.1399 57.9734 64.0948 57.8722 64.0483C57.8298 63.8785 57.7873 63.7086 57.7436 63.5336C57.4038 63.6185 57.0641 63.7035 56.7141 63.791C56.799 63.6211 56.8839 63.4512 56.9714 63.2762C57.9008 63.1523 58.5081 63.5815 59.2878 64.0483C59.3727 64.0908 59.4577 64.1332 59.5452 64.177C58.9646 62.2882 57.9793 60.503 56.9319 58.836C56.5854 58.2819 56.5854 58.2819 56.5854 58.0005C56.4447 58.0429 56.304 58.0854 56.1591 58.1292C55.6846 58.2578 55.6846 58.2578 55.2985 58.2578C55.3835 58.088 55.4684 57.9181 55.5559 57.7431C55.4577 57.7431 55.3595 57.7431 55.2583 57.7431C54.6622 57.7431 54.1995 57.659 53.6256 57.4858C53.183 57.9283 53.2311 58.5024 53.2224 59.1013C53.2257 59.8085 53.3301 60.4763 53.4647 61.1692C53.488 61.2917 53.5112 61.4142 53.5351 61.5404C53.926 63.6482 53.926 63.6482 54.7838 65.5924C54.7838 65.6774 54.7838 65.7623 54.7838 65.8498C55.0115 65.8749 55.2395 65.8988 55.4674 65.9222C55.5943 65.9356 55.7212 65.949 55.852 65.9629C56.2121 65.9998 56.2121 65.9998 56.5854 65.8498C57.522 65.7755 57.522 65.7755 57.9366 66.1072C58.0003 66.1921 58.064 66.277 58.1296 66.3645C57.8324 66.2796 57.5351 66.1947 57.2288 66.1072C57.2288 66.1921 57.2288 66.277 57.2288 66.3645C56.8891 66.3645 56.5493 66.3645 56.1993 66.3645C56.1993 66.4494 56.1993 66.5344 56.1993 66.6219C56.3252 66.6385 56.3252 66.6385 56.4537 66.6555C57.2435 66.7825 57.709 66.9311 58.2583 67.5226C58.3709 67.8202 58.3709 67.8202 58.387 68.0373C58.2835 67.9099 58.2835 67.9099 58.1779 67.78C57.8958 67.4863 57.8958 67.4863 57.5344 67.5226C56.9901 67.5226 56.6206 67.3435 56.1305 67.1205C55.8164 66.9891 55.8164 66.9891 55.476 67.0079C55.1698 67.0079 55.1698 67.0079 54.7838 66.7505C54.8687 67.0902 54.9536 67.43 55.0411 67.78C54.9562 67.78 54.8713 67.78 54.7838 67.78C54.7413 67.8649 54.6988 67.9498 54.6551 68.0373C54.59 67.8526 54.5259 67.6676 54.4621 67.4824C54.4083 67.3279 54.4083 67.3279 54.3535 67.1702C54.269 66.8792 54.269 66.8792 54.269 66.4932C54.1416 66.5356 54.0142 66.5781 53.883 66.6219C53.883 66.5369 53.883 66.452 53.883 66.3645C53.6706 66.322 53.4583 66.2796 53.2395 66.2358C53.2395 66.1509 53.2395 66.066 53.2395 65.9785C52.9847 65.936 52.7299 65.8935 52.4674 65.8498C52.4037 65.5313 52.4037 65.5313 52.3387 65.2064C52.1264 65.2489 51.9141 65.2913 51.6953 65.3351C51.7802 65.1652 51.8652 64.9954 51.9527 64.8204C52.4312 64.8856 52.8193 64.964 53.2395 65.2064C53.2395 65.2913 53.2395 65.3763 53.2395 65.4638C53.4094 65.5062 53.5793 65.5487 53.7543 65.5924C53.4899 63.9835 53.1679 62.3977 52.7731 60.8153C52.7343 60.659 52.6956 60.5027 52.6556 60.3417C52.5033 59.7419 52.3605 59.1964 52.0814 58.6439C52.0517 58.293 52.0517 58.293 52.0572 57.92C52.0581 57.7963 52.0589 57.6726 52.0597 57.5451C52.0814 57.2284 52.0814 57.2284 52.21 56.9711C52.0747 56.9578 51.9393 56.9445 51.7999 56.9308C51.3092 56.8424 51.3092 56.8424 51.0117 56.6413C50.3741 56.3003 49.648 56.3772 48.9688 56.577C48.8493 56.6221 48.7299 56.6672 48.6068 56.7137C48.3066 56.7566 48.0063 56.7995 47.706 56.8424C47.4479 56.9259 47.1906 57.012 46.9339 57.0997C46.6633 57.1806 46.3925 57.261 46.1216 57.341C45.0441 57.674 44.161 58.0338 43.2829 58.7504C43.0733 58.9012 43.0733 58.9012 42.816 58.9012C42.816 58.9861 42.816 59.0711 42.816 59.1586C42.6315 59.3355 42.6315 59.3355 42.3736 59.5446C41.9477 59.8995 41.6203 60.2664 41.2798 60.7027C40.5503 61.5367 39.5039 61.976 38.4406 62.2468C37.9877 62.27 37.9877 62.27 37.6685 62.2468C37.6685 62.1619 37.6685 62.077 37.6685 61.9895C37.5836 61.9895 37.4986 61.9895 37.4111 61.9895C37.8313 60.9853 38.8819 60.2365 39.6938 59.5416C40.0767 59.207 40.4487 58.8611 40.8213 58.5152C41.349 58.0258 41.8807 57.5432 42.4249 57.0721C43.7595 55.964 43.7595 55.964 44.8749 54.6549C43.6258 55.0453 42.4488 55.4927 41.2717 56.0703C41.3991 55.8155 41.3991 55.8155 41.5291 55.5556C41.614 55.5556 41.699 55.5556 41.7865 55.5556C41.7865 55.4707 41.7865 55.3857 41.7865 55.2982C41.7015 55.2558 41.6166 55.2133 41.5291 55.1696C42.0501 54.607 42.4966 54.2048 43.202 53.8828C43.6821 53.5621 43.6821 53.5621 43.9565 53.074C44.1342 52.6498 44.377 52.3594 44.6739 52.0089C45.0883 51.5194 45.0883 51.5194 45.4746 51.0082C45.5315 50.9377 45.5884 50.8672 45.6471 50.7945C45.732 50.7945 45.8169 50.7945 45.9044 50.7945C45.9044 50.7096 45.9044 50.6247 45.9044 50.5372C45.9894 50.5372 46.0743 50.5372 46.1618 50.5372C46.1923 50.4675 46.2228 50.3978 46.2543 50.3261C46.956 49.034 48.1182 48.042 49.3161 47.2298C50.217 46.6104 50.9512 45.8957 51.7145 45.1157C52.4242 44.3934 53.1547 43.7083 54.0157 43.1669C54.8301 42.6353 55.2771 41.8824 55.7876 41.0744C56.2256 40.3813 56.2256 40.3813 56.4567 40.1143C56.5416 40.1143 56.6266 40.1143 56.7141 40.1143C56.7489 40.0402 56.7837 39.966 56.8196 39.8896C56.9731 39.5965 57.1441 39.3422 57.3414 39.0768C57.4048 38.9904 57.4681 38.904 57.5334 38.815C57.7552 38.5566 57.9731 38.3695 58.2583 38.1841C58.3432 38.1841 58.4282 38.1841 58.5157 38.1841C58.5157 38.0992 58.5157 38.0143 58.5157 37.9268C60.5894 36.6145 62.9977 36.904 65.0465 38.2244Z" fill="#262626" stroke="white" stroke-width="2" mask="url(#path-1-inside-1_401_3550)"/>
</svg>
