<svg width="240" height="240" viewBox="0 0 240 240" fill="none" xmlns="http://www.w3.org/2000/svg">
<path d="M110.783 78.6668C110.88 78.7636 110.977 78.8604 111.077 78.9601C111.247 79.0085 111.417 79.0569 111.591 79.1067C112.106 79.2534 112.106 79.2534 112.4 79.5467C112.494 79.5648 112.588 79.583 112.684 79.6017C113.088 79.7239 113.187 79.9444 113.428 80.2799C113.574 80.3283 113.719 80.3767 113.869 80.4265C114.461 81.4549 114.785 82.6886 115.164 83.8086C115.21 83.9447 115.256 84.0809 115.304 84.2212C115.347 84.3499 115.389 84.4786 115.433 84.6111C115.472 84.7267 115.51 84.8422 115.55 84.9612C115.633 85.2659 115.633 85.2659 115.633 85.7058C115.73 85.7058 115.827 85.7058 115.926 85.7058C115.981 85.8601 116.036 86.0143 116.092 86.1733C116.489 87.2325 116.978 88.2607 117.497 89.2655C117.69 89.6653 117.69 89.6653 117.69 89.9586C117.787 89.9586 117.884 89.9586 117.984 89.9586C118.139 90.1977 118.284 90.4436 118.425 90.6918C119.08 91.7103 119.706 92.6563 120.663 93.4163C120.923 93.6248 120.923 93.6248 121.29 94.0281C121.774 94.4627 122.216 94.5996 122.833 94.798C122.833 94.8947 122.833 94.9915 122.833 95.0912C124.536 94.8822 125.332 94.4065 126.499 93.1596C126.801 92.8915 126.801 92.8915 127.241 92.8915C127.277 92.8055 127.312 92.7195 127.349 92.6309C127.571 92.2424 127.812 92.0505 128.169 91.7825C128.287 91.6939 128.405 91.6052 128.527 91.5139C128.872 91.2682 129.225 91.0483 129.593 90.8385C129.984 90.5857 130.169 90.4181 130.41 90.0136C130.621 89.6653 130.621 89.6653 131.062 89.5187C131.062 89.4219 131.062 89.3251 131.062 89.2254C131.557 88.8688 131.758 88.7854 132.385 88.7854C132.385 88.6886 132.385 88.5919 132.385 88.4921C133.358 87.9373 134.37 87.9459 135.471 88.0522C135.616 88.149 135.762 88.2458 135.911 88.3455C135.911 88.4423 135.911 88.5391 135.911 88.6388C137.087 89.0238 137.087 89.0238 138.263 88.7854C138.786 88.7671 138.786 88.7671 139.291 88.7854C139.873 89.3662 139.603 91.3115 139.605 92.0999C139.589 92.4898 139.557 92.8638 139.513 93.2507C139.408 94.2625 139.396 95.2754 139.392 96.2919C139.392 96.4431 139.392 96.4431 139.391 96.5973C139.39 98.5376 139.55 100.169 140.614 101.837C140.614 101.982 140.614 102.127 140.614 102.277C140.732 102.319 140.85 102.362 140.972 102.405C141.349 102.57 141.349 102.57 141.495 102.864C142.603 103.378 143.77 103.367 144.967 103.349C145.15 103.347 145.332 103.346 145.52 103.344C147.905 103.306 149.977 102.913 152.223 102.13C152.393 102.072 152.563 102.013 152.738 101.953C153.811 101.655 153.811 101.655 154.574 100.957C154.719 100.957 154.865 100.957 155.015 100.957C155.015 100.86 155.015 100.764 155.015 100.664C155.127 100.639 155.239 100.614 155.354 100.588C156.086 100.417 156.762 100.253 157.43 99.9031C158.264 99.5066 159.108 99.5812 160.011 99.6373C160.18 99.6444 160.18 99.6444 160.353 99.6516C161.129 99.711 161.699 99.9987 162.362 100.371C162.532 100.458 162.532 100.458 162.704 100.546C162.819 100.606 162.933 100.666 163.051 100.728C163.155 100.782 163.258 100.836 163.365 100.892C163.772 101.162 164.081 101.486 164.419 101.837C164.548 101.958 164.676 102.08 164.809 102.205C165.611 102.973 166.255 103.71 166.828 104.67C167.062 105.059 167.314 105.427 167.579 105.796C168.344 106.878 169.065 107.938 169.563 109.169C169.789 109.622 170.02 110.073 170.253 110.523C170.412 110.86 170.52 111.152 170.591 111.516C170.688 111.516 170.785 111.516 170.885 111.516C170.92 111.636 170.92 111.636 170.956 111.758C171.152 112.39 171.376 112.951 171.712 113.523C172.011 114.031 172.134 114.446 172.208 115.035C172.305 115.084 172.402 115.132 172.502 115.182C172.632 115.505 172.749 115.833 172.86 116.163C173.042 116.702 173.222 117.207 173.48 117.714C173.677 118.115 173.677 118.115 173.677 118.555C173.823 118.555 173.968 118.555 174.118 118.555C174.871 120.758 175.594 122.961 176.226 125.202C176.271 125.358 176.316 125.514 176.363 125.675C176.401 125.812 176.44 125.949 176.479 126.09C176.626 126.501 176.83 126.835 177.057 127.207C177.165 127.502 177.165 127.502 177.24 127.789C177.269 127.896 177.298 128.003 177.327 128.113C177.356 128.226 177.385 128.338 177.415 128.453C177.479 128.69 177.542 128.926 177.606 129.161C177.637 129.277 177.668 129.393 177.7 129.513C177.949 130.418 178.229 131.315 178.534 132.202C178.656 132.579 178.747 132.941 178.82 133.329C178.894 133.715 178.968 134.1 179.051 134.484C179.207 135.204 179.293 135.855 179.261 136.592C179.358 136.592 179.455 136.592 179.555 136.592C179.73 137.381 179.892 138.125 179.849 138.939C179.946 138.939 180.043 138.939 180.143 138.939C181.194 142.76 181.771 146.782 181.759 150.741C181.759 151.278 181.772 151.815 181.786 152.352C181.873 156.456 181.873 156.456 181.025 158.149C180.323 158.579 179.593 158.439 178.82 158.296C177.93 158.062 177.332 157.731 176.855 156.93C176.647 156.588 176.441 156.329 176.175 156.032C175.71 155.503 175.427 154.949 175.156 154.3C174.955 153.97 174.762 153.904 174.412 153.75C173.883 153.446 173.751 153.147 173.535 152.589C173.273 152.061 172.883 151.632 172.507 151.18C172.25 150.868 172.017 150.552 171.785 150.221C171.328 149.603 170.77 149.117 170.19 148.615C169.517 148.029 168.969 147.428 168.681 146.564C168.584 146.564 168.487 146.564 168.387 146.564C167.799 145.909 167.799 145.909 167.799 145.538C167.677 145.488 167.677 145.488 167.551 145.437C166.955 145.099 166.561 144.642 166.192 144.071C165.692 143.345 165.112 142.944 164.346 142.541C163.311 141.981 162.787 141.317 162.249 140.284C162.079 139.985 161.9 139.746 161.673 139.489C161.355 139.111 161.191 138.818 161.04 138.352C160.943 138.352 160.846 138.352 160.746 138.352C160.746 138.255 160.746 138.159 160.746 138.059C160.649 138.059 160.552 138.059 160.452 138.059C160.452 137.914 160.452 137.768 160.452 137.619C160.355 137.619 160.258 137.619 160.158 137.619C160.109 137.425 160.061 137.232 160.011 137.032C159.914 137.032 159.817 137.032 159.717 137.032C159.617 136.828 159.617 136.828 159.515 136.62C159.284 136.244 159.154 136.16 158.725 136.022C158.411 135.956 158.096 135.89 157.782 135.824C157.1 135.641 156.814 135.208 156.39 134.676C155.797 134.003 155.423 133.735 154.51 133.669C154.358 133.667 154.207 133.666 154.051 133.665C153.692 133.659 153.692 133.659 153.545 133.513C153.091 133.483 152.637 133.462 152.182 133.45C151.525 133.419 151.153 133.275 150.606 132.926C150.231 132.854 150.231 132.854 149.853 132.844C149.317 132.817 149.161 132.796 148.696 132.486C148.345 132.443 147.993 132.414 147.64 132.395C147.359 132.378 147.359 132.378 147.073 132.361C146.93 132.354 146.786 132.347 146.639 132.34C146.639 132.436 146.639 132.533 146.639 132.633C146.233 132.556 145.856 132.47 145.463 132.34C144.578 132.273 143.8 132.331 142.965 132.633C142.916 132.681 142.868 132.73 142.818 132.78C142.524 132.786 142.23 132.786 141.936 132.78C141.839 132.586 141.742 132.392 141.642 132.193C141.263 132.234 140.883 132.277 140.504 132.321C140.396 132.333 140.289 132.344 140.179 132.356C139.555 132.428 139.555 132.428 138.973 132.647C138.586 132.837 138.3 132.769 137.877 132.715C137.33 132.646 136.834 132.636 136.289 132.699C135.36 132.803 134.434 132.812 133.5 132.815C133.199 132.816 132.898 132.821 132.596 132.825C132.405 132.826 132.215 132.827 132.018 132.828C131.845 132.829 131.672 132.83 131.494 132.832C131.016 132.774 130.917 132.698 130.621 132.34C130.286 132.287 130.286 132.287 129.932 132.312C129.814 132.316 129.695 132.32 129.573 132.324C129.482 132.329 129.392 132.334 129.299 132.34C129.299 132.436 129.299 132.533 129.299 132.633C129.19 132.66 129.081 132.687 128.968 132.715C128.507 132.956 128.355 133.209 128.122 133.667C127.943 134.017 127.738 134.349 127.535 134.686C127.476 134.797 127.417 134.907 127.356 135.022C126.726 136.169 125.798 137.346 124.634 137.988C124.217 138.261 124.178 138.433 124.073 138.911C123.905 139.565 123.653 139.99 123.274 140.552C123.116 140.955 122.976 141.362 122.835 141.771C122.703 142.121 122.556 142.422 122.365 142.742C122.147 143.109 122.018 143.364 121.951 143.778C121.854 143.778 121.757 143.778 121.657 143.778C121.603 143.955 121.603 143.955 121.547 144.136C121.368 144.645 121.158 145.127 120.934 145.619C120.713 146.119 120.519 146.63 120.325 147.141C120.188 147.444 120.188 147.444 119.894 147.738C119.788 147.982 119.683 148.226 119.581 148.472C119.357 148.984 119.079 149.466 118.81 149.956C118.245 150.999 117.785 152.041 117.396 153.163C117.299 153.163 117.202 153.163 117.102 153.163C117.069 153.278 117.035 153.393 117.001 153.512C116.793 154.085 116.533 154.608 116.252 155.148C116.066 155.51 116.066 155.51 115.922 155.903C115.779 156.243 115.779 156.243 115.486 156.536C115.386 156.756 115.296 156.98 115.21 157.205C114.691 158.537 114.075 159.808 113.428 161.082C113.281 161.376 113.134 161.669 112.987 161.962C112.89 161.962 112.793 161.962 112.694 161.962C112.66 162.068 112.627 162.174 112.593 162.283C112.345 162.813 112.137 163.075 111.665 163.429C111.172 163.477 110.71 163.405 110.223 163.328C110.028 163.302 110.028 163.302 109.829 163.276C109.51 163.232 109.191 163.186 108.873 163.135C108.824 162.942 108.776 162.748 108.726 162.549C108.632 162.533 108.538 162.517 108.442 162.5C108.32 162.477 108.199 162.454 108.074 162.43C107.953 162.408 107.832 162.385 107.707 162.363C107.607 162.327 107.507 162.292 107.403 162.256C107.355 162.11 107.306 161.965 107.256 161.816C107.002 161.733 107.002 161.733 106.669 161.669C105.699 161.335 105.699 161.335 105.466 160.916C105.319 160.402 105.29 159.917 105.291 159.387C105.291 159.279 105.291 159.171 105.291 159.06C105.317 157.815 105.585 156.628 105.857 155.418C105.971 154.904 106.068 154.387 106.164 153.869C106.182 153.773 106.2 153.677 106.218 153.579C106.305 153.116 106.386 152.654 106.459 152.189C106.928 149.261 107.712 146.353 108.598 143.525C108.817 142.82 108.97 142.131 109.081 141.401C109.179 140.931 109.335 140.507 109.504 140.057C109.939 138.864 110.269 137.651 110.593 136.423C110.667 136.144 110.742 135.866 110.817 135.587C110.882 135.343 110.882 135.343 110.947 135.094C111.077 134.686 111.077 134.686 111.371 134.246C111.433 133.825 111.433 133.825 111.454 133.366C111.483 132.884 111.511 132.506 111.665 132.046C111.678 131.827 111.684 131.606 111.683 131.386C111.684 131.216 111.684 131.216 111.684 131.043C111.677 130.699 111.677 130.699 111.518 130.287C111.501 130.048 111.492 129.808 111.487 129.569C111.483 129.429 111.479 129.288 111.474 129.144C111.467 128.85 111.46 128.557 111.455 128.263C111.429 127.459 111.371 126.879 110.93 126.18C110.64 125.668 110.467 125.259 110.407 124.677C110.4 124.124 110.4 124.124 110.048 123.834C109.83 123.789 109.83 123.789 109.608 123.742C109.389 123.643 109.389 123.643 109.167 123.541C109.011 122.991 109.011 122.991 108.956 122.676C108.819 122.168 108.488 121.873 108.138 121.488C108.138 121.391 108.138 121.294 108.138 121.194C108.053 121.188 107.968 121.182 107.881 121.176C107.384 120.983 107.241 120.61 106.963 120.168C106.863 120.074 106.763 119.98 106.659 119.884C106.375 119.581 106.375 119.581 106.173 119.05C106.094 118.886 106.015 118.723 105.934 118.555C105.641 118.453 105.347 118.355 105.052 118.261C104.896 117.849 104.896 117.849 104.758 117.382C104.422 116.997 104.422 116.997 104.024 116.648C103.905 116.521 103.787 116.394 103.665 116.263C103.311 115.892 103.311 115.892 102.848 115.75C102.24 115.371 102.111 114.91 101.86 114.257C101.654 113.824 101.456 113.577 101.085 113.275C100.79 113.172 100.79 113.172 100.488 113.138C99.9356 113.02 99.9356 113.02 99.6886 112.671C99.6159 112.531 99.5431 112.392 99.4682 112.249C99.1659 111.934 98.8523 111.634 98.5342 111.335C98.2926 111.076 98.2926 111.076 98.2926 110.782C98.1683 110.807 98.0441 110.831 97.916 110.856C97.134 110.742 96.852 110.203 96.3823 109.609C96.1263 109.297 96.0292 109.182 95.6245 109.125C95.5109 109.125 95.3972 109.124 95.2801 109.124C94.926 109.097 94.926 109.097 94.6189 109.023C94.3342 108.592 94.3342 108.592 94.178 108.143C93.7721 107.738 93.4128 107.765 92.8555 107.703C92.8555 107.461 92.8555 107.219 92.8555 106.97C92.6373 106.959 92.6373 106.959 92.4146 106.948C91.4073 106.893 90.4461 106.826 89.4757 106.53C89.3302 106.022 89.3302 106.022 89.1818 105.503C88.5725 105.524 87.9633 105.545 87.3541 105.567C87.1829 105.573 87.0118 105.579 86.8355 105.585C85.2728 105.517 85.2728 105.517 83.8916 105.943C82.8331 106.084 81.7621 106.104 80.6955 106.108C80.5921 106.109 80.4888 106.109 80.3823 106.11C79.6482 106.108 79.6482 106.108 79.4832 105.943C79.4771 105.601 79.4769 105.259 79.4832 104.917C79.3291 104.929 79.1751 104.941 79.0165 104.954C78.8138 104.969 78.6112 104.984 78.4086 104.999C78.3072 105.007 78.2057 105.016 78.1012 105.024C77.6279 105.058 77.2931 105.068 76.8381 104.917C76.6244 104.903 76.4101 104.896 76.196 104.895C76.0663 104.894 75.9366 104.893 75.803 104.892C75.5922 104.892 75.5922 104.892 75.3772 104.892C75.1576 104.891 75.1576 104.891 74.9336 104.89C74.6221 104.89 74.3107 104.889 73.9993 104.889C73.532 104.889 73.0648 104.886 72.5975 104.884C70.9896 104.879 69.4163 104.93 67.8213 105.14C67.3608 105.2 66.9046 105.243 66.4415 105.274C65.6708 105.341 64.9315 105.506 64.1775 105.674C63.5443 105.811 62.9096 105.931 62.2718 106.044C62.1656 106.063 62.0594 106.082 61.95 106.102C61.4641 106.188 61.0223 106.236 60.5268 106.236C60.5268 106.333 60.5268 106.43 60.5268 106.53C59.5948 106.699 58.6801 106.69 57.7347 106.676C57.7347 106.241 57.7347 105.805 57.7347 105.357C57.4923 105.357 57.2498 105.357 57 105.357C57.199 103.098 57.199 103.098 57.7807 102.534C58.0355 102.368 58.2925 102.206 58.5521 102.048C58.9458 101.655 59.0258 101.414 59.195 100.893C59.4566 100.106 59.6817 99.7899 60.3798 99.344C60.5187 99.2792 60.6575 99.2143 60.8006 99.1475C61.2854 98.8914 61.6395 98.6051 62.0422 98.235C62.1689 98.1199 62.2956 98.0047 62.4262 97.8861C62.7379 97.6096 62.7379 97.6096 62.8779 97.291C63.122 97.1915 63.3662 97.0922 63.6104 96.9931C64.038 96.788 64.3889 96.5081 64.7625 96.2186C66.5034 94.8711 66.5034 94.8711 67.4334 94.6513C67.4334 94.5545 67.4334 94.4577 67.4334 94.358C67.7243 94.3096 68.0153 94.2612 68.315 94.2114C68.315 94.1146 68.315 94.0178 68.315 93.9181C69.307 93.3315 69.307 93.3315 69.6376 93.3315C69.6376 93.2347 69.6376 93.1379 69.6376 93.0382C69.9057 92.8529 70.1834 92.6813 70.4642 92.5158C70.6409 92.4106 70.8175 92.3052 70.994 92.1996C71.0857 92.1447 71.1775 92.0899 71.272 92.0334C71.6249 91.818 71.9691 91.5909 72.3139 91.363C73.2495 90.7463 74.2017 90.2228 75.213 89.7398C75.6627 89.5269 75.6627 89.5269 76.0706 89.27C76.3972 89.0787 76.3972 89.0787 76.6911 89.0787C76.7396 88.9335 76.7881 88.7884 76.8381 88.6388C77.1813 88.4715 77.1813 88.4715 77.6279 88.3088C78.2736 88.056 78.8337 87.7777 79.4097 87.3923C80.3306 86.7827 81.307 86.4001 82.3366 86.0117C83.2253 85.67 84.0649 85.2581 84.9125 84.8268C85.6669 84.4457 86.4322 84.1104 87.2192 83.8006C87.5943 83.6528 87.5943 83.6528 88.0062 83.3595C88.2001 83.3595 88.3941 83.3595 88.594 83.3595C88.594 83.2627 88.594 83.1659 88.594 83.0662C88.9156 82.9228 89.2374 82.7799 89.5595 82.6377C89.8475 82.5101 90.1347 82.3806 90.4216 82.2505C90.9561 82.0353 91.4901 81.8697 92.0427 81.7086C92.9129 81.4539 93.7432 81.1595 94.5729 80.7932C95.3715 80.4551 96.1506 80.2711 96.9999 80.1063C97.9408 79.9044 98.856 79.6165 99.7763 79.3375C100.211 79.2067 100.647 79.0827 101.085 78.9601C101.199 78.9248 101.312 78.8894 101.43 78.8531C102.584 78.5102 103.737 78.3717 104.933 78.2635C105.033 78.2541 105.134 78.2447 105.237 78.235C109.187 77.8703 109.187 77.8703 110.783 78.6668Z" fill="#262626"/>
</svg>
