<svg width="240" height="240" viewBox="0 0 240 240" fill="none" xmlns="http://www.w3.org/2000/svg">
<path d="M150.024 81.4845C150.152 81.4841 150.279 81.4837 150.411 81.4833C150.681 81.4827 150.952 81.4824 151.223 81.4825C151.627 81.4822 152.03 81.48 152.434 81.4777C154.73 81.4717 157.014 81.5964 159.283 81.9618C159.411 81.9819 159.538 82.002 159.669 82.0226C160.518 82.1619 161.355 82.3331 162.19 82.5388C162.29 82.5635 162.39 82.5882 162.494 82.6137C163.177 82.7921 163.177 82.7921 163.448 83.0634C163.823 83.1717 164.197 83.2643 164.576 83.3526C165.034 83.4658 165.372 83.585 165.725 83.9027C165.718 84.1201 165.718 84.1201 165.606 84.3824C165.154 84.6265 164.836 84.7338 164.325 84.7945C163.923 84.8198 163.923 84.8198 163.733 85.0835C163.318 85.4596 162.865 85.5547 162.332 85.7013C162.226 85.732 162.119 85.7628 162.01 85.7944C161.515 85.9364 161.018 86.071 160.519 86.1968C160.438 86.2172 160.358 86.2376 160.276 86.2587C160.062 86.3122 159.847 86.3633 159.632 86.4142C159.242 86.5249 159.242 86.5249 158.91 86.7753C158.447 87.077 158.009 87.1946 157.478 87.3275C157.285 87.3783 157.092 87.4294 156.899 87.4806C156.808 87.5046 156.717 87.5285 156.623 87.5532C156.256 87.6523 155.899 87.7725 155.541 87.8966C155.246 87.9971 154.951 88.0903 154.654 88.1818C154.556 88.2119 154.459 88.2421 154.359 88.2731C154.099 88.3392 154.099 88.3392 153.74 88.3392C153.729 88.4132 153.718 88.4873 153.706 88.5636C153.62 88.8188 153.62 88.8188 153.436 88.9574C152.833 89.2321 152.227 89.4681 151.597 89.6731C151.503 89.7044 151.408 89.7356 151.311 89.7678C150.733 89.9546 150.164 90.104 149.565 90.207C148.83 90.3502 148.171 90.6369 147.507 90.977C147.428 90.977 147.349 90.977 147.268 90.977C147.268 91.0562 147.268 91.1353 147.268 91.2168C146.147 91.7762 145.042 92.3057 143.844 92.6782C143.027 92.9333 142.349 93.2582 141.635 93.7348C141.031 94.1112 140.478 94.334 139.792 94.5142C139.051 94.711 138.374 94.9681 137.679 95.2936C137.489 95.381 137.299 95.4682 137.109 95.5554C137.013 95.5995 136.916 95.6436 136.817 95.689C135.883 96.1157 134.957 96.5119 133.981 96.8322C133.516 97.0051 133.085 97.2231 132.645 97.4518C132.326 97.6172 132.006 97.782 131.687 97.9464C131.608 97.988 131.528 98.0296 131.447 98.0724C130.744 98.431 130.09 98.6508 129.29 98.6508C129.25 98.7695 129.21 98.8882 129.17 99.0106C128.442 99.4888 127.667 99.7577 126.825 99.9548C126.278 100.082 126.278 100.082 125.872 100.435C125.778 100.685 125.728 100.905 125.694 101.169C125.655 101.329 125.616 101.489 125.574 101.648C125.492 101.66 125.409 101.672 125.324 101.684C125.162 101.711 125.162 101.711 124.997 101.738C124.837 101.763 124.837 101.763 124.673 101.789C124.303 101.913 124.21 102.033 124.016 102.368C123.886 102.674 123.775 102.984 123.664 103.298C123.536 103.567 123.536 103.567 123.177 103.807C123.058 103.807 122.94 103.807 122.817 103.807C122.689 104.104 122.58 104.396 122.499 104.709C122.47 104.817 122.442 104.925 122.413 105.036C122.387 105.14 122.362 105.245 122.335 105.352C122.297 105.436 122.258 105.519 122.218 105.605C121.974 105.683 121.974 105.683 121.739 105.725C121.595 106.033 121.595 106.033 121.499 106.445C121.437 106.657 121.375 106.869 121.312 107.082C121.282 107.185 121.252 107.288 121.221 107.395C121.139 107.644 121.139 107.644 121.02 107.763C120.82 107.768 120.62 107.769 120.42 107.763C120.529 108.031 120.639 108.298 120.75 108.565C120.78 108.64 120.81 108.715 120.842 108.793C120.996 109.161 121.151 109.456 121.403 109.767C121.619 110.042 121.619 110.042 121.619 110.521C121.698 110.521 121.777 110.521 121.859 110.521C121.97 110.745 122.082 110.968 122.193 111.192C122.29 111.385 122.388 111.577 122.486 111.769C122.954 112.684 123.347 113.617 123.656 114.598C123.577 114.598 123.498 114.598 123.417 114.598C123.417 114.717 123.417 114.835 123.417 114.958C123.535 114.997 123.654 115.037 123.776 115.078C123.781 115.357 123.781 115.637 123.776 115.917C123.737 115.956 123.697 115.996 123.656 116.037C123.735 116.076 123.815 116.116 123.896 116.157C123.896 116.078 123.896 115.998 123.896 115.917C124.256 116.037 124.256 116.037 124.375 116.277C124.38 116.516 124.381 116.756 124.375 116.996C124.494 116.996 124.613 116.996 124.735 116.996C124.757 117.469 124.746 117.787 124.495 118.195C124.795 117.934 124.907 117.748 124.975 117.356C125.054 117.356 125.133 117.356 125.214 117.356C125.371 117.515 125.371 117.515 125.559 117.745C125.943 118.197 126.346 118.623 126.765 119.042C126.822 119.1 126.88 119.157 126.938 119.217C127.264 119.542 127.599 119.85 127.948 120.15C128.508 120.635 129.025 121.159 129.544 121.687C130.246 122.41 130.246 122.41 130.997 123.08C131.26 123.296 131.498 123.517 131.736 123.759C131.967 123.992 132.2 124.223 132.432 124.455C132.906 124.927 133.38 125.4 133.854 125.873C134.139 126.158 134.425 126.442 134.71 126.727C135.042 127.057 135.373 127.388 135.705 127.718C135.806 127.819 135.907 127.92 136.011 128.024C136.838 128.85 137.633 129.687 138.279 130.665C138.279 130.744 138.279 130.823 138.279 130.905C137.395 130.772 136.663 130.51 135.867 130.11C135.758 130.057 135.649 130.004 135.537 129.949C135.212 129.79 134.887 129.628 134.563 129.466C134.381 129.376 134.198 129.285 134.016 129.195C133.446 128.912 132.878 128.626 132.312 128.335C132.025 128.189 131.737 128.047 131.447 127.907C131.331 127.851 131.216 127.795 131.097 127.738C130.402 127.422 129.858 127.24 129.092 127.31C128.726 127.307 128.432 127.195 128.091 127.068C128.139 128.758 128.204 130.253 129.01 131.774C129.511 132.808 129.795 133.836 129.843 134.984C129.915 135.544 130.142 136.03 130.359 136.548C130.518 136.981 130.541 137.286 130.488 137.739C129.972 137.682 129.75 137.392 129.409 137.02C129.335 136.939 129.261 136.859 129.185 136.775C128.57 136.094 128.57 136.094 128.57 135.821C128.452 135.781 128.333 135.742 128.211 135.701C128.056 135.526 128.056 135.526 127.896 135.296C127.599 134.885 127.29 134.489 126.967 134.097C126.536 133.574 126.11 133.047 125.687 132.516C125.537 132.328 125.387 132.141 125.236 131.954C124.656 131.236 124.095 130.504 123.536 129.769C123.113 129.215 122.687 128.664 122.256 128.117C122.148 127.981 122.041 127.844 121.934 127.708C121.776 127.507 121.618 127.306 121.459 127.105C120.856 126.34 120.293 125.568 119.78 124.739C119.173 123.795 118.515 123.013 117.566 122.407C117.14 122.13 116.754 121.862 116.39 121.507C116.073 121.22 115.846 121.147 115.424 121.088C114.049 120.875 112.931 119.665 111.911 118.795C111.563 118.51 111.214 118.227 110.865 117.944C110.592 117.715 110.592 117.715 110.398 117.513C110.223 117.324 110.223 117.324 109.873 117.236C109.873 117.394 109.873 117.552 109.873 117.715C109.76 117.731 109.647 117.747 109.531 117.764C109.382 117.785 109.233 117.806 109.079 117.828C108.858 117.859 108.858 117.859 108.632 117.891C108.246 117.948 107.861 118.009 107.476 118.075C107.436 118.233 107.397 118.392 107.356 118.555C107.258 118.578 107.16 118.601 107.058 118.625C106.865 118.672 106.865 118.672 106.667 118.72C106.539 118.75 106.411 118.781 106.279 118.812C105.832 118.93 105.832 118.93 105.438 119.154C105.284 119.519 105.284 119.519 105.199 119.874C105.09 119.885 104.982 119.897 104.871 119.909C104.658 119.936 104.658 119.936 104.442 119.964C104.231 119.989 104.231 119.989 104.017 120.014C103.636 120.081 103.636 120.081 103.42 120.335C103.231 120.686 103.138 121.047 103.041 121.432C102.939 121.428 102.836 121.423 102.73 121.417C102.253 121.435 101.922 121.476 101.483 121.672C101.145 122.108 100.984 122.628 100.808 123.144C100.653 123.567 100.582 123.658 100.285 123.95C100.245 124.069 100.206 124.188 100.165 124.31C100 124.512 100 124.512 99.8053 124.67C99.6866 124.67 99.5679 124.67 99.4457 124.67C99.4432 124.779 99.4408 124.887 99.4382 125C99.3385 125.729 98.8685 126.336 98.4869 126.948C98.4248 127.054 98.3626 127.159 98.2986 127.268C97.9928 127.767 97.66 128.179 97.1685 128.507C97.0803 128.699 96.9934 128.892 96.9156 129.089C96.7463 129.497 96.5407 129.885 96.3398 130.277C96.1977 130.555 96.1977 130.555 96.0898 130.905C95.93 131.065 95.7702 131.225 95.6103 131.384C95.5263 131.513 95.4422 131.642 95.3557 131.774C95.2815 131.883 95.2073 131.992 95.1309 132.104C95.0518 132.104 94.9727 132.104 94.8912 132.104C94.8566 132.178 94.822 132.252 94.7863 132.329C94.6515 132.583 94.6515 132.583 94.4118 132.823C94.2931 132.823 94.1745 132.823 94.0522 132.823C94.0423 132.927 94.0325 133.031 94.0223 133.138C93.9188 133.604 93.7254 133.874 93.453 134.262C93.4134 134.361 93.3739 134.46 93.3331 134.562C93.0953 135.157 92.6865 135.654 92.3068 136.166C92.2375 136.259 92.1681 136.353 92.0966 136.449C92.03 136.519 91.9635 136.589 91.8948 136.66C91.7762 136.66 91.6575 136.66 91.5353 136.66C91.5031 136.734 91.471 136.809 91.4379 136.885C91.2956 137.14 91.2956 137.14 90.936 137.38C90.8253 137.585 90.7243 137.796 90.6289 138.009C90.2972 138.701 89.8983 139.299 89.4397 139.91C89.2026 140.228 89.0026 140.529 88.8292 140.887C88.6554 141.223 88.5505 141.337 88.2318 141.524C87.8522 141.77 87.6961 141.964 87.5801 142.416C87.501 142.416 87.4219 142.416 87.3404 142.416C87.3181 142.516 87.3181 142.516 87.2954 142.618C87.1762 143.059 87.0567 143.406 86.7561 143.757C86.4597 144.149 86.3161 144.534 86.1437 144.992C85.9795 145.398 85.7703 145.758 85.5425 146.133C85.4634 146.133 85.3843 146.133 85.3028 146.133C85.2732 146.219 85.2435 146.306 85.2129 146.395C85.0436 146.776 84.8791 147.036 84.5837 147.332C84.1942 147.429 84.1942 147.429 83.8646 147.451C83.8542 147.527 83.8439 147.602 83.8332 147.68C83.7224 148.355 83.5543 148.846 83.16 149.407C83.0035 149.624 83.0035 149.624 82.9057 149.969C82.8266 149.969 82.7475 149.969 82.666 149.969C82.6537 150.081 82.6413 150.192 82.6286 150.307C82.5395 150.72 82.4813 150.776 82.1866 151.049C82.0612 151.286 81.9404 151.525 81.827 151.768C81.7479 151.768 81.6688 151.768 81.5873 151.768C81.5601 151.855 81.533 151.941 81.5049 152.03C81.3476 152.367 81.3476 152.367 81.063 152.645C80.5734 153.146 80.3009 153.724 80.1491 154.406C80.07 154.406 79.9909 154.406 79.9094 154.406C79.8748 154.515 79.8402 154.623 79.8045 154.736C79.5191 155.56 79.5191 155.56 79.1902 155.725C79.104 155.944 79.104 155.944 79.0329 156.197C78.8719 156.661 78.8719 156.661 78.5086 156.864C78.4171 156.884 78.3256 156.903 78.2314 156.924C78.2314 157.003 78.2314 157.082 78.2314 157.164C78.1128 157.164 77.9941 157.164 77.8718 157.164C77.8323 157.322 77.7927 157.48 77.752 157.643C77.6729 157.643 77.5938 157.643 77.5123 157.643C77.49 157.755 77.49 157.755 77.4673 157.868C77.3924 158.123 77.3924 158.123 77.1527 158.363C77.0341 158.363 76.9154 158.363 76.7932 158.363C76.6308 158.038 76.6655 157.762 76.6733 157.403C76.5942 157.403 76.5151 157.403 76.4336 157.403C76.4205 157.321 76.4073 157.238 76.3938 157.153C76.2842 156.503 76.1505 155.894 75.9162 155.277C75.6997 154.559 75.6979 153.83 75.7028 153.087C75.7029 152.987 75.7031 152.887 75.7033 152.785C75.7039 152.468 75.7054 152.152 75.707 151.835C75.7076 151.62 75.7081 151.404 75.7086 151.188C75.7099 150.662 75.712 150.136 75.7145 149.61C75.7936 149.61 75.8727 149.61 75.9542 149.61C75.9528 149.529 75.9514 149.448 75.95 149.364C75.9489 149.257 75.9478 149.15 75.9467 149.04C75.9453 148.934 75.9439 148.829 75.9425 148.72C75.9542 148.411 75.9542 148.411 76.0108 148.192C76.1283 147.707 76.1226 147.2 76.1466 146.703C76.1668 146.328 76.1943 146.011 76.3137 145.653C76.3415 145.301 76.3593 144.95 76.3765 144.598C76.4437 144.146 76.6102 143.793 76.7932 143.375C76.8854 143.053 76.9554 142.728 77.0254 142.401C77.2245 141.51 77.4683 140.646 77.752 139.778C77.8311 139.778 77.9102 139.778 77.9917 139.778C77.9829 139.621 77.9829 139.621 77.9739 139.461C77.9933 139.023 78.093 138.757 78.2764 138.361C78.4631 137.936 78.625 137.544 78.7108 137.087C78.983 135.678 79.6848 134.287 80.2839 132.988C80.5354 132.429 80.701 131.853 80.8682 131.265C81.0101 130.812 81.1738 130.38 81.365 129.946C81.5314 129.556 81.6803 129.159 81.8313 128.763C81.9469 128.507 81.9469 128.507 82.1866 128.267C82.2674 128.067 82.3472 127.868 82.4263 127.667C82.4832 127.576 82.54 127.484 82.5986 127.39C82.8032 127.061 82.8032 127.061 82.9357 126.641C83.2286 125.821 83.7256 125.091 84.1792 124.353C84.3609 124.055 84.3609 124.055 84.5238 123.651C84.6805 123.285 84.8593 122.971 85.0631 122.631C85.1152 122.507 85.1673 122.383 85.2209 122.255C85.4338 121.751 85.6929 121.276 85.9545 120.795C86.3114 120.133 86.6383 119.479 86.8904 118.769C86.9808 118.555 86.9808 118.555 87.2205 118.315C87.3021 118.119 87.3835 117.923 87.4644 117.727C87.6427 117.339 87.8682 116.984 88.0918 116.621C88.2835 116.303 88.4641 115.98 88.6433 115.654C89.0969 114.836 89.6147 114.115 90.2169 113.399C90.5658 112.953 90.8979 112.494 91.2258 112.032C91.278 111.959 91.3301 111.885 91.3839 111.81C91.487 111.664 91.5898 111.518 91.6923 111.372C92.4669 110.277 93.3708 109.398 94.3912 108.538C94.887 108.118 95.3587 107.685 95.7934 107.2C96.8162 106.077 98.2921 105.316 99.6854 104.766C99.5335 103.916 99.284 103.197 98.8614 102.45C98.3663 101.572 98.0489 100.698 97.7677 99.73C97.7235 99.5811 97.7235 99.5811 97.6783 99.4293C97.5496 98.9621 97.5038 98.5352 97.528 98.0513C97.4489 98.0513 97.3698 98.0513 97.2883 98.0513C97.0928 97.3771 96.9203 96.7155 96.8164 96.0205C96.7311 95.5081 96.6254 95.2666 96.2096 94.9338C96.2096 94.8151 96.2096 94.6964 96.2096 94.5741C96.9746 94.4754 97.7159 94.4397 98.4869 94.4542C98.5264 94.3355 98.566 94.2168 98.6067 94.0945C99.8353 93.3534 101.461 93.7232 102.772 93.9971C102.886 94.0206 103.001 94.0441 103.12 94.0683C104.173 94.3053 105.069 94.7428 105.963 95.346C106.774 95.8699 107.588 96.3727 108.532 96.605C109.158 96.4208 109.4 95.9382 109.753 95.4135C109.917 95.1856 110.082 94.9583 110.248 94.7315C110.329 94.6202 110.41 94.5089 110.493 94.3943C110.566 94.2954 110.638 94.1964 110.712 94.0945C110.804 93.9684 110.895 93.8423 110.989 93.7123C111.598 93.0746 112.329 92.5382 113.132 92.1686C113.481 92.0064 113.733 91.8232 114.016 91.5616C115.498 90.219 117.33 89.3015 119.18 88.5741C119.466 88.4666 119.466 88.4666 119.724 88.2942C120.112 88.0698 120.507 87.9135 120.925 87.7518C121.27 87.6157 121.608 87.4681 121.948 87.32C122.74 86.9907 123.548 86.7605 124.375 86.5406C124.776 86.4338 125.176 86.3269 125.576 86.2197C125.856 86.1448 126.136 86.0704 126.416 85.9964C126.546 85.9618 126.676 85.9271 126.811 85.8915C126.927 85.8606 127.044 85.8297 127.164 85.798C127.483 85.7038 127.783 85.5851 128.091 85.4615C128.259 85.4157 128.429 85.374 128.599 85.3364C128.696 85.3145 128.792 85.2926 128.892 85.27C129.048 85.2349 129.048 85.2349 129.207 85.1992C130.142 84.9837 131.06 84.7347 131.979 84.4573C134.545 83.6902 137.168 83.1332 139.802 82.6559C140.207 82.5818 140.611 82.5042 141.016 82.4264C143.151 82.0262 145.277 81.8159 147.442 81.6617C147.863 81.6301 147.863 81.6301 148.259 81.5616C148.849 81.4865 149.43 81.4852 150.024 81.4845Z" fill="#262626"/>
</svg>
