<svg width="240" height="240" viewBox="0 0 240 240" fill="none" xmlns="http://www.w3.org/2000/svg">
<path d="M175.914 70.5C175.947 70.829 175.973 71.0794 175.914 71.4C175.605 71.6883 175.605 71.6883 175.42 71.8166C175.11 72.0682 174.97 72.3976 174.791 72.75C174.717 72.75 174.643 72.75 174.567 72.75C174.541 72.8126 174.516 72.8753 174.489 72.9398C174.3 73.2734 174.057 73.4985 173.781 73.7625C173.659 73.8913 173.659 73.8913 173.535 74.0227C173.331 74.2125 173.331 74.2125 173.107 74.2125C173.072 74.3065 173.072 74.3065 173.037 74.4023C172.692 74.9833 171.997 75.3969 171.465 75.8086C171.37 75.8824 171.37 75.8824 171.274 75.9578C170.477 76.575 170.477 76.575 169.85 76.575C169.813 76.6864 169.776 76.7977 169.738 76.9125C169.538 77.0527 169.538 77.0527 169.282 77.1867C169.19 77.2353 169.098 77.2839 169.003 77.3339C168.866 77.4038 168.866 77.4038 168.728 77.475C168.656 77.5134 168.585 77.5519 168.512 77.5915C167.934 77.8966 167.329 78.1196 166.718 78.35C166.362 78.4903 166.029 78.6522 165.69 78.8281C164.962 79.1919 164.262 79.4327 163.453 79.5352C163.208 79.5922 163.208 79.5922 163.089 79.8234C163.018 80.0144 162.953 80.207 162.889 80.4C163.326 80.3497 163.764 80.2977 164.201 80.2453C164.387 80.224 164.387 80.224 164.576 80.2022C164.696 80.1877 164.816 80.1732 164.939 80.1583C165.049 80.1453 165.159 80.1324 165.272 80.119C165.588 80.0617 165.85 79.9621 166.145 79.8375C166.357 79.8015 166.57 79.7715 166.784 79.7461C167.525 79.6416 168.226 79.4523 168.942 79.2386C169.065 79.2022 169.065 79.2022 169.191 79.1651C169.264 79.143 169.337 79.1209 169.412 79.0981C169.626 79.05 169.626 79.05 170.075 79.05C170.112 78.9386 170.149 78.8273 170.187 78.7125C170.3 78.6976 170.412 78.6826 170.528 78.6672C170.679 78.6472 170.83 78.6271 170.98 78.607C171.091 78.5923 171.091 78.5923 171.204 78.5774C171.689 78.5127 172.173 78.445 172.658 78.375C172.658 78.3008 172.658 78.2265 172.658 78.15C173.015 78.0231 173.373 77.8966 173.731 77.7703C173.832 77.7346 173.932 77.699 174.036 77.6622C174.465 77.511 174.89 77.3662 175.329 77.2447C175.695 77.1357 176.005 76.9927 176.342 76.8141C176.762 76.5972 177.178 76.3993 177.619 76.2305C178.067 76.0566 178.476 75.8491 178.892 75.6091C179.222 75.4202 179.558 75.2421 179.893 75.0633C180.444 74.7683 180.978 74.4559 181.504 74.1185C181.774 73.9763 182.014 73.9206 182.315 73.875C182.343 74.1321 182.343 74.1321 182.315 74.4375C182.125 74.641 182.125 74.641 181.865 74.8242C181.727 74.9247 181.727 74.9247 181.585 75.0272C181.492 75.0925 181.399 75.1578 181.304 75.225C181.151 75.3393 180.999 75.4541 180.848 75.5695C180.774 75.6243 180.7 75.6792 180.624 75.7356C180.481 75.8435 180.338 75.9531 180.197 76.0644C179.557 76.5642 178.872 76.9738 178.16 77.3625C178.078 77.4072 177.997 77.4519 177.913 77.498C177.204 77.8719 176.496 78.1088 175.725 78.3187C175.486 78.3857 175.248 78.453 175.01 78.5205C174.896 78.5529 174.781 78.5852 174.663 78.6186C174.238 78.7429 173.82 78.883 173.402 79.0289C172.945 79.1866 172.509 79.3129 172.033 79.3945C171.542 79.4815 171.243 79.6263 170.861 79.95C170.824 80.0614 170.787 80.1728 170.749 80.2875C170.675 80.2875 170.601 80.2875 170.524 80.2875C170.524 80.3989 170.524 80.5103 170.524 80.625C170.652 80.5902 170.779 80.5554 170.91 80.5195C171.336 80.412 171.751 80.3605 172.187 80.3191C172.462 80.2899 172.462 80.2899 172.833 80.175C173.261 80.0597 173.673 80.0388 174.116 80.019C175.235 79.9584 176.336 79.7969 177.444 79.6336C177.654 79.6032 177.865 79.5727 178.075 79.5423C179.237 79.373 180.392 79.185 181.544 78.9597C182.397 78.7976 183.244 78.7374 184.111 78.7125C183.999 78.9375 183.999 78.9375 183.778 79.0214C183.684 79.0471 183.59 79.0728 183.494 79.0992C183.118 79.2055 182.747 79.316 182.378 79.4437C181.896 79.6068 181.409 79.7412 180.919 79.8727C180.445 79.9996 179.973 80.1315 179.508 80.2881C178.942 80.4495 178.363 80.4645 177.778 80.4958C177.657 80.503 177.536 80.5101 177.411 80.5175C177.027 80.5401 176.642 80.5615 176.258 80.5828C175.996 80.598 175.735 80.6132 175.473 80.6285C174.834 80.6658 174.195 80.702 173.556 80.7375C173.519 80.8489 173.482 80.9603 173.444 81.075C173.551 81.1237 173.551 81.1237 173.661 81.1734C173.893 81.3 173.893 81.3 174.005 81.525C174.128 81.5261 174.252 81.5271 174.379 81.5282C174.842 81.5327 175.304 81.5401 175.766 81.5483C175.966 81.5515 176.165 81.5539 176.364 81.5555C178.37 81.5725 178.37 81.5725 179.182 81.9838C179.509 82.1429 179.821 82.1686 180.181 82.2C180.181 82.3485 180.181 82.497 180.181 82.65C180.066 82.659 179.95 82.6681 179.831 82.6774C179.397 82.7116 178.962 82.7466 178.528 82.7818C178.341 82.7969 178.154 82.8117 177.967 82.8263C177.357 82.8742 176.748 82.9281 176.139 82.9875C176.001 83 175.864 83.0125 175.722 83.0254C175.396 83.065 175.101 83.1054 174.791 83.2125C174.532 83.5341 174.532 83.5341 174.342 83.8875C174.058 84.0534 173.757 84.1481 173.444 84.2461C172.929 84.4155 172.527 84.5644 172.096 84.9C171.839 84.9743 171.839 84.9743 171.577 85.0195C171.173 85.086 171.173 85.086 170.861 85.35C170.861 85.4985 170.861 85.647 170.861 85.8C170.951 85.8232 171.042 85.8464 171.135 85.8703C171.23 85.9214 171.325 85.9724 171.422 86.025C171.514 86.3766 171.514 86.3766 171.535 86.7C171.091 87.0101 170.724 87.0973 170.187 87.15C170.187 87.2243 170.187 87.2985 170.187 87.375C169.341 87.8665 168.365 88.1625 167.38 88.1625C167.38 88.3481 167.38 88.5338 167.38 88.725C167.491 88.7621 167.602 88.7992 167.717 88.8375C167.738 89.1609 167.738 89.1609 167.717 89.5125C167.317 89.7798 167.003 89.8107 166.535 89.8772C166.241 89.9412 166.241 89.9412 166.055 90.1901C165.699 90.5105 165.338 90.488 164.882 90.4969C164.798 90.5002 164.714 90.5035 164.628 90.507C164.423 90.5149 164.217 90.5202 164.011 90.525C164.011 90.8591 164.011 91.1933 164.011 91.5375C162.793 91.9705 161.726 92.3395 160.418 92.2125C160.418 92.2868 160.418 92.361 160.418 92.4375C160.566 92.5118 160.715 92.586 160.867 92.6625C160.725 93.2559 160.525 93.483 160.025 93.8227C159.915 93.8988 159.805 93.9749 159.692 94.0534C158.534 94.8035 156.737 94.1549 155.477 93.9C155.568 93.9812 155.658 94.0624 155.751 94.1461C156.041 94.4653 156.115 94.6056 156.151 95.025C155.629 95.2949 155.151 95.2725 154.579 95.25C154.705 95.3954 154.832 95.5407 154.958 95.6859C155.028 95.7669 155.099 95.8478 155.171 95.9312C155.306 96.0834 155.446 96.2311 155.59 96.375C155.59 96.6422 155.59 96.6422 155.477 96.9375C154.869 97.436 154.355 97.5163 153.59 97.507C153.48 97.506 153.37 97.505 153.258 97.504C153.134 97.502 153.134 97.502 153.007 97.5C153.044 97.5742 153.081 97.6485 153.119 97.725C153.134 98.0256 153.124 98.3238 153.119 98.625C153.031 98.6724 152.944 98.7198 152.853 98.7687C152.739 98.8303 152.626 98.892 152.509 98.9555C152.395 99.0168 152.282 99.0782 152.165 99.1414C151.899 99.2749 151.899 99.2749 151.772 99.4125C151.571 99.4028 151.571 99.4028 151.316 99.3703C151.18 99.3536 151.18 99.3536 151.042 99.3365C150.949 99.3244 150.857 99.3124 150.761 99.3C150.591 99.2789 150.42 99.2578 150.249 99.2367C150.122 99.2205 149.994 99.2042 149.863 99.1875C149.937 99.2989 150.011 99.4102 150.088 99.525C150.113 99.743 150.113 99.743 150.095 99.975C150.091 100.052 150.088 100.128 150.084 100.207C149.935 100.505 149.726 100.58 149.423 100.695C149.018 100.812 148.611 100.852 148.193 100.889C147.636 100.894 147.636 100.894 147.168 101.1C147.117 101.441 147.074 101.783 147.033 102.126C146.943 102.45 146.943 102.45 146.732 102.662C146.494 102.788 146.494 102.787 146.157 102.787C146.157 102.862 146.157 102.936 146.157 103.013C145.368 103.097 144.593 103.141 143.799 103.125C143.785 103.229 143.772 103.334 143.757 103.441C143.687 103.8 143.687 103.8 143.463 104.137C143.203 104.22 142.941 104.295 142.676 104.363C142.639 104.4 142.602 104.437 142.564 104.475C142.342 104.499 142.12 104.516 141.897 104.531C141.428 104.551 141.428 104.551 140.992 104.7C140.971 104.802 140.95 104.904 140.929 105.009C140.688 105.556 140.296 105.717 139.757 105.938C139.432 106.025 139.109 106.103 138.778 106.166C138.493 106.255 138.493 106.255 138.374 106.567C138.336 106.701 138.336 106.701 138.297 106.838C138.223 106.838 138.149 106.838 138.073 106.838C138.073 106.912 138.073 106.986 138.073 107.062C137.945 107.079 137.818 107.095 137.687 107.112C137.308 107.131 137.308 107.131 137.174 107.288C136.95 107.292 136.725 107.292 136.501 107.288C136.854 107.738 137.218 108.11 137.658 108.475C137.923 108.702 138.163 108.953 138.41 109.2C138.5 109.267 138.59 109.335 138.683 109.404C138.939 109.623 139.094 109.808 139.287 110.079C139.823 110.819 140.528 111.347 141.276 111.86C141.331 111.91 141.385 111.961 141.441 112.012C141.441 112.124 141.441 112.235 141.441 112.35C141.501 112.377 141.561 112.404 141.622 112.431C142.719 113.019 143.669 113.906 144.361 114.938C144.361 115.012 144.361 115.086 144.361 115.162C144.435 115.162 144.509 115.162 144.585 115.162C144.611 115.225 144.636 115.288 144.663 115.352C144.81 115.612 144.977 115.79 145.192 115.994C145.421 116.225 145.629 116.471 145.842 116.716C146.349 117.284 146.899 117.743 147.505 118.2C147.696 118.345 147.886 118.49 148.076 118.636C148.202 118.731 148.327 118.827 148.453 118.921C148.843 119.218 149.181 119.541 149.526 119.888C149.771 120.094 150.023 120.29 150.277 120.485C150.417 120.594 150.556 120.702 150.695 120.811C150.764 120.864 150.832 120.917 150.902 120.971C151.264 121.255 151.62 121.547 151.976 121.839C152.224 122.036 152.224 122.036 152.533 122.204C152.615 122.257 152.698 122.309 152.782 122.363C152.782 122.437 152.782 122.511 152.782 122.587C152.904 122.598 152.904 122.598 153.028 122.609C153.344 122.7 153.344 122.7 153.588 122.951C153.962 123.318 154.357 123.565 154.804 123.832C155.637 124.335 155.637 124.335 156.009 124.636C156.256 124.831 156.444 124.926 156.741 125.02C157.162 125.175 157.162 125.175 157.274 125.4C157.464 125.483 157.655 125.565 157.848 125.639C158.06 125.737 158.06 125.738 158.268 125.895C158.558 126.112 158.859 126.265 159.183 126.427C159.357 126.514 159.357 126.514 159.534 126.603C159.796 126.722 160.025 126.807 160.306 126.862C160.306 126.937 160.306 127.011 160.306 127.087C160.381 127.097 160.456 127.106 160.533 127.115C160.975 127.227 161.33 127.431 161.724 127.657C161.843 127.725 161.843 127.725 161.965 127.795C162.645 128.189 163.274 128.635 163.899 129.113C164.121 129.275 164.343 129.436 164.566 129.598C164.756 129.736 164.945 129.874 165.134 130.013C165.263 130.102 165.263 130.102 165.394 130.193C165.457 130.245 165.519 130.297 165.583 130.35C165.583 130.424 165.583 130.498 165.583 130.575C165.648 130.587 165.712 130.598 165.778 130.611C166.715 130.893 167.356 131.793 167.829 132.6C167.962 133 167.971 133.305 167.942 133.725C167.676 134.056 167.352 134.185 166.974 134.366C166.327 134.72 165.742 135.193 165.17 135.657C164.682 136.042 164.29 136.116 163.675 136.088C163.675 136.162 163.675 136.236 163.675 136.313C163.476 136.443 163.271 136.563 163.064 136.678C162.53 136.98 162.022 137.298 161.523 137.655C161.316 137.775 161.316 137.775 160.98 137.775C160.98 137.849 160.98 137.924 160.98 138C160.72 138 160.461 138 160.194 138C160.194 138.111 160.194 138.223 160.194 138.337C159.577 138.372 159.159 138.272 158.593 138.028C158.445 137.965 158.296 137.902 158.147 137.84C158.075 137.809 158.003 137.778 157.928 137.747C157.651 137.633 157.369 137.539 157.085 137.445C155.758 136.967 154.581 136.094 153.491 135.216C153.085 134.893 152.708 134.689 152.221 134.513C152.221 134.438 152.221 134.364 152.221 134.288C152.074 134.246 152.074 134.246 151.925 134.204C151.516 134.051 151.244 133.861 150.902 133.591C150.782 133.499 150.663 133.407 150.543 133.315C150.43 133.228 150.316 133.14 150.2 133.05C148.186 131.549 145.934 130.335 143.687 129.225C143.687 129.151 143.687 129.077 143.687 129C143.573 128.972 143.459 128.943 143.342 128.914C142.899 128.787 142.532 128.583 142.136 128.346C141.998 128.265 141.86 128.183 141.721 128.102C141.654 128.063 141.587 128.024 141.518 127.983C141.18 127.79 140.83 127.621 140.48 127.449C139.724 127.072 138.995 126.665 138.297 126.187C137.873 125.925 137.412 125.876 136.929 125.801C135.903 125.633 135.903 125.633 135.427 125.449C135.05 125.305 134.694 125.259 134.293 125.224C133.214 125.128 132.215 124.85 131.441 124.03C131.18 123.785 131.041 123.761 130.69 123.741C130.6 123.734 130.51 123.728 130.418 123.721C130.35 123.718 130.282 123.715 130.212 123.713C130.49 123.88 130.49 123.88 130.774 124.05C130.737 124.124 130.7 124.198 130.662 124.275C129.605 124.154 128.635 123.943 127.63 123.6C126.235 123.125 124.85 122.751 123.408 122.448C122.954 122.346 122.51 122.222 122.063 122.096C121.711 122.004 121.366 121.953 121.005 121.913C121.044 122.024 121.083 122.135 121.124 122.25C121.17 122.573 121.136 122.674 120.939 122.941C120.189 123.652 119.435 123.951 118.408 123.959C118.193 123.948 118.193 123.948 117.973 123.938C118.046 124.015 118.118 124.093 118.193 124.173C118.579 124.724 118.533 125.315 118.422 125.962C118.141 126.251 118.141 126.251 117.748 126.413C117.596 126.494 117.444 126.576 117.292 126.659C116.776 126.924 116.269 126.987 115.693 127.011C115.584 127.015 115.474 127.02 115.361 127.025C115.248 127.029 115.135 127.034 115.018 127.038C114.903 127.043 114.788 127.048 114.669 127.053C114.385 127.065 114.102 127.076 113.818 127.087C113.822 127.307 113.822 127.307 113.825 127.53C113.828 127.683 113.826 127.835 113.818 127.987C113.781 128.025 113.744 128.062 113.706 128.1C113.694 128.259 113.685 128.419 113.678 128.578C113.636 128.97 113.603 129.1 113.362 129.429C112.549 130.035 111.692 130.35 110.674 130.35C110.664 130.566 110.664 130.566 110.653 130.786C110.554 131.597 110.294 132.214 109.691 132.776C108.797 133.475 108.13 133.761 106.999 133.693C106.055 133.613 106.055 133.613 105.2 133.93C105.008 134.19 104.864 134.447 104.723 134.738C104.435 135.054 104.435 135.054 104.161 135.3C104.069 135.386 103.976 135.472 103.881 135.56C103.083 135.946 102.097 135.797 101.242 135.637C101.274 135.692 101.307 135.747 101.34 135.804C101.775 136.636 101.872 137.599 101.609 138.51C101.09 139.524 100.285 140.291 99.3049 140.848C99.2307 140.89 99.1565 140.933 99.08 140.977C98.5876 141.237 98.2159 141.306 97.6486 141.262C97.644 141.392 97.6393 141.522 97.6346 141.656C97.5614 142.257 97.2373 142.609 96.8626 143.062C96.6428 143.383 96.4332 143.703 96.238 144.04C95.911 144.567 95.6515 144.671 95.066 144.862C94.7787 145.002 94.4958 145.148 94.2128 145.296C93.9431 145.425 93.9431 145.425 93.5571 145.516C93.2626 145.618 93.2626 145.618 93.1698 145.835C93.1133 145.992 93.0603 146.149 93.0105 146.308C92.7613 147.081 92.3153 147.513 91.6973 148.013C91.3809 148.307 91.1373 148.573 90.8972 148.934C90.6469 149.31 90.473 149.449 90.0301 149.542C89.9109 149.559 89.7918 149.577 89.6691 149.595C89.2079 149.654 89.2079 149.654 88.7778 149.812C88.6999 149.807 88.622 149.802 88.5418 149.797C88.1997 149.782 87.9762 149.8 87.6549 149.925C87.3618 150.284 87.1637 150.629 86.9465 151.039C86.789 151.328 86.6769 151.525 86.4197 151.725C86.3456 151.725 86.2715 151.725 86.1951 151.725C86.121 151.873 86.0469 152.022 85.9706 152.175C85.8964 152.175 85.8223 152.175 85.746 152.175C85.7189 152.24 85.6918 152.306 85.664 152.373C85.4944 152.673 85.3005 152.84 85.0372 153.061C84.7174 153.33 84.5043 153.535 84.2801 153.893C84.0784 154.142 83.9894 154.195 83.6669 154.236C83.3173 154.226 82.9714 154.201 82.6229 154.172C81.7204 154.109 81.7204 154.109 80.9053 154.424C80.6905 154.714 80.525 155.007 80.3561 155.325C80.1517 155.526 80.1517 155.526 79.942 155.691C79.6864 155.897 79.5104 156.072 79.2964 156.33C78.9979 156.688 78.679 156.969 78.3235 157.267C78.1258 157.448 77.9927 157.621 77.8436 157.842C77.419 158.268 77.0069 158.248 76.426 158.25C76.4144 158.331 76.4028 158.412 76.3909 158.496C76.3137 158.813 76.3137 158.812 76.1593 159.066C76.0038 159.329 75.9236 159.523 75.8365 159.811C75.5878 160.598 75.2108 161.333 74.8539 162.075C74.7832 162.226 74.7832 162.226 74.711 162.38C74.4328 162.961 74.4328 162.961 74.1802 163.088C74.1043 163.274 74.0286 163.46 73.9534 163.646C73.7903 163.985 73.5661 164.265 73.3354 164.56C73.1935 164.744 73.0643 164.938 72.938 165.134C72.7066 165.47 72.4582 165.735 72.159 166.012C72.0548 166.113 72.0548 166.113 71.9485 166.216C71.6024 166.41 71.3122 166.379 70.9238 166.35C70.6997 166.125 70.7655 165.696 70.7484 165.387C70.7435 165.307 70.7387 165.227 70.7337 165.144C70.7217 164.946 70.7104 164.748 70.6993 164.55C70.551 164.513 70.4028 164.476 70.2501 164.438C70.176 164.735 70.1019 165.032 70.0255 165.338C69.6461 165.242 69.2968 165.128 68.9307 164.993C68.8201 164.952 68.7095 164.911 68.5956 164.869C68.5116 164.838 68.4277 164.807 68.3412 164.775C68.4269 164.859 68.5126 164.942 68.6009 165.028C69.2371 165.68 69.2371 165.68 69.2465 166.097C69.0815 166.603 68.7828 166.952 68.4535 167.363C68.3794 167.474 68.3053 167.585 68.2289 167.7C68.1548 167.7 68.0807 167.7 68.0043 167.7C67.9923 167.766 67.9803 167.832 67.9679 167.9C67.882 168.183 67.7695 168.335 67.5762 168.558C67.5199 168.624 67.4636 168.691 67.4056 168.759C67.2064 168.949 67.0142 169.042 66.7691 169.163C66.7321 169.237 66.695 169.311 66.6569 169.387C66.2638 169.465 66.2638 169.465 65.8708 169.5C65.8338 169.463 65.7967 169.426 65.7585 169.387C65.7682 169.187 65.7682 169.187 65.8006 168.93C65.8121 168.839 65.8235 168.748 65.8353 168.654C65.847 168.562 65.8587 168.47 65.8708 168.375C65.8791 168.293 65.8873 168.212 65.8958 168.128C65.9293 167.808 65.9646 167.519 66.0893 167.221C66.2359 166.839 66.3027 166.455 66.3691 166.052C66.3832 165.971 66.3973 165.889 66.4119 165.804C66.4567 165.543 66.5007 165.282 66.5446 165.021C66.5885 164.761 66.6327 164.501 66.6773 164.242C66.7049 164.081 66.7322 163.919 66.759 163.758C66.8248 163.373 66.9019 162.995 66.9994 162.616C67.0826 162.281 67.144 161.973 67.1771 161.632C67.1865 161.538 67.1959 161.445 67.2056 161.349C67.2144 161.254 67.2232 161.16 67.2323 161.063C67.2469 160.916 67.2469 160.916 67.2617 160.766C67.2853 160.527 67.308 160.289 67.3306 160.05C67.2194 160.05 67.1083 160.05 66.9937 160.05C66.9798 160.127 66.9659 160.203 66.9516 160.282C66.6344 161.776 65.9025 163.124 64.9725 164.325C64.8566 164.481 64.8566 164.481 64.7383 164.641C64.18 165.365 63.6038 165.858 62.839 166.35C62.7394 166.431 62.6399 166.512 62.5372 166.596C62.2736 166.803 61.998 166.954 61.7043 167.113C61.3711 167.327 61.0978 167.603 60.8169 167.881C60.5379 168.076 60.3649 168.068 60.0318 168.038C59.9824 167.524 60.1242 167.26 60.4038 166.835C60.5073 166.674 60.5073 166.674 60.613 166.51C60.8178 166.238 60.8178 166.237 61.1547 166.012C61.2799 165.751 61.3877 165.495 61.4916 165.225C61.5711 165.028 61.6506 164.831 61.7302 164.634C61.8459 164.345 61.9545 164.058 62.053 163.763C62.1271 163.763 62.2012 163.763 62.2776 163.763C62.3517 163.466 62.4258 163.169 62.5022 162.863C62.6133 162.863 62.7245 162.863 62.839 162.863C62.839 162.714 62.839 162.565 62.839 162.412C62.9131 162.412 62.9872 162.412 63.0636 162.412C63.0752 162.336 63.0868 162.259 63.0987 162.18C63.1731 161.862 63.2879 161.587 63.4202 161.289C63.6668 160.686 63.8297 160.055 63.9549 159.417C64.0282 159.061 64.1382 158.78 64.3128 158.461C64.5468 158.029 64.5638 157.724 64.5234 157.237C64.4493 157.237 64.3751 157.237 64.2988 157.237C64.2988 157.386 64.2988 157.535 64.2988 157.688C64.2247 157.688 64.1506 157.688 64.0742 157.688C64.0487 157.804 64.0233 157.92 63.997 158.039C63.7937 158.749 63.2832 159.154 62.7267 159.6C62.6364 159.711 62.5461 159.823 62.453 159.938C61.9567 160.52 61.303 160.84 60.6283 161.175C60.5102 161.234 60.5102 161.234 60.3898 161.294C59.845 161.562 59.2967 161.79 58.7212 161.984C58.4825 162.067 58.2599 162.164 58.0317 162.272C57.659 162.418 57.3963 162.442 57 162.412C57.2234 161.839 57.5302 161.548 57.9895 161.167C58.3353 160.862 58.6285 160.519 58.9291 160.17C59.1335 159.938 59.1335 159.938 59.4493 159.635C59.7078 159.387 59.7078 159.387 59.8493 159.066C60.0593 158.645 60.3253 158.314 60.6187 157.949C60.8606 157.631 61.0583 157.298 61.2512 156.949C61.2935 156.896 61.3357 156.842 61.3793 156.788C61.4904 156.788 61.6016 156.788 61.7161 156.788C61.7277 156.709 61.7393 156.63 61.7512 156.548C61.8396 156.178 61.9922 155.889 62.1653 155.55C62.2448 155.381 62.2448 155.381 62.3258 155.209C62.7792 154.257 62.7792 154.257 63.1408 153.912C63.4893 153.544 63.5515 153.182 63.6615 152.695C63.7323 152.42 63.8251 152.198 63.9619 151.95C64.036 151.95 64.1101 151.95 64.1865 151.95C64.2004 151.806 64.2143 151.662 64.2286 151.514C64.2707 151.078 64.2707 151.078 64.5234 150.825C64.6108 150.593 64.6916 150.358 64.769 150.122C64.9674 149.532 65.2058 148.998 65.4989 148.448C65.8183 147.833 65.9612 147.309 66.045 146.625C66.1071 146.255 66.2426 145.988 66.4239 145.665C66.6283 145.259 66.7499 144.825 66.8884 144.393C67.0147 144.012 67.1656 143.654 67.3306 143.288C67.4907 142.922 67.647 142.562 67.7723 142.183C67.8934 141.821 68.0311 141.469 68.1728 141.115C68.3654 140.617 68.5172 140.141 68.6193 139.618C68.809 138.753 69.0914 137.903 69.4641 137.1C69.5382 137.1 69.6123 137.1 69.6887 137.1C69.6863 136.993 69.684 136.887 69.6816 136.777C69.6887 136.425 69.6887 136.425 69.8009 136.2C69.8751 136.2 69.9492 136.2 70.0255 136.2C70.0371 136.107 70.0487 136.014 70.0606 135.919C70.1213 135.609 70.1912 135.37 70.3062 135.082C70.4315 134.767 70.4856 134.542 70.5308 134.196C70.587 133.837 70.587 133.837 70.7484 133.679C70.9667 133.456 71.0124 133.28 71.0923 132.98C71.1344 132.829 71.1344 132.829 71.1774 132.676C71.2049 132.577 71.2324 132.477 71.2607 132.375C71.4268 131.819 71.6235 131.297 71.8713 130.772C72.1413 130.193 72.3311 129.607 72.5077 128.994C72.6006 128.687 72.7093 128.395 72.8327 128.1C72.9069 128.1 72.981 128.1 73.0573 128.1C73.1886 127.79 73.2941 127.491 73.3802 127.165C73.5234 126.694 73.7248 126.282 73.9556 125.85C74.0297 125.85 74.1039 125.85 74.1802 125.85C74.2173 125.553 74.2543 125.256 74.2925 124.95C74.3666 124.95 74.4407 124.95 74.5171 124.95C74.5289 124.868 74.5408 124.787 74.553 124.703C74.6359 124.36 74.7615 124.14 74.9522 123.846C75.2544 123.36 75.4515 122.902 75.64 122.363C75.8028 122.008 75.97 121.697 76.1944 121.378C76.3891 121.071 76.5053 120.822 76.6295 120.485C76.9135 119.739 77.3351 119.05 77.8397 118.431C78.0362 118.144 78.1156 117.855 78.2226 117.525C78.7144 116.593 79.3855 115.797 80.0793 115.012C80.2414 114.828 80.4005 114.641 80.5596 114.455C81.3986 113.488 82.3461 112.749 83.3879 112.012C83.5216 111.917 83.6552 111.821 83.7888 111.726C83.9802 111.589 84.1717 111.452 84.3635 111.315C84.8901 110.94 85.4105 110.557 85.9284 110.17C86.0043 110.114 86.0801 110.058 86.1583 110C86.4653 109.769 86.7479 109.546 87.0189 109.273C87.2057 109.088 87.2057 109.088 87.4303 109.088C87.4303 109.013 87.4303 108.939 87.4303 108.862C87.5044 108.862 87.5785 108.862 87.6549 108.862C87.6549 108.788 87.6549 108.714 87.6549 108.638C87.8758 108.453 88.0972 108.281 88.3286 108.11C88.8432 107.723 89.3409 107.328 89.82 106.897C90.0088 106.729 90.2025 106.568 90.399 106.409C90.6903 106.192 90.6903 106.192 90.799 105.938C90.8731 105.938 90.9472 105.938 91.0236 105.938C91.0664 105.839 91.0664 105.839 91.1101 105.739C91.263 105.46 91.4326 105.279 91.66 105.057C91.7419 104.976 91.8237 104.895 91.9081 104.812C91.9937 104.729 92.0793 104.645 92.1675 104.559C92.7303 104.009 93.2733 103.458 93.773 102.848C93.9431 102.675 93.9431 102.675 94.2799 102.563C94.2799 102.488 94.2799 102.414 94.2799 102.337C94.5177 102.119 94.5177 102.119 94.8273 101.873C94.929 101.792 95.0306 101.71 95.1353 101.626C95.4028 101.437 95.4028 101.437 95.6274 101.437C95.4588 101.015 95.3031 100.668 95.0449 100.291C94.8414 99.975 94.8414 99.975 94.8414 99.525C94.7673 99.525 94.6932 99.525 94.6168 99.525C94.5682 99.3858 94.5195 99.2466 94.4694 99.1031C94.3347 98.7413 94.1793 98.4807 93.9431 98.175C93.8946 98.0546 93.8461 97.9343 93.7961 97.8103C93.6198 97.3895 93.38 97.0621 93.0939 96.7055C92.9931 96.5778 92.8925 96.4499 92.7921 96.3218C92.7409 96.2565 92.6896 96.1913 92.6368 96.124C92.3878 95.8012 92.1507 95.4701 91.9149 95.1375C91.8683 95.072 91.8218 95.0064 91.7738 94.9389C91.5483 94.6199 91.3251 94.2995 91.1047 93.9769C90.5858 93.2177 90.0478 92.4828 89.4809 91.7594C89.3125 91.5376 89.1515 91.3099 88.9988 91.077C88.216 89.9192 87.0234 89.1121 85.9161 88.2917C85.746 88.1625 85.746 88.1625 85.6337 88.05C85.4682 88.0266 85.3019 88.0087 85.1354 87.9938C84.6477 87.9498 84.6477 87.9498 84.3985 87.825C84.3985 87.7136 84.3985 87.6022 84.3985 87.4875C84.5838 87.4504 84.7691 87.4133 84.96 87.375C84.96 87.3008 84.96 87.2265 84.96 87.15C85.4046 87.15 85.8493 87.15 86.3074 87.15C86.3074 87.0758 86.3074 87.0015 86.3074 86.925C86.2032 86.9296 86.099 86.9343 85.9916 86.9391C85.6337 86.925 85.6337 86.925 85.2968 86.7C85.0776 86.6646 85.0776 86.6646 84.8477 86.6719C84.7712 86.6713 84.6948 86.6707 84.6161 86.6701C84.3621 86.6888 84.3621 86.6888 84.0616 86.925C84.0623 86.7656 84.068 86.6061 84.0757 86.4469C84.0783 86.3581 84.0809 86.2694 84.0836 86.1779C84.1894 85.8669 84.3233 85.7152 84.6054 85.5469C85.1702 85.3502 85.7876 85.4084 86.3776 85.4203C86.5843 85.4205 86.5843 85.4205 86.7952 85.4208C87.8398 85.4311 87.8398 85.4311 88.3286 85.6875C88.4768 85.6875 88.6251 85.6875 88.7778 85.6875C88.2961 85.4647 87.8143 85.242 87.318 85.0125C87.45 84.4836 87.5822 84.3493 87.9918 84C88.2819 83.8259 88.5777 83.6796 88.8901 83.55C88.986 83.5097 89.082 83.4694 89.1809 83.4278C90.3922 83.1025 91.9616 83.141 93.0825 83.7122C93.1812 83.77 93.2799 83.8279 93.3816 83.8875C93.4966 83.9512 93.6115 84.0148 93.7299 84.0804C94.0674 84.2721 94.3986 84.4714 94.7291 84.675C94.8483 84.7461 94.8483 84.7461 94.9699 84.8187C95.9183 85.3934 96.7942 86.0571 97.6131 86.8042C98.2543 87.3794 98.9219 87.9223 99.6277 88.4156C99.9237 88.6323 100.119 89.0484 100.119 89.0484C100.119 89.0484 100.417 89.3209 100.727 89.3859C101.123 89.4691 101.401 89.4752 101.786 89.4413C101.889 89.4319 101.992 89.4225 102.098 89.4127C102.204 89.4039 102.311 89.3951 102.421 89.3859C102.581 89.3714 102.581 89.3714 102.744 89.3565C103.31 89.3063 103.859 89.2805 104.428 89.3016C104.834 89.2875 105.132 89.2097 105.509 89.0625C105.509 89.1367 105.509 89.211 105.509 89.2875C105.627 89.2643 105.745 89.2411 105.867 89.2172C106.544 89.1279 107.201 89.277 107.867 89.4C107.904 89.2886 107.941 89.1772 107.979 89.0625C108.202 89.0625 108.424 89.0625 108.653 89.0625C108.69 89.1367 108.727 89.211 108.765 89.2875C108.839 89.2875 108.913 89.2875 108.99 89.2875C109.214 89.8219 110.562 89.4 110.562 89.4C110.451 89.3629 110.34 89.3257 110.225 89.2875C110.225 89.2504 110.225 89.2133 110.225 89.175C110.343 89.1707 110.343 89.1706 110.463 89.1662C110.565 89.1598 110.667 89.1534 110.772 89.1469C110.874 89.1417 110.976 89.1364 111.08 89.1311C111.365 89.0915 111.365 89.0915 111.479 88.8428C111.51 88.7668 111.541 88.6908 111.572 88.6125C112.08 88.2913 112.654 88.1334 113.224 87.9555C114.173 87.6206 115.073 87.155 115.979 86.7202C117.2 86.1375 117.2 86.1375 117.748 86.1375C117.748 86.2117 117.748 86.286 117.748 86.3625C118.335 86.1798 118.335 86.1798 118.696 85.7227C118.717 85.6368 118.737 85.551 118.759 85.4625C118.87 85.4625 118.981 85.4625 119.096 85.4625C119.096 85.3882 119.096 85.314 119.096 85.2375C119.188 85.2226 119.28 85.2076 119.375 85.1922C119.556 85.1624 119.556 85.1624 119.741 85.132C119.861 85.1125 119.981 85.0929 120.105 85.0727C120.372 85.0252 120.631 84.9706 120.892 84.9C120.909 84.8118 120.925 84.7237 120.942 84.6328C121.005 84.3375 121.005 84.3375 121.117 84.1125C121.374 84.0134 121.635 83.94 121.9 83.8629C122.148 83.7964 122.148 83.7964 122.24 83.55C122.388 83.55 122.536 83.55 122.689 83.55C122.689 83.4757 122.689 83.4015 122.689 83.325C122.8 83.325 122.911 83.325 123.026 83.325C123.026 83.2507 123.026 83.1765 123.026 83.1C123.362 83.0022 123.66 82.9743 124.01 82.9765C124.11 82.9769 124.21 82.9772 124.313 82.9776C124.468 82.979 124.468 82.979 124.626 82.9805C124.784 82.9812 124.784 82.9812 124.944 82.982C125.203 82.9833 125.462 82.9852 125.721 82.9875C125.721 82.9132 125.721 82.839 125.721 82.7625C126.689 82.5243 127.653 82.337 128.64 82.2C128.713 82.1897 128.785 82.1794 128.859 82.1687C130.322 81.96 130.322 81.96 130.886 81.975C130.886 81.8636 130.886 81.7522 130.886 81.6375C131.277 81.5486 131.637 81.5112 132.037 81.5122C132.209 81.5122 132.209 81.5122 132.384 81.5123C132.568 81.5131 132.568 81.5131 132.755 81.514C132.945 81.5143 132.945 81.5143 133.138 81.5145C133.541 81.5151 133.943 81.5165 134.346 81.518C134.619 81.5185 134.893 81.519 135.166 81.5195C135.835 81.5207 136.505 81.5226 137.174 81.525C137.174 81.5992 137.174 81.6735 137.174 81.75C137.273 81.7458 137.273 81.7458 137.374 81.7415C143.009 81.5015 143.009 81.5015 145.449 81.5039C145.531 81.5038 145.614 81.5037 145.699 81.5037C147.013 81.5038 147.013 81.5038 147.28 81.6375C147.577 81.6471 147.871 81.6499 148.168 81.6472C148.258 81.6467 148.348 81.6463 148.44 81.6458C149.365 81.6398 150.29 81.6244 151.215 81.6018C151.401 81.5974 151.586 81.5935 151.772 81.59C152.766 81.5713 153.723 81.5505 154.691 81.3C154.855 81.2644 155.019 81.2291 155.183 81.1945C155.688 81.0808 156.19 80.9534 156.692 80.8254C157.058 80.7354 157.425 80.6556 157.793 80.5758C158.534 80.4057 159.205 80.1466 159.894 79.8292C160.299 79.6429 160.676 79.4821 161.113 79.3875C161.562 79.2695 161.835 79.0843 162.215 78.825C162.363 78.825 162.511 78.825 162.664 78.825C162.687 78.7554 162.71 78.6858 162.734 78.6141C162.952 78.277 163.183 78.2507 163.562 78.15C163.729 78.0943 163.729 78.0943 163.899 78.0375C163.899 77.9633 163.899 77.889 163.899 77.8125C163.989 77.7852 164.078 77.758 164.17 77.7299C164.825 77.5224 165.361 77.3182 165.92 76.9125C166.099 76.812 166.28 76.7139 166.461 76.6172C167.698 75.9492 168.921 75.2421 170.075 74.4375C170.694 74.0085 170.694 74.0085 171.019 73.8847C171.319 73.7587 171.528 73.615 171.78 73.4109C171.867 73.3421 171.953 73.2732 172.042 73.2022C172.237 73.0429 172.433 72.8832 172.628 72.7232C172.728 72.6415 172.828 72.5599 172.931 72.4758C173.024 72.3994 173.116 72.3229 173.212 72.2442C173.444 72.075 173.444 72.075 173.668 72.075C173.668 72.0007 173.668 71.9265 173.668 71.85C173.853 71.7336 174.041 71.622 174.23 71.5125C174.58 71.249 174.924 70.9797 175.269 70.7096C175.577 70.5 175.577 70.5 175.914 70.5Z" fill="#262626"/>
</svg>
