<svg width="240" height="240" viewBox="0 0 240 240" fill="none" xmlns="http://www.w3.org/2000/svg">
<path d="M150.107 88.2097C151.351 88.8554 152.37 88.8734 153.745 88.7108C154.039 88.6128 154.333 88.5148 154.636 88.4139C155.149 88.3937 155.663 88.3887 156.177 88.3953C156.444 88.398 156.712 88.4007 156.988 88.4034C157.192 88.4069 157.396 88.4103 157.606 88.4139C157.606 88.6099 157.606 88.8058 157.606 89.0078C157.266 89.1551 156.925 89.3025 156.575 89.4544C152.364 91.2751 152.364 91.2751 149.81 94.9282C149.635 95.4285 149.462 95.9296 149.291 96.4315C149.202 96.6374 149.113 96.8433 149.022 97.0555C148.388 98.5289 148.174 99.8807 148.4 101.48C148.743 102.233 148.743 102.233 149.291 102.964C152.088 107.616 151.779 113.374 150.687 118.535C150.139 120.536 148.975 123.647 147.137 124.744C146.965 124.808 146.794 124.872 146.618 124.938C146.513 125.333 146.415 125.729 146.321 126.126C145.746 126.794 145.746 126.794 145.133 127.314C144.937 127.314 144.741 127.314 144.539 127.314C144.071 127.776 144.071 127.776 143.611 128.353C143.451 128.546 143.291 128.739 143.126 128.938C143.005 129.088 142.883 129.238 142.757 129.393C142.561 129.295 142.365 129.197 142.164 129.096C142.066 129.194 141.968 129.292 141.867 129.393C141.367 129.797 140.866 130.198 140.363 130.599C140.09 130.817 139.817 131.035 139.536 131.259C139.325 131.427 139.114 131.595 138.897 131.768C138.701 131.67 138.505 131.572 138.303 131.471C138.499 131.177 138.695 130.883 138.897 130.58C138.572 130.709 138.248 130.838 137.913 130.97C137.731 131.043 137.548 131.115 137.36 131.189C136.799 131.446 136.799 131.446 136.387 131.909C135.837 132.451 135.317 132.69 134.609 132.993C134.27 133.141 134.27 133.141 133.924 133.292C133.307 133.53 132.708 133.693 132.067 133.847C132.171 134.046 132.276 134.245 132.384 134.45C132.861 135.356 133.336 136.263 133.811 137.169C133.976 137.482 134.141 137.796 134.311 138.118C134.47 138.422 134.629 138.725 134.793 139.038C134.939 139.316 135.085 139.594 135.236 139.881C135.63 140.677 135.63 140.677 135.924 141.503C136.072 141.829 136.072 141.829 136.224 142.161C136.518 142.259 136.812 142.357 137.115 142.458C137.115 142.752 137.115 143.046 137.115 143.349C137.417 143.929 137.742 144.497 138.08 145.057C138.269 145.373 138.458 145.689 138.652 146.015C138.831 146.311 139.01 146.607 139.194 146.913C140.382 148.905 140.382 148.905 140.382 149.585C140.97 149.683 141.558 149.781 142.164 149.882C142.164 150.078 142.164 150.274 142.164 150.476C142.357 150.523 142.551 150.57 142.75 150.619C144.498 151.085 145.617 151.588 146.915 152.852C146.817 153.146 146.719 153.44 146.618 153.742C146.422 153.448 146.226 153.154 146.024 152.852C145.529 152.839 145.034 152.84 144.539 152.852C144.245 152.656 143.951 152.46 143.648 152.258C144.325 153.272 144.461 153.272 145.579 153.538C146.301 153.754 146.301 153.754 146.915 154.039C147.379 154.986 147.379 154.986 147.509 155.821C147.313 155.821 147.117 155.821 146.915 155.821C146.719 155.527 146.523 155.233 146.321 154.93C146.15 154.998 145.978 155.065 145.801 155.134C145.133 155.227 145.133 155.227 144.558 154.837C144.356 154.672 144.154 154.507 143.945 154.336C143.453 154.132 142.958 153.934 142.46 153.742C141.566 153.146 141.382 152.899 140.976 151.961C140.682 152.353 140.388 152.745 140.085 153.149C139.907 152.873 139.729 152.597 139.546 152.313C138.963 151.401 138.963 151.401 138.377 150.847C138.255 150.725 138.132 150.602 138.006 150.476C138.006 150.28 138.006 150.084 138.006 149.882C137.736 149.802 137.467 149.723 137.189 149.641C136.291 149.313 135.779 148.972 135.036 148.397C134.773 148.305 134.51 148.214 134.238 148.119C134.012 148.015 133.785 147.911 133.551 147.803C133.453 147.411 133.355 147.02 133.254 146.616C132.47 146.812 131.686 147.008 130.879 147.21C131.075 146.818 131.271 146.426 131.473 146.022C133.617 145.736 135.019 146.726 136.818 147.803C137.014 147.901 137.21 147.999 137.412 148.1C136.072 143.742 133.799 139.622 131.381 135.775C130.582 134.496 130.582 134.496 130.582 133.847C130.257 133.945 129.933 134.043 129.598 134.144C128.503 134.441 128.503 134.441 127.612 134.441C127.808 134.049 128.004 133.657 128.206 133.253C127.979 133.253 127.753 133.253 127.519 133.253C126.144 133.253 125.076 133.059 123.751 132.659C122.73 133.68 122.841 135.005 122.821 136.387C122.829 138.019 123.07 139.56 123.38 141.159C123.434 141.442 123.487 141.725 123.543 142.016C124.445 146.88 124.445 146.88 126.424 151.367C126.424 151.563 126.424 151.759 126.424 151.961C126.95 152.019 127.476 152.074 128.002 152.128C128.295 152.159 128.588 152.19 128.889 152.222C129.72 152.307 129.72 152.307 130.582 151.961C132.743 151.789 132.743 151.789 133.7 152.555C133.847 152.751 133.994 152.947 134.145 153.149C133.459 152.953 132.773 152.757 132.067 152.555C132.067 152.751 132.067 152.947 132.067 153.149C131.283 153.149 130.499 153.149 129.691 153.149C129.691 153.345 129.691 153.54 129.691 153.742C129.981 153.781 129.981 153.781 130.278 153.82C132.1 154.113 133.175 154.456 134.442 155.821C134.702 156.508 134.702 156.508 134.739 157.009C134.5 156.715 134.5 156.715 134.257 156.415C133.606 155.737 133.606 155.737 132.772 155.821C131.516 155.821 130.663 155.408 129.532 154.893C128.807 154.59 128.807 154.59 128.022 154.633C127.315 154.633 127.315 154.633 126.424 154.039C126.62 154.823 126.816 155.607 127.018 156.415C126.822 156.415 126.626 156.415 126.424 156.415C126.326 156.611 126.228 156.807 126.127 157.009C125.977 156.583 125.829 156.156 125.682 155.728C125.558 155.372 125.558 155.372 125.431 155.008C125.236 154.336 125.236 154.336 125.236 153.445C124.942 153.543 124.648 153.641 124.345 153.742C124.345 153.546 124.345 153.35 124.345 153.149C123.855 153.051 123.365 152.953 122.861 152.852C122.861 152.656 122.861 152.46 122.861 152.258C122.273 152.16 121.685 152.062 121.079 151.961C120.932 151.226 120.932 151.226 120.782 150.476C120.292 150.574 119.802 150.672 119.297 150.773C119.493 150.381 119.689 149.989 119.891 149.585C120.995 149.736 121.891 149.917 122.861 150.476C122.861 150.672 122.861 150.868 122.861 151.07C123.253 151.168 123.645 151.266 124.048 151.367C123.438 147.654 122.695 143.994 121.784 140.343C121.695 139.982 121.605 139.621 121.513 139.25C121.162 137.866 120.832 136.607 120.188 135.332C120.119 134.522 120.119 134.522 120.132 133.661C120.134 133.376 120.136 133.09 120.138 132.796C120.188 132.065 120.188 132.065 120.485 131.471C120.172 131.441 119.86 131.41 119.538 131.379C118.406 131.174 118.406 131.174 117.719 130.71C116.248 129.924 114.572 130.101 113.005 130.562C112.729 130.666 112.454 130.77 112.17 130.877C111.477 130.976 110.784 131.075 110.091 131.174C109.495 131.367 108.902 131.566 108.309 131.768C107.685 131.955 107.06 132.14 106.435 132.325C103.948 133.094 101.91 133.924 99.8838 135.578C99.4001 135.926 99.4001 135.926 98.8062 135.926C98.8062 136.122 98.8062 136.318 98.8062 136.519C98.3804 136.928 98.3804 136.928 97.7853 137.41C96.8024 138.229 96.047 139.076 95.2611 140.083C93.5778 142.007 91.163 143.021 88.7092 143.646C87.6641 143.7 87.6641 143.7 86.9274 143.646C86.9274 143.45 86.9274 143.254 86.9274 143.052C86.7314 143.052 86.5354 143.052 86.3335 143.052C87.3031 140.735 89.7276 139.007 91.6012 137.403C92.4849 136.631 93.3432 135.833 94.2032 135.035C95.421 133.905 96.648 132.792 97.9037 131.704C100.983 129.147 100.983 129.147 103.558 126.126C100.675 127.027 97.959 128.06 95.2425 129.393C95.5365 128.805 95.5365 128.805 95.8365 128.205C96.0325 128.205 96.2285 128.205 96.4304 128.205C96.4304 128.009 96.4304 127.813 96.4304 127.611C96.2344 127.513 96.0384 127.415 95.8365 127.314C97.0387 126.016 98.0691 125.088 99.6971 124.345C100.805 123.604 100.805 123.604 101.438 122.478C101.848 121.499 102.409 120.829 103.094 120.02C104.05 118.891 104.05 118.891 104.942 117.711C105.073 117.548 105.204 117.385 105.339 117.218C105.535 117.218 105.731 117.218 105.933 117.218C105.933 117.022 105.933 116.826 105.933 116.624C106.129 116.624 106.325 116.624 106.527 116.624C106.598 116.463 106.668 116.302 106.741 116.137C108.36 113.155 111.042 110.866 113.807 108.991C115.886 107.562 117.58 105.913 119.341 104.113C120.979 102.446 122.665 100.865 124.652 99.6155C126.531 98.3888 127.563 96.6513 128.741 94.7867C129.752 93.1873 129.752 93.1873 130.285 92.5711C130.481 92.5711 130.677 92.5711 130.879 92.5711C130.959 92.4 131.04 92.2289 131.122 92.0527C131.476 91.3761 131.871 90.7893 132.326 90.177C132.473 89.9776 132.619 89.7781 132.77 89.5727C133.281 88.9765 133.784 88.5446 134.442 88.1169C134.638 88.1169 134.834 88.1169 135.036 88.1169C135.036 87.9209 135.036 87.725 135.036 87.523C139.822 84.4947 145.379 85.1628 150.107 88.2097Z" fill="#262626"/>
</svg>
