<svg width="240" height="240" viewBox="0 0 240 240" fill="none" xmlns="http://www.w3.org/2000/svg">
<path d="M100.749 80.2148C100.789 82.6802 100.789 82.6802 100.424 83.7714C101.68 83.5859 102.397 82.9673 103.344 82.1548C103.96 82.7687 103.709 83.6332 103.712 84.4471C103.669 85.0647 103.669 85.0647 103.344 85.7113C103.879 85.818 104.415 85.9247 104.966 86.0346C104.966 87.5284 104.966 89.0221 104.966 90.5611C105.609 90.7212 105.609 90.7212 106.264 90.8845C106.249 91.2 106.234 91.5155 106.218 91.8405C106.207 92.2519 106.195 92.6633 106.183 93.0871C106.168 93.4959 106.153 93.9048 106.137 94.3261C106.179 94.6841 106.221 95.0421 106.264 95.411C106.478 95.571 106.692 95.731 106.913 95.8959C107.127 96.056 107.341 96.216 107.562 96.3809C107.688 97.4658 107.688 97.4658 107.643 98.7048C107.631 99.1162 107.619 99.5275 107.607 99.9513C107.592 100.267 107.577 100.582 107.562 100.907C107.816 101.001 108.07 101.094 108.332 101.19C109.184 101.554 109.184 101.554 109.833 102.201C109.898 103.552 109.942 104.784 109.508 106.081C109.716 106.147 109.923 106.214 110.137 106.283C110.806 106.727 110.806 106.727 111.09 107.556C111.141 108.976 110.85 110.212 110.481 111.577C110.695 111.577 110.91 111.577 111.13 111.577C111.928 113.345 111.685 114.321 111.13 116.104C111.666 116.424 112.201 116.744 112.752 117.073C112.721 117.323 112.69 117.572 112.659 117.829C112.623 118.153 112.587 118.477 112.55 118.811C112.512 119.134 112.474 119.457 112.436 119.789C112.433 120.066 112.43 120.344 112.428 120.63C112.642 120.843 112.856 121.057 113.077 121.277C113.117 121.63 113.157 121.984 113.198 122.348C113.427 123.691 113.851 124.127 114.699 125.157C114.825 125.8 114.936 126.447 115.023 127.096C115.237 127.31 115.451 127.523 115.672 127.743C116.1 128.696 116.418 129.634 116.645 130.653C116.431 130.653 116.217 130.653 115.997 130.653C116.04 130.844 116.083 131.036 116.127 131.233C116.213 131.616 116.301 132.007 116.301 132.007L116.645 131.623C116.645 131.623 119.272 130.291 120.761 129.885C122.423 129.417 123.915 128.717 125.471 127.978C126.896 127.316 128.361 126.757 129.825 126.187C136.086 123.722 141.192 121.012 146.168 116.427C146.721 115.934 147.275 115.442 147.83 114.952C148.072 114.738 148.314 114.524 148.563 114.304C148.736 114.151 148.909 113.998 149.087 113.84C149.302 113.947 149.516 114.054 149.736 114.164C148.539 116.97 146.568 118.869 143.897 120.307C145.461 119.846 146.828 119.172 148.236 118.367C148.458 118.241 148.681 118.115 148.91 117.986C150.819 116.898 152.684 115.741 154.528 114.548C155.522 113.913 156.368 113.436 157.522 113.194C156.258 114.81 155.037 115.908 153.29 116.989C152.616 117.391 152.616 117.391 152.007 118.043C152.663 117.795 153.319 117.545 153.974 117.296C154.358 117.149 154.743 117.003 155.139 116.852C155.962 116.53 156.762 116.191 157.563 115.821C158.496 115.457 158.496 115.457 159.469 115.78C158.973 116.18 158.476 116.58 157.98 116.98C157.479 117.386 157.479 117.386 157.198 118.043C157.412 118.043 157.626 118.043 157.847 118.043C157.847 118.257 157.847 118.47 157.847 118.69C157.205 119.2 156.531 119.645 155.851 120.102C155.147 120.722 155.141 121.04 154.927 121.923C154.362 122.499 154.362 122.499 153.67 123.055C152.962 123.628 152.376 124.126 151.834 124.858C151.081 125.843 150.188 126.215 149.087 126.773C148.873 126.773 148.659 126.773 148.439 126.773C148.439 126.987 148.439 127.2 148.439 127.42C148.867 127.526 149.295 127.633 149.736 127.743C148.766 128.822 147.812 129.408 146.492 130.006C146.706 130.326 146.92 130.647 147.141 130.976C146.887 131.101 146.633 131.226 146.372 131.355C146.043 131.524 145.715 131.692 145.377 131.865C145.049 132.03 144.722 132.196 144.385 132.366C143.461 132.992 143.446 133.174 143.248 134.21C142.114 134.796 141.288 135.179 140.004 135.179C140.111 135.606 140.218 136.033 140.328 136.473C139.365 136.793 138.401 137.113 137.408 137.443C137.408 137.763 137.408 138.083 137.408 138.413C136.605 138.733 136.605 138.733 135.786 139.059C135.893 139.486 136 139.913 136.111 140.353C135.468 140.459 134.826 140.566 134.164 140.676C134.271 140.889 134.378 141.103 134.489 141.323C134.184 142.01 134.184 142.01 133.84 142.616C133.304 142.616 132.769 142.616 132.218 142.616C132.11 143.256 132.003 143.896 131.893 144.556C131.358 144.556 130.823 144.556 130.271 144.556C130.164 144.983 130.057 145.409 129.947 145.849C129.518 145.849 129.09 145.849 128.649 145.849C128.542 146.489 128.435 147.129 128.325 147.789C128.11 147.682 127.896 147.576 127.676 147.466C127.676 147.999 127.676 148.533 127.676 149.082C128.038 149.196 128.4 149.31 128.773 149.427C129.286 149.588 129.799 149.75 130.312 149.911C130.584 149.997 130.857 150.082 131.138 150.171C132.679 150.656 134.219 151.142 135.758 151.632C136.232 151.783 136.232 151.783 136.715 151.937C137.327 152.131 137.939 152.327 138.552 152.522C141.377 153.421 144.166 154.128 147.08 154.68C150.508 155.343 153.854 156.165 157.198 157.165C157.198 157.379 157.198 157.592 157.198 157.812C158.161 158.025 159.125 158.239 160.118 158.459C160.011 158.672 159.904 158.885 159.793 159.105C160.329 159.212 160.864 159.319 161.415 159.429C161.415 159.642 161.415 159.855 161.415 160.075C158.15 160.213 154.045 160.282 151.034 158.782C150.594 158.704 150.152 158.64 149.708 158.584C149.3 158.53 149.3 158.53 148.883 158.474C148.589 158.436 148.295 158.397 147.993 158.358C144.361 157.863 140.644 157.341 137.11 156.343C135.654 156.025 134.128 156.136 132.643 156.135C132.302 156.131 131.961 156.127 131.61 156.123C129.779 156.119 128.139 156.251 126.365 156.699C125.453 156.904 124.593 156.891 123.661 156.862C121.303 156.827 118.961 156.906 116.605 157.004C103.822 157.502 103.822 157.502 99.2635 156.183C98.2768 155.907 97.4271 155.771 96.4096 155.71C94.9954 155.602 93.6652 155.387 92.2885 155.051C91.6313 154.884 91.6313 154.884 90.8134 154.781C90.0429 154.579 90.0429 154.579 88.9682 153.912C87.6744 153.125 86.6675 153.181 85.1766 153.285C85.1766 154.032 85.1766 154.779 85.1766 155.549C84.4466 155.63 84.4466 155.63 83.5545 155.549C82.5981 154.786 82.1454 154.033 81.6079 152.962C81.3871 152.742 81.1663 152.522 80.9388 152.295C79.6676 151.028 79.8856 149.408 79.8837 147.714C79.9328 145.315 80.5709 143.867 82.2771 142.212C84.8155 140.237 87.5626 139.853 90.6917 140.029C89.4987 135.197 88.0339 130.617 84.9713 126.614C84.13 125.462 83.7675 124.352 83.4531 122.974C83.3712 122.664 83.3712 122.664 83.2877 122.348C81.1723 113.605 83.9709 103.427 87.4475 95.411C87.6693 94.8889 87.8911 94.3669 88.1128 93.8449C89.3296 91.0165 90.6453 88.3089 92.3138 85.7113C92.5158 85.3962 92.7178 85.0811 92.9259 84.7565C94.0514 83.0728 94.0514 83.0728 94.5848 82.4781C94.9059 82.4781 95.2271 82.4781 95.558 82.4781C95.558 83.225 95.558 83.9718 95.558 84.7413C96.7242 84.2688 97.2724 83.6634 98.0115 82.66C99.8263 80.2148 99.8263 80.2148 100.749 80.2148Z" fill="#262626"/>
</svg>
