<svg preserveAspectRatio="none" width="100%" height="100%" overflow="visible" style="display: block;" viewBox="0 0 879 509" fill="none" xmlns="http://www.w3.org/2000/svg">
<g id="gdansk-districts">
<path id="path1380" fill-rule="evenodd" clip-rule="evenodd" d="M115.459 172.612C121.382 178.132 127.788 182.952 132.877 189.153C138.501 195.388 144.736 200.673 149.358 207.671C151.029 205.418 164.648 202.881 164.894 203.483C168.548 212.43 171.862 208.93 174.353 208.405C179.554 208.495 181.631 207.652 187.696 208.139C186.462 203.284 191.632 204.472 200.672 200.561C201.195 193.006 199.147 192.313 198.714 187.187C197.41 180.146 203.764 177.95 202.314 166.495C200.781 158.665 209.364 158.526 211.437 164.111C213.002 170.86 220.266 165.768 224.938 167.04C232.253 165.827 239.308 161.928 246.14 159.004C249.886 163.282 253.632 167.56 257.378 171.838C258.502 170.311 267.728 166.192 271.672 166.06C269.457 163.092 269.095 162.271 267.875 160.165C264.05 155.206 255.866 153.346 248.423 125.112C248.326 118.082 243.567 109.266 243.298 104.002C242.092 98.2508 240.885 86.3883 239.679 80.6372C225.172 78.9585 235.893 81.8731 224.624 84.0383C225.031 100.797 213.194 86.2873 206.816 85.4081C196.435 83.6405 199.546 91.0341 186.87 86.0754C179.354 85.1447 169.681 80.5726 163.73 87.2977C156.468 94.4939 148.767 83.5435 140.714 86.6576C144.365 92.8172 140.054 91.5367 139.933 97.5839C135.004 106.872 138.82 111.788 148.132 109.542C153.953 115.011 147.706 119.976 147.26 125.356C150.765 133.321 143.962 138.729 137.783 142.484C133.179 140.443 135.37 146.012 131.549 146.203C132.947 153.319 127.762 158.495 120.537 157.979C122.675 164.862 114.511 166.167 115.459 172.612Z" fill="var(--fill-0, #005BC3)" fill-opacity="0.5" stroke="var(--stroke-0, #087BFF)" stroke-width="2" stroke-linecap="square" stroke-linejoin="round"/>
<path id="path1359" fill-rule="evenodd" clip-rule="evenodd" d="M72.6563 136.095C79.9955 133.358 88.3543 130.068 94.5832 125.102C98.0922 123.588 103.611 117.941 106.994 119.914C106.718 126.86 106.331 135.026 105.777 142.403C106.448 151.245 107.187 164.541 115.897 172.702C114.949 166.261 123.115 164.958 120.977 158.079C128.203 158.595 133.389 153.422 131.991 146.312C135.813 146.121 133.622 140.556 138.227 142.596C144.407 138.843 151.211 133.439 147.706 125.479C148.152 120.104 154.4 115.142 148.577 109.677C139.263 111.922 135.446 107.009 140.377 97.7278C140.498 91.685 144.81 92.9646 141.282 86.9839C128.05 85.3318 135.921 70.2046 127.009 68.8379C118.62 68.6724 112.862 75.532 98.8638 70.6162C98.9662 68.8374 99.1379 68.0929 100.149 66.6631C103.238 66.6544 110.757 66.9077 113.269 66.9354C113.988 65.1436 115.076 64.2943 115.096 62.9861C113.973 62.0003 109.63 59.7156 108.089 57.3185C108.722 53.6898 108.849 52.1278 109.201 48.7032C106.775 46.92 105.416 45.3989 103.091 44.9871C102.562 46.6597 102.012 48.21 101.675 50.2959C93.8799 47.4422 97.631 68.8023 85.3045 59.1023C83.208 57.4463 80.214 54.6222 78.6945 52.9137C85.2068 50.3526 78.3586 52.1282 76.0185 48.8713C73.488 41.5261 80.0604 43.5209 64.5353 27.3918C61.3516 20.0517 55.4751 27.29 52.7114 19.6798C49.8815 15.9598 45.6771 32.067 44.2326 39.1984C43.768 48.3221 42.0109 32.9531 34.617 40.5343C32.9115 47.8592 23.674 38.4223 24.1425 41.7554C28.6059 46.1367 31.0931 52.9148 41.9091 51.6512C44.8073 52.8909 48.8021 55.1274 48.2826 50.6415C51.9229 50.101 56.1082 48.6997 58.0384 51.0051C52.9461 56.7976 56.8496 64.8292 52.3537 71.3615C48.9625 77.1438 47.8817 84.3095 43.1275 89.2253C41.6124 92.4402 32.0187 97.8543 36.0872 100.013C38.1499 100.494 41.7145 99.9949 42.8874 101.057C39.6813 110.7 36.4752 120.344 33.2692 129.988C40.6783 129.449 48.0822 128.271 55.5041 129.275C61.0862 129.649 66.6682 130.022 72.2503 130.395C72.6563 132.023 72.2503 134.466 72.6563 136.095Z" fill="var(--fill-0, #005BC3)" fill-opacity="0.5" stroke="var(--stroke-0, #087BFF)" stroke-width="2" stroke-linejoin="round"/>
<path id="path2114" fill-rule="evenodd" clip-rule="evenodd" d="M268.094 160.079L283.21 148.069L275.762 128.203L271.34 101.029L267.383 94.8639L266.453 98.0608L243.351 104.829C243.795 110.183 248.611 118.905 248.709 125.859C256.242 153.792 264.224 155.173 268.094 160.079Z" fill="var(--fill-0, #005BC3)" fill-opacity="0.5" stroke="var(--stroke-0, #087BFF)" stroke-width="2" stroke-linejoin="round"/>
<path id="path2121" fill-rule="evenodd" clip-rule="evenodd" d="M283.224 148.509L275.956 128.553L271.672 100.93C271.725 101.003 280.728 98.5739 288.066 95.2963C291.319 91.556 293.816 88.5097 293.816 88.5097L296.085 91.286L301.533 84.3453L328.314 104.242C328.314 104.242 322.678 115.694 317.268 125.99C307.597 135.028 286.705 148.509 286.705 148.509H283.224Z" fill="var(--fill-0, #005BC3)" fill-opacity="0.5" stroke="var(--stroke-0, #087BFF)" stroke-width="2" stroke-linejoin="round"/>
<path id="path1320" fill-rule="evenodd" clip-rule="evenodd" d="M375.429 134.169C373.127 132.015 371.175 130.198 369.222 128.38C370.375 126.478 372.992 127.061 373.052 124.388C374.968 122.007 378.336 121.948 381.144 121.679C383.862 121.066 387.048 120.905 389.163 118.87C390.758 117.28 390.194 117.097 389.581 114.343C390.156 113.382 390.509 112.949 391.041 112.868C394.032 112.109 392.505 115.051 393.074 116.832C394.354 119.592 394.449 122.94 396.33 125.329C398.24 128.221 401.77 129.197 404.871 130.165C407.175 130.883 409.572 131.012 411.902 131.559C414.565 132.249 417.273 132.867 419.904 133.711C422.016 134.51 424.202 135.889 425.406 137.866C425.939 141.008 425.781 144.307 425.864 147.505L414.766 161.79C412.455 160.823 409.022 160.613 406.773 159.391C404.127 158.444 402.514 161.446 400.322 162.236C397.8 162.691 396.429 164.975 394.448 166.354C392.192 166.761 390.414 163.663 388.109 163.015C387.62 161.546 390.267 158.115 388.03 156.121C387.31 152.816 387.484 149.359 386.53 146.047C386.842 142.788 381.721 143.772 383.122 140.257C384.673 138.105 381.227 137.812 382.309 135.74C380.391 135.136 377.318 136.143 375.429 134.169Z" fill="var(--fill-0, #005BC3)" fill-opacity="0.5" stroke="var(--stroke-0, #087BFF)" stroke-width="2" stroke-linejoin="round"/>
<path id="path2128" fill-rule="evenodd" clip-rule="evenodd" d="M327.618 104.331C324.004 111.357 320.39 118.384 316.776 125.411C319.716 127.263 322.718 129.18 325.084 131.752C326.569 134.346 329.136 136.582 329.899 139.377C329.937 141.915 329.976 144.452 330.014 146.99C331.943 147.186 333.97 147.115 335.84 147.473C341.883 151.803 347.926 156.132 353.969 160.461C354.644 159.525 354.904 158.644 356.265 159.52C356.911 159.972 357.661 160.356 358.938 161.131C363.305 153.138 367.568 145.072 372 137.124C372.966 136.088 373.932 135.053 374.898 134.018C372.923 132.23 370.948 130.442 368.972 128.654C370.138 126.783 372.786 127.357 372.846 124.728C374.785 122.385 378.192 122.327 381.032 122.062C383.782 121.459 387.005 121.301 389.145 119.299C390.758 117.735 390.188 117.555 389.616 114.736C387.498 117.234 382.341 120.383 379.185 121.045C373.961 121.766 368.934 121.54 363.425 121.045C361.139 120.375 358.719 119.787 356.494 118.916C346.365 115.676 337.244 109.192 327.618 104.331Z" fill="var(--fill-0, #005BC3)" fill-opacity="0.5" stroke="var(--stroke-0, #087BFF)" stroke-width="2" stroke-linejoin="round"/>
<path id="path2055" fill-rule="evenodd" clip-rule="evenodd" d="M301.042 84.6182C293.221 77.5307 284.763 69.6631 276.764 62.2561C271.446 67.6706 266.588 73.5456 261.27 78.9601C258.656 79.2566 256.153 79.0228 254.396 76.881C252.511 77.4973 250.165 77.8287 249.208 79.7398C247.855 79.8809 246.447 79.3857 245.966 81.0393C243.627 80.9855 242.47 81.2055 240.204 80.9908C241.652 86.9872 242.618 98.7251 243.673 104.331L266.388 97.4762L267.377 94.4323L271.354 100.976C271.28 100.965 280.269 98.5811 287.596 95.3647C290.844 91.6943 293.337 88.7049 293.337 88.7049L295.603 91.4294L301.042 84.6182Z" fill="var(--fill-0, #005BC3)" fill-opacity="0.5" stroke="var(--stroke-0, #087BFF)" stroke-width="2" stroke-linejoin="round"/>
<path id="path2080" fill-rule="evenodd" clip-rule="evenodd" d="M414.499 161.831C406.952 173.804 398.795 185.118 391.431 196.729C394.682 208.164 398.281 219.551 401.317 231.015C401.209 238.317 401.101 245.62 400.993 252.922C408.467 258.947 415.941 264.971 423.415 270.996C430.295 273.063 438.943 273.941 444.905 268.852C452.342 263.834 460.04 264.251 467.479 265.462C476.152 266.957 485.07 266.473 493.649 268.696C495.373 257.466 489.282 258.845 492.465 253.927C498.27 248.524 481.116 243.901 491.927 240.965C501.439 237.639 500.64 231.222 503.212 224.99C506.786 224.925 505.737 227.291 511.785 227.619C513.913 223.16 513.817 222.607 516.072 213.489C509.173 209.961 496.394 205.817 490.078 201.27C483.769 194.088 478.378 194.523 483.016 186.83C479.323 183.367 471.406 176.822 472.969 173.131C473.187 175.356 467.849 165.302 466.565 162.823C465.445 156.672 463.17 154.181 460.575 147.838L443.759 152.215L442.616 147.761L453.06 144.384C454.025 146.759 455.596 146.747 456.276 146.528C455.318 144.298 454.823 142.871 453.969 141.007L476.833 130.678L481.603 124.472L493.115 132.176L493.987 130.834L482.742 123.25L486.164 118.788L496.378 125.727L495.38 127.464L496.623 128.266L497.639 126.592L507.571 133.608L508.451 132.285L486.065 116.876L471.227 124.106L471.92 125.853L478.272 122.738L479.339 123.916L475.378 128.923L452.457 139.104C445.65 136.695 444.115 133.935 439.306 134.848C430.876 136.449 430.702 133.2 429.352 131.717C422.261 124.09 423.246 122.487 412.042 118.181C403.981 114.329 399.23 113.483 392.415 107.85L388.383 98.0195L387.054 98.5596L392.152 111.112C392.796 112.495 392.02 113.042 390.675 113.463C393.528 112.825 392.117 115.862 392.69 117.618C393.978 120.339 394.073 123.64 395.967 125.995C397.89 128.847 401.443 129.808 404.564 130.763C406.883 131.471 409.296 131.598 411.64 132.138C414.32 132.818 417.047 133.426 419.694 134.259C421.821 135.047 424.021 136.406 425.233 138.355C425.769 141.453 425.61 144.706 425.693 147.858L414.499 161.831Z" fill="var(--fill-0, #005BC3)" fill-opacity="0.5" stroke="var(--stroke-0, #087BFF)" stroke-width="2" stroke-linejoin="round"/>
<path id="path2048" fill-rule="evenodd" clip-rule="evenodd" d="M423.407 271.588C422.424 274.041 420.84 276.422 420.619 279.407C421.858 283.083 418.616 292.491 424.304 291.925C426.903 295.933 429.502 299.942 432.101 303.95C433.61 305.263 434.825 310.907 436.659 307.463C439.104 310.885 441.549 314.306 443.994 317.728C453.027 329.656 460.53 342.6 468.511 355.227C472.721 357.554 477.679 358.997 482.175 360.985C489.286 345.195 496.397 329.405 503.508 313.615C504.738 311.806 505.66 306.924 507.098 307.199C513.491 311.326 521.418 308.865 528.478 307.81C534.991 302.987 541.89 318.048 544.766 322.937C552.842 323.582 560.089 326.671 566.259 328.36C571.229 321.81 569.958 317.192 586.153 317.083C588.985 308.24 589.529 317.62 591.718 307.795C594.981 306.537 593.615 307.524 598.975 305.969C601.836 305.139 600.814 303.771 607.788 298.391C610.325 295.664 612.065 294.527 612.573 290.082C611.399 289.463 607.743 285.739 605.663 284.24C595.704 286.405 591.803 282.757 582.696 273.705C575.128 274.329 566.092 273.325 559.774 278.327C550.413 283.536 546.301 279.482 539.872 278.556C531.56 275.044 523.602 272.643 514.687 271.206C507.427 270.282 500.964 271.03 493.811 269.29C485.168 267.061 476.235 267.545 467.547 266.05C460.095 264.837 452.383 264.42 444.933 269.442C438.961 274.535 430.298 273.656 423.407 271.588Z" fill="var(--fill-0, #005BC3)" fill-opacity="0.5" stroke="var(--stroke-0, #087BFF)" stroke-width="2" stroke-linejoin="round"/>
<path id="path2067" fill-rule="evenodd" clip-rule="evenodd" d="M494.148 268.641C501.522 270.706 508.043 269.74 515.244 270.661C524.085 272.093 531.757 274.484 540.001 277.982C546.377 278.905 550.787 282.943 560.071 277.754C566.338 272.772 575.19 273.772 582.695 273.15C591.728 282.167 595.154 285.579 605.23 283.701L592.984 235.567L593.123 221.818L588.54 210.569L586.596 211.68L590.762 221.332C590.337 221.876 589.739 222.311 589.104 222.685C586.5 224.502 583.291 223.673 580.377 223.436C575.259 222.677 570.153 221.618 565.274 219.859C560.464 218.82 555.605 217.837 550.733 217.061C547.817 215.691 544.53 215.295 541.339 215.49C537.363 216.226 533.276 216.49 529.25 215.947C525.027 215.014 520.522 215.564 516.444 213.807C514.185 222.802 514.28 223.353 512.166 227.798C506.157 227.472 507.2 225.113 503.648 225.177C501.093 231.39 501.887 237.788 492.436 241.103C481.695 244.031 498.738 248.639 492.972 254.026C489.809 258.929 495.861 257.446 494.148 268.641Z" fill="var(--fill-0, #005BC3)" fill-opacity="0.5" stroke="var(--stroke-0, #087BFF)" stroke-width="2" stroke-linejoin="round"/>
<path id="path1316" fill-rule="evenodd" clip-rule="evenodd" d="M612.081 289.977C610.907 289.576 607.022 285.499 604.957 284.08L592.643 235.842L592.882 222.139C597.81 227.124 594.11 229.599 608.181 233.619C621.695 237.309 634.277 243.632 647.262 248.825C660.65 253.774 668.345 258.953 686.502 264.907C699.018 267.596 710.478 273.594 723.177 275.52C749.004 284 761.411 279.705 762.503 284.098C784.62 285.684 821.505 290.809 836.028 280.5C844.652 277.124 857.934 264.957 850.245 262.095C853.252 257.442 860.723 251.856 857.676 247.014C860.899 242.858 866.142 240.821 866.224 245.249C863.623 251.772 861.19 254.702 870.609 249.339C866.936 253.181 853.39 321.475 849.625 345.592C847.262 362.895 844.852 368.579 844.587 390.675C845.53 417.169 852.821 446.175 859.553 469.293C841.197 470.067 836.534 457.593 829.709 448.952C822.621 439.164 827.625 426.363 823.595 415.919C817.849 400.114 815.773 395.432 810.347 385.974C803.405 376.349 790.798 373.904 779.655 375.428C763.314 379.134 756.604 390.282 745.577 387.069C729.986 383.728 736.65 374.562 724.919 362.991C716.816 353.716 703.465 352.763 694.907 344.303C684.286 330.994 683.596 323.893 678.042 313.598C670.056 300.959 659.881 298.71 649.201 294.631C631.37 292.227 623.182 293.851 612.081 289.977Z" fill="var(--fill-0, #005BC3)" fill-opacity="0.5" stroke="var(--stroke-0, #087BFF)" stroke-width="2" stroke-linejoin="round"/>
<path id="path1334" fill-rule="evenodd" clip-rule="evenodd" d="M391.274 196.296C398.792 184.482 406.665 173.625 414.326 161.602C412.125 160.691 408.536 160.343 406.274 159.129C403.614 158.187 401.993 161.172 399.788 161.956C397.253 162.41 395.874 164.68 393.883 166.05C391.615 166.455 389.827 163.375 387.51 162.732C387.018 161.271 389.679 157.861 387.43 155.878C386.706 152.593 386.882 149.156 385.922 145.864C386.236 142.625 381.088 143.603 382.496 140.108C384.056 137.969 380.591 137.677 381.679 135.618C379.75 135.017 375.975 135.743 374.209 133.783C373.383 134.832 372.423 135.741 371.463 136.787C367.058 144.819 362.821 152.97 358.455 161.054C352.566 171.298 347.307 181.908 341.494 192.175C339.938 195.22 340.19 198.593 339.852 201.32C344.982 202.428 350.369 203.696 354.263 204.379C358.285 208.188 362.275 212.053 366.317 215.828C368.022 212.102 371.463 204.156 373.549 202.806C375.283 201.134 376.678 199.394 379.617 198.797C384.138 198.629 387.682 198.078 391.274 196.296Z" fill="var(--fill-0, white)" stroke="var(--stroke-1, #087BFF)" stroke-width="2" stroke-linejoin="round"/>
<path id="path1357" fill-rule="evenodd" clip-rule="evenodd" d="M163.686 266.217C167.217 266.028 170.99 266.517 173.52 263.522C176.731 261.205 180.885 257.903 184.309 255.783C187.734 253.662 190.43 252.722 194.622 252.643C196.968 256.226 199.072 255.543 198.742 260.365C200.165 263.895 204.706 263.884 204.345 267.795C206.102 269.939 206.249 269.764 207.82 271.2C210.753 273.054 207.28 275.357 206.537 277.232C205.794 279.108 207.777 280.888 215.513 279.386C216.687 281.477 214.484 285.218 218.28 285.579C219.09 289.594 218.075 292.79 226.217 291.271C235.427 290.735 240.224 291.853 254.2 286.489C268.521 285.502 258.076 298.782 279.496 291.135C287.014 300.1 294.483 307.203 298.511 314.264C299.64 316.834 298.41 319.54 297.562 321.714C306.051 316.177 315.314 311.293 324.72 307.662C331.167 303.195 326.196 302.44 324.499 299.413C329.853 298.91 339.851 299.494 344.949 298.387C348.476 294.96 352.854 291.145 355.865 287.944C363.097 294.005 360.26 305.353 360.384 313.768C359.683 316.352 358.57 317.574 355.485 316.13C351.648 320.567 350.826 316.674 347.522 323.031C345.888 330.792 349.715 328.062 350.086 329.647C349.516 331.466 346.667 330.064 347.441 333.651C347.181 334.886 345 333.496 344.197 334.292C343.395 335.088 343.971 336.775 344.052 339.218C342.716 338.972 341.031 339.67 339.804 338.935C339.4 337.612 337.809 336.032 337.366 335.707C332.927 335.409 328.092 335.415 325.248 335.671C323.142 339.223 323.678 342.698 322.122 343.629C316.686 348.562 316.686 351.54 321.503 352.096C323.033 350.505 326.576 345.843 336.033 347.168C338.435 349.436 339.773 350.037 341.229 351.824C342.686 353.612 341.759 357.661 341.886 360.394C339.452 360.779 335.89 363.322 333.832 369.937C329.674 369.646 326.94 371.441 329.963 375.671C330.399 379.194 330.595 383.621 330.649 384.942C338.038 384.801 333.789 394.762 334.708 397.569C337.336 397.975 338.183 397.931 341.758 397.966C342.148 400.827 341.767 404.759 342.592 407.724C343.551 418.617 346.356 429.419 347.335 440.206C340.289 440.846 332.091 447.02 330.598 454.601C325.558 453.738 324.006 452.832 318.308 451.669C315.624 448.905 309.059 443.079 306.375 440.314C306.64 437.235 310.765 433.34 307.481 431.01C303.048 426.618 299.238 421.413 294.421 417.521C291.216 415.816 288.011 414.111 284.805 412.406C281.487 416.06 278.169 419.715 274.85 423.37C272.172 420.694 268.791 420.342 265.192 420.712C257.231 422.849 251.319 416.4 252.756 410.244C248.081 405.459 247.761 404.289 253.827 397.865C252.162 394.046 249.36 392.921 248.026 389.553C246.513 386.675 244.533 385.196 242.181 381.899C234.487 377.29 226.473 375.28 220.343 382.563C217.912 383.054 214.907 381.618 214.053 383.01C211.435 384.638 214.466 387.784 211.145 389.828C213.234 393.166 213.607 395.306 210.115 395.5C203.648 396.112 188.463 384.14 192.66 380.487C189.559 376.904 184.165 374.009 194.042 376.568C192.78 371.588 186.907 361.302 187.654 355.873C190.794 355.068 194.402 355.64 191.087 351.245C189.032 347.378 186.978 343.51 184.924 339.643C185.629 336.514 187.049 334.845 188.527 331.131C177.896 323.867 159.168 295.651 165.345 295.787C167.868 296.166 168.859 286.317 165.677 286.29C163.17 286.294 163.7 274.861 163.644 269.894C163.776 268.875 163.554 267.501 163.686 266.217Z" fill="var(--fill-0, #005BC3)" fill-opacity="0.5" stroke="var(--stroke-0, #087BFF)" stroke-width="2" stroke-linejoin="round"/>
<path id="path2235" fill-rule="evenodd" clip-rule="evenodd" d="M318.773 452.091C324.498 453.212 326.05 454.121 331.087 454.987C332.579 447.38 340.772 441.184 347.815 440.542C346.836 429.717 344.033 418.878 343.074 407.947C342.25 404.971 342.631 401.026 342.241 398.155C338.668 398.119 337.821 398.164 335.194 397.756C334.276 394.939 338.523 384.943 331.137 385.085C331.083 383.759 330.888 379.317 330.452 375.781C327.431 371.537 330.163 369.735 334.319 370.028C336.376 363.389 339.936 360.838 342.368 360.451C342.242 357.709 343.168 353.645 341.712 351.851C340.256 350.057 338.92 349.455 336.519 347.179C327.066 345.849 323.525 350.527 321.996 352.124C317.181 351.566 317.182 348.578 322.615 343.627C324.17 342.694 323.634 339.206 325.739 335.642C328.582 335.385 333.415 335.378 337.852 335.677C338.294 336.004 339.884 337.589 340.288 338.917C341.514 339.655 343.198 338.955 344.533 339.201C344.453 336.749 343.877 335.057 344.679 334.258C345.481 333.459 347.661 334.854 347.921 333.614C347.148 330.015 349.995 331.422 350.564 329.596C350.193 328.007 346.369 330.746 348.002 322.957C351.304 316.578 352.125 320.485 355.961 316.032C359.044 317.482 360.156 316.255 360.98 313.785C364.382 310.968 368.308 313.909 371.685 315.034C379.135 316.285 374.805 321.758 382.244 318.997C383.884 322.721 373.831 331.637 387.68 332.163C397.751 333.927 386.895 341.884 389.608 350.408C391.724 363.702 399.514 350.105 404.928 362.108C407.618 367.912 416.61 349.518 416.044 366.179C416.793 373.293 424.02 379.914 430.401 382.414C437.532 384.169 434.91 383.627 442.767 387.506C442.864 390.113 444.522 395.614 443.786 400.915C450.493 410.107 444.384 405.031 443.534 409.532C447.216 413.753 440.057 412.58 448.94 421.016C425.716 430.412 400.109 441.005 376.885 450.401C374.039 451.099 364.598 449.749 367.942 456.324C369.335 465.425 370.728 474.525 372.12 483.626C368.095 483.763 362.447 483.68 366.463 489.612C369.541 500.075 355.909 498.815 350.358 494.743C347.121 491.68 342.821 484.694 341.514 492.711C338.092 493.622 334.74 490.839 331.349 490.096C327.964 488.099 324.21 489.953 320.608 490.211C309.263 488.928 307.255 494.459 310.187 482.429C318.736 471.661 309.481 474.019 302.38 474.529C301.927 470.584 291.064 467.901 301.061 467.795C311.683 473.93 303.41 457.826 314.045 456.04C316.966 456.748 318.247 454.422 318.773 452.091Z" fill="var(--fill-0, #005BC3)" fill-opacity="0.5" stroke="var(--stroke-0, #087BFF)" stroke-width="2"/>
<path id="path1321" fill-rule="evenodd" clip-rule="evenodd" d="M188.807 331.28C185.456 331.231 184.185 333.438 180.192 330.096C176.621 327.074 178.221 332.303 172.77 332.077C171.756 333.472 169.982 333.665 167.433 333.572C165.347 334.269 163.411 336.257 160.886 336.508C143.728 335.13 145.985 328.979 139.617 333.875C132.901 338.396 127.112 343.416 123.952 350.582C123.064 352.471 122.864 357.971 121.833 361.822C119.81 364.094 119.138 366.822 119.42 374.611C120.351 376.433 121.204 377.867 122.169 379.253C120.556 380.704 116.677 383.421 114.748 385.178C114.148 384.561 113.512 381.798 113.871 378.603C114.098 374.42 109.042 378.092 107.135 377.059C102.96 374.516 101.858 371.82 99.2426 368.338C98.1468 364.789 102.871 364.203 95.4823 357.79C92.1841 356.352 85.1706 357.403 81.6437 357.617C78.7775 358.226 78.9355 354.381 76.3033 353.873C72.0321 352.798 76.7107 349.282 71.8234 349.236C68.9916 349.322 68.3396 347.671 66.438 346.381C58.6043 340.973 64.3746 342.061 63.8657 336.828C76.4937 316.876 65.1361 326.094 75.3189 316.572C79.284 309.711 81.9027 303.668 78.2652 295.746C75.0119 285.585 66.5462 290.447 71.7287 282.533C67.6251 280.538 63.7799 278.172 60.5412 274.934C57.9811 271.622 56.9998 278.314 55.195 279.788C48.187 278.966 43.8905 273.799 34.9395 273.017C36.581 270.23 37.6432 266.866 39.2847 264.079C39.5345 253.388 39.2049 237.218 39.4547 226.527C40.779 224.593 42.0929 222.439 44.2092 219.097C37.467 214.979 27.5384 207.112 20.7962 202.994C18.5336 201.256 13.6813 200.371 16.6898 196.895C47.4666 208.98 78.2434 221.065 109.02 233.151C114.428 235.962 121.146 241.879 119.477 248.598C123.5 255.578 136.356 244.42 138.644 253.987C137.852 262.734 149.648 259.248 152.259 265.52C156.122 267.058 159.984 268.596 163.85 270.181C163.909 275.18 163.378 286.578 165.892 286.575C169.082 286.602 168.089 296.421 165.559 296.042C159.364 295.907 178.145 324.038 188.807 331.28Z" fill="var(--fill-0, #005BC3)" fill-opacity="0.5" stroke="var(--stroke-0, #087BFF)" stroke-width="2" stroke-linejoin="bevel"/>
<path id="path2204" fill-rule="evenodd" clip-rule="evenodd" d="M163.959 269.473C160.198 267.936 156.262 266.363 152.415 264.82C149.815 258.526 138.066 262.024 138.856 253.247C136.576 243.648 123.773 254.844 119.766 247.84C121.428 241.099 114.738 235.162 109.352 232.341C78.7007 220.215 48.0492 208.088 17.273 195.974C16.4407 195.475 14.9124 195.046 14.685 194.488C17.5251 192.153 20.3652 189.817 23.2054 187.482C24.5321 188.465 25.8589 189.449 27.1857 190.432C33.5888 184.531 39.9919 178.631 46.395 172.73C45.3567 171.862 44.3183 170.994 43.28 170.127C44.5657 169.784 47.74 168.523 49.8561 168.218C52.4065 167.072 54.021 164.065 56.8729 163.675C59.8809 164.287 62.1541 162.007 64.0777 160.19C64.919 158.011 65.8338 155.956 68.3492 155.524C68.9332 153.192 68.9861 150.323 72.441 151.606C74.4922 149.588 71.359 147.32 69.9614 145.185C68.5302 142.306 75.0291 145.243 72.9909 135.704C80.2222 132.877 88.5534 129.598 94.7617 124.647C98.2592 123.137 102.778 118 107.176 119.251C106.99 127.428 106.56 134.719 106.053 142.029C106.721 150.843 107.324 163.964 116.09 172.17C122.08 177.74 128.466 182.542 133.539 188.719C139.147 194.93 145.362 200.195 149.97 207.166C151.636 204.921 165.213 202.394 165.458 202.994C169.101 211.907 172.405 208.42 174.841 207.884C174.931 210.645 175.069 213.418 175.208 216.192C174.148 216.238 173.087 216.284 172.027 216.33C171.705 219.427 171.382 222.525 171.059 225.622C172.073 225.622 173.087 225.622 174.102 225.622C175.162 228.811 176.222 232.001 177.282 235.19C175.484 236.207 173.687 237.224 171.889 238.241C176.13 243.973 180.37 249.705 184.611 255.437C182.597 256.746 180.651 258.059 178.739 259.513C177.186 260.995 175.186 262.007 173.615 263.483C172.139 265.177 169.415 265.742 167.029 265.85C165.759 265.803 165.353 265.897 164.047 265.917C164.017 266.681 163.988 268.709 163.959 269.473Z" fill="var(--fill-0, #005BC3)" fill-opacity="0.5" stroke="var(--stroke-0, #087BFF)" stroke-width="2" stroke-linecap="square" stroke-linejoin="round"/>
<path id="path1326" fill-rule="evenodd" clip-rule="evenodd" d="M442.55 387.924C443.931 388.448 445.38 389.319 447.017 388.649C448.968 387.6 450.364 386.272 451.802 384.018C452.765 381.534 454.294 381.494 456.589 382.911C458.318 383.856 460.73 385.165 462.068 382.879C463.169 381.592 464.889 378.913 466.707 380.743C468.352 382.599 468.272 385.233 468.687 387.539C469.058 389.791 471.555 390.356 472.773 387.1C476.04 378.482 479.306 369.865 482.506 361.243C477.953 359.234 473.02 357.724 468.819 355.378C460.856 342.646 453.37 329.595 444.356 317.568C441.916 314.118 439.477 310.668 437.037 307.218C435.208 310.69 433.996 305 432.49 303.676C429.896 299.634 427.303 295.592 424.789 291.562C424.909 293.402 425.373 293.938 422.942 295.591C420.1 297.246 417.258 298.901 414.416 300.557C415.803 303.467 413.857 305.09 411.181 305.638C409.694 306.382 407.634 306.343 408.485 308.472C408.712 309.58 408.813 310.592 407.376 310.437C406.057 310.686 404.738 310.934 403.42 311.183C403.238 312.936 403.057 314.689 402.875 316.441C401.061 316.332 399.246 316.222 397.432 316.113C396.828 317.582 396.514 319.341 395.312 320.404C393.152 321.996 391.157 317.4 389.696 319.577C388.609 320.76 387.522 321.942 386.435 323.124C384.984 321.809 383.259 320.474 381.751 319.212C383.168 323.122 373.316 331.78 387.409 332.477C397.49 334.244 386.623 342.216 389.339 350.755C391.457 364.075 399.255 350.452 404.673 362.477C407.367 368.293 416.367 349.864 415.801 366.556C416.55 373.684 423.784 380.317 430.171 382.821C437.309 384.58 434.684 384.037 442.55 387.924Z" fill="var(--fill-0, #005BC3)" fill-opacity="0.5" stroke="var(--stroke-0, #087BFF)" stroke-width="2" stroke-linejoin="round"/>
<path id="path5714" fill-rule="evenodd" clip-rule="evenodd" d="M340.277 201.403C337.188 206.338 340.178 211.637 342.565 216.034C342.39 217.987 342.381 218.454 341.219 220.062C333.75 215.084 332.091 215.619 335.166 219.301C336.718 222.535 332.133 224.429 336.578 226.445C337.951 227.684 339.324 228.922 340.697 230.16C340.07 232.198 338.821 233.258 336.643 232.863C330.499 231.411 334.12 234.716 327.789 234.244C322.234 232.925 324.296 235.512 322.905 242.772C322.405 247.466 318.705 251.192 316.424 255.581C313.818 260.601 317.22 268.39 305.841 258.12C307.377 255.654 310.743 254.079 305.162 253.479C302.004 252.116 298.845 250.754 295.687 249.391C297.322 247.596 297.031 246.373 294.646 245.772C293.151 245.408 291.005 242.696 290.314 245.224C288.935 247.464 287.385 248.002 287.025 251.093C287.179 256.736 280.01 256.597 277.853 249.902C273.653 247.804 268.465 242.757 264.265 247.009C254.607 251.731 259.018 246.367 254.267 246.126C254.48 242.913 257.45 240.836 253.055 240.371C254.029 234.97 252.762 232.725 252.206 226.756C250.511 223.333 246.096 216.12 250.478 206.188C252.677 202.936 252.497 201.956 255.143 195.67C256.016 198.756 261.085 199.235 260.529 201.879C259.95 204.872 261.131 206.573 263.325 203.165C269.089 193.793 267.623 201.145 274.117 194.42C276.072 189.323 276.707 196.245 281.738 187.912C279.941 185.449 281.423 183.14 282.922 181.936C285.321 184.072 288.533 186.157 290.931 188.294C292.751 186.989 294.588 185.615 296.388 184.342C301.536 184.55 304.047 181.244 308.575 178.933C317.185 172.428 319.753 179.048 318.835 171.002C324.767 171.051 321.077 167.587 322.439 162.981C321.664 159.253 324.171 154.948 319.798 154.74C316.525 154.986 312.366 151.043 318.003 150.809C322.334 151.136 327.24 150.133 330.149 147.457C332.036 147.662 334.039 147.591 335.885 147.949C341.854 152.28 347.823 156.611 353.792 160.942C354.459 160.006 354.866 159.154 356.06 160C356.909 160.543 357.408 160.867 358.733 161.578C352.912 171.685 347.686 182.187 341.909 192.351C340.363 195.365 340.614 198.704 340.277 201.403Z" fill="var(--fill-0, #005BC3)" fill-opacity="0.5" stroke="var(--stroke-0, #087BFF)" stroke-width="2" stroke-linejoin="round"/>
<path id="path6600" fill-rule="evenodd" clip-rule="evenodd" d="M309.226 177.961C317.444 171.845 320.025 178.323 319.108 170.29C325.028 170.339 321.346 166.881 322.704 162.283C321.931 158.56 324.433 154.263 320.069 154.054C316.803 154.3 312.653 150.364 318.278 150.13C322.6 150.456 327.496 149.455 330.412 146.827C330.388 144.337 330.35 141.802 330.312 139.268C329.56 136.476 327.031 134.243 325.567 131.652C323.235 129.084 320.276 127.169 317.429 125.368C307.838 134.279 286.664 147.789 286.664 147.789L283.21 147.779L304.795 170.216L309.226 177.961Z" fill="var(--fill-0, #005BC3)" fill-opacity="0.5" stroke="var(--stroke-0, #087BFF)" stroke-width="2" stroke-linejoin="round"/>
<path id="path6602" fill-rule="evenodd" clip-rule="evenodd" d="M255.292 195.878C256.23 199.083 261.231 198.98 260.611 202.216C260.261 204.752 261.102 206.983 263.317 203.565C269.137 193.871 267.657 201.538 274.214 194.792C276.481 189.328 277.064 196.389 282.144 188.03C280.329 185.558 281.787 183.542 283.21 182.041C282.655 181.471 281.867 181.004 281.342 180.213C280.842 179.406 281.25 178.361 281.799 177.75C278.542 173.897 275.636 170.277 272.273 166.391C268.219 166.488 259.003 170.59 257.878 172.107C257.878 172.107 257.79 172.211 257.792 172.205C257.096 173.093 256.416 173.826 255.913 174.692C255.195 175.55 255.063 176.664 254.928 177.727C254.81 178.869 255.002 180.011 254.972 181.156C255.076 186.064 255.186 190.971 255.292 195.878Z" fill="var(--fill-0, #005BC3)" fill-opacity="0.5" stroke="var(--stroke-0, #087BFF)" stroke-width="2"/>
<path id="path6610" fill-rule="evenodd" clip-rule="evenodd" d="M267.476 159.681L282.281 147.457L303.93 170.503L308.384 178.561C303.819 181.034 300.954 184.64 295.777 184.427C293.967 185.733 292.12 187.142 290.29 188.48C287.877 186.289 284.782 184.098 282.455 182.031C281.843 181.512 280.787 180.777 280.264 179.969C279.766 179.144 280.331 178.125 280.878 177.5C277.633 173.561 274.677 169.83 271.348 165.78C269.054 162.653 268.693 161.819 267.476 159.681Z" fill="var(--fill-0, #005BC3)" fill-opacity="0.5" stroke="var(--stroke-0, #087BFF)" stroke-width="2" stroke-linejoin="round"/>
<path id="path6624" fill-rule="evenodd" clip-rule="evenodd" d="M258.036 171.759C256.659 173.219 255.18 174.794 255.138 176.862C254.966 179.031 255.257 181.205 255.204 183.378C255.284 187.353 255.412 191.328 255.44 195.305C254.357 197.954 253.443 200.69 252.253 203.284C251.683 204.16 250.676 206.229 250.577 206.358C248.756 205.074 246.766 204.97 244.735 205.581C242.823 206.693 240.938 205.478 239.524 204.207C237.733 202.95 236.33 204.591 234.903 205.596C233.531 207.489 231.597 205.381 230.272 204.514C229.076 203.695 227.882 202.831 226.606 202.126C224.837 200.82 223.822 202.988 222.415 203.754C220.72 204.223 218.904 204.33 217.154 204.619C215.512 204.377 213.785 204.531 212.2 204.012C210.807 202.415 208.496 203.623 206.758 202.74C205.022 201.942 203.33 201.048 201.48 200.317C201.95 192.757 199.905 192.071 199.473 186.985C198.171 180.001 204.514 177.822 203.066 166.459C201.537 158.691 210.105 158.553 212.174 164.093C213.737 170.789 220.987 165.737 225.652 166.999C232.954 165.796 239.997 161.928 246.817 159.028C250.557 163.271 254.296 167.515 258.036 171.759Z" fill="var(--fill-0, #005BC3)" fill-opacity="0.5" stroke="var(--stroke-0, #087BFF)" stroke-width="2"/>
<path id="path11062" fill-rule="evenodd" clip-rule="evenodd" d="M298.846 314.626C298.861 313.871 299.512 310.665 300.28 309.459C300.774 308.223 301.956 307.552 302.68 306.501C303.42 304.863 300.795 304.234 301.217 302.656C302.109 301.383 303.525 300.649 304.611 299.582C305.704 298.511 307.376 298.928 308.624 298.202C310.166 297.18 312.201 297.621 313.726 296.556C315.259 296.084 316.875 295.962 318.472 295.96C319.59 296.346 321.297 295.048 321.983 296.407C322.335 297.983 322.139 298.956 324.949 299.699C326.572 302.819 331.551 303.573 325.094 308.034C315.674 311.659 306.396 316.537 297.895 322.066C298.744 319.896 299.976 317.193 298.846 314.626Z" fill="var(--fill-0, #005BC3)" fill-opacity="0.5" stroke="var(--stroke-0, #087BFF)" stroke-width="2" stroke-linejoin="round"/>
<path id="path11079" fill-rule="evenodd" clip-rule="evenodd" d="M253.711 246.109C253.922 243.197 256.897 241.093 252.495 240.623C253.47 235.153 252.202 232.879 251.645 226.835C249.947 223.368 245.524 216.063 249.77 206.036C247.815 204.769 245.834 204.664 243.813 205.282C241.91 206.406 240.034 205.178 238.627 203.893C236.844 202.622 235.448 204.282 234.027 205.297C232.662 207.211 230.738 205.08 229.418 204.203C228.228 203.376 227.039 202.502 225.77 201.789C224.01 200.469 222.999 202.661 221.599 203.436C219.912 203.909 218.104 204.018 216.363 204.31C214.729 204.065 213.01 204.221 211.433 203.696C210.046 202.081 207.746 203.303 206.016 202.41C204.289 201.603 202.604 200.7 200.776 200.05C191.807 204.062 186.671 202.872 187.898 207.74C181.871 207.251 179.808 208.097 174.692 207.865C174.834 210.502 174.972 213.294 175.109 216.086C174.053 216.132 172.996 216.179 171.94 216.225C171.618 219.343 171.297 222.461 170.975 225.579C171.986 225.579 172.996 225.579 174.007 225.579C175.063 228.79 176.12 232.001 177.176 235.212C175.385 236.235 173.593 237.259 171.802 238.283C176.028 244.053 180.254 249.824 184.665 255.616C188.258 253.502 190.941 252.555 195.114 252.476C197.449 256.084 199.543 255.396 199.214 260.252C200.63 263.807 205.15 263.796 204.791 267.734C206.539 269.893 206.686 269.717 208.25 271.163C211.169 273.031 207.713 275.349 206.973 277.238C206.233 279.126 208.207 280.919 215.792 279.454C220.279 276.653 224.88 273.804 229.481 270.956C235.054 269.05 240.671 267.239 246.261 265.37C247.717 265.313 247.722 263.887 247.787 262.684C248.213 260.682 248.257 258.646 248.508 256.626C248.515 254.667 249.556 253.148 250.355 251.468C251.121 249.491 252.595 247.891 253.711 246.109Z" fill="var(--fill-0, #005BC3)" fill-opacity="0.5" stroke="var(--stroke-0, #087BFF)" stroke-width="2" stroke-linejoin="round"/>
<path id="path10169" fill-rule="evenodd" clip-rule="evenodd" d="M282.448 282.038L279.922 291.418C258.408 298.812 268.83 285.512 254.54 286.5C240.595 291.873 235.808 290.754 226.618 291.29C218.494 292.811 219.507 289.611 218.699 285.589C214.911 285.228 217.11 281.481 216.079 279.407C220.833 276.596 225.445 273.763 230.058 270.93C235.645 269.034 241.275 267.233 246.879 265.374C248.339 265.317 248.344 263.9 248.409 262.703C248.836 260.712 248.88 258.687 249.132 256.678C249.139 254.729 250.183 253.219 250.983 251.548C251.751 249.582 253.229 247.99 254.253 246.215C258.929 246.454 254.501 251.856 264.199 247.1C268.416 242.818 273.626 247.901 277.844 250.014C280.009 256.757 287.209 256.897 287.054 251.214C287.416 248.101 288.972 247.559 290.357 245.303C291.051 242.756 293.206 245.488 294.707 245.854C297.102 246.46 297.394 247.692 295.753 249.5C298.924 250.872 302.095 252.245 305.267 253.617C310.871 254.222 307.492 255.808 306.062 258.271C304.334 258.176 302.492 258.102 300.65 258.028C296.413 262.212 292.177 266.395 287.941 270.579C288.346 272.467 288.751 274.355 289.156 276.244C287.428 277.055 285.268 276.911 283.854 278.361C283.104 279.148 282.463 280.905 282.448 282.038Z" fill="var(--fill-0, #005BC3)" fill-opacity="0.5" stroke="var(--stroke-0, #087BFF)" stroke-width="2"/>
<path id="path10171" fill-rule="evenodd" clip-rule="evenodd" d="M317.349 253.695C318.971 255.163 319.569 256.357 321.541 258.281C323.186 259.565 324.896 260.8 326.9 261.43C328.698 262.229 330.602 262.605 332.41 262.865C332.482 264.362 332.137 265.956 332.243 267.426C333.452 270.01 330.242 269.437 328.698 269.642C326.811 270.877 324.668 271.771 322.391 271.419C321.371 273.143 321.35 275.591 319.899 277.229C318.35 279.103 315.78 279.7 313.528 280.065C311.978 279.399 311.369 280.567 311.844 281.95C312.716 284.164 309.238 283.062 309.931 285.24C309.384 287.061 306.687 284.61 306.32 283.407C306.063 281.988 305.805 280.568 305.547 279.149C303.411 279.896 301.276 280.643 299.14 281.39C299.839 283.482 300.539 285.574 301.239 287.666C300.502 288.263 299.766 288.861 299.029 289.459C296.047 287.852 293.064 286.246 290.081 284.64C289.566 285.163 289.05 285.686 288.535 286.209C286.252 284.603 284.497 283.479 282.203 281.894C281.952 281.733 282.876 279.068 283.626 278.274C285.04 276.81 287.199 277.063 288.926 276.244C288.521 274.339 288.063 272.434 287.658 270.529C291.893 266.308 296.128 262.087 300.362 257.866C302.204 257.941 303.939 257.908 305.778 257.96C318.043 268.588 312.725 260.566 317.349 253.695Z" fill="var(--fill-0, #005BC3)" fill-opacity="0.5" stroke="var(--stroke-0, #087BFF)" stroke-width="2"/>
<g id="path11069">
<path fill-rule="evenodd" clip-rule="evenodd" d="M297.746 321.014C298.592 318.858 300.109 316.607 298.982 314.058ZM298.982 314.058C294.959 307.055 287.494 299.858 280.063 291L282.479 281.854C284.669 283.397 286.672 284.597 288.958 286.174C289.474 285.661 289.991 285.147 290.507 284.634C293.494 286.211 296.481 287.787 299.467 289.364C300.205 288.777 300.942 288.191 301.68 287.604C300.979 285.551 300.279 283.497 299.578 281.444C301.717 280.711 303.856 279.977 305.994 279.244C306.252 280.637 306.511 282.031 306.769 283.424C307.136 284.605 309.837 287.01 310.385 285.223C309.69 283.085 313.173 284.166 312.3 281.994C311.824 280.637 312.435 279.489 313.986 280.143C316.242 279.785 318.815 279.199 320.366 277.36C321.819 275.752 321.84 273.349 322.862 271.657C325.142 272.003 327.288 271.125 329.177 269.912C330.724 269.711 333.938 270.274 332.728 267.738C332.621 266.294 332.967 264.73 332.882 263.338L339.303 263.162L351.923 276.909L357.684 282.406L356.376 287.845C353.277 291.069 348.904 294.854 345.381 298.253C340.29 299.352 330.304 298.772 325.028 299.142C322.221 298.371 322.417 297.405 322.066 295.839C321.382 294.49 319.679 295.778 318.564 295.395C316.972 295.397 315.36 295.519 313.831 295.987C312.31 297.045 310.281 296.607 308.743 297.622C307.499 298.343 305.831 297.929 304.741 298.993C303.658 300.053 302.245 300.782 301.356 302.046C300.935 303.613 303.553 304.238 302.815 305.865C302.093 306.909 300.914 307.575 300.421 308.803C299.656 310.001 299.006 313.733 298.917 314.091" fill="var(--fill-0, #005BC3)" fill-opacity="0.5"/>
<path d="M297.746 321.014C298.592 318.858 300.109 316.607 298.982 314.058C294.959 307.055 287.494 299.858 280.063 291L282.479 281.854C284.669 283.397 286.672 284.597 288.958 286.174C289.474 285.661 289.991 285.147 290.507 284.634C293.494 286.211 296.481 287.787 299.467 289.364C300.205 288.777 300.942 288.191 301.68 287.604C300.979 285.551 300.279 283.497 299.578 281.444C301.717 280.711 303.856 279.977 305.994 279.244C306.252 280.637 306.511 282.031 306.769 283.424C307.136 284.605 309.837 287.01 310.385 285.223C309.69 283.085 313.173 284.166 312.3 281.994C311.824 280.637 312.435 279.489 313.986 280.143C316.242 279.785 318.815 279.199 320.366 277.36C321.819 275.752 321.84 273.349 322.862 271.657C325.142 272.003 327.288 271.125 329.177 269.912C330.724 269.711 333.938 270.274 332.728 267.738C332.621 266.294 332.967 264.73 332.882 263.338L339.303 263.162L351.923 276.909L357.684 282.406L356.376 287.845C353.277 291.069 348.904 294.854 345.381 298.253C340.29 299.352 330.304 298.772 325.028 299.142C322.221 298.371 322.417 297.405 322.066 295.839C321.382 294.49 319.679 295.778 318.564 295.395C316.972 295.397 315.36 295.519 313.831 295.987C312.31 297.045 310.281 296.607 308.743 297.622C307.499 298.343 305.831 297.929 304.741 298.993C303.658 300.053 302.245 300.782 301.356 302.046C300.935 303.613 303.553 304.238 302.815 305.865C302.093 306.909 300.914 307.575 300.421 308.803C299.656 310.001 299.006 313.733 298.917 314.091" stroke="var(--stroke-0, #087BFF)" stroke-width="2" stroke-linejoin="round"/>
</g>
<path id="path11085" fill-rule="evenodd" clip-rule="evenodd" d="M351.422 276.836L338.959 263.04L332.663 263.245C330.705 263.008 328.811 262.639 327.022 261.855C325.029 261.235 323.328 260.023 321.691 258.762C319.73 256.872 319.135 255.701 317.825 254.184C320.131 249.782 322.488 247.848 322.988 243.164C324.377 235.919 322.317 233.338 327.864 234.654C334.186 235.125 330.57 231.826 336.706 233.276C338.88 233.67 340.127 232.612 340.753 230.578C339.382 229.343 338.011 228.107 336.64 226.872C332.202 224.859 336.78 222.969 335.231 219.742C332.16 216.068 333.816 215.534 341.293 220.498L366.935 249.948C367.448 251.051 368.923 252.483 367.7 253.632C366.563 254.124 364.84 253.457 364.168 254.862C363.716 255.812 363.991 256.982 363.37 257.869C363.013 259.379 362.275 260.912 360.839 261.652C359.162 262.683 357.44 264.023 356.962 266.04C356.728 266.982 356.742 267.962 356.772 268.926C356.175 270.334 355.021 271.4 354.103 272.594C353.129 273.437 352.856 274.694 352.279 275.776C352.093 276.066 351.633 276.564 351.422 276.836Z" fill="var(--fill-0, #005BC3)" fill-opacity="0.5" stroke="var(--stroke-0, #087BFF)" stroke-width="2" stroke-linejoin="round"/>
<path id="path6720" fill-rule="evenodd" clip-rule="evenodd" d="M401.484 253.526C401.522 245.78 401.63 238.498 401.739 231.217C398.683 219.785 395.06 208.43 391.864 196.895C388.321 198.524 384.749 199.069 380.193 199.235C377.231 199.825 375.825 201.546 374.077 203.2C371.976 204.535 368.507 212.394 366.79 216.078C362.716 212.345 358.695 208.523 354.641 204.755C350.717 204.08 345.288 202.826 340.132 201.65C337.013 206.499 340.045 211.793 342.467 216.187C342.289 218.138 342.279 218.604 340.961 220.144L340.822 220.077L367.088 249.714C368.934 249.063 370.948 248.989 372.284 247.702C373.747 245.971 374.391 249.846 374.329 251.001C373.985 252.731 374.963 254.304 375.759 255.768C377.157 256.326 378.074 257.115 378.11 258.728C379.795 259.716 381.907 258.318 383.767 258.878C385.537 259.95 387.305 261.609 389.591 260.878C391.773 261.007 393.052 259.018 395.055 258.752C396.442 257.538 398.406 257.802 399.951 256.925C401.056 256.205 401.621 254.931 401.484 253.526Z" fill="var(--fill-0, #005BC3)" fill-opacity="0.5" stroke="var(--stroke-0, #087BFF)" stroke-width="2" stroke-linejoin="round"/>
<path id="path4962" fill-rule="evenodd" clip-rule="evenodd" d="M355.806 288.043L357.094 282.363L351.39 276.948C351.58 276.649 351.793 276.374 351.981 276.082C352.564 274.994 352.84 273.73 353.825 272.882C354.753 271.682 355.919 270.609 356.523 269.193C356.492 268.223 356.479 267.238 356.716 266.29C357.198 264.262 358.939 262.914 360.634 261.877C362.086 261.133 362.832 259.591 363.192 258.072C363.821 257.18 363.543 256.003 363.999 255.048C364.678 253.635 366.42 254.306 367.57 253.811C368.806 252.655 367.315 251.215 366.998 250.051C368.795 249.192 370.799 249.117 372.129 247.825C373.586 246.086 374.227 249.978 374.164 251.139C373.823 252.877 374.796 254.457 375.588 255.927C376.979 256.488 377.892 257.28 377.928 258.901C379.605 259.894 381.707 258.49 383.559 259.052C385.32 260.129 387.081 261.795 389.355 261.061C391.527 261.19 392.801 259.193 394.795 258.926C396.175 257.706 398.129 257.971 399.667 257.09C400.767 256.367 401.208 255.087 400.988 253.392C408.394 259.144 415.883 265.179 423.652 271.319C422.948 273.878 421.365 276.261 421.144 279.25C422.383 282.929 419.14 292.345 424.696 291.822C424.683 293.693 425.493 294.145 423.056 295.786C420.207 297.429 417.359 299.073 414.51 300.716C415.9 303.605 413.949 305.216 411.267 305.76C409.776 306.499 407.711 306.459 408.564 308.573C408.791 309.673 408.893 310.678 407.451 310.524C406.13 310.771 404.808 311.018 403.486 311.265C403.304 313.005 403.122 314.745 402.94 316.485C401.121 316.376 399.302 316.267 397.483 316.158C396.878 317.617 396.563 319.363 395.358 320.418C393.192 321.999 391.192 317.436 389.728 319.598C388.638 320.771 387.549 321.945 386.459 323.118C385.004 321.813 383.275 320.487 381.745 319.235C374.262 321.98 378.607 316.538 371.131 315.293C367.742 314.174 363.803 311.25 360.363 313.934C360.213 305.418 363.059 294.093 355.806 288.043Z" fill="var(--fill-0, #005BC3)" fill-opacity="0.5" stroke="var(--stroke-0, #087BFF)" stroke-width="2"/>
<g id="path5">
</g>
<g id="path5_2">
</g>
</g>
</svg>
