<svg width="240" height="240" viewBox="0 0 240 240" fill="none" xmlns="http://www.w3.org/2000/svg">
<path fill-rule="evenodd" clip-rule="evenodd" d="M162.408 67.2545C166.9 66.9334 170.333 67.1804 174.386 69.3671V69.8366L174.944 69.9979C175.56 70.306 175.56 70.306 175.869 70.9222L176.03 71.4797H176.735L176.925 71.9345C177.178 72.4964 177.178 72.4964 177.909 72.6533C178.329 73.1567 178.329 73.1568 178.76 73.783L179.195 74.4038C179.515 74.937 179.683 75.5675 179.788 76.1739H180.493L180.962 76.6434L181.696 77.1276C182.202 77.5345 182.354 77.7151 182.463 78.3635C182.46 78.8921 182.433 79.4048 182.371 79.9296C182.194 80.0184 182.152 80.0393 182.036 80.0972C182.692 80.4396 183.078 80.9121 183.546 81.5731L183.7 82.0354L190.807 88.1362L190.822 88.1546C190.824 88.1515 190.825 88.1485 190.827 88.1455C192.49 89.2504 192.781 89.4438 193.043 90.1348C193.099 90.2812 193.154 90.4499 193.22 90.6544C193.191 91.1544 193.151 91.4966 192.996 91.8552C192.968 91.9204 192.936 91.9862 192.9 92.0535C192.846 92.1546 192.782 92.2592 192.706 92.3709C192.466 92.3409 192.244 92.2991 192.031 92.2447C191.989 92.2338 191.947 92.2225 191.905 92.2106C191.696 92.1511 191.495 92.079 191.293 91.9933C191.253 91.9762 191.213 91.9585 191.172 91.9403C191.011 91.8675 190.848 91.7858 190.68 91.6951C190.617 91.6627 190.553 91.6312 190.489 91.6004C190.425 91.5696 190.362 91.5396 190.298 91.5103C189.404 91.1 188.5 90.8302 187.539 90.5664C187.344 90.5101 187.149 90.4524 186.955 90.3944C186.861 90.3661 186.766 90.3381 186.671 90.3094C186.656 90.3047 186.64 90.2997 186.625 90.295C182.587 89.0659 178.689 87.4561 174.829 85.7504C174.722 85.7052 174.614 85.6621 174.505 85.6203C174.146 85.7964 174.092 85.7828 173.49 85.6224C172.742 85.329 172.742 85.329 172.228 84.9622C171.181 84.4276 170.146 84.4369 168.984 84.3901C168.821 84.3812 168.658 84.3723 168.49 84.3631C167.955 84.3356 167.42 84.3177 166.885 84.302C166.713 84.293 166.54 84.284 166.363 84.2747C165.8 84.2533 165.8 84.2534 164.991 84.3901C164.41 84.92 164.411 84.9201 164.052 85.5638C163.827 85.8839 163.594 86.1994 163.347 86.5027H162.877V87.2069H162.408L162.524 87.7956C162.653 88.6909 162.669 89.5622 162.657 90.4639L162.654 90.9535C162.654 90.992 162.653 91.0305 162.653 91.069L162.934 91.4625L163.084 92.1364H163.112V92.2635L163.6 94.4561L163.684 97.4475C164.359 98.4248 164.642 99.0906 164.521 100.352V100.587L164.991 101.056C165.115 101.636 165.115 101.636 165.211 102.347C165.385 103.489 165.643 104.546 165.996 105.644C166.231 106.441 166.373 107.249 166.511 108.068C166.622 108.633 166.622 108.633 167.105 109.272C167.188 109.705 167.255 110.141 167.31 110.578C167.489 111.735 167.782 112.7 168.246 113.77C168.648 114.77 168.95 115.799 169.257 116.831C169.57 117.869 169.95 118.846 170.393 119.835H169.924L170.863 121.243H170.393L170.599 121.629L170.863 122.138L171.127 122.642C171.333 123.121 171.333 123.121 171.333 123.826C171.502 124.232 171.672 124.639 171.852 125.04C172.111 125.639 172.301 126.259 172.507 126.877C172.632 127.166 172.76 127.455 172.889 127.743C173.212 128.52 173.212 128.52 173.212 129.224L172.977 129.694L173.681 129.929C173.518 129.985 173.417 130.019 173.326 130.046C173.427 130.079 173.543 130.117 173.681 130.163C173.916 130.867 173.916 130.867 173.681 131.572L174.019 131.865C174.428 132.323 174.484 132.629 174.621 133.215L175.091 133.449C175.196 133.926 175.196 133.926 175.252 134.506L175.313 135.085L175.325 135.562L175.091 135.797C175.595 137.35 176.126 138.906 176.764 140.41C176.969 140.961 176.97 140.961 176.97 141.665C177.071 142.274 177.229 142.645 177.557 143.176C177.922 143.801 178.003 144.249 178.144 144.951C178.29 145.351 178.447 145.746 178.613 146.138L178.893 146.81L179.186 147.504C179.779 148.91 180.341 150.282 180.727 151.759L180.992 152.492C181.02 152.617 181.045 152.743 181.069 152.868L181.197 152.932C181.204 153.264 181.21 153.595 181.216 153.926C181.292 154.763 181.278 155.605 181.197 156.453C181.112 156.539 181.026 156.624 180.94 156.711C180.947 156.781 180.955 156.852 180.962 156.923L181.061 157.71C181.292 159.902 181.324 160.204 180.952 160.801C180.928 161.093 180.901 161.385 180.874 161.676L180.825 162.237C180.756 162.627 180.65 162.933 180.503 163.249C180.459 164.227 180.232 165.13 179.788 166.078L179.318 166.312L179.377 166.914C179.304 167.922 179.081 168.638 178.379 169.364C177.724 169.722 177.071 170.004 176.373 170.27C175.726 170.508 175.726 170.509 175.325 171.242L175.091 171.007L174.386 171.242V170.538L173.862 171.132C173.041 171.863 172.611 171.872 171.524 171.902C171.359 171.907 171.195 171.913 171.025 171.918C170.501 171.933 169.978 171.94 169.454 171.946C169.124 171.955 168.795 171.964 168.466 171.974C166.782 172.008 165.131 171.948 163.457 171.778C159.823 171.409 156.203 171.443 152.554 171.473C152.213 171.476 152.213 171.476 151.865 171.478C151.432 171.481 151 171.486 150.567 171.491C150.374 171.493 150.18 171.494 149.981 171.496C149.812 171.498 149.642 171.5 149.468 171.502C149.02 171.477 149.02 171.477 148.315 171.242C147.881 171.214 147.445 171.201 147.009 171.198L146.318 171.188C145.691 171.183 145.691 171.183 145.262 171.711C144.598 171.768 144.598 171.768 143.759 171.766L142.846 171.764C142.688 171.763 142.531 171.761 142.368 171.76C141.889 171.756 141.411 171.755 140.932 171.755C138.58 171.744 138.58 171.744 137.997 171.596C137.237 171.409 136.467 171.425 135.688 171.411C135.423 171.404 135.422 171.404 135.152 171.397C134.588 171.384 134.024 171.371 133.46 171.359C132.72 171.343 131.98 171.326 131.24 171.308C131.072 171.305 130.905 171.302 130.733 171.298C129.611 171.271 128.525 171.152 127.412 171.007C127.018 170.984 126.623 170.967 126.229 170.958C122.631 170.853 119.143 170.444 115.593 169.866C115.393 169.833 115.193 169.801 114.987 169.767C114.614 169.706 114.241 169.643 113.869 169.579C113.032 169.439 112.237 169.349 111.388 169.359C110.501 169.364 110.501 169.364 109.933 169.247C109.313 169.127 108.769 169.11 108.139 169.123C107.902 169.126 107.666 169.129 107.422 169.132C107.164 169.136 106.906 169.14 106.641 169.144C104.629 169.163 102.632 169.124 100.623 169.009C100.422 168.998 100.222 168.986 100.015 168.974C99.0151 168.916 98.0155 168.853 97.0162 168.785C96.6457 168.762 96.2751 168.74 95.9046 168.717C95.7356 168.704 95.5666 168.691 95.3924 168.678C94.421 168.62 93.7664 168.727 92.8861 169.129C92.1036 169.124 92.1036 169.124 91.2861 169.041L90.4595 168.962L89.8329 168.895V170.068C88.3306 170.778 87.4143 170.838 85.8401 170.303L85.3703 170.068L85.8401 168.895C85.1624 168.58 85.1622 168.58 84.6397 168.883C83.672 169.234 82.808 169.137 81.7913 169.072C81.5845 169.061 81.3775 169.05 81.1644 169.039C80.5062 169.003 79.8483 168.964 79.1903 168.924C78.7431 168.899 78.2958 168.874 77.8485 168.85C76.7543 168.789 75.6602 168.725 74.5663 168.66V168.425C79.0299 168.382 79.0299 168.382 80.9078 168.66L81.1426 168.19V168.66L83.2565 168.425L82.5519 168.19V167.721L81.6124 167.956V167.486L80.8233 167.34C80.4796 167.276 80.1359 167.213 79.7922 167.149L79.2729 167.053C77.9541 166.807 77.954 166.807 77.3854 166.663C76.1736 166.365 75.0713 166.207 73.8616 166.547V166.078L73.4222 166.189C71.9859 166.519 70.8538 166.547 69.3991 166.312L69.6341 165.374L68.4597 165.843L68.6945 165.374L68.0165 165.382L67.1239 165.388L66.2404 165.396C64.4404 165.347 64.4403 165.347 63.9972 164.904C63.2361 164.453 62.5202 164.319 61.6485 164.2L62.5879 163.73C61.9027 163.274 61.5016 163.155 60.7091 163.026L61.4135 162.792C60.9932 161.945 60.9932 161.944 60.2612 161.395C57.9912 160.256 56.2863 156.828 55.0565 154.718C53.8672 153.116 52.1655 152.165 50.4775 151.157C46.3493 148.685 46.3492 148.685 45.6773 146.595C45.7067 145.905 45.7066 145.905 45.9121 145.421L46.3819 145.186C45.7429 143.496 44.8579 141.511 43.3286 140.492V140.022L42.624 139.787C43.5625 139.123 44.3685 139.374 45.4425 139.553L44.7379 139.083V138.614C46.2966 138.753 47.6972 139.139 49.1858 139.611C49.6646 139.76 50.1435 139.909 50.6225 140.058C50.8579 140.131 51.0934 140.205 51.336 140.28C52.4676 140.63 53.6047 140.961 54.7423 141.29C55.4234 141.488 56.0885 141.695 56.7519 141.947C57.9893 142.295 58.7759 141.838 59.8576 141.24C61.4906 140.395 63.157 139.966 64.9366 139.553L64.5843 138.775C64.232 137.91 64.232 137.91 64.232 137.205L63.5274 136.971C62.8959 135.744 62.7074 134.347 62.8228 132.98C63.2935 132.257 63.9374 131.954 64.7018 131.572L63.7624 131.102C63.886 130.038 63.886 130.038 64.3669 129.564C65.988 128.551 67.678 127.704 69.3991 126.877C68.706 126.989 68.0256 127.103 67.3441 127.273L66.8156 127.347L66.3458 126.877C67.4698 125.986 68.5972 125.228 69.8735 124.571C70.3432 124.292 70.6763 123.992 71.0433 123.591L69.6341 123.356L69.8689 122.886L68.9295 122.417C69.6277 122.038 70.3279 121.662 71.0286 121.287L71.6199 120.966C73.2995 120.071 74.9666 119.216 76.9149 119.366V118.896L76.4453 118.661L77.1499 118.427C76.4492 118.406 76.449 118.406 75.7841 118.542C75.0547 118.658 74.3765 118.692 73.6387 118.693L72.8593 118.693L72.0561 118.691L71.2447 118.693L70.4681 118.693C70.2347 118.692 70.0013 118.692 69.7609 118.692C69.1643 118.661 69.1643 118.661 68.4597 118.427V117.957C69.1931 117.73 69.9273 117.506 70.6616 117.282L71.2809 117.091C72.677 116.667 74.0702 116.338 75.5059 116.079L74.9626 115.903L74.0966 115.61L73.4443 115.411L72.7461 115.184L72.0744 114.974C71.513 114.671 71.5131 114.671 71.2011 114.052L71.0433 113.497C71.6723 112.612 72.1224 112.189 73.157 111.854L73.392 111.619C73.7411 111.583 74.0918 111.56 74.4424 111.545L75.0824 111.515L75.7553 111.487L76.431 111.457C76.9837 111.432 77.5365 111.408 78.0893 111.385L78.1243 110.742L78.1774 109.903L78.227 109.069C78.3242 108.333 78.3243 108.333 78.794 107.629C80.0653 107.78 81.2932 108.049 82.54 108.338C85.0328 108.914 87.5272 109.433 90.053 109.844C90.3004 109.885 90.5479 109.927 90.8027 109.969C91.0321 110.005 91.2616 110.041 91.498 110.078C91.6987 110.11 91.8995 110.141 92.1063 110.174C92.6424 110.239 92.6425 110.239 93.1145 110.094C93.7319 109.941 94.2199 110.015 94.8495 110.099L95.5853 110.194L96.3506 110.299L97.1046 110.398C97.5895 110.462 98.0745 110.526 98.5593 110.591C99.4078 110.704 100.257 110.81 101.107 110.915V109.507C105.218 109.727 109.041 111.564 112.145 114.201L111.602 113.688C111.039 113.099 110.653 112.566 110.267 111.854C112.544 112.543 114.357 114.019 116.209 115.462C117.46 116.435 118.7 117.367 120.127 118.065C121.606 118.79 122.713 119.54 123.815 120.759C125.204 122.276 126.828 123.293 128.586 124.339C128.721 124.419 128.856 124.499 128.994 124.582C129.195 124.701 129.195 124.701 129.4 124.822C131.286 125.944 133 127.129 134.693 128.52C134.845 128.635 134.997 128.75 135.154 128.868C136.425 129.828 137.558 130.857 138.669 131.995C138.837 132.165 139.005 132.335 139.179 132.51C139.888 133.227 140.595 133.946 141.302 134.665C143.056 136.447 144.779 138.191 146.747 139.736C147.935 140.719 149.006 141.826 150.09 142.921C150.49 143.325 150.891 143.727 151.293 144.129C152.495 145.334 153.667 146.546 154.774 147.84C155.339 148.478 155.96 149.048 156.595 149.617L156.962 149.952C158.056 150.974 158.056 150.974 159.457 151.377C160.434 151.549 160.582 151.753 161.233 152.463C161.845 152.879 162.476 153.26 163.112 153.637C163.47 152.563 163.604 151.911 163.347 150.82C163.227 150.104 163.111 149.387 162.995 148.67C162.892 148.025 162.892 148.025 162.739 147.494C162.595 146.852 162.747 146.292 162.877 145.656H162.408L161.938 141.431H161.468C160.95 140.455 160.584 139.513 160.279 138.452C160.035 137.603 159.847 137.005 159.354 136.267C159.23 135.859 159.119 135.448 159.017 135.034C158.811 134.24 158.592 133.493 158.253 132.745C157.945 132.041 157.945 132.041 157.945 131.337L157.24 131.102L157.006 127.816H156.536L156.483 127.383C156.278 126.018 155.916 124.805 155.391 123.532C154.645 121.698 154.315 119.843 154.021 117.891C153.971 117.559 153.971 117.559 153.919 117.22L153.835 116.622C153.714 116.063 153.504 115.648 153.248 115.14C153.159 114.682 153.159 114.682 153.116 114.209L153.062 113.685L152.963 112.605L152.91 112.082L152.867 111.608C152.798 111.138 152.798 111.137 152.549 110.708C152.248 110.087 152.17 109.525 152.073 108.842L151.956 108.039L151.838 107.203C151.503 104.804 151.503 104.804 150.899 102.465C150.402 100.627 150.374 98.6851 150.26 96.7943C150.268 96.1508 150.268 96.1508 149.959 95.8921C149.942 95.4508 149.94 95.0088 149.945 94.5672L149.95 93.7478C149.956 93.1751 149.963 92.6023 149.969 92.0295L149.974 91.2076L149.983 90.4522C149.962 89.8668 149.868 89.4117 149.725 88.85C149.721 88.4764 149.732 88.1025 149.753 87.7295L149.788 87.0841L149.827 86.4147C149.852 85.9776 149.876 85.5406 149.9 85.1035C149.912 84.8975 149.924 84.6914 149.936 84.4792C149.955 84.0315 149.948 83.5826 149.932 83.1348C149.965 82.3938 150.171 81.968 150.532 81.3239C150.967 80.5393 151.231 79.8804 151.369 78.9912H151.838C152.014 78.1314 152.129 77.4834 151.838 76.6439L152.543 76.4091L152.631 75.8663C152.778 75.2355 152.778 75.2354 153.248 74.5313H153.718L153.952 73.3575L154.026 72.7267C154.187 72.1839 154.187 72.1839 154.672 71.8759L155.127 71.7144V71.2449C155.589 70.9047 156.047 70.6052 156.536 70.306L157.086 69.9567C158.801 68.8912 160.469 68.2487 162.408 67.724V67.2545ZM173.681 85.3291C173.683 85.3295 173.685 85.3298 173.686 85.3303C173.685 85.3297 173.683 85.3292 173.681 85.3286V85.3291Z" fill="#262626"/>
</svg>
