<svg width="240" height="240" viewBox="0 0 240 240" fill="none" xmlns="http://www.w3.org/2000/svg">
<path fill-rule="evenodd" clip-rule="evenodd" d="M155.083 46.2767C155.262 46.3264 155.367 46.368 155.492 46.4742C155.509 46.4886 155.527 46.5042 155.544 46.5209C155.545 46.5218 155.546 46.5228 155.547 46.5238L155.469 46.9224L155.675 46.9294C155.944 46.9435 156.204 46.9833 156.469 47.0319L156.733 47.0781L156.943 47.142C156.974 47.2171 156.995 47.2742 157.008 47.3246C157.01 47.3329 157.012 47.3411 157.013 47.3491C157.021 47.3551 157.029 47.3611 157.037 47.3672L157.022 47.4404C157.022 47.5055 157.008 47.5755 156.984 47.6804L156.949 47.8424L156.92 47.9653L156.787 47.9393L156.696 48.4042L156.364 48.3393L156.328 48.4573C156.303 48.4975 156.278 48.5299 156.252 48.5566L156.245 48.5921C156.206 48.609 156.177 48.6217 156.151 48.6323C156.076 48.6727 155.988 48.6928 155.874 48.7265C155.706 48.7951 155.548 48.8672 155.395 48.9514C155.388 48.9551 155.381 48.9589 155.374 48.9627C155.382 48.9905 155.39 49.0185 155.398 49.0471L155.305 49.167L155.77 49.2579C155.759 49.2654 155.748 49.2723 155.737 49.2788C155.747 49.2795 155.756 49.2802 155.766 49.281L155.77 49.2579L156.036 49.3099L156.208 49.1366C156.351 49.142 156.351 49.1421 156.51 49.1785L156.669 49.2129C156.806 49.2536 156.806 49.2536 156.925 49.346L156.899 49.4789C156.89 49.5366 156.88 49.5944 156.87 49.652C156.861 49.7097 156.85 49.7674 156.84 49.8251C156.83 49.8828 156.821 49.9405 156.811 49.9996C156.809 50.0064 156.808 50.0131 156.807 50.0199C156.798 50.0551 156.788 50.0882 156.778 50.1197C156.738 50.2704 156.695 50.3397 156.609 50.4507C156.595 50.4706 156.579 50.4909 156.562 50.5115C156.561 50.513 156.56 50.5145 156.559 50.516C156.546 50.5744 156.534 50.6106 156.511 50.6431C156.453 50.7603 156.363 50.8152 156.202 50.929C155.955 51.0525 155.702 51.1593 155.447 51.2642L155.269 51.3395C154.967 51.4631 154.967 51.4631 154.85 51.4924L154.775 51.4347L154.625 51.5863L154.382 51.6379C154.127 51.6934 154.011 51.7591 153.804 51.9084C153.778 51.919 153.752 51.9291 153.727 51.9389C153.748 51.9508 153.769 51.9628 153.791 51.9749L153.726 52.3071L153.984 52.3503C154.095 52.3701 154.206 52.39 154.317 52.41L154.488 52.4381L154.65 52.4678C154.725 52.4808 154.725 52.4808 154.801 52.4939C154.86 52.5172 154.86 52.5173 154.921 52.541C155.036 52.8167 155.001 53.0215 154.911 53.2979C154.771 53.5603 154.599 53.7092 154.361 53.8844L154.175 54.023C153.688 54.3527 153.688 54.3528 153.42 54.3515C153.384 54.3486 153.356 54.3463 153.332 54.3456C153.308 54.3487 153.283 54.3514 153.257 54.3537C153.257 54.3538 153.256 54.3539 153.256 54.354C153.192 54.3995 153.156 54.426 153.127 54.4501C153.121 54.4555 153.115 54.4613 153.109 54.4673L153.005 54.5805L152.931 54.5239C152.921 54.5301 152.91 54.5365 152.9 54.5427C152.677 54.671 152.439 54.7719 152.191 54.8395C152.103 54.8662 152.017 54.898 151.934 54.9336C151.922 54.9389 151.909 54.9443 151.897 54.9497L151.958 54.9966C151.894 55.0638 151.829 55.13 151.764 55.1958L151.655 55.3078C151.51 55.4154 151.433 55.4052 151.256 55.4111C151.123 55.4802 151.123 55.4804 151.001 55.5724L150.874 55.6621L150.78 55.7318C150.748 55.7072 150.716 55.6825 150.684 55.6575C150.668 55.6649 150.651 55.6732 150.632 55.6824C150.512 55.7409 150.429 55.818 150.348 55.9084C150.341 55.9164 150.334 55.9247 150.327 55.9329L150.316 55.9861L150.157 56.0929L151.115 56.4872L151.234 56.5796C151.146 57.2542 151.146 57.2543 150.93 57.4771L150.761 57.5907C150.644 57.7525 150.644 57.7526 150.563 57.8969C150.536 57.8951 150.512 57.8934 150.49 57.8919C150.431 57.9684 150.372 58.0449 150.312 58.1237L149.98 58.0587L150.001 57.9488L149.969 57.9734C149.972 58.0016 149.976 58.03 149.98 58.0587C150.104 58.1336 150.104 58.1336 150.232 58.1771C149.974 58.4163 149.974 58.4164 149.822 58.5108C149.735 58.5024 149.691 58.4982 149.65 58.4899C149.526 58.6489 149.389 58.7676 149.222 58.8934L149.067 59.0107L148.949 59.0988C148.945 59.0667 148.941 59.0394 148.939 59.0156C148.922 59.0362 148.903 59.0593 148.882 59.0857C148.878 59.0864 148.874 59.0868 148.87 59.0874C148.688 59.2852 148.485 59.4393 148.231 59.5963C148.134 59.658 148.037 59.7199 147.94 59.782L147.803 59.8694C147.64 59.9791 147.493 60.1028 147.347 60.234L147.255 60.1626C147.216 60.195 147.177 60.2272 147.137 60.2597C147.136 60.2602 147.136 60.2609 147.135 60.2614L147.388 60.3212C147.497 60.3477 147.606 60.3744 147.715 60.401L147.882 60.44L148.042 60.4794C148.09 60.4911 148.139 60.5028 148.189 60.5148C148.317 60.5619 148.318 60.5619 148.491 60.7337C148.457 61.0149 148.386 61.2612 148.268 61.518L148.202 61.505C148.084 61.7914 147.916 62.064 147.714 62.3051C147.7 62.326 147.684 62.3506 147.658 62.3903C147.585 62.4687 147.55 62.5068 147.508 62.5269C147.484 62.5503 147.46 62.5734 147.435 62.596L147.436 62.5971C147.431 62.6018 147.425 62.6064 147.419 62.6112C147.339 62.683 147.256 62.7504 147.17 62.8122C147.149 62.8281 147.127 62.8439 147.105 62.8598C147.075 62.8836 147.045 62.9076 147.014 62.932C146.955 62.9747 146.919 63 146.884 63.0213C146.852 63.0443 146.82 63.0675 146.788 63.091C146.763 63.1108 146.737 63.1307 146.712 63.1505L140.155 72.509C140.183 72.5378 140.21 72.5674 140.237 72.5981C140.24 72.6018 140.244 72.6054 140.247 72.6089C140.264 72.6269 140.278 72.6428 140.29 72.6574C140.295 72.6631 140.299 72.6688 140.303 72.6743C140.302 72.6675 140.299 72.6599 140.297 72.6515L140.537 72.8364L140.511 72.9694L140.311 72.9303C140.275 73.0483 140.275 73.0483 140.193 73.1831C140.046 73.2434 140.02 73.2537 139.907 73.2903C139.742 73.394 139.695 73.5245 139.591 73.73C139.458 73.9577 139.282 74.1053 139.083 74.2766L138.964 74.2092L138.927 74.2621C138.902 74.3022 138.877 74.3437 138.854 74.387C138.815 74.4526 138.777 74.5044 138.735 74.549C138.725 74.5651 138.711 74.5793 138.694 74.5947L137.774 75.9078C137.858 75.9908 137.937 76.089 138.016 76.2062L138.015 76.2082C138.033 76.2335 138.051 76.2594 138.069 76.2856L138.043 76.4184C138.003 76.4235 137.964 76.4264 137.926 76.4277C137.969 76.4456 138.009 76.462 138.096 76.4979C138.083 76.5152 138.07 76.5324 138.057 76.5496C138.066 76.5545 138.075 76.5595 138.083 76.5645C138.061 76.5737 138.043 76.5811 138.028 76.5873C137.955 76.6834 137.881 76.7784 137.806 76.872C137.806 76.8871 137.806 76.9043 137.806 76.9241C137.773 76.9474 137.74 76.97 137.707 76.9925C137.628 77.0869 137.547 77.1799 137.462 77.2707L137.384 77.3576C137.331 77.4291 137.286 77.4816 137.234 77.5241L137.198 77.564L137.071 77.7072C136.915 77.8775 136.753 78.0407 136.59 78.2038L136.411 78.393C136.247 78.5504 136.246 78.5505 136.021 78.6444C135.998 78.6408 135.977 78.6374 135.958 78.6344C135.986 78.6617 136.015 78.6892 136.044 78.7173C136.068 78.7442 136.091 78.769 136.112 78.7917C136.146 78.8182 136.181 78.8489 136.216 78.885C136.223 78.8982 136.229 78.9111 136.236 78.9235C136.415 79.0584 136.42 79.0653 136.475 79.1471C136.437 79.5452 136.343 79.8692 136.169 80.1833L135.955 82.2627L135.957 82.288L135.996 82.2957L135.963 82.4148L136.073 84.5359L135.815 84.8424C135.949 84.7329 136.031 84.6325 136.125 84.4595C136.152 84.6717 136.152 84.6718 136.025 84.8582C135.875 85.0313 135.875 85.0314 135.716 85.1383L135.616 85.0816L135.973 86.2235L135.986 86.2259L135.981 86.2494L136.019 86.3703L136.159 86.3977L136.109 86.6561L136.112 86.6688L136.28 86.8354C136.146 87.2143 136.146 87.2143 136.056 87.2745C136.048 87.2731 136.039 87.2714 136.03 87.27L135.428 88.0512C135.444 88.0762 135.46 88.1012 135.476 88.1266L135.437 88.3259L135.355 88.31L135.271 89.3283L135.508 89.3746L135.482 89.5076L135.88 89.5855C135.661 89.6727 135.526 89.655 135.34 89.5836L136.078 91.7438L136.088 91.6957C136.208 91.7881 136.208 91.7881 136.242 91.9198C136.222 92.0668 136.222 92.0669 136.087 92.1886C135.848 92.3089 135.751 92.2707 135.5 92.1885L135.292 92.1235C135.12 92.0583 135.12 92.0582 135.001 91.9658L134.96 92.173L135.733 93.8352C135.809 93.854 135.831 93.8794 135.948 94.0182C136.092 94.2822 136.087 94.4294 136.047 94.723C136.04 94.7259 136.033 94.7282 136.026 94.7309L136.035 94.7946L135.908 94.7698C135.674 94.8296 135.484 94.7763 135.224 94.7L135.051 94.6022L134.731 94.5395L134.691 94.5558L134.732 94.6483C134.929 94.9185 135.06 95.1915 135.114 95.5258L135.406 96.1979C135.439 96.2197 135.465 96.2581 135.522 96.3409C135.819 96.8763 135.819 96.8764 135.813 97.1048C135.773 97.2261 135.773 97.2262 135.66 97.4068C135.462 97.4615 135.313 97.4124 135.116 97.3692L135.023 97.489L134.983 97.3432L134.651 97.2782C134.618 97.348 134.585 97.4177 134.552 97.4889L134.595 97.5858C134.596 97.5721 134.597 97.5582 134.599 97.544C134.764 97.7531 134.812 97.9649 134.88 98.22C134.891 98.2479 134.902 98.2757 134.913 98.3034L135.274 99.1183C135.31 99.1524 135.333 99.1756 135.349 99.1992C135.433 99.288 135.479 99.3737 135.522 99.5184C135.478 99.7252 135.478 99.7252 135.378 99.904C135.298 99.9432 135.235 99.9638 135.175 99.9721L134.854 100.47L134.909 101.358C134.921 101.374 134.934 101.39 134.946 101.406L134.92 101.539L135.053 101.565C135.16 101.837 135.119 102.044 135.043 102.322C134.961 102.377 134.921 102.404 134.869 102.413L134.55 103.548C134.565 103.608 134.575 103.673 134.582 103.75C134.621 104.034 134.719 104.11 134.931 104.301C134.911 104.517 134.911 104.517 134.853 104.699L134.734 104.607C134.725 104.429 134.725 104.429 134.732 104.262L134.413 104.13L134.411 104.041L133.357 107.789C133.35 107.926 133.335 108.062 133.319 108.202L133.292 108.456C133.25 108.663 133.25 108.663 133.091 108.77C133.088 108.77 133.084 108.77 133.08 108.77L132.796 109.781C132.807 109.772 132.819 109.762 132.83 109.753C132.833 109.757 132.837 109.76 132.84 109.763C132.842 109.762 132.844 109.761 132.847 109.76C132.884 109.742 132.926 109.727 132.976 109.713C133.062 109.803 133.062 109.803 133.136 109.951L133.128 109.99C133.134 110.02 133.136 110.053 133.137 110.091C133.112 110.227 133.086 110.363 133.059 110.5C133.083 110.637 133.094 110.665 133.166 110.854C133.168 110.86 133.17 110.866 133.172 110.872C133.228 110.975 133.271 111.082 133.309 111.205C133.32 111.252 133.329 111.291 133.337 111.323C133.383 111.394 133.448 111.447 133.581 111.556C133.659 111.662 133.659 111.662 133.741 111.794L133.859 111.96C133.954 112.112 133.954 112.112 133.928 112.245L134.074 112.338C134.235 112.443 134.235 112.443 134.354 112.535L134.302 112.801L134.435 112.827C134.461 112.908 134.477 112.972 134.485 113.031L134.529 113.052C134.515 113.085 134.501 113.117 134.486 113.15C134.478 113.227 134.452 113.306 134.406 113.416C134.353 113.503 134.322 113.554 134.292 113.596C134.287 113.605 134.283 113.615 134.279 113.624C134.276 113.624 134.273 113.624 134.27 113.624C134.269 113.626 134.268 113.627 134.267 113.628L138.979 116.393C139.235 116.522 139.478 116.672 139.721 116.827L141.503 117.874L145.762 120.466C145.781 120.472 145.8 120.477 145.819 120.482C145.912 120.508 146.005 120.534 146.098 120.561C147.239 120.879 148.392 121.159 149.544 121.44C149.948 121.539 150.352 121.638 150.756 121.738C151.759 121.933 151.956 121.996 152.466 122.195C152.507 122.21 152.549 122.226 152.591 122.243L152.578 122.308C152.622 122.317 152.666 122.326 152.71 122.336L152.71 122.338C153.012 122.405 153.315 122.474 153.616 122.545C153.717 122.569 153.717 122.569 153.82 122.593C154.093 122.658 154.363 122.726 154.63 122.815C154.888 122.901 155.148 122.969 155.412 123.032C155.516 123.057 155.62 123.083 155.723 123.108C155.778 123.121 155.832 123.134 155.887 123.148C156.974 123.413 158.049 123.704 159.12 124.025C159.553 124.155 159.988 124.28 160.423 124.406C161.305 124.661 162.184 124.922 163.058 125.195C163.076 125.199 163.094 125.204 163.112 125.209L163.127 125.133L163.924 125.289C163.932 125.347 163.939 125.404 163.947 125.463C164.124 125.52 164.3 125.579 164.476 125.64L164.496 125.539C165.325 125.767 165.325 125.767 165.665 125.906L165.639 126.039C165.621 126.036 165.604 126.033 165.586 126.03C165.642 126.049 165.698 126.069 165.754 126.089C165.761 126.091 165.768 126.093 165.774 126.096C165.815 126.11 165.855 126.124 165.896 126.139C165.947 126.157 165.998 126.175 166.049 126.194C166.304 126.263 166.544 126.361 166.796 126.472L166.795 126.478C167.069 126.587 167.341 126.7 167.612 126.815C167.618 126.817 167.624 126.818 167.63 126.82C167.819 126.879 167.82 126.879 168.006 126.984L167.98 127.117C168.036 127.136 168.036 127.136 168.093 127.155C168.526 127.3 168.957 127.448 169.388 127.598C169.389 127.598 169.39 127.598 169.39 127.599C169.394 127.6 169.398 127.601 169.402 127.603L169.574 127.662C169.588 127.667 169.602 127.672 169.617 127.677C169.736 127.715 169.855 127.757 169.975 127.801C170.023 127.818 170.072 127.835 170.122 127.853C170.192 127.879 170.253 127.903 170.309 127.93C170.398 127.971 170.467 128.018 170.534 128.096C170.537 128.098 170.541 128.1 170.545 128.102C170.678 128.158 170.811 128.214 170.943 128.271L171.167 128.365C171.252 128.41 171.32 128.451 171.381 128.497C171.377 128.489 171.374 128.48 171.37 128.471C171.615 128.598 171.796 128.716 171.969 128.933L172.102 128.959L172.063 129.158C172.045 129.164 172.027 129.169 172.01 129.175C172.006 129.181 172.003 129.188 171.999 129.195C171.951 129.281 171.892 129.357 171.798 129.451L171.599 129.412L171.414 129.652L171.262 129.618C171.077 129.577 171.077 129.577 170.87 129.614L170.711 129.545C170.495 129.474 170.371 129.465 170.149 129.469C169.35 129.471 168.556 129.23 167.783 129.049C167.675 129.024 167.675 129.024 167.564 128.998C167.474 128.977 167.385 128.955 167.295 128.933L163.95 128.329L163.937 128.396L163.793 128.395L163.605 128.396L163.418 128.395C163.335 128.396 163.291 128.396 163.246 128.399C163.237 128.4 163.228 128.401 163.218 128.403C163.184 128.41 163.145 128.42 163.083 128.436C163.051 128.441 163.018 128.445 162.985 128.449C162.977 128.45 162.968 128.451 162.96 128.451C162.952 128.452 162.943 128.453 162.935 128.454C162.182 128.521 161.299 128.235 160.58 128.093C160.496 128.076 160.412 128.06 160.328 128.043C160.32 128.042 160.313 128.04 160.306 128.039C160.212 128.021 160.119 128.003 160.025 127.985C160.021 127.984 160.016 127.983 160.011 127.982C160.004 127.98 159.997 127.979 159.99 127.978C158.737 127.733 158.341 127.656 158.005 127.532C157.99 127.528 157.975 127.524 157.959 127.52C157.828 127.486 157.707 127.457 157.584 127.438C157.526 127.448 157.464 127.444 157.367 127.438L157.222 127.43C157.183 127.421 157.156 127.415 157.134 127.406C157.122 127.405 157.11 127.404 157.098 127.402L156.991 127.244C156.601 127.1 156.213 127.02 155.805 126.953C155.798 126.97 155.792 126.987 155.785 127.005C155.788 127.006 155.792 127.008 155.795 127.01L155.664 127.329L155.797 127.355C155.855 127.474 155.855 127.474 155.877 127.646C155.788 127.838 155.725 127.969 155.575 128.064C155.536 128.089 155.491 128.113 155.438 128.136C155.339 128.163 155.241 128.187 155.141 128.208L154.979 128.361L154.978 128.367L158.166 128.991L158.075 129.456L157.942 129.43L157.903 129.63L157.763 129.662C157.603 129.697 157.603 129.697 157.519 129.83C157.376 129.856 157.376 129.856 157.196 129.871L157.006 129.887C156.942 129.891 156.878 129.895 156.815 129.899C156.815 129.899 156.815 129.9 156.816 129.9C156.808 129.9 156.801 129.9 156.794 129.9C156.616 129.911 156.437 129.921 156.258 129.929L156.219 130.128C156.22 130.128 156.22 130.129 156.221 130.129C156.31 130.245 156.31 130.246 156.433 130.359C156.502 130.432 156.557 130.5 156.604 130.568C156.721 130.721 156.813 130.878 156.909 131.061C156.974 131.103 157.002 131.139 157.1 131.266C157.102 131.442 157.08 131.604 157.035 131.765C157.032 131.786 157.028 131.807 157.024 131.829C157.008 131.868 156.996 131.898 156.985 131.922C156.976 131.947 156.967 131.972 156.957 131.997C156.77 132.167 156.758 132.177 156.593 132.25C156.577 132.276 156.562 132.303 156.547 132.331L156.672 132.398C156.922 132.578 157.107 132.797 157.306 133.031L157.43 133.168C157.641 133.414 157.763 133.573 157.769 133.902C157.797 134.363 158.171 134.659 158.473 134.974C158.59 135.101 158.696 135.234 158.801 135.371L158.904 135.506C158.971 135.597 159.037 135.689 159.102 135.781C159.254 135.992 159.428 136.177 159.617 136.344C159.638 136.361 159.66 136.377 159.683 136.393L159.681 136.4C160.016 136.685 160.394 136.921 160.774 137.159C162.168 138.031 162.168 138.031 162.398 138.373C162.375 138.506 162.349 138.639 162.321 138.77C162.349 138.782 162.378 138.794 162.407 138.806C162.485 138.838 162.562 138.871 162.639 138.904L162.613 139.036L162.854 139.099C162.933 139.124 163.01 139.152 163.086 139.183C163.092 139.185 163.097 139.188 163.102 139.19L163.198 139.22C163.196 139.223 163.195 139.226 163.194 139.229C163.208 139.235 163.222 139.241 163.236 139.248C163.508 139.372 163.764 139.526 164.026 139.679L164.241 139.803C164.383 139.885 164.524 139.967 164.665 140.049C164.806 140.129 164.947 140.207 165.09 140.283C165.144 140.312 165.198 140.341 165.254 140.37C165.297 140.391 165.339 140.413 165.379 140.436C165.412 140.453 165.445 140.47 165.478 140.487C165.566 140.552 165.599 140.576 165.626 140.624C165.627 140.624 165.627 140.625 165.628 140.626C165.638 140.637 165.648 140.648 165.657 140.659C165.662 140.663 165.667 140.666 165.673 140.67C165.673 140.673 165.673 140.676 165.674 140.679C165.692 140.701 165.709 140.724 165.726 140.749L165.7 140.882C165.287 140.815 164.905 140.723 164.519 140.581C164.463 140.561 164.407 140.54 164.351 140.518C164.333 140.511 164.315 140.504 164.297 140.498C164.211 140.468 164.124 140.439 164.038 140.412C163.745 140.322 163.446 140.251 163.149 140.176L163.154 140.148C163.11 140.134 163.066 140.12 163.022 140.105C162.936 140.081 162.849 140.056 162.763 140.032L162.766 140.02C162.589 139.959 162.414 139.897 162.239 139.832C161.861 139.714 161.495 139.563 161.118 139.408C161.013 139.365 160.908 139.323 160.803 139.28C160.517 139.164 160.231 139.046 159.945 138.928C159.899 138.909 159.873 138.898 159.849 138.889C159.841 138.886 159.833 138.884 159.825 138.882C159.843 138.892 159.861 138.904 159.879 138.915L159.866 138.982C159.518 138.928 159.265 138.836 158.962 138.667L158.975 138.6C159.096 138.62 159.206 138.64 159.31 138.667C159.309 138.666 159.308 138.666 159.307 138.665C159.307 138.663 159.306 138.661 159.306 138.658C159.211 138.618 159.115 138.577 159.02 138.536C158.958 138.509 158.896 138.483 158.834 138.458C158.562 138.366 158.297 138.262 158.031 138.14L158.032 138.135C157.931 138.096 157.831 138.057 157.73 138.018C157.667 137.994 157.605 137.97 157.54 137.945C157.226 137.825 156.911 137.704 156.596 137.585C156.454 137.531 156.313 137.476 156.172 137.42L156.157 137.497L155.608 137.343C155.439 137.288 155.439 137.288 155.319 137.195L155.342 137.079C155.244 137.036 155.147 136.994 155.049 136.95C155.077 136.987 155.103 137.032 155.133 137.09C155.016 137.061 154.9 137.031 154.784 137L154.588 136.949C154.4 136.874 154.346 136.819 154.255 136.642C154.35 136.665 154.444 136.69 154.538 136.715C154.222 136.572 153.902 136.441 153.579 136.314C153.302 136.205 153.027 136.093 152.752 135.979L152.78 136.077C152.374 135.969 152.052 135.824 151.703 135.591L151.712 135.543C151.588 135.491 151.464 135.439 151.34 135.386C151.147 135.305 150.955 135.225 150.763 135.144C149.995 134.823 149.53 134.628 149.198 134.484L149.163 134.473C149.164 134.472 149.166 134.471 149.167 134.47C148.682 134.258 148.484 134.155 147.999 133.899C147.767 133.782 147.535 133.687 147.292 133.594C147.246 133.576 147.2 133.558 147.152 133.54C147.114 133.525 147.077 133.511 147.038 133.496C146.569 133.31 146.117 133.085 145.661 132.869C145.573 132.828 145.485 132.786 145.397 132.745C145.238 132.678 145.08 132.609 144.921 132.539L144.924 132.524C144.706 132.423 144.487 132.322 144.268 132.221C144.214 132.196 144.159 132.171 144.104 132.146C144.055 132.124 144.005 132.101 143.955 132.078C143.854 132.032 143.753 131.986 143.652 131.94C143.669 131.964 143.688 131.991 143.711 132.026C143.261 131.903 142.847 131.745 142.427 131.542C142.372 131.516 142.316 131.49 142.26 131.462C141.716 131.202 141.189 130.928 140.679 130.605L140.701 130.493C140.675 130.479 140.649 130.466 140.623 130.452C140.107 130.323 139.615 130.135 139.176 129.828L139.153 129.643C138.701 129.464 138.237 129.325 137.764 129.209C137.407 129.141 137.05 129.073 136.694 129.005C136.54 128.976 136.387 128.947 136.233 128.918C136.013 128.876 135.792 128.834 135.572 128.791C135.504 128.779 135.435 128.766 135.364 128.753C135.3 128.74 135.236 128.728 135.17 128.715C135.153 128.712 135.135 128.708 135.118 128.705C135.16 128.728 135.201 128.754 135.243 128.783L135.23 128.849L131.711 128.16C131.734 128.119 131.758 128.077 131.782 128.035C131.594 128.014 131.397 127.998 131.166 127.983C131.174 127.986 131.183 127.988 131.192 127.99L131.087 128.176C130.744 128.198 130.423 128.123 130.089 128.054L129.912 128.019L129.48 127.931L129.335 127.902C129.148 127.883 128.961 127.853 128.768 127.817C128.891 127.852 129.013 127.89 129.135 127.932L129.042 128.052L126.386 127.532C126.407 127.495 126.428 127.457 126.45 127.419C126.336 127.443 126.222 127.468 126.108 127.492C126.004 127.514 125.902 127.543 125.8 127.573C125.523 127.597 125.29 127.5 125.031 127.405L123.358 127.147C123.343 127.173 123.328 127.2 123.313 127.227C123.661 127.21 123.988 127.25 124.354 127.342C124.16 127.404 124.073 127.425 123.868 127.38C123.628 127.338 123.518 127.395 123.293 127.479C123.104 127.455 123.104 127.455 122.961 127.414L122.944 127.353C122.925 127.353 122.904 127.352 122.881 127.352C122.748 127.441 122.733 127.444 122.493 127.495C122.246 127.522 122.246 127.522 122.152 127.67L122.02 127.644L122.053 127.47C121.995 127.495 121.93 127.525 121.855 127.56C121.843 127.575 121.832 127.59 121.82 127.605L121.937 127.692C121.943 127.697 121.949 127.701 121.954 127.706C121.955 127.706 121.955 127.707 121.956 127.707C121.99 127.733 122.013 127.752 122.032 127.769C122.032 127.769 122.032 127.769 122.032 127.77C122.067 127.801 122.08 127.819 122.113 127.869C122.09 128.002 122.064 128.135 122.035 128.268L121.881 128.255C121.683 128.244 121.5 128.244 121.322 128.259C121.317 128.26 121.312 128.26 121.308 128.261C121.32 128.264 121.333 128.267 121.345 128.27C121.217 128.437 121.096 128.447 120.895 128.501L120.699 128.556C120.553 128.587 120.528 128.591 120.408 128.569C120.412 128.579 120.415 128.588 120.419 128.598C120.485 128.792 120.485 128.792 120.459 128.925L120.645 129.03C120.622 129.164 120.596 129.297 120.567 129.429C120.488 129.482 120.487 129.482 120.256 129.454C120.197 129.449 120.141 129.448 120.085 129.45C120.07 129.45 120.055 129.451 120.04 129.452C119.822 129.466 119.622 129.528 119.403 129.602C119.411 129.608 119.418 129.614 119.426 129.62C119.396 129.62 119.365 129.62 119.335 129.62C119.301 129.627 119.275 129.632 119.252 129.633C119.232 129.638 119.211 129.643 119.191 129.648C119.102 129.669 119.014 129.686 118.924 129.703C118.901 129.707 118.879 129.711 118.856 129.715C118.855 129.746 118.855 129.773 118.855 129.797C118.853 129.967 118.858 129.994 118.898 130.206C118.895 130.222 118.893 130.238 118.89 130.253C118.889 130.26 118.888 130.267 118.887 130.273C118.862 130.429 118.827 130.582 118.794 130.738L118.677 130.763C118.583 130.784 118.49 130.806 118.397 130.828C118.389 130.83 118.381 130.832 118.374 130.834L118.423 130.872C118.177 131.064 117.99 131.118 117.681 131.141C117.709 131.092 117.734 131.053 117.76 131.02C117.698 131.036 117.639 131.047 117.58 131.055L117.419 131.474L117.47 131.513C117.502 131.762 117.467 131.948 117.406 132.191C117.206 132.326 117.098 132.307 116.859 132.299L116.651 132.293L116.491 132.287C116.527 132.259 116.562 132.233 116.595 132.211L116.311 132.319C116.316 132.338 116.321 132.356 116.332 132.394C116.304 132.406 116.279 132.416 116.257 132.425C116.136 132.474 116.097 132.482 116 132.466L115.925 132.667C115.926 132.677 115.926 132.688 115.927 132.699C115.933 132.802 115.932 132.899 115.925 132.994C115.924 133.005 115.923 133.016 115.922 133.027C115.922 133.042 115.923 133.058 115.923 133.073L115.917 133.072C115.917 133.078 115.916 133.083 115.916 133.088C115.901 133.214 115.877 133.339 115.845 133.472L115.59 133.431C115.345 133.408 115.135 133.448 114.921 133.514C114.832 133.552 114.743 133.585 114.652 133.608C114.637 133.613 114.622 133.619 114.607 133.624C114.566 133.636 114.535 133.645 114.507 133.652C114.538 133.667 114.575 133.687 114.625 133.716C114.294 133.866 114.221 133.899 114.099 133.886C114.099 133.887 114.1 133.888 114.1 133.889C114.108 133.939 114.115 133.988 114.121 134.037C114.152 134.226 114.167 134.394 114.16 134.564C114.162 134.596 114.163 134.628 114.164 134.661C114.161 134.659 114.158 134.657 114.155 134.655C114.144 134.783 114.122 134.914 114.086 135.059L113.994 135.179C113.849 135.177 113.849 135.177 113.671 135.155C113.591 135.146 113.512 135.138 113.433 135.131L113.348 135.159C113.375 135.172 113.404 135.189 113.437 135.208L112.88 135.369C112.732 135.404 112.711 135.409 112.625 135.393L112.493 135.436L112.495 135.438L112.323 135.611L112.191 135.585L112.035 136.382L111.968 136.369C111.992 136.216 112.018 136.063 112.045 135.91L112.088 135.652L112.115 135.559L112.056 135.578L112.045 135.635C112.028 135.727 112.011 135.818 111.994 135.909L111.968 136.046C111.876 136.533 111.876 136.533 111.77 136.676C111.627 136.715 111.627 136.715 111.459 136.727C111.241 136.744 111.115 136.766 110.908 136.852L110.743 136.838L110.551 136.902C110.572 136.912 110.594 136.922 110.617 136.933C110.442 137.017 110.268 137.101 110.089 137.188L110.039 137.443L110.142 137.523C110.151 137.504 110.159 137.485 110.168 137.466L110.234 137.479L110.078 138.276L109.884 138.238L109.878 138.265L109.86 138.276L109.76 138.49L109.482 138.504L109.484 138.501L109.404 138.549L109.402 138.558L109.734 138.623L109.775 138.769L109.219 138.66L108.446 139.123C108.451 139.126 108.457 139.13 108.462 139.133L108.314 139.207C108.078 139.401 108.052 139.572 107.974 139.865L107.908 139.852C107.92 139.768 107.933 139.684 107.946 139.6C107.944 139.608 107.942 139.617 107.939 139.625C107.897 139.764 107.852 139.902 107.802 140.038L107.656 140.079C107.687 139.859 107.736 139.676 107.808 139.505L107.489 139.696L105.813 140.353L105.808 140.381L105.866 140.418C105.837 140.426 105.816 140.432 105.797 140.436L105.499 141.959L105.593 141.814L105.713 141.906C105.635 142.124 105.602 142.217 105.571 142.268C105.568 142.275 105.565 142.283 105.562 142.29C105.564 142.291 105.566 142.291 105.568 142.292L105.437 142.611L105.555 142.358L105.622 142.371L105.544 142.77L105.345 142.731L105.299 142.877C105.197 143.082 105.091 143.151 104.895 143.264L104.669 143.012C104.654 143.032 104.645 143.044 104.637 143.055C104.636 143.058 104.634 143.062 104.633 143.066C104.576 143.175 104.565 143.194 104.476 143.257C104.441 143.295 104.399 143.338 104.312 143.425C104.184 143.391 104.059 143.351 103.936 143.307C103.675 143.219 103.418 143.121 103.161 143.019L102.711 143.12L102.72 143.459C102.52 143.42 102.52 143.42 102.401 143.327L102.427 143.195L102.409 143.188L102.374 143.196L102.069 144.757C102.101 144.807 102.129 144.863 102.155 144.935C102.148 145.026 102.136 145.116 102.121 145.204L102.236 145.227L102.202 145.376L102.159 145.574L102.116 145.769C102.092 145.962 102.103 146.071 102.174 146.249C102.236 146.328 102.264 146.363 102.296 146.397C102.313 146.405 102.33 146.413 102.347 146.421L102.342 146.444C102.358 146.46 102.377 146.478 102.4 146.501L102.308 146.62C102.333 146.718 102.361 146.815 102.389 146.912C102.406 147.067 102.406 147.067 102.403 147.191C102.277 147.276 102.161 147.237 102.013 147.223L101.844 147.207L101.713 147.194L101.622 147.659L101.489 147.633L101.478 147.473C101.451 147.377 101.417 147.307 101.375 147.248C101.368 147.253 101.362 147.257 101.355 147.262L100.99 146.959L99.7534 147.605L100.703 149.184L100.725 149.07C100.945 149.042 101.007 149.05 101.19 149.161L101.229 149.304C101.249 149.308 101.271 149.314 101.297 149.32L101.404 149.479C101.345 149.648 101.345 149.649 101.272 149.798C101.119 149.721 101.119 149.721 100.966 149.6C100.946 149.415 100.946 149.415 100.965 149.255L100.859 149.442C100.856 149.438 100.854 149.434 100.851 149.43L101.158 149.94C101.186 149.959 101.217 149.982 101.256 150.011C101.368 150.205 101.351 150.348 101.328 150.568L100.863 150.477L100.758 150.663C100.714 150.635 100.676 150.609 100.644 150.584C100.663 150.615 100.683 150.647 100.703 150.679L100.785 150.876L100.787 151.221L100.973 151.326C100.924 151.437 100.897 151.498 100.874 151.537C100.868 151.551 100.861 151.565 100.855 151.579C100.851 151.579 100.847 151.579 100.843 151.58C100.826 151.598 100.806 151.612 100.775 151.633C100.723 151.619 100.671 151.605 100.62 151.591C100.605 151.592 100.591 151.593 100.576 151.594L100.579 151.58C100.44 151.542 100.302 151.501 100.163 151.46C100.029 151.421 99.9165 151.392 99.8033 151.39C99.7738 151.404 99.743 151.413 99.71 151.42L99.2221 153.914L99.285 153.962C99.266 154.107 99.2409 154.239 99.2066 154.363L99.168 154.56C99.1589 154.561 99.1497 154.561 99.1406 154.562C99.1033 154.656 99.0588 154.747 99.0049 154.835C98.9852 154.89 98.9652 154.945 98.9442 154.999C98.9121 155.008 98.8942 155.013 98.8779 155.018C98.8233 155.087 98.7619 155.157 98.6929 155.226C98.6457 155.335 98.603 155.447 98.5633 155.559C98.4446 155.876 98.301 156.142 98.1139 156.424L97.9811 156.398L97.7557 156.491C97.6739 156.652 97.6739 156.652 97.6243 156.811L97.4915 156.785L97.5161 156.307L97.5078 156.307L97.2436 156.613C97.2414 156.848 97.222 157.073 97.1852 157.301C97.178 157.346 97.17 157.39 97.1614 157.436C97.1603 157.442 97.1592 157.447 97.1581 157.453C97.1546 157.472 97.1508 157.49 97.1471 157.508C97.1459 157.514 97.1448 157.519 97.1437 157.525C97.14 157.543 97.1362 157.56 97.1323 157.578C97.1307 157.585 97.1293 157.593 97.1277 157.6C97.1221 157.625 97.1163 157.65 97.1103 157.676L96.9239 157.571L96.9379 157.434L96.9738 157.075C96.9778 157.022 96.9805 156.968 96.9825 156.915L96.9367 156.968L95.7348 160.177C95.8335 160.324 95.8331 160.328 95.8128 160.499L95.7689 160.699L95.7256 160.9L95.6907 161.054L95.9289 160.894L96.0488 160.987L95.692 161.4L95.5592 161.374L95.679 161.466C95.5717 161.525 95.4643 161.584 95.3554 161.643C95.3359 161.682 95.3242 161.737 95.3048 161.831L95.2643 162.088L95.2215 162.345C95.2174 162.373 95.2133 162.401 95.2092 162.428C95.2123 162.468 95.2147 162.508 95.2164 162.548L95.2588 162.556C95.2321 162.811 95.2051 163.066 95.1781 163.321L95.1552 163.541L95.1328 163.751C95.1261 163.815 95.1192 163.879 95.1123 163.945C95.0844 164.179 95.0319 164.404 94.9756 164.632L94.833 165.211C94.7934 165.371 94.7538 165.532 94.7141 165.692L94.6475 165.679C94.6905 165.942 94.6132 166.066 94.465 166.282L94.3533 166.446L94.2662 166.57C94.2607 166.528 94.2577 166.487 94.2572 166.449C94.2218 166.51 94.1837 166.569 94.1436 166.627C94.1442 166.633 94.1449 166.639 94.1454 166.644C94.1561 166.763 94.1348 166.791 94.0216 166.941C93.95 167.018 93.8774 167.094 93.8042 167.17L93.6602 167.324L93.506 167.482L93.3606 167.632C93.3175 167.664 93.2793 167.688 93.2433 167.707C93.2332 167.718 93.2221 167.73 93.2094 167.743C93.1751 167.746 93.1471 167.748 93.1233 167.75C93.0508 167.764 92.973 167.759 92.8643 167.745L92.7445 167.652L92.8095 167.32L92.5238 167.399L92.483 167.571C92.411 167.931 92.3524 168.292 92.3022 168.657C92.2954 168.706 92.2885 168.755 92.2815 168.805C92.2476 169.057 92.2294 169.299 92.2346 169.553C92.2273 169.72 92.2191 169.886 92.2101 170.053L92.1962 170.312L92.1854 170.509L92.0896 170.491C92.0868 170.52 92.0839 170.55 92.0812 170.58C92.0766 170.638 92.0719 170.697 92.0673 170.757C92.0715 170.736 92.0757 170.716 92.08 170.696C92.1776 170.958 92.1799 171.282 92.1332 171.611C92.0907 171.952 91.9941 172.299 91.8743 172.608C91.8527 172.668 91.831 172.727 91.8097 172.781C91.7909 172.819 91.7717 172.856 91.7524 172.893C91.73 172.94 91.7072 172.986 91.6842 173.031C91.405 173.543 91.3578 173.629 91.2135 173.781C91.1839 173.837 91.1681 173.848 91.1108 173.886C90.9377 173.865 90.9341 173.865 90.7879 173.824C90.7815 173.842 90.7743 173.863 90.7658 173.888L90.8856 173.98C90.8234 173.997 90.7686 174.003 90.7172 173.999C90.6961 173.999 90.6748 173.997 90.6536 173.995C90.6438 173.994 90.6338 173.992 90.6239 173.991C90.6141 173.989 90.6042 173.988 90.5943 173.986C90.5646 173.98 90.5348 173.973 90.5051 173.964C90.4853 173.959 90.4655 173.953 90.4458 173.946C90.4261 173.939 90.4063 173.932 90.3867 173.925C90.3769 173.921 90.367 173.917 90.3572 173.913C90.2204 173.859 90.0875 173.788 89.9687 173.732C89.8376 173.593 89.8047 173.558 89.7521 173.488C89.7477 173.482 89.7432 173.476 89.7384 173.469C89.6991 173.442 89.6688 173.422 89.6434 173.407C89.5884 173.414 89.5331 173.421 89.4766 173.429C89.4478 173.561 89.4219 173.694 89.3986 173.827L89.452 173.907C89.44 174.02 89.4236 174.132 89.4054 174.244L89.3727 174.451L89.3373 174.669C89.3145 174.81 89.2918 174.951 89.2695 175.093C89.2593 175.156 89.249 175.219 89.2385 175.283C89.2118 175.456 89.2117 175.456 89.2468 175.66C89.2333 175.835 89.2136 176.008 89.1941 176.183C89.1745 176.338 89.1745 176.338 89.2236 176.483C89.1932 176.523 89.1628 176.562 89.1316 176.603L89.264 176.629C89.2657 176.743 89.2659 176.856 89.2645 176.97C89.2712 177.008 89.2845 177.043 89.3098 177.11C89.3429 177.253 89.3368 177.36 89.3139 177.484C89.3101 177.505 89.3058 177.526 89.3011 177.548C89.2965 177.57 89.2914 177.593 89.2861 177.617L89.2474 177.796L89.2161 177.931L89.3489 177.957C89.4827 178.404 89.4342 178.757 89.3408 179.21C89.32 179.312 89.3201 179.312 89.299 179.416C89.1908 179.911 89.0537 180.331 88.7365 180.734L88.6112 180.897C88.5907 180.92 88.5705 180.943 88.5504 180.965C88.5508 180.968 88.5511 180.971 88.5515 180.974C88.5394 180.984 88.5277 180.993 88.5164 181.002C88.4273 181.096 88.3364 181.178 88.2209 181.254C87.8176 181.275 87.441 181.03 87.1439 180.767C87.1226 180.733 87.1032 180.7 87.0851 180.667C87.0691 180.648 87.053 180.629 87.037 180.609C87.0437 180.61 87.0504 180.611 87.057 180.613C87.0458 180.59 87.035 180.568 87.0247 180.545C86.9631 180.553 86.9012 180.561 86.8377 180.57L86.8033 180.614L86.8039 180.735L86.8651 180.782C86.8628 180.902 86.8628 180.902 86.8421 181.053C86.806 181.39 86.841 181.697 86.8967 182.03C86.8678 182.049 86.8388 182.069 86.8095 182.088L86.8102 182.276C86.8188 182.33 86.828 182.384 86.8378 182.439C86.8693 182.638 86.8761 182.835 86.881 183.036L86.8873 183.259C86.8879 183.312 86.888 183.364 86.8878 183.417C86.8878 183.43 86.8875 183.443 86.8874 183.456C86.8924 183.512 86.9011 183.556 86.9265 183.682C86.933 183.762 86.9334 183.841 86.9294 183.918C86.9325 183.92 86.9358 183.921 86.939 183.923C86.9408 183.916 86.9425 183.909 86.9443 183.902C86.9527 183.914 86.9603 183.927 86.9677 183.94L87.0641 183.994C87.0645 184.061 87.064 184.127 87.0624 184.191C87.0622 184.198 87.062 184.205 87.0618 184.212C87.1032 184.461 87.0555 184.739 87.0259 184.983C86.9387 185.306 86.8152 185.612 86.6871 185.921L86.6207 185.908L86.646 185.778C86.5734 186.068 86.4628 186.318 86.2426 186.584C86.1466 186.64 86.0672 186.668 85.9904 186.678C85.9892 186.679 85.9879 186.68 85.9867 186.681C85.9868 186.68 85.987 186.679 85.9871 186.679C85.8661 186.694 85.7506 186.665 85.5849 186.628C85.4675 186.581 85.4566 186.577 85.3759 186.458C85.336 186.45 85.2999 186.443 85.2672 186.434C85.2321 186.425 85.2007 186.415 85.1719 186.405C85.1336 186.391 85.1 186.375 85.0687 186.356C85.0601 186.351 85.0519 186.345 85.0436 186.34L85.0002 186.345L84.9654 186.279C84.9119 186.231 84.8567 186.171 84.7853 186.093C84.7786 186.083 84.772 186.073 84.7654 186.064C84.7645 186.063 84.7635 186.062 84.7626 186.061C84.753 186.047 84.7443 186.032 84.7359 186.019C84.7233 185.999 84.7109 185.98 84.6986 185.96C84.6935 185.954 84.6882 185.949 84.6831 185.943C84.6808 185.936 84.6785 185.93 84.6764 185.925C84.6683 185.911 84.6601 185.898 84.6521 185.885C84.635 185.856 84.6182 185.828 84.6017 185.799C84.5479 185.705 84.4971 185.609 84.4491 185.511C84.4424 185.501 84.4356 185.49 84.4289 185.479C84.2344 185.073 84.1045 184.8 84.0212 184.6L83.9742 184.631L84.0115 184.794C84.0211 184.855 84.0277 184.897 84.0306 184.934C84.0307 184.935 84.0307 184.936 84.0307 184.937C84.0345 184.954 84.0382 184.972 84.0421 184.989L84.0187 185.109C84.0139 185.159 84.0062 185.208 83.9966 185.259C84.0558 185.292 84.1152 185.326 84.1763 185.361L84.0945 185.779C84.0858 185.966 84.1281 186.12 84.1935 186.33C84.2965 186.852 84.235 187.253 84.0534 187.751L84.1862 187.777C84.1666 187.887 84.1464 187.996 84.1261 188.106L84.0924 188.291C84.0562 188.441 84.0562 188.441 83.9768 188.495C83.9764 188.496 83.9759 188.497 83.9756 188.498C83.9213 188.647 83.8691 188.796 83.8192 188.947L83.7952 188.942C83.7895 188.954 83.7837 188.967 83.7779 188.979C83.6962 189.146 83.6016 189.281 83.4496 189.427C83.4169 189.464 83.3842 189.501 83.3517 189.539C83.3193 189.576 83.287 189.614 83.2548 189.651L83.093 189.84L82.6945 189.762L82.7205 189.629L82.5135 189.541C82.4754 189.518 82.442 189.497 82.4122 189.476L82.2815 189.405C82.276 189.385 82.2704 189.365 82.2649 189.345C82.1959 189.262 82.1512 189.166 82.081 189.021L81.9337 188.936C81.856 188.881 81.7978 188.821 81.7503 188.756C81.6299 188.619 81.5567 188.447 81.4966 188.264C81.4684 188.225 81.4303 188.188 81.3605 188.121L81.3794 188.267C81.3597 188.492 81.2678 188.628 81.1461 188.792C81.1223 188.824 81.0974 188.857 81.0717 188.892L81.0457 189.025C80.8875 189.105 80.7703 189.164 80.639 189.179C80.5545 189.189 80.464 189.182 80.3541 189.152C80.0114 188.995 79.73 188.804 79.5276 188.498C79.4872 188.502 79.4493 188.498 79.3579 188.488C79.2278 188.316 79.2278 188.316 79.0908 188.091C79.0295 188.019 78.9672 187.948 78.9042 187.877L78.7573 187.68L78.7902 187.512C78.789 187.51 78.7877 187.508 78.7865 187.506C78.7646 187.464 78.7433 187.421 78.7225 187.377C78.7177 187.367 78.7128 187.357 78.708 187.346C78.6591 187.269 78.6106 187.19 78.5626 187.112L78.4611 186.949C78.3809 186.777 78.3683 186.657 78.378 186.48C78.3702 186.456 78.3625 186.432 78.3549 186.408C78.2677 186.136 78.194 185.883 78.1296 185.692C78.0721 185.547 77.9984 185.436 77.9115 185.307C77.8515 185.091 77.8163 184.911 77.8164 184.702C77.8164 184.691 77.8167 184.68 77.8169 184.668L77.6964 184.645C77.5229 184.277 77.4216 183.898 77.3578 183.502C77.3556 183.489 77.3536 183.475 77.3515 183.461C77.3423 183.433 77.333 183.405 77.3238 183.377L77.2506 183.157C77.225 183.06 77.2121 183.011 77.2101 182.963L77.1321 182.947C77.132 182.947 77.1319 182.946 77.1318 182.946C77.1094 182.827 77.0868 182.709 77.0644 182.59C77.0636 182.588 77.063 182.585 77.0622 182.582C77.0446 182.529 77.0195 182.475 76.9695 182.368C76.8882 182.167 76.878 182.142 76.8597 182.006C76.8576 181.99 76.8554 181.973 76.853 181.954C76.8467 181.918 76.8413 181.881 76.8362 181.839C76.8345 181.829 76.8329 181.819 76.8312 181.809C76.8236 181.766 76.8152 181.723 76.8061 181.681C76.8009 181.656 76.7953 181.631 76.7895 181.607C76.7769 181.565 76.7641 181.523 76.7512 181.48C76.7373 181.424 76.7273 181.384 76.7222 181.35C76.7215 181.348 76.7209 181.346 76.7202 181.343C76.7121 181.315 76.7039 181.287 76.6955 181.258C76.5764 180.853 76.5764 180.853 76.6052 180.706L76.4724 180.68L76.3426 179.967C76.3094 179.751 76.3093 179.751 76.3353 179.618L76.2025 179.592C76.1737 179.471 76.1474 179.359 76.1231 179.257C76.0426 179.116 76.0321 178.942 75.9968 178.771C75.9856 178.719 75.9744 178.667 75.9629 178.613C75.9302 178.46 75.898 178.307 75.8662 178.153C75.8581 178.117 75.8504 178.082 75.8432 178.049C75.8065 177.878 75.7772 177.728 75.7303 177.489C75.7073 177.375 75.6829 177.262 75.6577 177.148C75.6523 177.124 75.6468 177.1 75.6414 177.076C75.6003 176.965 75.5788 176.851 75.5505 176.714L75.502 176.485C75.4854 176.368 75.4782 176.317 75.4841 176.247C75.4817 176.231 75.4793 176.214 75.4771 176.197C75.4548 176.029 75.4385 175.86 75.4297 175.686C75.4252 175.626 75.4188 175.567 75.4109 175.508C75.4084 175.489 75.4055 175.471 75.4028 175.452C75.3457 175.226 75.3201 175.117 75.3257 175.035C75.3219 175.017 75.3183 174.998 75.3146 174.98C75.3049 174.926 75.2962 174.872 75.2884 174.819C75.287 174.809 75.2857 174.8 75.2844 174.79L75.2805 174.79C75.281 174.784 75.2815 174.778 75.282 174.773C75.2804 174.761 75.2786 174.749 75.2771 174.738C75.2592 174.603 75.2454 174.468 75.2321 174.332C75.2157 174.163 75.1967 173.997 75.171 173.831C75.1704 173.828 75.1697 173.824 75.1691 173.82C75.1275 173.778 75.1206 173.74 75.0986 173.619C75.0908 173.544 75.0831 173.469 75.0752 173.392L75.0493 173.145C75.0475 173.127 75.0458 173.108 75.044 173.09C75.0439 173.089 75.0437 173.088 75.0435 173.087C75.016 172.878 74.9965 172.668 74.9787 172.457C74.9774 172.442 74.976 172.427 74.9748 172.412C74.959 172.253 74.9499 172.15 74.9466 172.073C74.9437 172.041 74.9409 172.009 74.9379 171.976C74.9266 171.856 74.9143 171.736 74.9017 171.616C74.8169 170.751 74.7585 169.888 74.7339 169.019C74.732 168.961 74.7302 168.902 74.7282 168.842C74.7261 168.765 74.726 168.765 74.7238 168.686C74.7174 168.575 74.7159 168.547 74.6965 168.48C74.6913 168.462 74.6846 168.442 74.6765 168.416C74.674 168.408 74.6715 168.4 74.6687 168.391C74.6608 168.362 74.6544 168.334 74.6493 168.307C74.6489 168.305 74.6486 168.303 74.6482 168.301C74.6217 168.166 74.6172 168.039 74.6148 167.895L74.6105 167.693C74.6079 167.539 74.6072 167.498 74.6057 167.405C74.5669 167.301 74.5674 167.207 74.5621 167.052C74.5572 166.925 74.5522 166.798 74.5466 166.671C74.545 166.636 74.5432 166.601 74.5415 166.566C74.5396 166.558 74.538 166.551 74.536 166.543C74.526 166.506 74.515 166.468 74.5032 166.428C74.4968 166.324 74.4942 166.22 74.4952 166.116L74.4963 165.935C74.4971 165.898 74.4981 165.86 74.499 165.822C74.4956 165.755 74.4933 165.688 74.4922 165.621C74.4843 165.564 74.4856 165.507 74.4924 165.445C74.4941 165.351 74.4984 165.257 74.5058 165.162C74.5225 165.035 74.53 164.977 74.5247 164.925C74.5245 164.923 74.5243 164.921 74.5241 164.919C74.5192 164.88 74.5071 164.843 74.4831 164.769C74.4999 164.627 74.5194 164.486 74.5403 164.344C74.5951 163.927 74.5999 163.532 74.574 163.113C74.5684 162.923 74.5685 162.923 74.6205 162.657L74.4876 162.631C74.5009 162.316 74.5149 162.001 74.5291 161.686C74.5338 161.58 74.5385 161.473 74.543 161.366C74.546 161.296 74.5491 161.225 74.5523 161.155C74.5556 161.085 74.5589 161.014 74.5626 160.944C74.5846 160.522 74.6151 160.103 74.6686 159.682C74.6856 159.547 74.7019 159.411 74.7176 159.275C74.7646 158.868 74.8068 158.459 74.8507 158.052C74.8662 157.909 74.8818 157.766 74.8974 157.623C74.9201 157.415 74.9425 157.207 74.9649 156.998C74.972 156.935 74.9789 156.871 74.9861 156.805C74.9925 156.746 74.9989 156.686 75.0054 156.625C75.0065 156.615 75.0076 156.605 75.0087 156.594C75.0244 156.41 75.0298 156.231 75.0185 156.043C75.0224 156.02 75.0265 155.997 75.0305 155.973C75.0314 155.964 75.0324 155.954 75.0335 155.944C75.0477 155.816 75.0746 155.69 75.0982 155.56C75.1153 155.463 75.1324 155.365 75.1494 155.268C75.1762 155.117 75.2033 154.966 75.231 154.815C75.2836 154.526 75.3217 154.24 75.3485 153.954L75.2807 150.155C75.2783 150.157 75.2757 150.159 75.2731 150.16C75.2731 150.159 75.2729 150.157 75.2729 150.156C75.2707 150.049 75.2691 149.943 75.2677 149.836L75.2645 149.654C75.2656 149.62 75.2675 149.587 75.2699 149.554L75.2626 149.142L75.265 149.114C75.2597 149.04 75.2535 148.966 75.2463 148.892C75.2278 148.644 75.2322 148.411 75.2479 148.163L75.2637 147.901L75.2811 147.631C75.2923 147.453 75.3032 147.276 75.314 147.098C75.319 147.019 75.324 146.941 75.3292 146.86C75.3366 146.696 75.3332 146.54 75.3241 146.376C75.3312 146.332 75.3389 146.287 75.3468 146.243L75.2834 146.23C75.3093 146.03 75.3357 145.829 75.3623 145.629L75.3844 145.456L75.4066 145.291C75.4133 145.241 75.4198 145.19 75.4266 145.138C75.451 145.021 75.4511 145.021 75.5304 144.968C75.5308 144.967 75.5312 144.965 75.5315 144.964C75.5745 144.775 75.6132 144.586 75.6492 144.396C75.6577 144.352 75.6662 144.308 75.6749 144.264L75.6895 144.091L76.0255 142.374L75.9712 142.364C76.0007 141.932 76.0551 141.515 76.1386 141.09C76.15 141.032 76.1614 140.974 76.1731 140.914C76.2514 140.532 76.3593 140.185 76.5215 139.84L76.7145 138.853L76.6603 138.842C76.5636 138.59 76.5144 138.367 76.5014 138.146L76.4582 138.113L76.5018 137.89C76.5138 137.685 76.5522 137.474 76.6081 137.237L76.6578 137.007C76.688 136.868 76.7191 136.729 76.751 136.59L76.7832 136.452L76.7168 136.439C76.7518 136.201 76.8041 135.965 76.8702 135.733C76.9126 135.574 76.9609 135.415 77.0173 135.256L77.0257 135.258C77.1293 134.976 77.2506 134.7 77.3832 134.431L77.3192 134.418L77.4535 133.973C77.5026 133.833 77.5026 133.833 77.595 133.713C77.6345 133.744 77.6741 133.774 77.7148 133.806L77.7538 133.606C77.7728 133.552 77.7931 133.498 77.8143 133.444C77.9035 133.216 78.0066 133.001 78.1221 132.782L78.1387 132.785C78.3522 132.418 78.6046 132.072 78.8596 131.732C78.9345 131.546 78.9753 131.515 79.0651 131.455L79.0877 131.396L79.2077 131.201C79.2481 131.03 79.3544 130.879 79.4534 130.714L79.5297 130.583C79.5918 130.477 79.6548 130.371 79.7178 130.265L79.7771 130.277L79.9058 130.068C79.9511 129.909 80.0055 129.76 80.0678 129.616C80.0717 129.607 80.0757 129.598 80.0797 129.589C80.0732 129.584 80.0667 129.579 80.0601 129.574C80.132 129.448 80.2041 129.322 80.2765 129.196C80.2919 129.169 80.3076 129.141 80.3234 129.114C80.338 129.089 80.3527 129.063 80.3677 129.038C80.3937 128.992 80.4198 128.947 80.4466 128.899L80.5298 128.756C80.5676 128.69 80.5677 128.69 80.6062 128.623C80.6366 128.581 80.6545 128.557 80.6753 128.54C80.7083 128.486 80.7414 128.433 80.7743 128.38C80.8109 128.322 80.8475 128.264 80.8851 128.204C80.9896 128.028 80.9895 128.028 81.061 127.819C81.1272 127.644 81.1274 127.644 81.2406 127.571C81.413 127.45 81.4555 127.291 81.5368 127.102C81.6081 126.967 81.7062 126.877 81.8176 126.788C81.8201 126.786 81.8225 126.784 81.825 126.782C81.8515 126.747 81.8789 126.712 81.9073 126.676L82.0339 126.514L82.1309 126.392L82.2637 126.418L82.3453 126.287C82.4124 126.186 82.4669 126.103 82.5129 126.035C82.582 125.934 82.6322 125.864 82.6776 125.812C82.6826 125.806 82.6876 125.8 82.6925 125.795C82.7024 125.784 82.7122 125.774 82.7219 125.764C82.7267 125.76 82.7315 125.755 82.7364 125.751C82.7461 125.742 82.7559 125.733 82.7658 125.725C82.7708 125.721 82.776 125.717 82.7811 125.713C82.8119 125.689 82.8455 125.668 82.8858 125.644C82.8987 125.636 82.9124 125.628 82.9268 125.62C83.049 125.511 83.1778 125.41 83.3126 125.312C83.311 125.312 83.3093 125.311 83.3077 125.311C83.3379 125.201 83.3379 125.201 83.4261 125.058C83.5395 124.995 83.6533 124.932 83.7693 124.874C83.9543 124.767 84.0857 124.611 84.2333 124.457C84.3645 124.367 84.497 124.278 84.6304 124.19C84.7048 124.129 84.7786 124.068 84.8519 124.005L85.0405 123.857L85.1733 123.883L85.1994 123.75C85.4475 123.567 85.7054 123.419 85.9805 123.282L86.049 123.335C86.0867 123.268 86.0918 123.259 86.1393 123.175L86.3645 123.081L86.4876 122.937C86.5397 122.882 86.5871 122.842 86.6346 122.81C86.6612 122.792 86.6878 122.777 86.7153 122.763L86.6418 122.721L86.8391 122.601C86.925 122.549 87.011 122.496 87.0969 122.444L87.2268 122.365C87.4273 122.242 87.6269 122.12 87.82 121.986L87.8431 122.069C87.8617 122.024 87.8804 121.979 87.8994 121.933L88.0411 121.999L88.5965 121.615C88.6084 121.592 88.6197 121.562 88.6352 121.52C88.649 121.491 88.6661 121.463 88.6861 121.437L88.6936 121.398C88.7142 121.386 88.7334 121.375 88.751 121.365C88.807 121.314 88.8748 121.276 88.9481 121.263C88.9901 121.249 89.0159 121.254 89.0647 121.264C89.0618 121.275 89.0587 121.287 89.0558 121.298L89.1184 121.255C89.1312 121.218 89.1442 121.181 89.1571 121.144L89.1893 121.15C89.1955 121.142 89.202 121.134 89.2085 121.126C89.3207 120.987 89.4705 120.876 89.6562 120.74C89.8054 120.65 89.8055 120.65 89.9383 120.676L90.0095 120.572C90.1449 120.41 90.2924 120.3 90.463 120.175C90.6947 120.004 90.9248 119.832 91.1511 119.654C91.1946 119.62 91.2383 119.587 91.2822 119.554C91.289 119.549 91.2958 119.544 91.3026 119.539C91.375 119.465 91.4652 119.408 91.5794 119.337C91.8328 119.182 91.8329 119.182 92.0017 118.941L91.87 118.89C91.7953 118.861 91.7206 118.832 91.6461 118.802C91.6242 118.794 91.6023 118.785 91.5804 118.776C91.5643 118.772 91.5469 118.767 91.5282 118.762L91.2972 118.665L91.0762 118.583L90.9117 118.521C90.9195 118.518 90.9272 118.515 90.9349 118.512C90.9217 118.506 90.9086 118.501 90.8954 118.496C90.701 118.419 90.5072 118.36 90.3027 118.307C89.9137 118.2 89.5968 118.007 89.2629 117.784L89.1705 117.904L88.9973 117.732C88.8592 117.684 88.8591 117.684 88.7032 117.649C88.436 117.574 88.2151 117.463 87.9881 117.325C87.9863 117.324 87.9843 117.323 87.9825 117.322C87.9796 117.323 87.9766 117.324 87.9736 117.325C87.8922 117.274 87.8117 117.222 87.7315 117.169C87.727 117.167 87.7224 117.164 87.7179 117.161C87.6808 117.141 87.6436 117.121 87.606 117.103C87.588 117.094 87.5697 117.085 87.5515 117.076C87.5003 117.054 87.4489 117.032 87.3975 117.01L87.1623 116.89C87.1567 116.847 87.1511 116.805 87.1455 116.761C87.0694 116.744 86.9948 116.726 86.9217 116.705L86.6569 116.654L86.6632 116.621C86.4298 116.534 86.2059 116.416 85.9784 116.245L85.8576 116.157C85.8373 116.142 85.8172 116.126 85.7971 116.111C85.7807 116.098 85.7644 116.085 85.7481 116.072C85.6702 116.016 85.5911 115.962 85.5111 115.91C85.335 115.843 85.1632 115.756 84.9937 115.638L84.7976 115.509C84.7709 115.492 84.7443 115.474 84.7177 115.456C84.5462 115.368 84.3726 115.282 84.1985 115.197C84.1933 115.199 84.1879 115.201 84.1824 115.203C84.1548 115.184 84.1331 115.169 84.115 115.156C84.0754 115.137 84.0357 115.117 83.996 115.098L84.0017 115.069C83.9857 115.055 83.9667 115.039 83.9426 115.019C83.958 114.992 83.9733 114.964 83.9887 114.937C83.5396 114.748 83.1483 114.5 82.74 114.227C82.6065 114.138 82.4727 114.049 82.3388 113.961C82.2803 113.921 82.2218 113.882 82.1616 113.842C81.9797 113.735 81.8004 113.663 81.6009 113.595C81.6557 113.572 81.6973 113.554 81.7322 113.543C81.5667 113.492 81.4038 113.439 81.2425 113.381C81.2379 113.38 81.2333 113.378 81.2288 113.376C81.219 113.373 81.2092 113.369 81.1994 113.365C81.0198 113.301 80.8413 113.234 80.6631 113.163C80.3883 113.073 80.1127 113.012 79.8218 112.959C79.7579 112.947 79.6938 112.935 79.628 112.923C79.4261 112.884 79.2241 112.847 79.022 112.81C78.8196 112.772 78.6171 112.734 78.4148 112.696C78.2896 112.672 78.1643 112.649 78.0391 112.626C77.7883 112.579 77.5365 112.53 77.2937 112.456C77.0006 112.421 76.713 112.403 76.4209 112.412C76.3563 112.419 76.2916 112.427 76.225 112.435C75.6974 112.495 75.6973 112.495 75.177 112.599C75.1083 112.612 75.0613 112.621 75.0234 112.623C75.0148 112.625 75.0061 112.627 74.9976 112.629C74.9276 112.644 74.8576 112.659 74.7877 112.674C74.7872 112.674 74.7866 112.674 74.7861 112.674C74.857 112.682 74.9318 112.697 75.0142 112.72C74.8143 112.854 74.6699 112.867 74.4309 112.881C74.2781 112.826 74.278 112.826 74.1782 112.763C74.2281 112.746 74.2753 112.731 74.3206 112.719C74.2632 112.72 74.2052 112.721 74.1462 112.72C74.0356 112.723 73.9262 112.73 73.8169 112.74L73.8311 112.761C73.8749 112.77 73.9198 112.779 73.966 112.79C73.7405 112.884 73.6208 112.895 73.3816 112.892L73.1937 112.89L73.0506 112.887L73.0647 112.815C72.9059 112.827 72.7482 112.835 72.5896 112.835C72.5397 112.844 72.5028 112.843 72.4593 112.834C72.3254 112.831 72.1905 112.822 72.0535 112.806C71.9291 112.821 71.8051 112.832 71.6814 112.841C71.4513 112.875 71.2257 112.869 70.9928 112.861C70.8724 112.86 70.7512 112.858 70.6288 112.854C70.567 112.852 70.5052 112.85 70.4434 112.849C70.3778 112.85 70.3135 112.85 70.2502 112.848C70.2309 112.848 70.2115 112.848 70.1923 112.848C70.1217 112.849 70.051 112.85 69.9804 112.851C69.7124 112.854 69.4746 112.82 69.2142 112.758C69.2144 112.757 69.2146 112.756 69.2147 112.756C69.2165 112.749 69.2184 112.742 69.2204 112.735C69.2225 112.728 69.2246 112.721 69.2269 112.713C69.2336 112.692 69.2411 112.671 69.2492 112.65C69.2657 112.608 69.2851 112.567 69.3067 112.528C69.2576 112.577 69.2091 112.626 69.1609 112.678C69.1335 112.466 69.1335 112.466 69.2268 112.342C69.9878 111.598 69.988 111.598 70.2584 111.651C70.2285 111.693 70.1981 111.733 70.1671 111.77C70.1733 111.766 70.1795 111.761 70.1858 111.758C70.2547 111.717 70.3244 111.679 70.3947 111.641L70.3378 111.597L70.3638 111.465C70.5133 111.401 70.6635 111.338 70.8142 111.277L70.9067 111.157C71.0521 111.115 71.1981 111.075 71.3441 111.036C71.4604 110.995 71.5765 110.952 71.6921 110.91C71.9933 110.799 72.2978 110.699 72.6034 110.603C72.7776 110.539 72.8009 110.533 72.895 110.511C72.9491 110.494 73.0034 110.478 73.0576 110.461C73.0879 110.452 73.1147 110.444 73.1385 110.437C73.2073 110.374 73.2836 110.347 73.3948 110.313C73.4245 110.288 73.4591 110.257 73.5042 110.217C73.6671 110.177 73.6672 110.177 73.8631 110.145C74.093 110.117 74.0932 110.117 74.2999 110.027L74.4861 110.133C74.4828 110.135 74.4794 110.137 74.4762 110.138C74.506 110.142 74.5364 110.146 74.5678 110.151C74.6444 110.137 74.7047 110.131 74.7619 110.132L74.7661 110.111C74.7318 110.112 74.6985 110.105 74.6319 110.092L74.6579 109.959C75.0928 109.814 75.0928 109.814 75.348 109.957C75.3323 109.961 75.3165 109.966 75.3008 109.97C75.3249 109.966 75.3489 109.961 75.3729 109.957C75.3975 109.952 75.4222 109.947 75.4468 109.942C75.4581 109.94 75.4693 109.937 75.4805 109.935C75.4818 109.934 75.4832 109.934 75.4845 109.934C75.4986 109.93 75.5128 109.926 75.5269 109.922C75.5169 109.92 75.5058 109.918 75.4938 109.916L75.5198 109.783L76.3155 109.594L76.2891 109.729C76.3052 109.725 76.3214 109.722 76.3376 109.718C76.3458 109.716 76.3542 109.714 76.3625 109.712C76.4476 109.692 76.5332 109.672 76.6188 109.654C76.6196 109.654 76.6206 109.654 76.6214 109.653C76.5913 109.648 76.5562 109.641 76.5147 109.633L76.5407 109.5L77.1172 109.411C77.397 109.365 77.6728 109.312 77.9482 109.245L78.1852 109.201L78.2785 109.273C78.3395 109.25 78.4013 109.246 78.4895 109.261C78.5303 109.201 78.5748 109.142 78.6228 109.08L78.7556 109.106L78.8231 108.981C78.8467 108.948 78.8709 108.916 78.8957 108.884C78.8996 108.879 78.9034 108.873 78.9071 108.868C78.9343 108.83 78.9541 108.806 78.9791 108.781C78.9844 108.775 78.9899 108.77 78.9957 108.765C79.0674 108.684 79.1437 108.607 79.2241 108.535C79.2253 108.532 79.2265 108.529 79.2276 108.526C79.2385 108.498 79.2485 108.461 79.2629 108.407C79.3361 108.253 79.3361 108.253 79.5133 108.185L79.7071 108.119C79.7972 108.023 79.8858 107.926 79.9715 107.826L80.1043 107.852C80.1053 107.85 80.1063 107.849 80.1073 107.847C80.1417 107.791 80.1429 107.79 80.18 107.729C80.1833 107.725 80.1866 107.72 80.1899 107.715C80.2296 107.637 80.2774 107.566 80.3421 107.496C80.4493 107.348 80.5609 107.203 80.6734 107.058L80.7732 106.928L80.8699 106.803C80.8987 106.765 80.9275 106.728 80.9571 106.69C81.0406 106.588 81.0414 106.587 81.2083 106.418C81.2099 106.417 81.2116 106.415 81.2132 106.413L81.346 106.439L81.3851 106.24C81.4915 106.16 81.6006 106.087 81.7124 106.019C81.8572 105.915 82.0024 105.848 82.1663 105.772L82.257 105.842C82.2984 105.809 82.3152 105.796 82.3825 105.743L82.5374 105.638L82.6702 105.663C82.6868 105.636 82.7035 105.609 82.7205 105.581C82.7124 105.564 82.7043 105.548 82.6961 105.531L82.855 105.424C82.8594 105.425 82.8637 105.427 82.8679 105.429C83.0968 105.233 83.392 105.101 83.7027 105.012C83.7953 104.849 83.8007 104.847 83.9259 104.806L84.0793 104.784L84.2327 104.759C84.3653 104.753 84.3655 104.753 84.4852 104.846C84.4612 104.855 84.4373 104.865 84.4136 104.873C84.462 104.869 84.5102 104.864 84.5584 104.861C84.5683 104.86 84.5783 104.859 84.5881 104.858C84.667 104.826 84.747 104.808 84.838 104.804L84.8432 104.778L84.644 104.739L84.67 104.606L84.831 104.557C85.1424 104.461 85.2361 104.432 85.4123 104.365C85.4936 104.333 85.5908 104.292 85.7344 104.232C85.8215 104.201 85.8697 104.184 85.9131 104.179C86.094 104.126 86.2749 104.094 86.4681 104.063C86.6469 104.031 86.647 104.031 86.817 103.963C87.0704 103.873 87.3257 103.825 87.5898 103.781C87.6471 103.771 87.7044 103.761 87.7634 103.751C88.395 103.656 89.0296 103.636 89.6677 103.623C90.0175 103.613 90.3437 103.585 90.6751 103.52L90.6779 103.505C90.7193 103.5 90.758 103.496 90.7947 103.494C90.8668 103.478 90.9394 103.461 91.0126 103.441C91.1701 103.4 91.3213 103.375 91.4828 103.357C91.6441 103.339 91.8037 103.313 91.9627 103.285C91.9801 103.282 91.9977 103.278 92.0152 103.275C92.039 103.271 92.0594 103.267 92.0772 103.264C92.1716 103.247 92.2661 103.228 92.3607 103.209C93.3114 103.024 93.3115 103.024 93.7822 103.147C93.7558 103.17 93.7295 103.19 93.7034 103.207C93.794 103.2 93.8849 103.194 93.9758 103.188C93.9341 103.18 93.8917 103.171 93.8486 103.16L93.8746 103.027C93.9997 103.011 94.0896 103.008 94.1875 103.019C94.7299 103.007 95.2715 102.998 95.8133 103.001C95.8129 102.998 95.8126 102.995 95.8123 102.992C95.8602 102.994 95.9082 102.996 95.9576 102.998C96.0189 103 96.0804 103.002 96.1417 103.004C96.4074 103.008 96.6735 103.015 96.9396 103.026C97.1473 103.034 97.3431 103.042 97.541 103.021C97.632 103.008 97.7224 102.991 97.8163 102.971L97.87 103.05C97.9381 103.039 98.0064 103.028 98.0745 103.017L98.2976 102.979L98.5104 102.944C98.6078 102.928 98.608 102.928 98.7073 102.912C98.7551 102.908 98.7885 102.906 98.815 102.907C99.3419 102.83 99.5405 102.818 100.059 102.788C100.128 102.784 100.197 102.779 100.268 102.775L100.271 102.761C100.334 102.76 100.393 102.76 100.45 102.762C100.455 102.762 100.46 102.763 100.465 102.763C100.7 102.749 100.805 102.745 100.893 102.752L100.895 102.745L101.059 102.777C100.959 102.756 100.945 102.746 100.841 102.666L101.036 102.596C101.057 102.587 101.078 102.578 101.098 102.568C101.13 102.554 101.161 102.538 101.192 102.522C101.206 102.514 101.221 102.506 101.236 102.497C101.317 102.451 101.393 102.399 101.468 102.342C101.533 102.294 101.597 102.241 101.663 102.186C101.724 102.137 101.754 102.113 101.797 102.084C101.835 102.055 101.874 102.027 101.913 102C101.924 101.978 101.937 101.951 101.953 101.917C102.014 101.892 102.074 101.867 102.136 101.841C102.259 101.728 102.353 101.606 102.458 101.455C102.534 101.361 102.546 101.347 102.614 101.304C102.619 101.3 102.623 101.295 102.627 101.291L102.776 101.126C102.793 101.106 102.811 101.087 102.829 101.067C102.964 100.894 103.081 100.712 103.196 100.522C103.223 100.478 103.25 100.434 103.278 100.388C103.322 100.315 103.364 100.242 103.404 100.169C103.452 100.056 103.495 99.9381 103.537 99.8129C103.62 99.6553 103.71 99.5022 103.802 99.3501C103.877 99.216 103.957 99.0855 104.037 98.9537C104.104 98.8415 104.17 98.7284 104.234 98.6144C104.659 97.8445 105.022 97.0428 105.382 96.2396C105.438 96.1132 105.494 95.9871 105.552 95.8611L105.645 95.8994C106.125 94.6819 106.524 93.3759 106.763 92.0199C106.815 91.7236 106.861 91.4445 106.903 91.1822L106.807 91.2087C106.811 91.1686 106.815 91.1284 106.819 91.087C106.838 90.9021 106.856 90.7171 106.875 90.5321L106.894 90.3405C107.009 89.7295 107.009 89.7294 106.931 89.1635C106.931 89.1629 106.931 89.1622 106.931 89.1615C106.941 89.0523 106.95 88.9431 106.962 88.8341C107.043 88.044 106.997 87.2652 106.956 86.4738C106.942 86.1918 106.935 85.9099 106.929 85.6277C106.921 84.9398 106.917 84.6007 106.894 84.2583L106.858 84.2512L106.848 84.0199C106.843 83.9186 106.838 83.8174 106.834 83.7162L106.827 83.5641C106.827 83.5589 106.826 83.5537 106.826 83.5485C106.806 83.3757 106.782 83.1742 106.753 82.9274C106.736 82.8016 106.741 82.6882 106.762 82.5734L106.74 82.3214C106.688 82.2704 106.681 82.2216 106.652 82.0283C106.642 81.9204 106.633 81.8125 106.624 81.7046L106.608 81.5417C106.587 81.3102 106.575 81.1037 106.616 80.883L106.599 80.6822L106.459 80.6547C106.443 80.5542 106.429 80.4536 106.414 80.353L106.389 80.1831C106.376 80.0179 106.376 80.0177 106.428 79.752L106.524 79.814L106.519 79.7569C106.441 79.7177 106.427 79.7032 106.322 79.5932C106.281 79.4195 106.281 79.4194 106.267 79.2077C106.262 79.1297 106.256 79.0516 106.251 78.9712C106.247 78.888 106.243 78.8046 106.238 78.7188C106.234 78.6345 106.229 78.55 106.224 78.4631C106.211 78.168 106.214 77.8806 106.231 77.5956C106.224 77.6331 106.216 77.6707 106.208 77.7083L106.141 77.6953C106.157 77.336 106.196 76.9949 106.253 76.6648L106.253 76.6613L106.254 76.657C106.417 75.7248 106.734 74.88 107.148 73.9601C107.149 73.9709 107.15 73.9817 107.151 73.9923C107.291 73.5026 107.378 73.3578 107.622 72.949L107.733 72.9708L107.786 72.8386L107.805 72.758C107.828 72.6628 107.851 72.5676 107.874 72.4725L107.907 72.3299C107.985 72.018 108.089 71.8108 108.306 71.5653L108.42 71.5876C108.422 71.5777 108.424 71.5677 108.425 71.5577C108.434 71.5265 108.443 71.4977 108.452 71.4708C108.459 71.4506 108.467 71.4315 108.474 71.4132L108.491 71.3255L108.512 71.3297C108.568 71.2241 108.641 71.1441 108.755 71.0324C108.814 70.9441 108.87 70.8544 108.924 70.7636C108.931 70.7524 108.939 70.7413 108.946 70.7301C108.983 70.6674 109.02 70.6044 109.059 70.5398L109.071 70.5423C109.152 70.4258 109.237 70.3121 109.324 70.2002C109.328 70.1936 109.332 70.1868 109.336 70.1801L109.34 70.1808C109.389 70.1179 109.439 70.0555 109.49 69.9935C109.529 69.9196 109.583 69.8441 109.655 69.7597C109.728 69.6811 109.802 69.6032 109.877 69.5272L109.905 69.5328C109.924 69.4908 109.946 69.449 109.97 69.4073C110.157 69.2028 110.357 69.0167 110.565 68.8339C110.57 68.8764 110.574 68.9105 110.577 68.9389C110.589 68.9278 110.603 68.9155 110.621 68.9006C110.673 68.6517 110.788 68.5903 110.988 68.4338C111.02 68.4588 111.053 68.4839 111.086 68.5094C111.088 68.5071 111.09 68.5048 111.092 68.5025L111.001 68.3674L111.596 67.794L111.615 67.9449C111.66 67.9008 111.705 67.8571 111.749 67.814C111.766 67.7949 111.785 67.7735 111.807 67.7491C111.864 67.698 111.92 67.6469 111.978 67.5943C111.979 67.594 111.979 67.5936 111.98 67.5932L112.07 67.6632C112.073 67.6591 112.075 67.6551 112.077 67.6511C112.121 67.5711 112.165 67.5082 112.222 67.4509C112.229 67.4443 112.235 67.4377 112.242 67.4313C112.331 67.3017 112.428 67.179 112.532 67.0605C112.567 67.0096 112.606 66.9614 112.648 66.915C112.628 66.7528 112.637 66.7397 112.749 66.5924L112.891 66.4608L113.024 66.4868L113.11 66.3096C113.241 66.104 113.315 66.0479 113.539 65.9667C113.529 66.0198 113.519 66.0618 113.508 66.0971C113.558 66.046 113.608 65.9944 113.656 65.9416C113.697 65.8969 113.737 65.8517 113.778 65.8064C113.953 65.6123 113.953 65.6122 114.121 65.4597L114.32 65.4987L114.361 65.3558C114.397 65.2873 114.44 65.2182 114.492 65.1561C114.48 65.1631 114.467 65.1709 114.452 65.1796C114.612 64.8852 114.612 64.8851 114.801 64.8253L114.941 64.7925L115.047 64.6061L115.074 64.8185C115.091 64.7655 115.113 64.7139 115.138 64.6635L115.206 64.4992C115.216 64.4987 115.226 64.4982 115.237 64.4976C115.592 63.9867 116.318 63.6086 116.827 63.2865C117.061 63.1282 117.297 62.9715 117.532 62.815C117.515 62.8123 117.494 62.8085 117.468 62.8035C117.593 62.6264 117.713 62.5232 117.891 62.4033L117.997 62.2169C118.143 62.1765 118.143 62.1765 118.275 62.2025C118.251 62.2359 118.227 62.2678 118.202 62.2985C118.244 62.2717 118.29 62.2454 118.342 62.2155C118.442 62.1521 118.545 62.091 118.649 62.0341C118.802 61.9495 118.944 61.8599 119.085 61.7625C119.089 61.7595 119.093 61.7564 119.097 61.7534C119.117 61.7382 119.137 61.7238 119.156 61.7102C119.176 61.6961 119.195 61.6828 119.214 61.6704C119.226 61.6614 119.239 61.6524 119.251 61.6433C119.419 61.527 119.547 61.4919 119.701 61.4886C119.708 61.4791 119.716 61.4697 119.723 61.4606C119.744 61.4358 119.766 61.4125 119.788 61.3905C119.794 61.3842 119.8 61.3781 119.807 61.372C119.809 61.3695 119.812 61.3669 119.814 61.3645C119.818 61.3605 119.823 61.3565 119.827 61.3525C119.865 61.3185 119.904 61.2871 119.945 61.2572C119.946 61.2567 119.946 61.2562 119.947 61.2558C119.959 61.2474 119.971 61.239 119.983 61.2308C119.989 61.2267 119.995 61.2226 120.001 61.2185C119.982 61.1729 119.963 61.127 119.943 61.0802L120.142 61.1192L120.261 60.8663L120.394 60.8709L120.54 60.8519L120.645 60.6656C120.649 60.7444 120.653 60.8233 120.657 60.9039C120.665 60.904 120.673 60.9044 120.681 60.9051C120.709 60.8567 120.737 60.8079 120.765 60.7581C120.932 60.6343 121.09 60.5371 121.256 60.4692C121.308 60.4392 121.36 60.4092 121.412 60.3789C121.538 60.3058 121.663 60.2315 121.788 60.1562C121.893 60.093 121.998 60.0302 122.104 59.9688C122.116 59.9615 122.129 59.9543 122.141 59.947C122.177 59.9233 122.212 59.8994 122.248 59.8754C122.25 59.8775 122.253 59.8796 122.256 59.8817C122.274 59.8717 122.291 59.8618 122.309 59.8519C122.302 59.794 122.294 59.7357 122.287 59.6761L122.684 59.409L122.899 59.257C123.081 59.1417 123.081 59.1417 123.214 59.1676C123.205 59.1945 123.195 59.22 123.184 59.2443C123.19 59.2409 123.195 59.2376 123.201 59.2342C123.315 59.1576 123.429 59.0806 123.543 59.0036C123.64 58.9382 123.673 58.9161 123.727 58.8798C123.75 58.8611 123.773 58.8425 123.796 58.8237C123.896 58.7416 123.995 58.6586 124.093 58.5754C124.186 58.4979 124.281 58.4223 124.376 58.3486C124.394 58.3351 124.411 58.3216 124.429 58.3081C124.425 58.3054 124.422 58.3025 124.418 58.2995C124.517 58.2312 124.617 58.1631 124.716 58.095C124.724 58.0898 124.731 58.0846 124.738 58.0793C124.909 57.9566 125.083 57.8373 125.26 57.7195C125.33 57.6726 125.4 57.6257 125.471 57.5774C125.53 57.5382 125.588 57.499 125.647 57.4599C125.659 57.4517 125.671 57.4433 125.683 57.4351C125.685 57.4339 125.687 57.4328 125.689 57.4317C125.763 57.3822 125.836 57.3328 125.91 57.2835C125.985 57.2336 126.06 57.1833 126.134 57.1332C126.183 57.0901 126.234 57.0542 126.291 57.0278C126.387 56.9638 126.482 56.8997 126.577 56.8356C126.72 56.7397 126.863 56.6438 127.006 56.548C127.072 56.5038 127.138 56.4596 127.206 56.4141C127.253 56.3823 127.301 56.3506 127.349 56.3192C127.367 56.3074 127.385 56.2958 127.403 56.2841C127.971 55.9027 128.118 55.8101 128.363 55.701C128.367 55.6986 128.371 55.6961 128.376 55.6937C128.438 55.6571 128.499 55.6205 128.561 55.5837C128.57 55.5785 128.579 55.5731 128.588 55.5678C128.553 55.5479 128.517 55.5279 128.481 55.5075C129.187 55.0227 129.904 54.6019 130.666 54.2103C130.651 54.284 130.642 54.3304 130.626 54.367C130.637 54.3614 130.647 54.356 130.657 54.3504C130.698 54.3255 130.738 54.3006 130.778 54.2754C130.987 54.1454 131.199 54.0235 131.414 53.9066C131.502 53.8532 131.594 53.8026 131.69 53.7536C131.946 53.6151 132.208 53.488 132.471 53.3632C132.503 53.3473 132.534 53.3314 132.565 53.3154L132.599 53.1399C132.74 53.0514 132.74 53.0514 132.922 52.966L133.112 52.8747L133.288 52.7918C133.495 52.6881 133.678 52.5865 133.867 52.4525C134.103 52.302 134.354 52.1727 134.639 52.2285L134.745 52.0422C134.864 51.9699 134.864 51.9698 135.004 51.9075L135.143 51.8434C135.275 51.801 135.275 51.8009 135.474 51.8399L135.465 51.8862C135.588 51.827 135.711 51.7687 135.834 51.7111C135.892 51.6813 135.905 51.6742 135.981 51.6346C135.945 51.6141 135.908 51.5937 135.871 51.5727C137.162 50.8597 137.162 50.8595 137.514 50.9284L137.62 50.742C137.946 50.5991 137.947 50.599 138.124 50.6337L138.15 50.5009C138.296 50.4376 138.296 50.4376 138.489 50.3733C138.811 50.2626 139.115 50.1367 139.422 49.9909C139.461 50.0303 139.501 50.0698 139.541 50.1098C139.561 50.102 139.581 50.094 139.601 50.0864C139.623 50.0779 139.646 50.0691 139.668 50.0605C139.661 50.0067 139.654 49.9525 139.647 49.8971C139.742 49.8576 139.837 49.8188 139.933 49.7805L140.093 49.715C140.243 49.6689 140.243 49.6688 140.442 49.7078L140.468 49.575L140.601 49.601C140.584 49.6323 140.566 49.6599 140.549 49.6844C140.625 49.6497 140.703 49.617 140.785 49.5852L141.003 49.4995C141.121 49.4602 141.163 49.4465 141.214 49.4489C141.342 49.4003 141.47 49.3523 141.598 49.3049C141.684 49.2409 141.788 49.1971 141.931 49.1497L142.13 49.0816C142.141 49.0785 142.152 49.0756 142.162 49.0729C142.221 49.0427 142.263 49.0368 142.321 49.0433C142.363 49.0287 142.404 49.0143 142.445 48.9998C142.445 48.9984 142.444 48.9969 142.444 48.9956C142.564 48.9499 142.685 48.9048 142.806 48.8598L143.011 48.7832C143.123 48.7473 143.163 48.7342 143.213 48.7364C143.35 48.6903 143.487 48.6446 143.625 48.5992C143.809 48.5164 143.997 48.4483 144.197 48.3857L144.45 48.3048L144.657 48.256C144.659 48.257 144.66 48.258 144.661 48.2589C144.722 48.2391 144.783 48.2195 144.844 48.1999C145.044 48.1221 145.119 48.0946 145.184 48.0921C145.484 47.9989 145.786 47.9098 146.089 47.8262C146.17 47.8009 146.252 47.7762 146.333 47.7519L146.493 47.7031C146.528 47.6964 146.563 47.6898 146.599 47.683C146.857 47.6075 147.114 47.5274 147.37 47.4446C147.56 47.3885 147.749 47.3449 147.944 47.3049C148.192 47.2499 148.436 47.1826 148.682 47.1174C148.917 47.0552 149.15 46.9932 149.385 46.9355C149.408 46.9283 149.431 46.9211 149.454 46.914L149.609 46.8643C149.655 46.8571 149.694 46.854 149.729 46.8547C149.794 46.8403 149.859 46.8262 149.924 46.8128C149.918 46.8085 149.913 46.8042 149.907 46.7999C150.129 46.6138 150.367 46.5693 150.649 46.5312C150.685 46.5666 150.721 46.6021 150.757 46.6379C150.784 46.6329 150.811 46.6279 150.838 46.6228L150.875 46.4372C151.276 46.3692 151.276 46.3691 151.485 46.4877C151.477 46.491 151.469 46.494 151.462 46.4972C151.467 46.497 151.473 46.497 151.479 46.4971C151.504 46.4924 151.53 46.4878 151.555 46.4833L151.578 46.368C151.925 46.2749 152.156 46.2558 152.501 46.3394C152.611 46.3281 152.721 46.3167 152.831 46.3052C152.89 46.2993 152.948 46.2933 153.009 46.2872C153.091 46.2782 153.174 46.2684 153.257 46.2582C153.346 46.2467 153.435 46.2351 153.523 46.2233C153.581 46.216 153.637 46.2092 153.692 46.203C153.735 46.1974 153.777 46.1917 153.82 46.186C153.921 46.1729 153.998 46.1683 154.075 46.1723C154.152 46.1692 154.229 46.1684 154.306 46.1702L154.311 46.144C154.389 46.1575 154.466 46.1711 154.544 46.1849C154.548 46.1853 154.552 46.1858 154.556 46.1862C154.562 46.1868 154.568 46.1874 154.574 46.1881C154.576 46.1882 154.577 46.1885 154.578 46.1886C154.604 46.1916 154.63 46.1947 154.656 46.1984C154.679 46.2016 154.703 46.2053 154.726 46.2092C154.759 46.2146 154.792 46.2207 154.825 46.2273L155.083 46.2767ZM79.7807 187.354C79.7735 187.406 79.7638 187.463 79.7522 187.53L79.8386 187.52L79.7807 187.354ZM79.3892 186.237C79.3936 186.262 79.3969 186.287 79.3989 186.313C79.4059 186.322 79.4124 186.33 79.4185 186.338C79.4197 186.336 79.4209 186.333 79.4223 186.331L79.3892 186.237ZM78.8989 184.867C78.9103 184.894 78.9219 184.923 78.9338 184.951C78.9478 184.986 78.9619 185.022 78.9759 185.057L78.9013 184.844C78.9004 184.852 78.8997 184.859 78.8989 184.867ZM77.6142 184.008L77.6235 184.013C77.6302 184.017 77.6372 184.02 77.644 184.024C77.6428 184.022 77.6414 184.019 77.6403 184.016C77.6344 184.002 77.6288 183.989 77.6235 183.975C77.6228 183.973 77.6223 183.971 77.6216 183.97C77.6193 183.982 77.6168 183.994 77.6142 184.008ZM78.4893 183.765L78.5359 183.801L78.4885 183.665L78.4893 183.765ZM78.368 183.327L78.3702 183.328L78.3671 183.319L78.368 183.327ZM94.4377 165.056C94.4341 165.068 94.4303 165.081 94.4267 165.093C94.4364 165.069 94.446 165.045 94.4552 165.021L94.4489 165.019C94.4452 165.031 94.4415 165.044 94.4377 165.056ZM75.467 145.645C75.5057 145.666 75.5321 145.681 75.554 145.695L75.5566 145.663L75.467 145.645ZM101.151 146.875C101.152 146.876 101.153 146.877 101.154 146.878C101.233 146.94 101.313 147.002 101.394 147.063L101.324 146.933C101.305 146.89 101.289 146.85 101.276 146.809L101.151 146.875ZM78.6314 132.58L78.5466 132.727L78.574 132.732L78.6353 132.572L78.6314 132.58ZM116.962 132.07C117.019 132.065 117.082 132.066 117.153 132.072L117.179 131.987L116.962 132.07ZM117.785 130.797L118.037 130.727L118.047 130.675L117.785 130.797ZM126.428 127.374C126.438 127.382 126.449 127.39 126.461 127.399C126.464 127.393 126.468 127.387 126.471 127.382C126.456 127.379 126.442 127.377 126.428 127.374ZM170.471 129.215C170.591 129.203 170.711 129.185 170.832 129.167C170.849 129.165 170.864 129.163 170.876 129.161L170.875 129.148L170.471 129.215ZM86.4174 109.294L86.4196 109.295C86.4193 109.294 86.419 109.293 86.4174 109.294ZM133.889 112.444C133.895 112.447 133.9 112.45 133.905 112.453C133.904 112.45 133.903 112.446 133.903 112.443C133.896 112.411 133.902 112.378 133.915 112.311L133.889 112.444ZM97.3194 103.215C97.3212 103.216 97.323 103.216 97.3247 103.216C97.3547 103.223 97.385 103.229 97.4152 103.237C97.4164 103.237 97.4178 103.237 97.419 103.238L97.3792 103.207C97.3589 103.21 97.3389 103.213 97.3194 103.215ZM135.549 97.3161L135.605 97.327C135.606 97.3249 135.606 97.3229 135.606 97.3208L135.549 97.3161ZM135.925 94.2475L135.939 94.219L135.9 94.193L135.925 94.2475ZM135.914 78.8383L135.916 78.8309L135.906 78.829L135.914 78.8383ZM136.254 78.2459C136.246 78.2479 136.237 78.2499 136.229 78.2518C136.236 78.2554 136.244 78.2589 136.252 78.2625C136.259 78.2549 136.267 78.2471 136.275 78.2391C136.268 78.2413 136.261 78.2436 136.254 78.2459ZM136.74 77.4142C136.742 77.4117 136.744 77.4091 136.746 77.4066C136.745 77.4026 136.744 77.3986 136.743 77.3947C136.742 77.4009 136.741 77.4074 136.74 77.4142ZM137.66 76.4126L137.73 76.4263C137.731 76.4246 137.733 76.423 137.734 76.4214C137.709 76.419 137.685 76.4159 137.66 76.4126ZM110.557 69.2709C110.533 69.2942 110.509 69.3175 110.485 69.3412L110.494 69.3726L110.537 69.3303L110.54 69.312C110.541 69.3158 110.542 69.3197 110.543 69.3236L110.548 69.3184C110.546 69.3163 110.543 69.3141 110.54 69.312C110.554 69.2891 110.569 69.2665 110.583 69.2439C110.575 69.2528 110.566 69.2619 110.557 69.2709ZM112.004 67.7986C112.001 67.8039 111.997 67.8092 111.993 67.8146C111.998 67.8116 112.003 67.8087 112.007 67.8056C112.007 67.8067 112.007 67.808 112.008 67.8092C112.011 67.8006 112.014 67.7923 112.017 67.7832C112.013 67.7883 112.009 67.7935 112.004 67.7986ZM147.64 59.7566C147.647 59.7522 147.654 59.7479 147.661 59.7437L147.651 59.7416C147.647 59.7466 147.643 59.7516 147.64 59.7566ZM150.343 56.5438C150.332 56.5463 150.321 56.5487 150.311 56.5513L150.333 56.5616C150.336 56.5572 150.339 56.5527 150.342 56.5479C150.343 56.5465 150.344 56.545 150.345 56.5435C150.344 56.5436 150.344 56.5438 150.343 56.5438ZM153.193 52.2069L153.187 52.2414C153.189 52.2287 153.193 52.2171 153.195 52.2059L153.193 52.2069ZM155.789 47.3992C155.655 47.4178 155.536 47.4477 155.422 47.4891C155.396 47.4999 155.371 47.5122 155.345 47.5254L155.789 47.3992Z" fill="#262626"/>
<path d="M159.486 124.006C159.725 123.975 159.813 124.014 160.031 124.109L160.204 124.183L160.336 124.242L160.323 124.308C160.204 124.289 160.084 124.268 159.965 124.247L159.763 124.212C159.593 124.165 159.593 124.165 159.486 124.006Z" fill="#262626"/>
</svg>
