<svg width="240" height="240" viewBox="0 0 240 240" fill="none" xmlns="http://www.w3.org/2000/svg">
<path fill-rule="evenodd" clip-rule="evenodd" d="M75.5765 83.2589C76.137 82.698 77.686 83.0009 78.4675 82.9981C78.6107 82.9976 78.7539 82.997 78.9014 82.9964C81.9993 82.9936 85.0819 83.1973 88.1706 83.4203C88.4017 83.4367 88.6328 83.4532 88.8709 83.4701C99.8472 84.2613 99.8473 84.2613 105.026 85.3372C105.612 85.4556 106.198 85.5611 106.786 85.6652C110.444 86.3217 113.379 86.8753 115.878 89.8145C116.124 90.4601 116.124 90.4602 116.275 91.0064C116.531 91.2794 116.796 91.5446 117.069 91.801L117.329 92.2728C117.711 92.8662 118.137 93.2122 118.679 93.6541C119.078 94.0074 119.408 94.3841 119.749 94.7933C120.664 95.8702 121.632 96.6922 123.087 96.8295C124.387 96.7192 125.145 95.9035 126.003 94.9795L126.486 94.3835C127.02 93.7584 127.532 93.2887 128.186 92.7943H128.583L128.782 92.1983C129.296 91.8274 129.296 91.8274 129.961 91.4285C130.135 91.324 130.135 91.3241 130.312 91.2175C131.98 90.2276 133.504 89.3642 135.385 89.2232C135.368 89.2215 135.351 89.2199 135.333 89.2181V89.0195L135.743 88.9745C137.173 88.7803 138.423 88.4004 139.743 87.8341C140.698 87.4421 141.448 87.3775 142.48 87.4302L142.282 88.0262C142.169 88.0559 142.055 88.0845 141.942 88.1129C141.643 88.7068 141.321 89.2856 140.991 89.8641L140.625 90.5129L140.297 91.0064H139.9C139.89 91.1294 139.88 91.2525 139.869 91.3793C139.823 91.9462 139.774 92.513 139.726 93.0799L139.679 93.6661C139.587 94.7148 139.45 95.7193 139.205 96.7427C139.042 97.4366 138.927 98.1384 138.808 98.8408C138.646 99.7844 138.476 100.723 138.274 101.659C138.121 102.429 138.018 103.132 138.113 103.919C139.137 105.273 140.826 105.415 142.404 105.651C144.074 105.849 145.772 105.801 147.451 105.808C152.952 105.842 152.953 105.842 154.668 107.574C154.987 107.892 155.315 108.15 155.678 108.416C155.876 108.562 155.876 108.562 156.078 108.711C156.218 108.814 156.358 108.916 156.501 109.022C157.388 109.679 158.259 110.332 159.07 111.083C159.819 111.777 160.623 112.364 161.452 112.958C162.437 113.665 163.315 114.383 164.149 115.269C164.546 115.668 164.964 116.003 165.41 116.347C166.778 117.418 168.014 118.629 169.272 119.824C170.023 120.534 170.784 121.236 171.544 121.937C172.018 122.376 172.485 122.818 172.941 123.275C173.706 124.04 174.503 124.769 175.296 125.503C175.934 126.096 176.569 126.693 177.193 127.3C177.304 127.407 177.415 127.514 177.529 127.624C178.099 128.278 178.215 128.665 178.215 129.545C176.91 129.666 176.052 129.574 174.958 128.828C174.642 128.552 174.642 128.552 174.245 127.956C173.92 127.747 173.59 127.547 173.252 127.36C173.519 127.939 173.824 128.404 174.232 128.893L174.573 129.306L174.927 129.732C175.627 130.571 176.273 131.381 176.826 132.327C177.242 132.891 177.681 133.438 178.117 133.987C178.513 134.492 178.805 134.891 179.01 135.505C179.272 135.772 179.537 136.036 179.804 136.3C180.266 136.954 180.676 137.641 181.094 138.323L181.436 138.87C182.113 139.968 182.686 141.068 183.179 142.259L183.427 142.806C183.596 143.313 183.62 143.715 183.576 144.246C183.259 144.563 182.935 144.516 182.496 144.544C181.187 144.544 180.379 143.866 179.407 143.054C179.722 144.073 180.121 144.991 180.685 145.897C181.037 146.503 181.305 147.126 181.58 147.77C181.771 148.181 181.988 148.537 182.236 148.914C182.662 149.767 182.706 150.459 182.583 151.397C182.279 151.701 182.001 151.652 181.578 151.671C180.499 151.653 179.821 151.296 179.01 150.603C178.622 150.197 178.259 149.782 177.907 149.346C177.637 148.99 177.637 148.99 177.223 148.815C177.286 148.975 177.286 148.976 177.35 149.139C177.542 149.63 177.73 150.123 177.918 150.615L178.119 151.125C178.497 152.126 178.694 152.91 178.613 153.98C177.888 154.139 177.369 154.223 176.652 154.005C175.074 152.931 173.578 151.31 172.53 149.709C172.201 149.218 171.911 148.807 171.466 148.418C170.934 148.325 170.488 148.353 169.953 148.406C169.187 148.425 168.848 148.123 168.289 147.623V147.226L167.966 147.089C167.462 146.81 167.052 146.466 166.615 146.093C165.835 145.447 165.054 145.015 164.119 144.64C163.427 144.299 162.821 143.831 162.201 143.376C161.792 143.091 161.395 142.865 160.944 142.657V143.054C160.219 143.537 160.015 143.576 159.157 143.451C158.307 143.025 157.5 142.532 156.768 141.924C156.301 141.612 156.064 141.616 155.509 141.626C154.491 141.558 153.77 141.196 152.903 140.695C152.782 140.625 152.66 140.555 152.535 140.483C151.94 140.124 151.607 139.867 151.216 139.279L150.658 139.33L149.938 139.391L149.219 139.454L148.635 139.478L148.436 139.279H148.038C147.21 139.279 146.65 139.234 145.98 138.719C145.17 137.841 144.667 137.083 144.466 135.902L143.879 135.887L143.113 135.853L142.352 135.825L141.686 135.704L141.409 135.291C141.134 134.87 141.134 134.87 140.728 134.876C140.097 134.915 139.473 134.991 138.846 135.068C137.624 135.187 137.624 135.187 136.988 134.717L136.525 134.313C135.892 134.247 135.892 134.247 135.234 134.313C134.125 134.396 133.795 134.215 132.951 133.518C132.36 133.396 132.36 133.396 131.747 133.394C130.644 133.358 130.644 133.358 130.168 133.117C129.643 132.857 129.239 132.897 128.658 132.923C128.079 132.947 128.079 132.947 127.591 132.923L127.194 132.525C126.069 132.391 124.658 132.27 123.69 132.956C123.204 133.436 122.838 133.951 122.452 134.516C122.031 135.109 121.637 135.493 121.039 135.902H120.642L120.444 136.498L119.861 136.622C119.238 136.818 119.238 136.818 119.114 137.241C119.055 137.546 119.001 137.853 118.953 138.16C118.65 139.795 117.869 141.381 117.179 142.886C116.83 143.703 116.622 144.539 116.411 145.401C116.082 146.707 115.703 147.978 115.257 149.249C114.768 150.652 114.466 152.028 114.221 153.491C114.067 154.306 113.827 155.01 113.495 155.768H113.098L112.999 156.178C112.524 157.109 111.655 157.881 110.716 158.35C110.446 158.391 110.174 158.423 109.902 158.45L109.42 158.499C109.084 158.532 108.747 158.566 108.411 158.599C107.612 158.608 107.612 158.608 106.944 158.946C105.361 159.132 104.26 159.06 102.996 158.067C102.564 157.745 102.17 157.564 101.67 157.369C99.8155 156.579 98.5031 154.967 97.6131 153.185H96.9927C96.4267 153.12 96.238 153.001 95.8224 152.596C95.1257 151.675 94.6158 150.869 94.7259 149.691C95.1315 147.889 95.9055 146.629 97.1772 145.31C97.6944 144.754 98.09 144.165 98.4979 143.527C98.8669 142.957 99.2542 142.403 99.648 141.85L100.048 141.284L100.392 140.869H100.79L100.928 140.555C101.276 139.907 101.709 139.326 102.142 138.733C103.428 137.123 103.428 137.123 104.258 135.295C104.425 134.679 104.907 134.354 105.356 133.916C105.756 133.329 106.02 132.827 106.15 132.128L106.944 131.929L107.039 131.57C107.28 130.675 107.526 129.783 107.793 128.896C107.859 128.675 107.859 128.675 107.927 128.45C108.014 128.16 108.103 127.87 108.192 127.58C108.453 126.712 108.625 125.876 108.731 124.976H108.334L108.532 123.784L107.837 123.822C106.492 123.819 105.321 123.353 104.363 122.394C104.202 121.947 104.202 121.947 104.164 121.599H103.767L103.569 121.003C103.174 120.801 102.776 120.603 102.378 120.407C101.981 119.811 101.981 119.811 101.981 119.017L101.604 118.951L101.112 118.855L100.624 118.765C100.194 118.619 100.194 118.619 99.7969 118.023V117.229L99.4339 117.257C98.1478 117.315 98.1477 117.315 97.5138 116.918C97.1325 116.298 97.0728 115.763 97.0175 115.044L96.6615 115.021C94.9283 114.877 94.9283 114.877 94.2381 114.249C93.99 113.541 93.9899 113.541 93.841 112.858C93.6806 112.425 93.6806 112.425 93.2532 112.313C92.9348 112.222 92.6163 112.131 92.2978 112.04C91.8202 111.851 91.5776 111.67 91.2602 111.269V110.872L90.5901 111.17C89.6197 111.53 88.7117 111.624 87.6867 111.468C87.0124 111.13 86.6162 110.922 86.2846 110.239L86.0984 109.879L85.1058 109.68L84.9329 109.288C84.7471 108.846 84.7471 108.846 84.2985 108.756L83.803 108.699C82.456 108.482 81.4606 107.844 80.3411 107.097V106.7L79.8324 106.634C76.8511 106.217 76.851 106.217 75.8324 105.452C75.4891 104.995 75.5313 104.675 75.5765 104.118L75.1042 104.052L74.4721 103.956L73.851 103.865C73.1942 103.72 73.1941 103.72 72.5698 103.432C71.382 102.893 70.0332 102.825 68.7528 102.653C66.7612 102.356 66.7611 102.356 66.0471 101.535C65.9851 100.989 65.9851 100.989 66.0471 100.542L65.6601 100.638C64.8714 100.771 64.1035 100.785 63.3049 100.79L62.8424 100.803C61.729 100.81 60.9145 100.588 59.8927 100.145V99.7472L59.4205 99.6448C57.0825 99.1051 57.0824 99.1051 56.1207 98.3566C55.9866 97.7336 55.9865 97.7335 55.9222 97.1647C56.5295 96.9024 57.1378 96.6423 57.7462 96.3825L58.2661 96.1578L58.7721 95.9425C58.925 95.877 59.0779 95.8114 59.2353 95.7439C59.7159 95.5675 60.1832 95.4645 60.6869 95.3768L60.0114 95.3613C58.0813 95.2966 56.4216 95.216 54.9047 93.8869C54.5325 93.3903 54.5325 93.3902 54.5596 92.9805C54.731 92.5957 54.731 92.5956 55.059 92.4156C55.6106 92.2722 56.1617 92.1311 56.7163 91.9997L57.4267 91.8212C60.3957 91.1028 63.4276 90.6781 66.4442 90.2118L65.6958 90.1823C60.5143 89.9587 60.5142 89.9587 58.9001 88.8212C58.5031 88.2253 58.503 88.2252 58.5775 87.7907L58.7016 87.4306C60.6296 86.9215 62.5386 86.6682 64.5209 86.5118C64.6708 86.4994 64.8208 86.487 64.9752 86.4742C67.3931 86.2743 69.8055 86.166 72.2308 86.1087C75.0723 86.0391 77.9035 85.8462 80.7382 85.6427C80.563 85.6178 80.3877 85.593 80.2072 85.5673C79.9763 85.5333 79.7454 85.4992 79.5075 85.4643C79.279 85.4311 79.0505 85.3981 78.8151 85.364C78.0066 85.2184 77.3215 84.9742 76.5691 84.6495V84.2521L75.775 84.0535C75.6633 83.6687 75.6633 83.6686 75.5765 83.2589ZM137.688 89.8996C137.667 89.9904 137.667 90.0988 137.679 90.251C137.758 90.1738 137.836 90.0947 137.914 90.0127L137.688 89.8996ZM139.701 90.0127L139.7 90.0131H139.701C139.705 90.003 139.709 89.9934 139.713 89.9844C139.709 89.9936 139.705 90.0031 139.701 90.0127Z" fill="#262626"/>
</svg>
