<svg width="240" height="240" viewBox="0 0 240 240" fill="none" xmlns="http://www.w3.org/2000/svg">
<path d="M135.052 42C135.565 46.4219 136.014 50.8448 136.402 55.2795C136.661 58.1828 137.001 61.0678 137.395 63.9557C137.527 65.1118 137.578 66.211 137.548 67.3726C137.822 67.3726 138.097 67.3726 138.38 67.3726C138.28 66.7379 138.28 66.7379 138.179 66.0904C137.845 63.5644 137.836 61.0528 137.808 58.5078C137.784 57.7168 137.784 57.7168 137.761 56.9098C137.73 53.6535 137.986 50.8888 140.043 48.2392C140.455 48.1019 140.867 47.9646 141.291 47.8232C141.291 57.5688 141.291 67.3144 141.291 77.3553C141.761 76.4155 141.813 75.7548 141.9 74.7102C141.933 74.3488 141.965 73.9874 141.999 73.615C142.064 72.8569 142.128 72.0987 142.19 71.3403C142.371 69.3474 142.627 67.5879 143.371 65.7088C143.645 65.7088 143.92 65.7088 144.203 65.7088C144.368 69.7231 143.973 73.3654 143.16 77.2918C142.169 82.1045 141.418 86.7856 141.422 91.7183C141.409 94.0617 141.011 96.0342 140.348 98.2803C138.94 103.456 139.099 109.237 138.997 114.571C138.984 115.147 138.966 115.724 138.944 116.3C138.733 119.405 138.733 119.405 139.732 122.245C141.571 123.71 143.976 124.085 146.23 124.539C148.972 125.152 151.117 125.753 153.357 127.516C154.657 128.434 156.103 128.842 157.601 129.348C162.405 131.071 162.405 131.071 163.752 133.092C163.464 133.091 163.175 133.091 162.878 133.09C155.367 133.119 149.05 133.774 142.539 137.667C142.771 139.753 143.462 141.436 144.411 143.283C144.632 143.718 144.632 143.718 144.857 144.162C146.258 146.869 147.879 149.404 149.564 151.941C154.805 159.881 154.805 159.881 155.804 164.241C156.216 165.95 156.95 167.378 157.877 168.863C158.036 169.124 158.195 169.385 158.359 169.654C160.364 172.866 162.679 175.858 165 178.846C164.863 179.12 164.725 179.395 164.584 179.678C162.546 178.498 161.433 177.268 160.269 175.206C160.047 174.831 160.047 174.831 159.822 174.448C159.463 173.837 159.111 173.222 158.761 172.607C159.013 174.71 159.649 176.437 160.503 178.352C160.631 178.644 160.759 178.936 160.892 179.238C161.796 181.243 162.829 183.062 164.14 184.835C164.584 185.501 164.584 185.501 164.584 186.333C163.284 186.567 163.284 186.567 161.672 186.333C160.088 184.659 159.153 182.646 158.345 180.51C159.184 184.277 160.05 187.971 161.367 191.607C161.672 192.572 161.672 192.572 161.672 193.82C158.625 193.261 158.625 193.261 157.461 192.127C156.497 190.621 156.127 189.233 155.745 187.503C155.673 187.202 155.602 186.901 155.528 186.59C155.017 184.414 155.017 184.414 155.017 183.421C154.743 183.421 154.468 183.421 154.185 183.421C154.215 183.914 154.245 184.408 154.276 184.916C154.53 189.278 154.656 193.61 154.601 197.979C153.118 197.897 152.619 197.67 151.602 196.558C150.542 194.775 150.409 192.804 150.182 190.778C150.093 190.026 150.001 189.273 149.906 188.521C149.868 188.191 149.831 187.86 149.793 187.52C149.732 187.266 149.672 187.011 149.61 186.749C149.336 186.611 149.061 186.474 148.778 186.333C148.77 186.597 148.762 186.861 148.753 187.133C148.713 188.34 148.668 189.546 148.622 190.752C148.609 191.168 148.596 191.583 148.583 192.011C148.498 194.143 148.368 195.984 147.53 197.979C146.513 197.839 145.972 197.662 145.217 196.952C144.327 195.387 144.276 193.825 144.125 192.052C144.091 191.702 144.057 191.353 144.022 190.993C143.939 190.133 143.862 189.273 143.787 188.413C143.569 188.893 143.569 188.893 143.347 189.384C143.157 189.801 142.968 190.218 142.773 190.648C142.491 191.271 142.491 191.271 142.203 191.906C141.908 192.548 141.607 193.188 141.291 193.82C140.742 193.82 140.193 193.82 139.627 193.82C138.755 192.511 138.579 191.734 138.328 190.206C138.258 189.793 138.188 189.38 138.116 188.954C138.066 188.638 138.016 188.322 137.964 187.997C137.711 188.201 137.457 188.406 137.197 188.617C136.3 189.244 136.3 189.244 135.26 189.296C133.648 188.571 133.305 187.498 132.556 185.917C132.556 185.642 132.556 185.368 132.556 185.085C132.119 185.145 131.681 185.205 131.23 185.267C129.645 185.085 129.645 185.085 128.988 184.466C127.565 182.49 127.565 182.49 127.565 181.341C127.119 181.324 126.673 181.307 126.213 181.289C124.653 180.926 124.653 180.926 123.64 179.756C122.99 178.43 122.99 178.43 122.99 176.766C122.518 176.646 122.046 176.526 121.56 176.402C121.071 176.248 120.582 176.093 120.078 175.934C119.455 174.689 119.615 173.567 119.662 172.191C119.765 171.908 119.868 171.624 119.974 171.333C120.149 169.977 119.16 169.116 118.414 168.031C118.414 167.482 118.414 166.933 118.414 166.367C117.728 166.367 117.042 166.367 116.334 166.367C116.197 165.132 116.06 163.897 115.919 162.624C115.593 162.564 115.267 162.504 114.931 162.442C113.839 161.792 113.839 161.792 113.559 160.918C113.435 160.241 113.327 159.561 113.238 158.879C113.162 158.605 113.085 158.331 113.007 158.049C112.595 157.911 112.183 157.774 111.759 157.633C111.759 156.397 111.759 155.162 111.759 153.889C111.347 153.752 110.936 153.615 110.511 153.473C110.419 152.278 110.333 151.082 110.251 149.886C110.211 149.381 110.211 149.381 110.17 148.867C110.04 146.869 110.129 145.374 110.927 143.491C109.228 143.487 108.12 143.509 106.748 144.557C105.875 145.438 105.056 146.347 104.246 147.286C103.687 147.911 103.128 148.536 102.568 149.161C102.297 149.466 102.027 149.772 101.748 150.087C96.2126 156.226 96.2126 156.226 92.5216 156.775C91.1879 156.797 90.1642 156.697 88.8821 156.385C88.3417 156.423 88.3417 156.423 87.7903 156.463C87.4643 156.437 87.1383 156.411 86.8024 156.385C86.3806 155.835 85.9652 155.28 85.5546 154.721C84.7315 154.419 83.8993 154.139 83.0589 153.889C82.7844 153.615 82.5099 153.34 82.227 153.057C82.227 152.645 82.227 152.234 82.227 151.809C81.4034 151.809 80.5799 151.809 79.7313 151.809C79.5941 150.849 79.4568 149.888 79.3154 148.898C78.9245 148.85 78.9245 148.85 78.5258 148.8C77.6516 148.482 77.6516 148.482 77.2454 147.695C77.1564 147.372 77.0674 147.048 76.9757 146.714C76.6825 145.686 76.3952 144.718 75.97 143.736C74.8459 140.694 74.6796 136.234 75.5719 133.092C76.1896 132.68 76.1896 132.68 76.8197 132.26C76.9609 131.29 77.0994 130.319 77.2357 129.348C77.8336 128.542 77.8336 128.542 78.4835 128.101C78.758 128.101 79.0326 128.101 79.3154 128.101C79.3009 127.84 79.2864 127.579 79.2715 127.311C79.2603 126.971 79.249 126.631 79.2374 126.281C79.2229 125.943 79.2085 125.605 79.1935 125.257C79.2338 124.96 79.274 124.663 79.3154 124.357C80.658 123.462 81.0973 123.442 82.643 123.525C82.6808 123.127 82.6808 123.127 82.7193 122.721C82.7542 122.377 82.789 122.034 82.8249 121.679C82.8587 121.337 82.8925 120.994 82.9273 120.641C83.0589 119.782 83.0589 119.782 83.4749 119.366C86.0486 119.135 88.0289 119.822 90.4224 120.716C91.2072 120.998 91.992 121.281 92.7767 121.563C94.0002 122.01 95.2229 122.458 96.4453 122.908C97.6337 123.343 98.8243 123.771 100.015 124.199C100.374 124.334 100.732 124.468 101.101 124.606C103.679 125.531 106.116 125.887 108.847 126.021C108.53 125.738 108.213 125.455 107.886 125.163C106.874 124.058 106.382 123.223 105.861 121.839C105.466 120.901 104.958 120.078 104.428 119.21C103.382 117.37 102.965 115.661 103.024 113.542C103.162 113.131 103.299 112.719 103.44 112.295C103.468 111.249 103.439 110.21 103.414 109.164C103.44 108.135 103.44 108.135 103.674 107.25C103.948 106.384 103.948 106.384 103.44 105.224C103.347 102.654 103.347 102.654 103.653 101.534C103.99 100.066 103.84 98.5938 103.79 97.0964C103.856 96.0728 103.856 96.0728 104.688 95.2409C105.1 95.2409 105.512 95.2409 105.936 95.2409C105.661 94.8291 105.387 94.4174 105.104 93.9931C105.201 92.8817 105.201 92.8817 105.416 91.6014C105.648 89.7703 105.648 89.7703 104.995 88.1146C104.54 87.6413 104.076 87.176 103.603 86.7206C103.024 86.0901 103.024 86.0901 102.738 84.7903C103.117 83.208 103.914 82.589 105.104 81.5147C105.631 80.2581 105.631 80.2581 105.286 78.8631C105.097 77.2954 105.163 76.6277 105.936 75.2756C107.184 74.4437 107.184 74.4437 108.432 74.4437C108.569 73.3456 108.706 72.2475 108.847 71.1161C109.122 71.1161 109.397 71.1161 109.679 71.1161C109.542 70.4298 109.405 69.7435 109.263 69.0364C110.087 68.7619 110.911 68.4874 111.759 68.2045C111.745 67.9284 111.73 67.6523 111.715 67.3678C111.603 63.7198 111.603 63.7198 113.007 61.9653C113.968 62.1026 114.929 62.2399 115.919 62.3813C115.85 61.9266 115.781 61.4719 115.711 61.0035C115.433 58.8295 115.466 56.666 115.503 54.4783C116.052 54.4783 116.601 54.4783 117.166 54.4783C118.028 55.5263 118.028 55.5263 118.882 56.896C119.166 57.3448 119.45 57.7936 119.743 58.256C120.115 58.8568 120.115 58.8568 120.494 59.4697C120.768 59.8815 121.043 60.2932 121.326 60.7175C121.277 60.0846 121.224 59.4521 121.17 58.8198C121.126 58.2914 121.126 58.2914 121.082 57.7523C120.935 56.512 120.935 56.512 120.481 55.1802C120.023 53.4379 119.983 51.9239 120.026 50.1369C120.03 49.8326 120.033 49.5284 120.037 49.2149C120.047 48.4736 120.062 47.7325 120.078 46.9913C120.627 46.9913 121.176 46.9913 121.742 46.9913C121.832 47.2172 121.922 47.4431 122.014 47.6758C123.696 51.8972 125.38 56.1161 127.149 60.3016C126.645 56.6722 126.645 56.6722 125.849 53.1005C125.435 51.3194 125.38 49.5407 125.355 47.7192C125.348 47.4338 125.341 47.1484 125.333 46.8543C125.335 45.0398 125.564 43.8283 126.733 42.4159C127.145 42.4159 127.557 42.4159 127.981 42.4159C128.09 42.9195 128.199 43.423 128.311 43.9418C128.718 45.8165 129.126 47.6908 129.535 49.565C129.711 50.375 129.887 51.1851 130.062 51.9953C130.315 53.1623 130.569 54.3289 130.824 55.4955C130.941 56.0357 130.941 56.0357 131.059 56.5868C131.38 58.0463 131.716 59.4449 132.197 60.8619C132.556 61.9653 132.556 61.9653 132.556 63.6291C132.968 63.6291 133.38 63.6291 133.804 63.6291C133.689 63.1106 133.574 62.5922 133.455 62.058C130.329 47.5593 130.329 47.5593 133.388 42.7799C134.22 42 134.22 42 135.052 42Z" fill="#262626"/>
</svg>
