<svg width="240" height="240" viewBox="0 0 240 240" fill="none" xmlns="http://www.w3.org/2000/svg">
<path d="M146.79 147.559C146.645 147.378 146.552 147.325 146.306 147.284C145.783 147.198 145.195 147.216 145.109 147.32C145.045 147.396 144.826 147.412 143.853 147.412C143.159 147.412 142.585 147.44 142.458 147.481C142.34 147.519 141.661 147.563 140.949 147.58C139.445 147.617 138.72 147.527 138.52 147.279C138.411 147.144 138.395 147.143 137.922 147.215C137.221 147.322 135.067 147.334 133.962 147.236C133.022 147.153 133.011 147.154 132.772 147.288C132.513 147.434 132.504 147.433 131.921 147.175C131.656 147.057 131.615 147.002 131.614 146.753C131.611 146.169 131.296 146.044 130.643 146.366C130.418 146.477 130.069 146.696 129.869 146.851C129.67 147.007 129.446 147.175 129.373 147.223C129.301 147.272 129.185 147.359 129.118 147.416C129.05 147.473 128.914 147.539 128.816 147.562L128.637 147.604L128.672 147.123C128.691 146.858 128.725 146.592 128.749 146.533C128.789 146.433 128.726 146.425 127.935 146.425C127.397 146.425 127.053 146.4 127.01 146.357C126.969 146.315 126.806 146.303 126.582 146.324C125.475 146.429 125.253 146.436 125.187 146.37C125.149 146.332 125.057 146.301 124.981 146.301C124.826 146.301 124.403 145.848 124.403 145.68C124.403 145.522 124.249 145.425 123.94 145.391C123.743 145.368 123.63 145.386 123.555 145.452C123.496 145.503 123.342 145.579 123.211 145.621C123.081 145.663 122.901 145.736 122.811 145.783C122.721 145.83 122.614 145.869 122.573 145.869C122.533 145.869 122.477 145.905 122.45 145.95C122.345 146.121 121.828 146.435 121.684 146.415C121.56 146.397 121.535 146.354 121.519 146.132C121.503 145.904 121.517 145.869 121.623 145.869C121.69 145.869 121.762 145.818 121.782 145.755C121.83 145.603 122.324 145.105 122.645 144.883C122.785 144.787 123.103 144.646 123.351 144.57C123.764 144.445 123.876 144.437 124.673 144.477C125.152 144.501 125.553 144.547 125.565 144.579C125.576 144.612 125.678 144.621 125.792 144.599C125.928 144.574 126.122 144.604 126.362 144.687C126.562 144.756 126.917 144.845 127.151 144.884C127.385 144.923 127.706 144.992 127.864 145.037C128.022 145.082 128.26 145.104 128.394 145.086C128.528 145.068 128.69 145.08 128.754 145.113C128.877 145.177 129.025 145.153 129.025 145.069C129.025 145.042 128.969 145.005 128.901 144.987C128.833 144.969 128.741 144.868 128.696 144.761C128.652 144.655 128.513 144.499 128.389 144.414C128.264 144.329 128.162 144.224 128.162 144.18C128.162 144.084 127.932 143.868 127.762 143.805C127.694 143.779 127.354 143.74 127.007 143.718C126.519 143.686 126.375 143.695 126.375 143.755C126.375 143.797 126.313 143.833 126.237 143.833C126.16 143.834 126.037 143.85 125.962 143.871C125.854 143.9 125.818 143.875 125.787 143.751C125.749 143.6 125.574 143.466 125.574 143.587C125.574 143.682 125.223 143.657 125.121 143.555C125.07 143.504 124.987 143.462 124.936 143.462C124.87 143.462 124.831 143.364 124.801 143.123C124.756 142.756 124.741 142.741 124.561 142.878C124.495 142.927 124.315 142.969 124.161 142.97C124.006 142.972 123.81 143.012 123.726 143.061C123.641 143.109 123.497 143.15 123.407 143.151C123.316 143.152 123.2 143.195 123.149 143.246C123.098 143.297 122.959 143.339 122.84 143.339C122.496 143.339 122.014 143.462 121.976 143.559C121.958 143.607 121.9 143.647 121.847 143.647C121.795 143.647 121.704 143.672 121.645 143.701C121.312 143.87 120.903 143.951 120.566 143.915C120.26 143.882 120.206 143.857 120.175 143.731C120.155 143.651 120.1 143.585 120.052 143.585C120.005 143.585 119.967 143.544 119.967 143.493C119.967 143.442 119.913 143.4 119.847 143.4C119.781 143.4 119.71 143.373 119.689 143.339C119.668 143.305 119.53 143.277 119.383 143.277C119.13 143.277 119.108 143.263 119.001 143.032C118.933 142.884 118.845 142.786 118.78 142.785C118.721 142.784 118.673 142.811 118.673 142.845C118.673 142.879 118.628 142.907 118.573 142.907C118.499 142.907 118.484 142.869 118.513 142.753C118.547 142.615 118.538 142.605 118.412 142.653C118.335 142.682 118.126 142.726 117.949 142.75C117.667 142.789 117.625 142.781 117.625 142.689C117.625 142.609 117.591 142.593 117.486 142.622C117.085 142.734 117.07 142.734 117.07 142.644C117.07 142.581 117.024 142.562 116.916 142.583C116.803 142.604 116.762 142.586 116.762 142.513C116.762 142.448 116.709 142.413 116.614 142.413C116.504 142.413 116.446 142.361 116.389 142.212C116.276 141.92 116.264 141.3 116.37 141.259C116.482 141.216 116.478 140.954 116.364 140.91C116.314 140.891 116.259 140.898 116.242 140.926C116.201 140.993 115.715 140.991 115.715 140.924C115.715 140.895 115.608 140.854 115.477 140.833C115.108 140.774 115.057 140.724 115.14 140.502C115.204 140.333 115.199 140.314 115.093 140.314C115.022 140.314 114.975 140.271 114.974 140.206C114.974 140.145 114.954 140.125 114.928 140.16C114.859 140.255 114.431 140.389 114.352 140.341C114.184 140.237 113.453 140.334 113.112 140.507C113.053 140.537 112.923 140.561 112.823 140.561C112.723 140.561 112.626 140.586 112.607 140.616C112.588 140.646 112.483 140.686 112.372 140.704C111.997 140.766 110.797 141.094 110.631 141.18C110.464 141.266 109.211 141.413 108.905 141.382C108.468 141.338 108.396 141.308 108.356 141.148C108.335 141.063 108.29 140.993 108.257 140.993C108.183 140.993 108.178 140.721 108.25 140.576C108.279 140.517 108.351 140.317 108.411 140.131C108.538 139.735 108.672 139.512 108.783 139.512C108.83 139.512 108.851 139.465 108.833 139.398C108.816 139.332 108.872 139.204 108.97 139.087C109.062 138.978 109.126 138.882 109.113 138.872C109.101 138.863 108.896 138.818 108.659 138.773C108.121 138.671 108.073 138.654 108.073 138.553C108.073 138.467 108.062 138.464 107.135 138.305C106.756 138.239 106.486 138.159 106.402 138.085C106.328 138.021 106.197 137.969 106.111 137.969C105.855 137.969 105.239 137.763 105.239 137.677C105.239 137.626 105.151 137.598 104.988 137.598C104.851 137.598 104.68 137.567 104.609 137.53C104.539 137.492 104.341 137.461 104.171 137.461C103.988 137.461 103.825 137.425 103.775 137.375C103.691 137.291 103.496 137.259 103.221 137.282C103.144 137.289 103.082 137.268 103.082 137.236C103.082 137.204 103.027 137.192 102.959 137.21C102.891 137.228 102.836 137.212 102.836 137.175C102.836 137.139 102.792 137.125 102.739 137.145C102.62 137.191 101.703 136.966 100.789 136.665C100.36 136.524 99.6461 136.513 99.1874 136.639C99.0078 136.689 98.5975 136.802 98.2755 136.89C97.9179 136.989 97.4503 137.064 97.0739 137.085C96.4817 137.117 96.4523 137.113 96.3208 136.971C96.2455 136.889 96.1605 136.713 96.1319 136.578C96.0907 136.384 96.0548 136.337 95.9606 136.351C95.541 136.416 93.6447 137.083 93.6024 137.181C93.5911 137.207 93.5218 137.228 93.4484 137.227C93.2991 137.226 92.4694 137.481 92.4214 137.542C92.3734 137.604 91.1288 138.008 90.1413 138.284C89.6499 138.421 89.1841 138.559 89.1062 138.59C89.0284 138.622 88.7613 138.648 88.5127 138.648H88.0608L87.9918 138.373C87.9539 138.223 87.9229 138.028 87.9229 137.941C87.9229 137.826 87.8905 137.784 87.8033 137.784C87.7375 137.784 87.6688 137.808 87.6506 137.837C87.6324 137.867 87.4804 137.909 87.3127 137.931C87.145 137.953 86.9988 137.992 86.9878 138.018C86.9768 138.043 86.732 138.128 86.444 138.207C86.1559 138.286 85.8231 138.386 85.7045 138.429C85.5859 138.472 85.3432 138.542 85.1653 138.584C84.9874 138.626 84.8418 138.68 84.8418 138.705C84.8418 138.767 83.6973 138.918 83.6148 138.867C83.4143 138.743 83.669 138.401 83.962 138.401C84.0391 138.401 84.1023 138.363 84.1023 138.318C84.1023 138.272 84.1997 138.183 84.3186 138.118C84.4965 138.022 84.5157 137.995 84.4265 137.962C84.3668 137.94 84.2892 137.945 84.2539 137.973C84.2187 138.001 84.0801 138.05 83.9458 138.082C83.8116 138.114 83.5365 138.185 83.3345 138.24C83.1325 138.294 82.8205 138.339 82.6412 138.339C82.3201 138.339 82.3152 138.336 82.3152 138.154C82.3152 137.999 82.2909 137.969 82.1648 137.969C82.0821 137.969 81.9954 137.938 81.9721 137.9C81.9275 137.828 81.358 137.874 81.2384 137.96C81.2037 137.985 80.8425 137.99 80.4358 137.972C79.7664 137.941 79.6963 137.927 79.6963 137.822C79.6963 137.592 81.1135 136.912 82.7235 136.371C83.59 136.08 84.1666 135.906 86.8445 135.129C87.9068 134.821 89.6602 134.265 89.864 134.172C89.9657 134.126 90.139 134.07 90.2492 134.048C90.3593 134.027 90.4494 133.983 90.4494 133.952C90.4494 133.921 90.5069 133.895 90.5771 133.895C90.6473 133.895 90.7478 133.852 90.8004 133.799C90.8531 133.746 90.9551 133.712 91.0271 133.722C91.0992 133.733 91.186 133.706 91.22 133.662C91.2541 133.619 91.3889 133.574 91.5196 133.562C91.6503 133.55 91.7761 133.51 91.799 133.473C91.822 133.436 91.9367 133.397 92.054 133.388C92.1713 133.378 92.2979 133.331 92.3354 133.283C92.3729 133.235 92.4459 133.212 92.4976 133.232C92.6229 133.28 93.1076 133.154 93.217 133.045C93.2666 132.995 93.379 132.969 93.4789 132.984C93.5751 132.998 93.6538 132.987 93.6538 132.958C93.6538 132.93 93.6911 132.907 93.7368 132.907C93.7824 132.907 93.91 132.862 94.0204 132.807C94.1924 132.721 94.3713 132.682 94.6764 132.664C94.7135 132.662 94.8244 132.591 94.9229 132.506C95.0214 132.421 95.1222 132.352 95.147 132.352C95.1717 132.352 95.4254 132.241 95.7108 132.105C95.9961 131.969 96.2532 131.858 96.282 131.858C96.3108 131.858 96.5562 131.743 96.8274 131.604C97.3502 131.334 98.6948 130.735 98.9533 130.657C99.0381 130.631 99.1906 130.573 99.2923 130.529C99.7001 130.349 100.929 129.887 101.493 129.701C102.215 129.463 103.809 128.567 104.13 128.22C104.248 128.091 104.498 127.894 104.684 127.783C105.42 127.343 105.505 127.273 105.398 127.194C105.232 127.073 105.289 126.923 105.568 126.749C105.818 126.593 105.835 126.565 105.83 126.318C105.825 126.098 105.856 126.025 106.021 125.87C106.13 125.769 106.24 125.685 106.268 125.684C106.295 125.683 106.369 125.643 106.432 125.595C106.544 125.51 106.543 125.503 106.417 125.341C106.204 125.07 106.244 124.853 106.548 124.635C106.692 124.532 106.859 124.406 106.919 124.357C106.978 124.307 107.04 124.266 107.055 124.266C107.07 124.266 107.206 124.191 107.358 124.1C107.567 123.973 107.642 123.885 107.671 123.733C107.701 123.572 107.778 123.489 108.06 123.315C108.254 123.196 108.482 123.042 108.566 122.973C108.651 122.904 108.755 122.848 108.798 122.847C108.84 122.847 108.875 122.805 108.875 122.754C108.875 122.703 108.9 122.661 108.931 122.661C108.962 122.661 109.052 122.607 109.131 122.54C109.499 122.23 109.655 122.12 109.778 122.081C109.851 122.058 109.956 121.971 110.011 121.888C110.065 121.804 110.139 121.736 110.176 121.736C110.212 121.736 110.375 121.597 110.538 121.427C110.702 121.257 110.873 121.118 110.919 121.118C110.964 121.118 111.032 121.069 111.07 121.009C111.108 120.949 111.253 120.844 111.392 120.777C111.532 120.71 111.646 120.635 111.647 120.609C111.647 120.584 111.674 120.563 111.706 120.563C111.739 120.563 111.856 120.471 111.968 120.36C112.361 119.968 112.905 119.514 112.983 119.514C113.027 119.514 113.109 119.441 113.167 119.353C113.225 119.265 113.42 119.083 113.6 118.95C113.78 118.816 113.928 118.667 113.928 118.617C113.928 118.567 113.954 118.526 113.986 118.526C114.019 118.526 114.115 118.457 114.199 118.372C114.284 118.287 114.375 118.217 114.402 118.217C114.429 118.216 114.57 118.105 114.716 117.97C114.862 117.834 114.996 117.724 115.015 117.724C115.035 117.724 115.11 117.67 115.182 117.604C115.255 117.539 115.578 117.258 115.9 116.98C116.222 116.702 116.544 116.416 116.617 116.343C116.689 116.271 116.84 116.142 116.952 116.057C117.064 115.972 117.289 115.771 117.452 115.61C117.615 115.448 117.775 115.316 117.807 115.316C117.84 115.316 117.897 115.261 117.933 115.193C117.969 115.125 118.033 115.069 118.074 115.068C118.115 115.067 118.32 114.907 118.529 114.711C118.738 114.515 118.985 114.315 119.077 114.265C119.169 114.216 119.285 114.113 119.335 114.036C119.385 113.96 119.449 113.897 119.478 113.897C119.529 113.897 120.094 113.535 120.152 113.465C120.168 113.444 120.293 113.361 120.429 113.281C120.564 113.2 121.002 112.917 121.402 112.651C121.802 112.386 122.143 112.169 122.16 112.169C122.197 112.169 122.809 111.718 122.931 111.602C122.978 111.556 123.099 111.466 123.2 111.401C123.301 111.336 123.412 111.26 123.447 111.232C123.569 111.132 124.466 110.469 124.725 110.286C124.87 110.184 125.113 110.035 125.266 109.954C125.419 109.873 125.668 109.717 125.821 109.607C126.327 109.243 127.523 108.55 128.779 107.893C129.033 107.759 129.269 107.633 129.302 107.612C129.336 107.591 129.543 107.512 129.762 107.435C129.981 107.358 130.355 107.214 130.594 107.114C130.833 107.014 131.248 106.853 131.517 106.756C131.949 106.601 132.012 106.559 132.054 106.396C132.086 106.272 132.213 106.131 132.443 105.965C132.63 105.829 132.784 105.696 132.784 105.669C132.784 105.641 132.758 105.635 132.725 105.655C132.635 105.711 132.353 105.622 132.353 105.537C132.353 105.495 132.435 105.38 132.536 105.281C132.637 105.182 132.72 105.056 132.721 105.001C132.722 104.947 132.833 104.828 132.969 104.738C133.105 104.648 133.215 104.549 133.215 104.517C133.215 104.485 133.312 104.413 133.43 104.357C133.728 104.216 133.951 103.732 133.77 103.62C133.652 103.547 133.71 103.407 133.896 103.31C133.999 103.257 134.108 103.147 134.139 103.067C134.172 102.981 134.285 102.888 134.414 102.841C134.534 102.798 134.633 102.725 134.633 102.68C134.633 102.52 134.829 102.3 135.006 102.261C135.23 102.212 135.229 102.213 135.305 101.74C135.34 101.526 135.411 101.303 135.463 101.246C135.515 101.188 135.557 101.095 135.557 101.038C135.557 100.977 135.669 100.883 135.833 100.806C135.997 100.729 136.144 100.604 136.197 100.499C136.278 100.337 136.275 100.319 136.168 100.285C136.024 100.239 136.009 99.9764 136.148 99.9232C136.201 99.9026 136.351 99.8857 136.481 99.8857C136.866 99.8857 136.909 99.8504 136.833 99.5995C136.756 99.3501 136.824 99.271 137.117 99.2694C137.374 99.268 137.529 99.1622 137.529 98.9886C137.529 98.8453 137.549 98.8364 137.868 98.8364H138.207V98.6204C138.207 98.5016 138.237 98.4044 138.274 98.4044C138.311 98.4044 138.412 98.3488 138.498 98.2809C138.584 98.213 138.707 98.1575 138.77 98.1575C138.888 98.1575 138.924 97.9906 138.895 97.5778L138.882 97.3994L139.25 97.4328C139.591 97.4638 139.619 97.4566 139.636 97.3341C139.647 97.2581 139.707 97.1939 139.778 97.1828C139.846 97.1722 139.965 97.132 140.043 97.0933C140.156 97.0366 140.176 96.9898 140.145 96.8496C140.11 96.6864 140.12 96.6762 140.313 96.6776C140.425 96.6784 140.638 96.707 140.785 96.741C140.996 96.7897 141.093 96.7829 141.242 96.7086C141.345 96.6568 141.468 96.6144 141.514 96.6144C141.575 96.6144 141.587 96.568 141.557 96.4507L141.516 96.2869L141.933 96.3296C142.281 96.3653 142.362 96.3556 142.423 96.2712C142.485 96.186 142.535 96.1806 142.737 96.2365C142.913 96.2851 142.989 96.2842 143.02 96.2329C143.044 96.1945 143.201 96.1601 143.369 96.1567C143.536 96.1532 143.712 96.1185 143.76 96.0797C143.821 96.0289 144.036 96.0236 144.523 96.0608C144.896 96.0892 145.301 96.0976 145.422 96.0794C145.689 96.0394 146.517 96.1601 146.633 96.2558C146.693 96.3065 146.753 96.3038 146.862 96.2456C146.972 96.1864 147.056 96.1833 147.199 96.2331C147.371 96.2931 147.389 96.2874 147.389 96.1725C147.389 96.0639 147.413 96.0522 147.558 96.0918C147.651 96.1172 147.793 96.1342 147.873 96.1295C147.954 96.1247 148.12 96.1769 148.243 96.2455C148.564 96.4243 149.726 96.7941 149.766 96.7301C149.817 96.6472 150.027 96.6657 150.276 96.775C150.738 96.9783 150.81 97.0173 150.857 97.0907C150.885 97.1348 150.975 97.1525 151.073 97.1333C151.201 97.1082 151.336 97.1655 151.658 97.3822C151.887 97.537 152.095 97.6637 152.12 97.6637C152.145 97.6637 152.2 97.7193 152.243 97.7872C152.285 97.8551 152.355 97.9106 152.398 97.9106C152.442 97.9106 152.615 98.0511 152.783 98.2227C152.951 98.3944 153.231 98.617 153.406 98.7173C153.58 98.8176 153.769 98.9701 153.825 99.0563C153.881 99.1424 154.196 99.4935 154.525 99.8365C154.853 100.18 155.282 100.627 155.477 100.832C155.672 101.036 155.831 101.238 155.831 101.28C155.831 101.322 155.852 101.366 155.877 101.377C155.936 101.403 156.391 101.961 156.534 102.181C156.593 102.273 156.688 102.472 156.745 102.623C156.841 102.879 156.888 102.92 157.433 103.205C158.371 103.695 158.571 103.803 158.604 103.837C158.621 103.854 158.745 103.923 158.88 103.991C159.014 104.058 159.153 104.136 159.188 104.163C159.223 104.19 159.509 104.366 159.825 104.552C160.709 105.075 161.838 105.948 162.184 106.375C162.299 106.518 162.445 106.683 162.508 106.743C162.664 106.89 162.794 107.154 162.794 107.322C162.794 107.439 162.753 107.467 162.534 107.496C162.391 107.516 162.241 107.505 162.202 107.472C162.154 107.432 162.119 107.444 162.095 107.507C162.075 107.559 161.997 107.601 161.923 107.601C161.763 107.601 161.425 107.704 161.156 107.835C161.052 107.885 160.927 107.914 160.879 107.898C160.832 107.882 160.756 107.906 160.711 107.951C160.666 107.996 160.561 108.033 160.479 108.033C160.397 108.033 160.329 108.058 160.329 108.088C160.329 108.118 160.26 108.161 160.175 108.182C160.091 108.203 160.021 108.248 160.021 108.281C160.021 108.315 159.924 108.342 159.806 108.342C159.687 108.342 159.59 108.37 159.59 108.403C159.59 108.492 159.421 108.48 159.384 108.388C159.367 108.346 159.351 108.371 159.348 108.444C159.344 108.557 159.296 108.582 159.02 108.614C158.842 108.635 158.493 108.649 158.243 108.646C157.818 108.641 157.433 108.731 157.433 108.835C157.433 108.861 157.315 108.902 157.171 108.926C156.938 108.966 156.924 108.978 157.04 109.033C157.148 109.083 157.172 109.153 157.178 109.428C157.184 109.686 157.165 109.761 157.094 109.761C157.043 109.761 157.002 109.803 157.002 109.854C157.002 109.905 156.96 109.947 156.909 109.947C156.859 109.947 156.817 109.974 156.817 110.008C156.817 110.042 156.845 110.07 156.879 110.07C156.912 110.07 156.94 110.162 156.94 110.274C156.94 110.393 156.992 110.534 157.063 110.611C157.19 110.747 157.224 110.904 157.139 110.957C157.082 110.992 157.093 111.4 157.157 111.598C157.185 111.687 157.176 111.737 157.13 111.737C157.09 111.737 157.023 111.77 156.979 111.81C156.915 111.871 156.916 111.916 156.985 112.054C157.031 112.147 157.096 112.392 157.129 112.598C157.178 112.901 157.171 113.006 157.094 113.156C157.036 113.27 157.024 113.341 157.065 113.341C157.109 113.341 157.122 113.532 157.106 113.912C157.083 114.457 157.09 114.493 157.249 114.699C157.511 115.037 157.661 115.38 157.709 115.748C157.733 115.935 157.823 116.246 157.908 116.438C157.993 116.631 158.044 116.819 158.021 116.855C157.999 116.891 158.008 116.921 158.041 116.921C158.138 116.921 158.301 117.497 158.329 117.939C158.343 118.164 158.374 118.379 158.397 118.417C158.444 118.493 158.453 118.618 158.511 119.961C158.535 120.535 158.528 120.871 158.49 120.871C158.457 120.871 158.433 121.017 158.436 121.196C158.44 121.374 158.435 121.749 158.425 122.03C158.41 122.461 158.389 122.55 158.288 122.604C158.19 122.656 158.176 122.708 158.209 122.884C158.24 123.053 158.222 123.13 158.125 123.236C157.967 123.409 157.924 123.621 157.897 124.362C157.884 124.729 157.848 124.979 157.804 125.006C157.765 125.031 157.728 125.186 157.723 125.353C157.718 125.519 157.689 125.673 157.658 125.694C157.628 125.716 157.599 125.859 157.595 126.013C157.591 126.167 157.566 126.314 157.541 126.339C157.516 126.365 157.495 126.458 157.495 126.547C157.495 126.931 157.017 128.313 156.731 128.755C156.63 128.911 156.558 128.956 156.408 128.956C156.2 128.957 156.103 129.064 155.958 129.451C155.753 130 155.434 130.624 155.359 130.624C155.314 130.624 155.276 130.665 155.276 130.716C155.276 130.767 155.235 130.809 155.184 130.809C155.117 130.809 155.091 130.74 155.091 130.562C155.091 130.426 155.064 130.315 155.03 130.315C154.996 130.315 154.968 130.341 154.968 130.372C154.968 130.404 154.929 130.469 154.88 130.518C154.773 130.625 154.531 131.202 154.382 131.704C154.244 132.169 154.047 132.537 153.937 132.537C153.855 132.537 153.855 132.275 153.934 131.311C153.947 131.155 153.918 131.081 153.818 131.014C153.689 130.927 153.682 130.936 153.581 131.283C153.374 131.998 152.895 133.031 152.771 133.031C152.725 133.031 152.688 133.003 152.688 132.969C152.688 132.825 152.584 132.93 152.413 133.247C152.289 133.477 152.192 133.586 152.112 133.586C152.004 133.586 151.997 133.555 152.035 133.232C152.058 133.036 152.103 132.867 152.136 132.856C152.168 132.845 152.195 132.79 152.195 132.735C152.195 132.679 152.241 132.514 152.297 132.368C152.377 132.158 152.383 132.069 152.329 131.949C152.253 131.781 152.072 131.741 152.072 131.891C152.072 131.943 152.03 132.001 151.98 132.021C151.929 132.041 151.887 132.123 151.887 132.204C151.887 132.285 151.859 132.352 151.825 132.352C151.792 132.352 151.764 132.408 151.764 132.475C151.764 132.543 151.736 132.599 151.702 132.599C151.668 132.599 151.641 132.652 151.641 132.717C151.641 132.782 151.618 132.845 151.59 132.856C151.562 132.867 151.435 133.085 151.309 133.34C151.006 133.951 150.831 134.203 150.707 134.203C150.592 134.204 150.532 134.083 150.53 133.844L150.528 133.679L150.346 133.895C150.247 134.014 150.164 134.146 150.163 134.188C150.16 134.346 149.991 134.258 149.955 134.08C149.935 133.978 149.891 133.895 149.858 133.895C149.788 133.895 149.511 134.246 149.361 134.527C149.297 134.647 149.186 134.743 149.077 134.772C148.945 134.808 148.843 134.918 148.688 135.191C148.466 135.582 148.403 135.624 148.284 135.462C148.221 135.375 148.193 135.373 148.077 135.446C148.004 135.492 147.943 135.577 147.943 135.634C147.943 135.692 147.918 135.755 147.886 135.775C147.855 135.794 147.811 135.893 147.789 135.994C147.767 136.096 147.711 136.179 147.665 136.179C147.619 136.179 147.563 136.241 147.54 136.318C147.493 136.474 147.224 136.734 147.109 136.734C147.068 136.734 147.018 136.816 146.998 136.916C146.956 137.125 146.584 137.537 146.437 137.537C146.313 137.537 145.997 137.854 145.939 138.034C145.916 138.107 145.789 138.278 145.657 138.414C145.525 138.551 145.417 138.687 145.417 138.717C145.417 138.747 145.375 138.771 145.324 138.771C145.273 138.771 145.232 138.736 145.231 138.694C145.231 138.652 145.195 138.686 145.15 138.771C144.986 139.083 144.891 139.205 144.785 139.239C144.726 139.258 144.677 139.299 144.677 139.331C144.677 139.404 144.448 139.635 144.376 139.635C144.346 139.635 144.303 139.565 144.282 139.48L144.243 139.324L144.09 139.477C144.006 139.561 143.938 139.646 143.938 139.666C143.938 139.686 143.909 139.736 143.874 139.777C143.839 139.818 143.684 140.025 143.529 140.237C143.184 140.711 143.045 140.745 143.09 140.344C143.108 140.191 143.097 140.05 143.068 140.032C143.038 140.013 143.013 140.038 143.013 140.087C143.013 140.178 142.762 140.376 142.646 140.376C142.611 140.376 142.582 140.327 142.582 140.268C142.582 140.198 142.458 140.293 142.222 140.546C141.839 140.955 141.779 140.986 141.658 140.839C141.572 140.736 141.411 140.714 141.411 140.805C141.411 140.861 140.865 141.418 140.062 142.181C139.683 142.542 139.463 142.624 139.402 142.428C139.383 142.369 139.343 142.257 139.312 142.18L139.256 142.041L139.132 142.165C139.064 142.233 139.008 142.317 139.008 142.351C139.008 142.385 138.964 142.413 138.91 142.413C138.856 142.413 138.797 142.468 138.779 142.536C138.762 142.604 138.701 142.66 138.645 142.66C138.588 142.66 138.495 142.715 138.437 142.783C138.379 142.851 138.296 142.907 138.254 142.908C138.211 142.908 138.111 142.978 138.031 143.062C137.951 143.146 137.847 143.215 137.8 143.215C137.753 143.215 137.714 143.241 137.714 143.273C137.714 143.305 137.617 143.366 137.498 143.409C137.38 143.452 137.282 143.509 137.282 143.536C137.282 143.563 137.241 143.585 137.19 143.585C137.008 143.585 137.103 143.712 137.412 143.879C137.584 143.972 137.854 144.153 138.011 144.28C138.188 144.423 138.362 144.511 138.468 144.511C138.634 144.511 138.885 144.697 138.885 144.82C138.885 144.854 138.951 144.882 139.033 144.882C139.135 144.882 139.218 144.945 139.302 145.088C139.405 145.262 139.47 145.301 139.714 145.335C139.874 145.357 140.092 145.415 140.199 145.465C140.494 145.601 141.609 145.8 141.731 145.737C141.981 145.609 142.711 145.727 142.862 145.92C142.945 146.026 144.481 146.07 144.607 145.971C144.654 145.934 144.778 145.898 144.885 145.892C144.991 145.885 145.185 145.859 145.315 145.834C145.487 145.802 145.566 145.812 145.604 145.873C145.646 145.942 145.778 145.945 146.353 145.889C147.226 145.805 147.631 145.82 148.087 145.952C148.881 146.181 149.479 146.84 149.483 147.489C149.484 147.625 149.456 147.659 149.345 147.658C149.269 147.657 149.137 147.602 149.052 147.536C148.968 147.469 148.869 147.414 148.833 147.414C148.798 147.413 148.674 147.315 148.559 147.196C148.317 146.946 148.182 146.924 148.096 147.119C148.05 147.224 147.957 147.272 147.712 147.316C147.464 147.36 147.389 147.399 147.389 147.484C147.389 147.573 147.114 147.783 146.997 147.783C146.982 147.783 146.889 147.682 146.79 147.559ZM134.116 145.351C134.119 145.348 134.138 145.24 134.158 145.113C134.185 144.936 134.173 144.882 134.105 144.882C133.983 144.882 133.994 144.758 134.124 144.658C134.225 144.581 134.223 144.572 134.094 144.536C134.017 144.515 133.955 144.472 133.955 144.442C133.955 144.412 133.9 144.388 133.832 144.388C133.764 144.388 133.708 144.351 133.708 144.305C133.708 144.204 133.564 144.074 133.277 143.919C133.158 143.854 133.043 143.776 133.021 143.745C132.999 143.715 132.798 143.684 132.575 143.676C132.351 143.669 132.127 143.628 132.076 143.586C132.015 143.535 131.983 143.532 131.983 143.576C131.983 143.613 131.887 143.64 131.767 143.635C131.648 143.631 131.533 143.646 131.51 143.668C131.426 143.752 131.456 144.01 131.553 144.036C131.606 144.05 131.684 144.175 131.725 144.313C131.772 144.468 131.848 144.581 131.923 144.604C131.99 144.626 132.045 144.669 132.045 144.701C132.045 144.732 132.13 144.758 132.235 144.758C132.373 144.758 132.435 144.792 132.458 144.88C132.48 144.963 132.561 145.013 132.714 145.038C133.126 145.104 133.206 145.128 133.289 145.211C133.418 145.34 133.721 145.426 133.924 145.39C134.026 145.372 134.112 145.355 134.116 145.351Z" fill="#262626"/>
</svg>
