<svg width="240" height="240" viewBox="0 0 240 240" fill="none" xmlns="http://www.w3.org/2000/svg">
<path d="M115.033 64.6473C135.749 62.9283 161.155 76.5743 177.143 88.8795C177.143 89.2896 177.143 89.6997 177.143 90.1222C177.963 90.5323 178.783 90.9424 179.628 91.3649C179.423 91.775 179.218 92.1851 179.007 92.6076C174.292 90.5572 169.578 88.5067 164.721 86.3942C164.721 85.9841 164.721 85.574 164.721 85.1515C164.291 85.0866 163.861 85.0218 163.418 84.9549C161.315 84.4594 159.563 83.6427 157.617 82.705C155.047 81.4694 152.53 80.4289 149.815 79.5595C149.302 79.3288 148.79 79.0981 148.262 78.8604C146.43 78.2191 144.911 78.2797 142.983 78.3168C142.66 78.9623 142.337 79.6079 142.005 80.273C140.157 83.9703 138.309 87.6676 136.461 91.3649C136.228 91.8343 135.995 92.3036 135.755 92.7872C135.051 94.1873 134.336 95.58 133.615 96.9715C133.153 97.8728 132.692 98.774 132.23 99.6753C131.892 100.319 131.892 100.319 131.548 100.976C130.437 103.156 129.939 104.404 129.939 106.898C130.727 107.129 130.727 107.129 131.531 107.364C133.404 108.046 135.014 108.853 136.723 109.869C138.363 110.831 140.031 111.737 141.702 112.646C142.296 112.969 142.891 113.293 143.504 113.626C143.947 113.867 144.39 114.107 144.846 114.354C144.846 114.765 144.846 115.175 144.846 115.597C145.871 115.597 146.896 115.597 147.951 115.597C147.408 119.17 147.408 119.17 146.709 120.568C144.498 122.099 142.502 122.029 139.877 121.811C138.671 121.388 137.466 120.962 136.281 120.483C131.321 118.545 126.53 117.839 121.225 117.592C119.381 117.461 119.381 117.461 117.517 116.84C116.02 116.599 114.518 116.382 113.014 116.18C112.217 116.07 111.42 115.96 110.598 115.847C106.783 115.449 103.287 115.601 99.5054 116.218C99.5054 116.629 99.5054 117.039 99.5054 117.461C98.6856 117.461 97.8657 117.461 97.021 117.461C97.021 117.871 97.021 118.281 97.021 118.704C96.5686 118.862 96.1163 119.021 95.6502 119.184C93.8248 119.986 92.5375 120.933 91.0041 122.199C88.4587 124.296 88.4587 124.296 87.0834 124.296C87.0834 124.706 87.0834 125.116 87.0834 125.539C84.9334 127.403 84.9334 127.403 83.3567 127.403C82.2267 130.643 81.5386 133.644 81.2217 137.053C80.8998 140.324 80.4576 143.568 79.9795 146.819C79.8136 147.959 79.6478 149.098 79.4821 150.237C79.4016 150.789 79.321 151.341 79.238 151.909C79.0294 153.357 78.8288 154.806 78.633 156.256C78.5265 157.038 78.42 157.819 78.3103 158.625C78.219 159.307 78.1277 159.99 78.0337 160.693C77.7668 162.198 77.7668 162.198 77.1457 162.819C77.1004 164.851 77.1481 166.876 77.1845 168.909C77.1524 170.553 77.0155 171.828 76.5246 173.382C75.7048 173.587 74.8849 173.792 74.0402 174.003C72.8104 171.953 71.5806 169.902 70.3136 167.79C69.6987 168.405 69.6987 168.405 69.0714 169.032C65.5974 161.201 62.8788 153.66 61.4046 145.203C61.0918 143.463 60.7434 141.771 60.2983 140.062C58.0744 131.481 58.29 120.603 62.2393 112.49C64.0234 110.003 66.8491 109.674 69.7198 109.154C71.0808 108.935 72.4436 108.731 73.8073 108.529C78.6146 107.78 83.1014 106.637 87.7045 105.034C87.8402 103.716 87.8402 103.716 86.7922 102.741C83.7725 99.9581 81.8924 98.8947 77.7668 98.821C77.7668 98.2058 77.7668 97.5907 77.7668 96.957C78.2008 96.8817 78.6347 96.8064 79.0818 96.7288C79.9297 96.5726 79.9297 96.5726 80.7947 96.4133C81.6378 96.2619 81.6378 96.2619 82.4979 96.1075C84.0804 95.8196 84.0804 95.8196 85.2201 94.4716C86.8504 94.3939 86.8504 94.3939 88.3256 94.4716C88.3256 94.0615 88.3256 93.6514 88.3256 93.2289C88.6726 93.2484 89.0196 93.268 89.3772 93.2881C97.7811 94.0209 97.7811 94.0209 105.124 90.6877C105.525 90.2961 105.925 89.9044 106.338 89.5009C106.879 89.0516 107.42 88.6022 107.978 88.1393C111.989 84.7531 111.989 84.7531 114.412 80.1808C114.612 77.7411 114.559 75.3252 114.49 72.8801C114.463 71.5889 114.438 70.2977 114.417 69.0064C114.402 68.4379 114.387 67.8695 114.371 67.2838C114.412 65.89 114.412 65.89 115.033 64.6473Z" fill="#262626"/>
</svg>
