<svg width="240" height="240" viewBox="0 0 240 240" fill="none" xmlns="http://www.w3.org/2000/svg">
<path d="M112.267 65.4046C112.191 65.0734 112.191 65.0734 112.407 64.5C112.828 64.6016 112.828 64.6016 113.67 65.2155L114.016 65.4701C114.642 65.9202 115.203 66.3364 115.705 66.9266L116.026 67.3289C116.362 67.5362 116.646 67.7197 116.932 67.9946L117.239 68.3267L117.585 68.6995L117.949 69.0985C119.557 70.8515 121.106 72.6102 122.409 74.6051C122.584 74.876 122.762 75.145 122.944 75.4113C123.253 75.8622 123.482 76.2076 123.606 76.7455L122.944 76.8984L123.02 77.2297C123.409 77.1182 123.409 77.1182 123.848 77.0386C124.303 77.323 124.303 77.323 124.82 78.1067L125.032 78.4339C125.468 79.1004 125.901 79.7685 126.314 80.4495C126.517 80.7883 126.723 81.1224 126.938 81.4529C127.518 82.3318 128.068 83.2227 128.597 84.1326L128.88 84.6226C129.684 86.0124 130.468 87.4118 131.234 88.8227C131.671 89.6299 132.101 90.4405 132.563 91.2337C133.702 93.1632 134.682 95.1426 135.563 97.2013L135.76 97.6682L136.092 97.5917C136.337 98.0811 136.578 98.572 136.815 99.0651L137.085 99.6305C137.633 100.731 137.971 101.85 138.262 103.041L138.39 103.582C138.692 104.841 138.835 105.813 138.595 107.096C138.338 108.378 138.307 109.532 138.448 110.83L138.779 110.754C139.359 110.897 139.908 111.024 140.503 111.085C142.973 111.265 145.547 111.677 147.585 113.197L147.966 113.52C148.536 113.992 148.757 114.453 149.024 115.129C149.216 115.663 149.28 115.912 149.788 116.182C150.263 116.352 150.263 116.352 151.036 116.998L151.036 116.998C149.881 117.29 149.078 117.637 148.229 118.481L148.229 118.481C147.953 118.756 147.953 118.756 147.496 119.091L147.201 119.279L147.277 119.61L146.819 119.89C146.386 120.368 145.999 120.768 145.463 121.129C145.175 121.296 144.888 121.464 144.601 121.633L144.296 121.815C142.99 122.633 142.99 122.633 141.722 123.509C141.896 124.263 142.171 124.667 142.676 125.24L142.97 125.565C145.198 128.291 145.886 132.488 145.653 135.915C145.572 137.101 145.641 138.258 145.725 139.442L145.768 139.991L145.806 140.51C145.843 140.972 145.861 141.343 145.763 141.796C145.653 142.149 145.653 142.149 145.654 142.577L145.661 143.088L145.665 143.687C145.671 144.397 145.669 145.106 145.665 145.815L145.661 146.305C145.658 147.106 145.653 147.905 145.612 148.706C145.581 149.297 145.572 149.883 145.571 150.475L145.57 150.872L145.568 151.674L145.568 152.28L145.237 152.356C145.501 153.245 145.463 154.125 145.342 155.036C145.198 155.85 145.091 156.661 145.028 157.485C144.971 158.329 144.923 159.172 144.811 160.011L144.714 160.676C144.626 161.446 144.514 162.192 144.332 162.945C144.214 163.406 144.098 163.866 143.996 164.33L143.91 164.728L143.731 165.537C143.677 165.794 143.622 166.051 143.564 166.307C143.563 166.311 143.561 166.316 143.559 166.322C143.55 166.35 143.533 166.399 143.511 166.462C143.378 166.849 143.051 167.786 143.015 167.897L142.84 168.436L142.669 168.968L142.488 169.509C142.309 170.053 142.212 170.426 141.784 170.811L141.515 171.01L141.501 171.329C141.502 171.858 141.502 171.858 141.03 172.691L141.03 172.692L140.699 172.768L140.776 173.099L140.317 173.38L140.393 173.711L140.062 173.787L140.011 174.322C139.696 174.515 139.696 174.515 139.387 174.641L138.826 173.723L138.163 173.876C137.833 173.536 137.68 173.293 137.54 172.834L137.439 172.342L137.334 171.846L137.259 171.468H137.259C136.844 171.466 136.844 171.466 136.354 171.328C135.841 170.637 135.672 169.979 135.551 169.147C135.474 168.556 135.391 167.976 135.272 167.391L134.864 167.136C134.27 166.451 134.007 165.937 133.874 165.043L133.829 164.681C133.794 164.439 133.759 164.196 133.724 163.954L133.654 163.402C133.284 163.313 133.284 163.313 132.876 163.137L132.876 163.137C132.397 162.745 132.303 162.421 132.173 161.824L132.102 161.449C131.941 160.706 131.81 159.971 131.731 159.214L131.679 158.624L130.723 159.019C130.403 158.541 130.169 158.123 130 157.571L129.881 157.022C129.801 156.666 129.729 156.308 129.666 155.948C129.67 155.453 129.705 155.18 129.431 154.763C128.693 153.946 128.369 153.185 128.252 152.087L128.379 151.883C128.34 151.064 128.336 150.265 127.784 149.633L127.437 149.31C127.077 148.254 127.13 147.314 127.246 146.213L127.577 146.137L127.436 145.881C126.844 144.743 126.537 143.702 126.91 142.442L127.119 141.881L126.711 141.626L126.634 141.295L126.303 141.371L126.188 140.875L125.87 140.25C125.734 139.873 125.59 139.499 125.437 139.129L125.029 138.874C124.973 138.596 124.908 138.32 124.838 138.046C124.337 137.792 124.241 137.703 124.038 137.152C123.838 136.377 123.745 135.625 123.198 135.02C122.159 134.008 121.597 132.428 121.187 131.059C121.096 130.724 121.002 130.389 120.901 130.056C120.698 129.929 120.698 129.929 120.602 129.591L120.513 129.176L120.422 128.76L120.354 128.438L119.857 128.521L119.208 128.626C118.805 128.692 118.401 128.754 117.996 128.808C117.417 128.752 116.86 128.765 116.278 128.779C115.666 128.794 115.073 128.799 114.463 128.746C112.833 128.575 111.306 128.868 109.74 129.317C109.281 129.597 109.281 129.597 108.956 129.737L108.57 129.888L108.12 130.066C106.419 130.741 104.732 131.446 103.053 132.174L102.287 132.508C100.684 133.199 99.1229 133.926 97.5973 134.777C95.9558 135.695 94.3165 136.473 92.4488 136.795L92.296 136.132L93.2134 135.572L93.0988 135.075C93.4629 134.708 93.6297 134.596 94.1548 134.548L94.5513 134.565C94.4749 134.234 94.4749 134.234 94.6298 133.966C94.9791 133.464 95.2227 133.086 95.3574 132.482L95.3797 132.106L95.711 132.03L95.5964 131.533L96.0551 131.253L95.9787 130.921C96.1714 130.536 96.3893 130.282 96.6994 129.981C97.167 129.533 97.7083 129.1 97.7921 128.431L97.7627 128.067C97.8731 127.251 97.8148 126.634 97.5972 125.837L97.2659 125.914C97.113 125.251 97.113 125.251 97.1927 124.84L97.2915 124.512L96.9602 124.589L96.9601 124.589C96.6821 124.391 96.6821 124.391 96.3486 124.206C95.8625 124.23 95.4965 124.236 95.024 124.104L94.5728 123.929L94.5726 123.929C94.1154 123.757 94.1153 123.757 93.7621 123.582L93.6857 123.251C93.1423 123.197 92.7277 123.088 92.2215 122.874L91.6463 122.587C91.2969 122.416 90.9513 122.236 90.615 122.04L90.5386 121.709L90.2073 121.785C89.481 121.569 89.481 121.569 88.5 120.434L88.8073 120.357L89.212 120.259C89.4699 120.196 89.7296 120.139 89.9908 120.09C91.2676 120.17 91.2677 120.17 92.5477 120.18H92.5479C92.8083 120.183 93.0687 120.188 93.3291 120.193C95.281 120.27 97.1588 120.14 99.1006 119.927C101.129 119.705 103.16 119.516 105.193 119.346L105.685 119.305C106.769 119.214 107.854 119.123 108.938 119.034C108.823 118.537 116.622 114.677 116.572 114.533L116.381 113.959L116.37 113.927C116.143 113.255 115.989 112.803 116.239 112.116L116.57 112.039L116.459 111.581L116.317 110.986C116.229 110.621 116.146 110.254 116.074 109.886C116.161 109.198 116.161 109.198 116.091 108.497C116.062 108.15 116.043 107.801 116.036 107.452C116.252 106.671 116.252 106.671 116.095 105.868C115.994 105.336 115.994 105.336 115.959 104.853C116.262 104.381 116.347 104.309 116.298 103.717C116.189 103.161 116.079 102.612 116.011 102.05C116.327 101.646 116.327 101.646 116.167 101.12L116.036 100.648L116.495 100.368C116.421 99.882 116.421 99.882 116.166 99.6057C115.718 99.099 115.414 98.6795 115.233 98.0197C115.096 97.2988 115.022 96.6149 114.633 95.983C114.205 95.437 113.871 94.9887 113.641 94.3269C113.468 93.6389 113.192 93.0164 113.517 92.3533L113.718 92.1113C113.428 91.6379 113.17 91.1675 112.935 90.6652L112.934 90.6639C112.54 89.6887 112.133 88.6833 112.531 87.6747L112.775 87.2694L112.647 86.9739C111.921 85.7195 111.47 84.0639 111.705 82.6314L112.202 82.5167L112.049 81.8541C111.644 80.8923 111.407 79.9181 111.17 78.9016C111.081 78.4138 111.081 78.4138 111.209 78.21L111.815 78.1463L112.406 78.1081C112.07 77.5397 111.808 77.0275 111.586 76.4029L111.397 75.7676C111.207 75.1382 111.057 74.6982 111.12 74.0434L111.451 73.967L111.374 73.6357L111.833 73.3554C111.55 72.7214 111.341 72.0934 111.179 71.4179L111.099 71.0714C110.944 70.4505 110.82 69.8796 110.856 69.2344C110.967 68.8448 110.967 68.8448 111.352 68.5271L111.719 68.3225L111.477 68.0294C111.219 67.1239 111.146 66.4034 111.235 65.4683L112.267 65.4046Z" fill="#262626"/>
</svg>
