<svg width="104" height="104" viewBox="0 0 104 104" fill="none" xmlns="http://www.w3.org/2000/svg">
<mask id="path-1-inside-1_401_3556" fill="white">
<path fill-rule="evenodd" clip-rule="evenodd" d="M32.7498 36.0789C32.9927 35.8359 33.664 35.9672 34.0026 35.966C34.0647 35.9657 34.1267 35.9655 34.1906 35.9652C35.5331 35.964 36.8689 36.0522 38.2073 36.1489C38.3074 36.156 38.4076 36.1632 38.5107 36.1705C43.2671 36.5133 43.2672 36.5133 45.5114 36.9795C45.765 37.0309 46.0194 37.0766 46.2742 37.1217C47.8591 37.4062 49.1308 37.646 50.2137 38.9197C50.3205 39.1995 50.3205 39.1995 50.3857 39.4362C50.4968 39.5545 50.6116 39.6694 50.7298 39.7805L50.8428 39.985C51.008 40.2421 51.1927 40.3921 51.4275 40.5835C51.6005 40.7366 51.7433 40.8999 51.8912 41.0772C52.2879 41.5439 52.7074 41.9 53.3376 41.9595C53.9013 41.9117 54.2296 41.5583 54.6011 41.1579L54.8108 40.8996C55.0421 40.6287 55.2641 40.4252 55.5475 40.211H55.7195L55.8055 39.9527C56.0283 39.792 56.0284 39.792 56.3163 39.6191C56.3918 39.5738 56.3918 39.5739 56.4687 39.5277C57.1916 39.0987 57.8516 38.7246 58.6669 38.6635C58.6594 38.6627 58.6519 38.662 58.6444 38.6613V38.5752L58.8218 38.5557C59.4418 38.4716 59.9835 38.3069 60.5555 38.0616C60.9691 37.8917 61.2943 37.8637 61.7415 37.8865L61.6554 38.1448C61.6065 38.1576 61.5574 38.17 61.5083 38.1824C61.3789 38.4397 61.2391 38.6905 61.0963 38.9412L60.9377 39.2223L60.7952 39.4362H60.6232C60.6189 39.4895 60.6146 39.5429 60.6101 39.5978C60.59 39.8435 60.5689 40.0891 60.5479 40.3347L60.5274 40.5888C60.4879 41.0432 60.4286 41.4785 60.3221 41.922C60.2514 42.2226 60.2017 42.5267 60.15 42.8311C60.0798 43.24 60.0063 43.6468 59.9188 44.0524C59.8525 44.3859 59.808 44.6907 59.8489 45.0316C60.2928 45.6186 61.0244 45.6799 61.7084 45.782C62.4319 45.8681 63.1678 45.8474 63.8953 45.8504C66.2794 45.865 66.2795 45.8649 67.0227 46.6157C67.1612 46.7531 67.303 46.8653 67.4604 46.9803C67.5464 47.0436 67.5463 47.0437 67.634 47.1083C67.6945 47.1528 67.755 47.1971 67.8173 47.2429C68.2015 47.5277 68.5789 47.8107 68.9303 48.136C69.2551 48.4367 69.6035 48.6912 69.9627 48.9484C70.3893 49.2548 70.77 49.5662 71.1311 49.9498C71.3032 50.1231 71.4845 50.2682 71.6779 50.4173C72.2704 50.8811 72.806 51.4061 73.3511 51.9238C73.6768 52.2317 74.0064 52.5355 74.3358 52.8394C74.5412 53.0297 74.7434 53.2212 74.9412 53.4194C75.2727 53.7506 75.618 54.0666 75.9618 54.3848C76.2383 54.6417 76.5131 54.9003 76.7838 55.1633C76.8318 55.2097 76.8798 55.2561 76.9292 55.3039C77.1764 55.5873 77.2267 55.7548 77.2267 56.1364C76.6608 56.1887 76.2892 56.149 75.8153 55.8254C75.6782 55.706 75.6782 55.706 75.5061 55.4478C75.3655 55.3573 75.2223 55.2704 75.076 55.1895C75.1917 55.4402 75.3239 55.6418 75.5004 55.8536L75.6481 56.0327L75.8019 56.2171C76.1049 56.581 76.385 56.932 76.6245 57.3416C76.8047 57.5863 76.995 57.8233 77.184 58.0612C77.3555 58.2801 77.4822 58.4529 77.5708 58.7189C77.6847 58.8345 77.7995 58.9492 77.915 59.0633C78.1153 59.3467 78.2929 59.6443 78.4741 59.9403L78.6223 60.1772C78.9157 60.653 79.1639 61.1294 79.3774 61.6458L79.485 61.8825C79.5582 62.1022 79.5687 62.2765 79.5495 62.5066C79.4122 62.6441 79.2721 62.6239 79.0817 62.6357C78.5143 62.6357 78.1643 62.3418 77.7429 61.9901C77.8794 62.4316 78.0526 62.8293 78.2967 63.2222C78.4493 63.4849 78.5656 63.7548 78.6848 64.0339C78.7676 64.2118 78.8613 64.3661 78.9688 64.5296C79.1535 64.8991 79.1726 65.1989 79.1194 65.6056C78.9877 65.7374 78.8671 65.7158 78.6838 65.724C78.2163 65.7166 77.9226 65.5618 77.5708 65.2613C77.403 65.0854 77.2458 64.9057 77.093 64.7166C76.976 64.5626 76.976 64.5625 76.7966 64.4865C76.8239 64.5561 76.8239 64.5562 76.8519 64.6272C76.9348 64.84 77.0163 65.0533 77.0977 65.2667L77.1847 65.4878C77.3487 65.9214 77.434 66.261 77.3988 66.7247C77.0847 66.7939 76.8599 66.8301 76.5492 66.7355C75.8653 66.2701 75.217 65.5677 74.7631 64.8739C74.6206 64.6611 74.4947 64.4832 74.3017 64.3144C74.0715 64.2744 73.8781 64.2863 73.6461 64.3093C73.3145 64.3175 73.1673 64.1867 72.9253 63.97V63.7979L72.7855 63.7387C72.5669 63.6178 72.3893 63.4686 72.1998 63.3069C71.862 63.0271 71.5233 62.8399 71.1183 62.6774C70.8185 62.5295 70.556 62.3268 70.287 62.1297C70.1097 62.0064 69.9377 61.9083 69.7422 61.818V61.9901C69.4281 62.1997 69.3398 62.2164 68.968 62.1623C68.5997 61.9778 68.25 61.7641 67.9329 61.5005C67.7303 61.3654 67.6277 61.3669 67.3872 61.3714C66.9461 61.3417 66.6337 61.1852 66.258 60.9679C66.2055 60.9376 66.1529 60.9073 66.0987 60.8761C65.8407 60.7204 65.6964 60.6092 65.5268 60.3545L65.2852 60.3764L64.973 60.403L64.6615 60.4302L64.4084 60.4406L64.3224 60.3545H64.15C63.7912 60.3545 63.5485 60.3348 63.2581 60.1117C62.907 59.7314 62.6889 59.4028 62.6018 58.8911L62.3474 58.8844L62.0158 58.8696L61.6861 58.8575L61.3974 58.805L61.2775 58.6261C61.1582 58.4438 61.1582 58.4438 60.9822 58.4461C60.7087 58.4631 60.4384 58.496 60.1665 58.5296C59.6372 58.5811 59.6372 58.5811 59.3616 58.3773L59.1607 58.2024C58.8865 58.1737 58.8865 58.1737 58.6015 58.2024C58.1207 58.2384 57.9777 58.1598 57.6122 57.8581C57.3561 57.805 57.3561 57.805 57.0906 57.8043C56.6126 57.7886 56.6125 57.7886 56.4061 57.6839C56.1785 57.5716 56.0035 57.589 55.7518 57.5999C55.5011 57.6106 55.5011 57.6106 55.2894 57.5999L55.1173 57.4277C54.6298 57.3696 54.0185 57.3169 53.599 57.6145C53.3884 57.8224 53.23 58.0457 53.0624 58.2902C52.8801 58.5474 52.7094 58.7136 52.4504 58.8911H52.2784L52.1923 59.1494L51.9396 59.2032C51.6696 59.2878 51.6696 59.2879 51.616 59.4712C51.5904 59.6034 51.5673 59.7362 51.5461 59.8693C51.4149 60.5781 51.0764 61.265 50.7776 61.9172C50.6263 62.2713 50.536 62.6337 50.4449 63.007C50.3024 63.5731 50.138 64.124 49.9448 64.6749C49.7329 65.2827 49.6021 65.8787 49.4959 66.5129C49.4289 66.8662 49.325 67.1709 49.1813 67.4995H49.0093L48.9663 67.677C48.7603 68.0807 48.3837 68.4151 47.9769 68.6186C47.8599 68.6362 47.7422 68.6501 47.6244 68.6616L47.4156 68.6831C47.2697 68.6975 47.1239 68.7119 46.978 68.7262C46.6319 68.7301 46.6318 68.7301 46.3424 68.8768C45.6565 68.9575 45.1796 68.9259 44.6315 68.4958C44.4445 68.3564 44.2737 68.278 44.0572 68.1935C43.2534 67.8508 42.6847 67.1523 42.299 66.3804H42.0302C41.7849 66.3519 41.7032 66.3005 41.5231 66.1248C41.2212 65.7261 41.0002 65.3768 41.0479 64.8662C41.2237 64.0855 41.5591 63.5395 42.1102 62.968C42.3343 62.727 42.5057 62.4717 42.6825 62.1952C42.8423 61.9482 43.0102 61.708 43.1808 61.4682L43.3542 61.2231L43.5034 61.0432H43.6755L43.7356 60.9074C43.8865 60.6264 44.0739 60.3748 44.2616 60.1178C44.819 59.4201 44.819 59.4201 45.1786 58.6278C45.251 58.3612 45.4597 58.2202 45.6541 58.0303C45.8276 57.7762 45.9422 57.5586 45.9983 57.2555L46.3424 57.1694L46.3837 57.0137C46.4879 56.626 46.5946 56.2394 46.7104 55.855C46.739 55.7594 46.739 55.7594 46.7682 55.662C46.8062 55.5361 46.8445 55.4103 46.8832 55.2846C46.9962 54.9086 47.0707 54.5466 47.1166 54.1565H46.9446L47.0306 53.64L46.7295 53.6561C46.1464 53.6551 45.6392 53.4529 45.224 53.0374C45.1541 52.8438 45.1541 52.8437 45.138 52.6931H44.9659L44.8799 52.4348C44.7086 52.3473 44.5365 52.2613 44.3637 52.1766C44.1917 51.9184 44.1917 51.9183 44.1917 51.574L44.0283 51.5454L43.8153 51.5041L43.6036 51.4647C43.4174 51.4018 43.4174 51.4018 43.2453 51.1436V50.7992L43.0881 50.8114C42.5307 50.8365 42.5307 50.8365 42.256 50.6647C42.0908 50.3961 42.0649 50.1641 42.0409 49.8523L41.8867 49.8426C41.1356 49.78 41.1356 49.78 40.8365 49.508C40.729 49.2013 40.729 49.2013 40.6645 48.9054C40.595 48.7177 40.595 48.7177 40.4097 48.669C40.2718 48.6295 40.1338 48.59 39.9957 48.5506C39.7888 48.4689 39.6836 48.3903 39.5461 48.2167V48.0446L39.2558 48.1737C38.8352 48.3296 38.4418 48.3705 37.9976 48.3028C37.7054 48.1566 37.5337 48.0663 37.39 47.7702L37.3094 47.6142L36.8792 47.5281L36.8043 47.3583C36.7238 47.1666 36.7238 47.1666 36.5294 47.1276L36.3146 47.103C35.731 47.0091 35.2996 46.7326 34.8145 46.409V46.2368L34.5941 46.2082C33.3022 46.0275 33.3021 46.0275 32.8607 45.6958C32.712 45.4978 32.7303 45.3593 32.7498 45.1177L32.5452 45.0891L32.2713 45.0478L32.0021 45.0084C31.7175 44.9456 31.7175 44.9456 31.447 44.8205C30.9322 44.5869 30.3477 44.5575 29.7929 44.483C28.9299 44.3545 28.9298 44.3545 28.6204 43.9986C28.5936 43.7619 28.5936 43.7619 28.6204 43.5682L28.4528 43.6099C28.111 43.6677 27.7782 43.6735 27.4322 43.6758L27.2317 43.6812C26.7493 43.6845 26.3963 43.588 25.9535 43.3961V43.2239L25.7489 43.1795C24.7358 42.9456 24.7357 42.9456 24.319 42.6213C24.2609 42.3513 24.2609 42.3513 24.233 42.1048C24.4961 41.9911 24.7597 41.8784 25.0234 41.7658L25.2487 41.6685L25.468 41.5752C25.5342 41.5468 25.6004 41.5184 25.6687 41.4891C25.8769 41.4127 26.0794 41.3681 26.2977 41.33L26.005 41.3233C25.1686 41.2953 24.4494 41.2604 23.7921 40.6844C23.6308 40.4692 23.6308 40.4692 23.6425 40.2917C23.7168 40.1249 23.7168 40.1249 23.8589 40.0469C24.098 39.9847 24.3367 39.9236 24.5771 39.8666L24.8849 39.7893C26.1715 39.478 27.4853 39.2939 28.7925 39.0919L28.4682 39.0791C26.2229 38.9822 26.2228 38.9822 25.5234 38.4893C25.3514 38.2311 25.3513 38.231 25.3836 38.0427L25.4374 37.8867C26.2728 37.6661 27.1001 37.5563 27.9591 37.4886C28.024 37.4832 28.089 37.4778 28.1559 37.4723C29.2037 37.3856 30.2491 37.3387 31.3 37.3139C32.5314 37.2837 33.7582 37.2001 34.9866 37.1119C34.9106 37.1011 34.8347 37.0904 34.7565 37.0792C34.6564 37.0645 34.5563 37.0498 34.4533 37.0346C34.3543 37.0203 34.2552 37.0059 34.1533 36.9911C33.8029 36.9281 33.506 36.8223 33.18 36.6815V36.5094L32.8359 36.4233C32.7875 36.2565 32.7875 36.2565 32.7498 36.0789ZM59.6648 38.9566C59.6559 38.996 59.6558 39.0429 59.6611 39.1089C59.6951 39.0754 59.729 39.0411 59.7628 39.0056L59.6648 38.9566ZM60.537 39.0056L60.5368 39.0058H60.5371C60.539 39.0014 60.5408 38.9973 60.5424 38.9933C60.5407 38.9973 60.5389 39.0014 60.537 39.0056Z"/>
</mask>
<path fill-rule="evenodd" clip-rule="evenodd" d="M32.7498 36.0789C32.9927 35.8359 33.664 35.9672 34.0026 35.966C34.0647 35.9657 34.1267 35.9655 34.1906 35.9652C35.5331 35.964 36.8689 36.0522 38.2073 36.1489C38.3074 36.156 38.4076 36.1632 38.5107 36.1705C43.2671 36.5133 43.2672 36.5133 45.5114 36.9795C45.765 37.0309 46.0194 37.0766 46.2742 37.1217C47.8591 37.4062 49.1308 37.646 50.2137 38.9197C50.3205 39.1995 50.3205 39.1995 50.3857 39.4362C50.4968 39.5545 50.6116 39.6694 50.7298 39.7805L50.8428 39.985C51.008 40.2421 51.1927 40.3921 51.4275 40.5835C51.6005 40.7366 51.7433 40.8999 51.8912 41.0772C52.2879 41.5439 52.7074 41.9 53.3376 41.9595C53.9013 41.9117 54.2296 41.5583 54.6011 41.1579L54.8108 40.8996C55.0421 40.6287 55.2641 40.4252 55.5475 40.211H55.7195L55.8055 39.9527C56.0283 39.792 56.0284 39.792 56.3163 39.6191C56.3918 39.5738 56.3918 39.5739 56.4687 39.5277C57.1916 39.0987 57.8516 38.7246 58.6669 38.6635C58.6594 38.6627 58.6519 38.662 58.6444 38.6613V38.5752L58.8218 38.5557C59.4418 38.4716 59.9835 38.3069 60.5555 38.0616C60.9691 37.8917 61.2943 37.8637 61.7415 37.8865L61.6554 38.1448C61.6065 38.1576 61.5574 38.17 61.5083 38.1824C61.3789 38.4397 61.2391 38.6905 61.0963 38.9412L60.9377 39.2223L60.7952 39.4362H60.6232C60.6189 39.4895 60.6146 39.5429 60.6101 39.5978C60.59 39.8435 60.5689 40.0891 60.5479 40.3347L60.5274 40.5888C60.4879 41.0432 60.4286 41.4785 60.3221 41.922C60.2514 42.2226 60.2017 42.5267 60.15 42.8311C60.0798 43.24 60.0063 43.6468 59.9188 44.0524C59.8525 44.3859 59.808 44.6907 59.8489 45.0316C60.2928 45.6186 61.0244 45.6799 61.7084 45.782C62.4319 45.8681 63.1678 45.8474 63.8953 45.8504C66.2794 45.865 66.2795 45.8649 67.0227 46.6157C67.1612 46.7531 67.303 46.8653 67.4604 46.9803C67.5464 47.0436 67.5463 47.0437 67.634 47.1083C67.6945 47.1528 67.755 47.1971 67.8173 47.2429C68.2015 47.5277 68.5789 47.8107 68.9303 48.136C69.2551 48.4367 69.6035 48.6912 69.9627 48.9484C70.3893 49.2548 70.77 49.5662 71.1311 49.9498C71.3032 50.1231 71.4845 50.2682 71.6779 50.4173C72.2704 50.8811 72.806 51.4061 73.3511 51.9238C73.6768 52.2317 74.0064 52.5355 74.3358 52.8394C74.5412 53.0297 74.7434 53.2212 74.9412 53.4194C75.2727 53.7506 75.618 54.0666 75.9618 54.3848C76.2383 54.6417 76.5131 54.9003 76.7838 55.1633C76.8318 55.2097 76.8798 55.2561 76.9292 55.3039C77.1764 55.5873 77.2267 55.7548 77.2267 56.1364C76.6608 56.1887 76.2892 56.149 75.8153 55.8254C75.6782 55.706 75.6782 55.706 75.5061 55.4478C75.3655 55.3573 75.2223 55.2704 75.076 55.1895C75.1917 55.4402 75.3239 55.6418 75.5004 55.8536L75.6481 56.0327L75.8019 56.2171C76.1049 56.581 76.385 56.932 76.6245 57.3416C76.8047 57.5863 76.995 57.8233 77.184 58.0612C77.3555 58.2801 77.4822 58.4529 77.5708 58.7189C77.6847 58.8345 77.7995 58.9492 77.915 59.0633C78.1153 59.3467 78.2929 59.6443 78.4741 59.9403L78.6223 60.1772C78.9157 60.653 79.1639 61.1294 79.3774 61.6458L79.485 61.8825C79.5582 62.1022 79.5687 62.2765 79.5495 62.5066C79.4122 62.6441 79.2721 62.6239 79.0817 62.6357C78.5143 62.6357 78.1643 62.3418 77.7429 61.9901C77.8794 62.4316 78.0526 62.8293 78.2967 63.2222C78.4493 63.4849 78.5656 63.7548 78.6848 64.0339C78.7676 64.2118 78.8613 64.3661 78.9688 64.5296C79.1535 64.8991 79.1726 65.1989 79.1194 65.6056C78.9877 65.7374 78.8671 65.7158 78.6838 65.724C78.2163 65.7166 77.9226 65.5618 77.5708 65.2613C77.403 65.0854 77.2458 64.9057 77.093 64.7166C76.976 64.5626 76.976 64.5625 76.7966 64.4865C76.8239 64.5561 76.8239 64.5562 76.8519 64.6272C76.9348 64.84 77.0163 65.0533 77.0977 65.2667L77.1847 65.4878C77.3487 65.9214 77.434 66.261 77.3988 66.7247C77.0847 66.7939 76.8599 66.8301 76.5492 66.7355C75.8653 66.2701 75.217 65.5677 74.7631 64.8739C74.6206 64.6611 74.4947 64.4832 74.3017 64.3144C74.0715 64.2744 73.8781 64.2863 73.6461 64.3093C73.3145 64.3175 73.1673 64.1867 72.9253 63.97V63.7979L72.7855 63.7387C72.5669 63.6178 72.3893 63.4686 72.1998 63.3069C71.862 63.0271 71.5233 62.8399 71.1183 62.6774C70.8185 62.5295 70.556 62.3268 70.287 62.1297C70.1097 62.0064 69.9377 61.9083 69.7422 61.818V61.9901C69.4281 62.1997 69.3398 62.2164 68.968 62.1623C68.5997 61.9778 68.25 61.7641 67.9329 61.5005C67.7303 61.3654 67.6277 61.3669 67.3872 61.3714C66.9461 61.3417 66.6337 61.1852 66.258 60.9679C66.2055 60.9376 66.1529 60.9073 66.0987 60.8761C65.8407 60.7204 65.6964 60.6092 65.5268 60.3545L65.2852 60.3764L64.973 60.403L64.6615 60.4302L64.4084 60.4406L64.3224 60.3545H64.15C63.7912 60.3545 63.5485 60.3348 63.2581 60.1117C62.907 59.7314 62.6889 59.4028 62.6018 58.8911L62.3474 58.8844L62.0158 58.8696L61.6861 58.8575L61.3974 58.805L61.2775 58.6261C61.1582 58.4438 61.1582 58.4438 60.9822 58.4461C60.7087 58.4631 60.4384 58.496 60.1665 58.5296C59.6372 58.5811 59.6372 58.5811 59.3616 58.3773L59.1607 58.2024C58.8865 58.1737 58.8865 58.1737 58.6015 58.2024C58.1207 58.2384 57.9777 58.1598 57.6122 57.8581C57.3561 57.805 57.3561 57.805 57.0906 57.8043C56.6126 57.7886 56.6125 57.7886 56.4061 57.6839C56.1785 57.5716 56.0035 57.589 55.7518 57.5999C55.5011 57.6106 55.5011 57.6106 55.2894 57.5999L55.1173 57.4277C54.6298 57.3696 54.0185 57.3169 53.599 57.6145C53.3884 57.8224 53.23 58.0457 53.0624 58.2902C52.8801 58.5474 52.7094 58.7136 52.4504 58.8911H52.2784L52.1923 59.1494L51.9396 59.2032C51.6696 59.2878 51.6696 59.2879 51.616 59.4712C51.5904 59.6034 51.5673 59.7362 51.5461 59.8693C51.4149 60.5781 51.0764 61.265 50.7776 61.9172C50.6263 62.2713 50.536 62.6337 50.4449 63.007C50.3024 63.5731 50.138 64.124 49.9448 64.6749C49.7329 65.2827 49.6021 65.8787 49.4959 66.5129C49.4289 66.8662 49.325 67.1709 49.1813 67.4995H49.0093L48.9663 67.677C48.7603 68.0807 48.3837 68.4151 47.9769 68.6186C47.8599 68.6362 47.7422 68.6501 47.6244 68.6616L47.4156 68.6831C47.2697 68.6975 47.1239 68.7119 46.978 68.7262C46.6319 68.7301 46.6318 68.7301 46.3424 68.8768C45.6565 68.9575 45.1796 68.9259 44.6315 68.4958C44.4445 68.3564 44.2737 68.278 44.0572 68.1935C43.2534 67.8508 42.6847 67.1523 42.299 66.3804H42.0302C41.7849 66.3519 41.7032 66.3005 41.5231 66.1248C41.2212 65.7261 41.0002 65.3768 41.0479 64.8662C41.2237 64.0855 41.5591 63.5395 42.1102 62.968C42.3343 62.727 42.5057 62.4717 42.6825 62.1952C42.8423 61.9482 43.0102 61.708 43.1808 61.4682L43.3542 61.2231L43.5034 61.0432H43.6755L43.7356 60.9074C43.8865 60.6264 44.0739 60.3748 44.2616 60.1178C44.819 59.4201 44.819 59.4201 45.1786 58.6278C45.251 58.3612 45.4597 58.2202 45.6541 58.0303C45.8276 57.7762 45.9422 57.5586 45.9983 57.2555L46.3424 57.1694L46.3837 57.0137C46.4879 56.626 46.5946 56.2394 46.7104 55.855C46.739 55.7594 46.739 55.7594 46.7682 55.662C46.8062 55.5361 46.8445 55.4103 46.8832 55.2846C46.9962 54.9086 47.0707 54.5466 47.1166 54.1565H46.9446L47.0306 53.64L46.7295 53.6561C46.1464 53.6551 45.6392 53.4529 45.224 53.0374C45.1541 52.8438 45.1541 52.8437 45.138 52.6931H44.9659L44.8799 52.4348C44.7086 52.3473 44.5365 52.2613 44.3637 52.1766C44.1917 51.9184 44.1917 51.9183 44.1917 51.574L44.0283 51.5454L43.8153 51.5041L43.6036 51.4647C43.4174 51.4018 43.4174 51.4018 43.2453 51.1436V50.7992L43.0881 50.8114C42.5307 50.8365 42.5307 50.8365 42.256 50.6647C42.0908 50.3961 42.0649 50.1641 42.0409 49.8523L41.8867 49.8426C41.1356 49.78 41.1356 49.78 40.8365 49.508C40.729 49.2013 40.729 49.2013 40.6645 48.9054C40.595 48.7177 40.595 48.7177 40.4097 48.669C40.2718 48.6295 40.1338 48.59 39.9957 48.5506C39.7888 48.4689 39.6836 48.3903 39.5461 48.2167V48.0446L39.2558 48.1737C38.8352 48.3296 38.4418 48.3705 37.9976 48.3028C37.7054 48.1566 37.5337 48.0663 37.39 47.7702L37.3094 47.6142L36.8792 47.5281L36.8043 47.3583C36.7238 47.1666 36.7238 47.1666 36.5294 47.1276L36.3146 47.103C35.731 47.0091 35.2996 46.7326 34.8145 46.409V46.2368L34.5941 46.2082C33.3022 46.0275 33.3021 46.0275 32.8607 45.6958C32.712 45.4978 32.7303 45.3593 32.7498 45.1177L32.5452 45.0891L32.2713 45.0478L32.0021 45.0084C31.7175 44.9456 31.7175 44.9456 31.447 44.8205C30.9322 44.5869 30.3477 44.5575 29.7929 44.483C28.9299 44.3545 28.9298 44.3545 28.6204 43.9986C28.5936 43.7619 28.5936 43.7619 28.6204 43.5682L28.4528 43.6099C28.111 43.6677 27.7782 43.6735 27.4322 43.6758L27.2317 43.6812C26.7493 43.6845 26.3963 43.588 25.9535 43.3961V43.2239L25.7489 43.1795C24.7358 42.9456 24.7357 42.9456 24.319 42.6213C24.2609 42.3513 24.2609 42.3513 24.233 42.1048C24.4961 41.9911 24.7597 41.8784 25.0234 41.7658L25.2487 41.6685L25.468 41.5752C25.5342 41.5468 25.6004 41.5184 25.6687 41.4891C25.8769 41.4127 26.0794 41.3681 26.2977 41.33L26.005 41.3233C25.1686 41.2953 24.4494 41.2604 23.7921 40.6844C23.6308 40.4692 23.6308 40.4692 23.6425 40.2917C23.7168 40.1249 23.7168 40.1249 23.8589 40.0469C24.098 39.9847 24.3367 39.9236 24.5771 39.8666L24.8849 39.7893C26.1715 39.478 27.4853 39.2939 28.7925 39.0919L28.4682 39.0791C26.2229 38.9822 26.2228 38.9822 25.5234 38.4893C25.3514 38.2311 25.3513 38.231 25.3836 38.0427L25.4374 37.8867C26.2728 37.6661 27.1001 37.5563 27.9591 37.4886C28.024 37.4832 28.089 37.4778 28.1559 37.4723C29.2037 37.3856 30.2491 37.3387 31.3 37.3139C32.5314 37.2837 33.7582 37.2001 34.9866 37.1119C34.9106 37.1011 34.8347 37.0904 34.7565 37.0792C34.6564 37.0645 34.5563 37.0498 34.4533 37.0346C34.3543 37.0203 34.2552 37.0059 34.1533 36.9911C33.8029 36.9281 33.506 36.8223 33.18 36.6815V36.5094L32.8359 36.4233C32.7875 36.2565 32.7875 36.2565 32.7498 36.0789ZM59.6648 38.9566C59.6559 38.996 59.6558 39.0429 59.6611 39.1089C59.6951 39.0754 59.729 39.0411 59.7628 39.0056L59.6648 38.9566ZM60.537 39.0056L60.5368 39.0058H60.5371C60.539 39.0014 60.5408 38.9973 60.5424 38.9933C60.5407 38.9973 60.5389 39.0014 60.537 39.0056Z" fill="#262626" stroke="white" stroke-width="2" mask="url(#path-1-inside-1_401_3556)"/>
</svg>
