<svg width="104" height="104" viewBox="0 0 104 104" fill="none" xmlns="http://www.w3.org/2000/svg">
<mask id="path-1-inside-1_401_3560" fill="white">
<path d="M63.6089 63.9414C63.5461 63.8631 63.5057 63.8401 63.3994 63.8226C63.1727 63.7854 62.9177 63.7929 62.8804 63.8379C62.853 63.871 62.7578 63.878 62.3362 63.878C62.0355 63.878 61.7869 63.8902 61.732 63.9077C61.6807 63.9241 61.3864 63.9435 61.0779 63.9509C60.4263 63.9666 60.1118 63.9276 60.0252 63.8204C59.9779 63.7619 59.9709 63.7612 59.7662 63.7924C59.4624 63.8389 58.5289 63.8439 58.0501 63.8016C57.643 63.7657 57.6382 63.7659 57.5345 63.8243C57.4222 63.8875 57.4185 63.887 57.1659 63.7751C57.0508 63.7241 57.0333 63.7001 57.0328 63.5922C57.0316 63.3394 56.8951 63.285 56.6121 63.4245C56.5142 63.4728 56.3633 63.5675 56.2767 63.635C56.1901 63.7024 56.0934 63.775 56.0618 63.7962C56.0302 63.8173 55.9803 63.8549 55.9509 63.8796C55.9216 63.9043 55.8627 63.9328 55.8202 63.9429L55.7428 63.9613L55.7577 63.7525C55.7659 63.6376 55.7809 63.5226 55.7912 63.4969C55.8084 63.4537 55.7814 63.4501 55.4384 63.4501C55.2051 63.4501 55.0562 63.4392 55.0378 63.4208C55.0197 63.4026 54.9494 63.3972 54.8523 63.4064C54.3723 63.4518 54.2762 63.455 54.2476 63.4264C54.2313 63.41 54.1912 63.3966 54.1586 63.3966C54.0912 63.3966 53.9081 63.2 53.9081 63.1276C53.9081 63.0589 53.8412 63.0171 53.7072 63.0019C53.622 62.9923 53.5728 63.0001 53.5403 63.0286C53.515 63.0507 53.448 63.0837 53.3915 63.1019C53.335 63.1201 53.2569 63.1516 53.218 63.172C53.179 63.1924 53.1327 63.2091 53.1151 63.2092C53.0974 63.2093 53.0734 63.2251 53.0616 63.2442C53.0162 63.3185 52.792 63.4545 52.7297 63.4457C52.6761 63.4381 52.6652 63.4194 52.6582 63.323C52.6511 63.2246 52.6572 63.2094 52.7032 63.2094C52.7324 63.2094 52.7634 63.187 52.7721 63.1597C52.7928 63.0941 53.0069 62.878 53.146 62.7821C53.2068 62.7402 53.3446 62.6792 53.4521 62.6465C53.631 62.5921 53.6796 62.5886 54.0249 62.606C54.2324 62.6164 54.4063 62.6364 54.4113 62.6504C54.4163 62.6645 54.4606 62.6684 54.5098 62.6591C54.5686 62.6481 54.6529 62.661 54.7566 62.697C54.8433 62.727 54.9973 62.7654 55.0988 62.7823C55.2003 62.7993 55.3393 62.8291 55.4076 62.8485C55.476 62.868 55.5794 62.8776 55.6374 62.8698C55.6955 62.862 55.7657 62.8674 55.7935 62.8818C55.8468 62.9093 55.9109 62.8988 55.9109 62.8625C55.9109 62.8508 55.8867 62.8348 55.8572 62.8271C55.8277 62.8194 55.7877 62.7753 55.7684 62.7293C55.749 62.6832 55.6891 62.6155 55.6351 62.5788C55.5812 62.5421 55.537 62.4965 55.537 62.4775C55.537 62.4359 55.4373 62.3423 55.3635 62.3148C55.3341 62.3038 55.1869 62.2869 55.0364 62.2771C54.8248 62.2634 54.7626 62.267 54.7626 62.2931C54.7626 62.3116 54.7356 62.3269 54.7026 62.3271C54.6695 62.3273 54.616 62.3346 54.5836 62.3433C54.5366 62.3559 54.5213 62.3454 54.5078 62.2913C54.4914 62.226 54.4155 62.1678 54.4155 62.2206C54.4155 62.2617 54.2633 62.2506 54.219 62.2064C54.197 62.1843 54.161 62.1662 54.1389 62.1662C54.1104 62.1662 54.0936 62.1239 54.0806 62.0191C54.0607 61.8601 54.0546 61.8538 53.9765 61.913C53.948 61.9346 53.8699 61.9527 53.8029 61.9532C53.736 61.9538 53.6511 61.9714 53.6144 61.9924C53.5777 62.0134 53.5155 62.031 53.4761 62.0316C53.4368 62.0321 53.3866 62.0506 53.3645 62.0726C53.3425 62.0947 53.2822 62.1128 53.2304 62.1128C53.0817 62.1128 52.8725 62.1661 52.8564 62.2081C52.8483 62.2292 52.8231 62.2465 52.8004 62.2465C52.7778 62.2465 52.7383 62.2571 52.7128 62.27C52.5687 62.3431 52.3911 62.3783 52.2454 62.3625C52.1126 62.3482 52.0893 62.3372 52.0756 62.2828C52.067 62.2481 52.0431 62.2197 52.0227 62.2197C52.0022 62.2197 51.9855 62.2017 51.9855 62.1796C51.9855 62.1576 51.9622 62.1395 51.9337 62.1395C51.9052 62.1395 51.8744 62.1275 51.8654 62.1128C51.8563 62.098 51.7965 62.086 51.7325 62.086C51.6228 62.086 51.6132 62.0799 51.5671 61.9797C51.5377 61.9158 51.4996 61.8731 51.4715 61.8727C51.4458 61.8724 51.4248 61.8841 51.4248 61.8988C51.4248 61.9135 51.4054 61.9255 51.3818 61.9255C51.3494 61.9255 51.3429 61.9092 51.3555 61.8592C51.3705 61.7991 51.3664 61.795 51.3116 61.8157C51.2784 61.8283 51.1881 61.8473 51.111 61.8578C50.989 61.8746 50.9708 61.8711 50.9708 61.8313C50.9708 61.7967 50.9561 61.7896 50.9107 61.8023C50.7367 61.8506 50.7305 61.851 50.7305 61.8118C50.7305 61.7843 50.7104 61.7763 50.6637 61.7852C50.6148 61.7946 50.597 61.7865 50.597 61.7548C50.597 61.727 50.5741 61.7116 50.5328 61.7116C50.4851 61.7116 50.4601 61.6893 50.4351 61.6246C50.3863 61.4982 50.381 61.2294 50.4269 61.2117C50.4757 61.1929 50.4737 61.0793 50.4242 61.0603C50.4027 61.052 50.379 61.0551 50.3715 61.0672C50.3535 61.0963 50.143 61.0955 50.143 61.0663C50.143 61.0538 50.0966 61.0361 50.0399 61.027C49.8799 61.0014 49.8579 60.9797 49.8941 60.8836C49.9216 60.8105 49.9195 60.8022 49.8737 60.8022C49.843 60.8022 49.8224 60.7835 49.8222 60.7554C49.8219 60.7288 49.8133 60.7202 49.8021 60.7355C49.7723 60.7764 49.5865 60.8347 49.5527 60.8138C49.4796 60.7685 49.163 60.8109 49.0152 60.8857C48.9897 60.8986 48.9333 60.9092 48.8899 60.9092C48.8465 60.9092 48.8044 60.9199 48.7963 60.9329C48.7882 60.946 48.7425 60.9632 48.6946 60.9711C48.532 60.998 48.0118 61.1401 47.94 61.1772C47.8676 61.2146 47.325 61.2783 47.1923 61.265C47.0027 61.2459 46.9718 61.2328 46.9544 61.1635C46.9452 61.1266 46.9258 61.0964 46.9114 61.0964C46.8791 61.0964 46.877 60.9786 46.9082 60.9155C46.9208 60.8899 46.9522 60.8033 46.978 60.7229C47.0332 60.5512 47.0914 60.4545 47.1395 60.4545C47.1598 60.4545 47.1687 60.4343 47.1611 60.4054C47.1536 60.3765 47.178 60.3209 47.2204 60.2705C47.26 60.2233 47.2879 60.1814 47.2824 60.1774C47.2769 60.1733 47.1883 60.154 47.0855 60.1345C46.8523 60.0903 46.8318 60.0826 46.8318 60.0392C46.8318 60.0018 46.8267 60.0005 46.4252 59.9314C46.2608 59.9031 46.1441 59.8682 46.1073 59.8362C46.0754 59.8085 46.0186 59.7858 45.9812 59.7858C45.8705 59.7858 45.6035 59.6965 45.6035 59.6595C45.6035 59.6374 45.5652 59.6253 45.4949 59.6253C45.4352 59.6253 45.3613 59.6119 45.3307 59.5955C45.3001 59.5791 45.2145 59.5657 45.1405 59.5657C45.0616 59.5657 44.9908 59.5504 44.9691 59.5286C44.9328 59.4923 44.8483 59.4782 44.7289 59.4884C44.6959 59.4913 44.6689 59.4823 44.6689 59.4684C44.6689 59.4545 44.6448 59.4494 44.6155 59.4571C44.5861 59.4648 44.5621 59.4581 44.5621 59.4421C44.5621 59.4261 44.5433 59.4202 44.5203 59.4291C44.4685 59.449 44.0714 59.3512 43.675 59.2208C43.4894 59.1598 43.1799 59.1548 42.9812 59.2097C42.9034 59.2311 42.7255 59.2801 42.586 59.3185C42.431 59.3611 42.2284 59.394 42.0653 59.4029C41.8087 59.4169 41.796 59.415 41.739 59.3534C41.7064 59.3181 41.6695 59.2415 41.6571 59.1831C41.6393 59.0992 41.6237 59.0787 41.5829 59.085C41.4011 59.113 40.5794 59.4019 40.561 59.4443C40.5561 59.4556 40.5261 59.4647 40.4943 59.4645C40.4296 59.464 40.07 59.5743 40.0492 59.601C40.0284 59.6276 39.4891 59.803 39.0612 59.9223C38.8483 59.9817 38.6464 60.0415 38.6127 60.0552C38.5789 60.0688 38.4632 60.08 38.3555 60.08H38.1596L38.1298 59.9612C38.1133 59.8958 38.0999 59.8116 38.0999 59.774C38.0999 59.7241 38.0859 59.7056 38.0481 59.7056C38.0196 59.7056 37.9898 59.716 37.9819 59.7288C37.974 59.7416 37.9081 59.7599 37.8355 59.7696C37.7628 59.7792 37.6995 59.796 37.6947 59.807C37.6899 59.8179 37.5839 59.8549 37.459 59.8892C37.3342 59.9235 37.19 59.9668 37.1386 59.9854C37.0872 60.004 36.982 60.0342 36.9049 60.0523C36.8278 60.0705 36.7647 60.094 36.7647 60.1047C36.7647 60.1315 36.2688 60.1972 36.2331 60.1751C36.1462 60.1213 36.2566 59.973 36.3835 59.973C36.4169 59.973 36.4443 59.9569 36.4443 59.9371C36.4443 59.9174 36.4865 59.8785 36.5381 59.8506C36.6151 59.8091 36.6234 59.797 36.5848 59.7829C36.5589 59.7734 36.5253 59.7756 36.51 59.7877C36.4947 59.7998 36.4347 59.8211 36.3765 59.835C36.3183 59.8489 36.1991 59.8796 36.1116 59.9033C36.024 59.9269 35.8889 59.9463 35.8112 59.9463C35.672 59.9463 35.6699 59.9451 35.6699 59.866C35.6699 59.7988 35.6594 59.7858 35.6047 59.7858C35.5689 59.7858 35.5313 59.7724 35.5212 59.7561C35.5019 59.7247 35.2551 59.745 35.2033 59.7821C35.1882 59.7929 35.0317 59.7952 34.8555 59.7871C34.5654 59.7738 34.535 59.7677 34.535 59.7224C34.535 59.6225 35.1492 59.3281 35.8468 59.0935C36.2223 58.9673 36.4722 58.892 37.6326 58.5553C38.0929 58.4217 38.8527 58.181 38.941 58.1407C38.9851 58.1206 39.0602 58.0965 39.1079 58.087C39.1557 58.0775 39.1947 58.0587 39.1947 58.0452C39.1947 58.0316 39.2196 58.0205 39.25 58.0205C39.2805 58.0205 39.324 58.0018 39.3468 57.979C39.3696 57.9561 39.4138 57.9412 39.4451 57.9458C39.4763 57.9503 39.5139 57.9386 39.5287 57.9198C39.5434 57.9009 39.6019 57.8813 39.6585 57.8762C39.7151 57.8711 39.7696 57.8537 39.7795 57.8376C39.7895 57.8215 39.8392 57.8049 39.89 57.8007C39.9409 57.7966 39.9958 57.7762 40.012 57.7554C40.0282 57.7346 40.0599 57.7247 40.0823 57.7333C40.1366 57.7542 40.3466 57.6995 40.394 57.6522C40.4155 57.6307 40.4642 57.6193 40.5075 57.6257C40.5492 57.6318 40.5833 57.6269 40.5833 57.6147C40.5833 57.6025 40.5995 57.5926 40.6192 57.5926C40.639 57.5926 40.6943 57.573 40.7421 57.5491C40.8167 57.5119 40.8942 57.495 41.0264 57.4873C41.0425 57.4864 41.0906 57.4555 41.1332 57.4188C41.1759 57.382 41.2196 57.3519 41.2303 57.3519C41.2411 57.3519 41.351 57.3037 41.4747 57.2449C41.5983 57.186 41.7097 57.1379 41.7222 57.1378C41.7347 57.1378 41.841 57.0882 41.9585 57.0276C42.1851 56.9107 42.7677 56.6512 42.8798 56.6172C42.9165 56.6061 42.9826 56.5812 43.0266 56.5618C43.2034 56.484 43.7359 56.2838 43.9804 56.2032C44.293 56.1002 44.984 55.7119 45.1228 55.5612C45.1742 55.5054 45.2824 55.4203 45.3631 55.372C45.6819 55.1814 45.7189 55.1509 45.6726 55.117C45.6005 55.0642 45.6252 54.9992 45.7461 54.9238C45.8544 54.8563 45.8618 54.8441 45.8596 54.7373C45.8575 54.6417 45.8711 54.61 45.9425 54.5431C45.9894 54.4992 46.0375 54.4629 46.0493 54.4624C46.0611 54.462 46.0932 54.4445 46.1206 54.4237C46.169 54.387 46.1688 54.3839 46.1139 54.314C46.0215 54.1963 46.039 54.1024 46.1709 54.0078C46.2333 53.9631 46.3056 53.9088 46.3314 53.8873C46.3573 53.8657 46.3839 53.8481 46.3904 53.8481C46.397 53.8481 46.4561 53.8156 46.5217 53.7759C46.6125 53.7209 46.6448 53.6831 46.6572 53.6169C46.6702 53.5473 46.7038 53.5114 46.8261 53.4359C46.91 53.3841 47.0087 53.3174 47.0454 53.2877C47.0822 53.2579 47.1272 53.2335 47.1456 53.2333C47.1639 53.2332 47.179 53.2148 47.179 53.1928C47.179 53.1707 47.19 53.1527 47.2034 53.1527C47.2168 53.1527 47.2559 53.129 47.2902 53.1001C47.4496 52.9658 47.5171 52.9179 47.5704 52.9012C47.6022 52.8912 47.6475 52.8535 47.6712 52.8173C47.6949 52.7811 47.7271 52.7515 47.7428 52.7515C47.7584 52.7515 47.8292 52.6913 47.8999 52.6177C47.9707 52.5442 48.0449 52.484 48.0647 52.484C48.0845 52.484 48.114 52.4626 48.1303 52.4365C48.1466 52.4104 48.2094 52.3653 48.2699 52.3362C48.3305 52.3072 48.3801 52.2744 48.3803 52.2633C48.3805 52.2523 48.392 52.2433 48.406 52.2433C48.42 52.2433 48.4711 52.2037 48.5195 52.1553C48.6895 51.9854 48.9257 51.7886 48.9594 51.7886C48.9782 51.7886 49.014 51.7573 49.0391 51.719C49.0641 51.6807 49.1485 51.602 49.2266 51.5443C49.3047 51.4865 49.3686 51.4215 49.3686 51.3999C49.3686 51.3783 49.3801 51.3606 49.3941 51.3606C49.4081 51.3606 49.4496 51.3306 49.4863 51.2938C49.5231 51.257 49.5627 51.2268 49.5744 51.2266C49.586 51.2264 49.6472 51.1782 49.7102 51.1196C49.7733 51.0609 49.8317 51.0129 49.84 51.0129C49.8483 51.0129 49.8808 50.9897 49.9123 50.9612C49.9437 50.9328 50.0836 50.811 50.2231 50.6907C50.3626 50.5704 50.5025 50.4462 50.5338 50.4148C50.5652 50.3834 50.6306 50.3276 50.6793 50.2908C50.7279 50.254 50.8254 50.1667 50.8958 50.0969C50.9663 50.027 51.0356 49.9698 51.0498 49.9698C51.0641 49.9698 51.0886 49.9457 51.1043 49.9163C51.12 49.8869 51.1475 49.8626 51.1653 49.8623C51.1832 49.8619 51.2719 49.7923 51.3626 49.7074C51.4532 49.6226 51.56 49.5357 51.5998 49.5143C51.6397 49.493 51.6901 49.4483 51.7118 49.4151C51.7335 49.3818 51.7614 49.3546 51.7736 49.3546C51.796 49.3546 52.0405 49.1978 52.0656 49.1674C52.073 49.1585 52.127 49.1226 52.1858 49.0877C52.2445 49.0528 52.4343 48.9301 52.6076 48.815C52.7808 48.6999 52.9285 48.6057 52.9358 48.6057C52.9519 48.6057 53.2173 48.4107 53.2699 48.3602C53.2905 48.3404 53.3431 48.3013 53.3867 48.2732C53.4304 48.2452 53.4785 48.2121 53.4936 48.1999C53.5467 48.1565 53.9351 47.8692 54.0476 47.79C54.1103 47.7458 54.2157 47.6811 54.2819 47.6461C54.348 47.611 54.4562 47.5435 54.5223 47.4959C54.7418 47.338 55.2601 47.0375 55.8041 46.7528C55.9142 46.6951 56.0164 46.6405 56.031 46.6314C56.0457 46.6223 56.1353 46.5877 56.2302 46.5545C56.325 46.5212 56.4872 46.4586 56.5907 46.4153C56.6941 46.372 56.8741 46.3023 56.9908 46.2605C57.178 46.1933 57.2052 46.1751 57.2235 46.1044C57.2374 46.0505 57.2923 45.9896 57.3918 45.9176C57.473 45.8588 57.5395 45.801 57.5396 45.7891C57.5397 45.7772 57.5283 45.7745 57.5143 45.7832C57.475 45.8076 57.3528 45.7688 57.3528 45.732C57.3528 45.714 57.3886 45.6642 57.4322 45.6213C57.4759 45.5784 57.5119 45.5238 57.5123 45.5C57.5127 45.4762 57.5611 45.4249 57.6199 45.386C57.6786 45.347 57.7267 45.3039 57.7267 45.29C57.7267 45.2762 57.7685 45.2451 57.8196 45.2208C57.9487 45.1594 58.0454 44.9499 57.967 44.9013C57.916 44.8698 57.9408 44.8089 58.0216 44.767C58.0663 44.7439 58.1136 44.6964 58.1269 44.6616C58.141 44.6244 58.1899 44.5842 58.2459 44.5639C58.2981 44.545 58.3409 44.5135 58.3409 44.4938C58.3409 44.4246 58.4258 44.3295 58.5027 44.3126C58.5996 44.2912 58.5994 44.2916 58.6323 44.0867C58.6473 43.9939 58.6779 43.8975 58.7004 43.8726C58.723 43.8477 58.7414 43.8072 58.7414 43.7827C58.7414 43.7561 58.7897 43.7154 58.8609 43.6819C58.932 43.6484 58.9959 43.5946 59.0186 43.549C59.0536 43.4787 59.0525 43.4711 59.0059 43.4562C58.9435 43.4364 58.9372 43.3225 58.9973 43.2994C59.0205 43.2905 59.0856 43.2832 59.142 43.2832C59.3086 43.2832 59.3274 43.2679 59.2941 43.1592C59.2609 43.0511 59.2905 43.0168 59.4174 43.0161C59.5286 43.0155 59.5959 42.9696 59.5959 42.8944C59.5959 42.8323 59.6045 42.8285 59.7428 42.8285H59.8896V42.7349C59.8896 42.6834 59.9028 42.6413 59.9188 42.6413C59.9348 42.6413 59.9785 42.6172 60.0159 42.5878C60.0532 42.5583 60.1062 42.5343 60.1336 42.5343C60.1848 42.5343 60.2004 42.462 60.1876 42.2831L60.1822 42.2058L60.3415 42.2202C60.4893 42.2337 60.5014 42.2306 60.509 42.1775C60.5137 42.1446 60.5399 42.1167 60.5706 42.1119C60.5999 42.1073 60.6515 42.0899 60.6851 42.0731C60.7344 42.0486 60.743 42.0283 60.7297 41.9675C60.7142 41.8968 60.7184 41.8924 60.8021 41.893C60.851 41.8933 60.9432 41.9057 61.007 41.9205C61.0984 41.9416 61.1403 41.9386 61.2047 41.9064C61.2496 41.884 61.3028 41.8656 61.3229 41.8656C61.349 41.8656 61.3543 41.8455 61.3416 41.7947L61.3238 41.7237L61.5042 41.7422C61.6549 41.7577 61.69 41.7535 61.7167 41.7169C61.7436 41.68 61.7651 41.6776 61.8527 41.7018C61.929 41.7229 61.9618 41.7225 61.9755 41.7003C61.9858 41.6836 62.0537 41.6688 62.1264 41.6673C62.1991 41.6657 62.2753 41.6507 62.2958 41.6339C62.3225 41.6119 62.4158 41.6096 62.6267 41.6257C62.7883 41.638 62.9636 41.6417 63.0163 41.6338C63.132 41.6165 63.4908 41.6687 63.5407 41.7102C63.5671 41.7322 63.5931 41.731 63.6402 41.7058C63.6881 41.6801 63.7243 41.6788 63.7861 41.7004C63.8607 41.7264 63.8684 41.7239 63.8684 41.6741C63.8684 41.6271 63.879 41.622 63.9418 41.6391C63.9822 41.6502 64.0437 41.6575 64.0785 41.6555C64.1132 41.6534 64.1853 41.676 64.2387 41.7057C64.3778 41.7832 64.8814 41.9435 64.8986 41.9157C64.9207 41.8798 65.0117 41.8879 65.1194 41.9352C65.3199 42.0233 65.3509 42.0402 65.3713 42.072C65.3835 42.0911 65.4223 42.0988 65.4648 42.0905C65.5206 42.0796 65.579 42.1044 65.7182 42.1983C65.8177 42.2654 65.9079 42.3203 65.9188 42.3203C65.9296 42.3203 65.9534 42.3444 65.9718 42.3738C65.9901 42.4032 66.0205 42.4273 66.0393 42.4273C66.058 42.4273 66.1331 42.4882 66.2059 42.5626C66.2788 42.637 66.4002 42.7334 66.4758 42.7769C66.5513 42.8203 66.6331 42.8864 66.6575 42.9237C66.6819 42.9611 66.8184 43.1132 66.9608 43.2619C67.1032 43.4105 67.2887 43.6046 67.3732 43.6932C67.4576 43.7818 67.5267 43.8692 67.5267 43.8875C67.5267 43.9057 67.5357 43.9247 67.5468 43.9296C67.5721 43.9408 67.7694 44.1824 67.8313 44.278C67.857 44.3176 67.8981 44.4037 67.9227 44.4693C67.9642 44.5804 67.9849 44.5979 68.221 44.7214C68.6275 44.934 68.7142 44.9808 68.7284 44.9952C68.7357 45.0027 68.7895 45.0328 68.8478 45.0621C68.9062 45.0914 68.9662 45.125 68.9813 45.1368C68.9964 45.1486 69.1207 45.2244 69.2576 45.3054C69.6405 45.5319 70.13 45.9103 70.2797 46.0954C70.3297 46.1573 70.3929 46.2289 70.4201 46.2545C70.4875 46.3182 70.5442 46.4329 70.5442 46.5057C70.5442 46.5563 70.5261 46.5684 70.4313 46.5811C70.3693 46.5895 70.3046 46.5847 70.2876 46.5706C70.2668 46.5533 70.2516 46.5583 70.2411 46.5857C70.2325 46.6081 70.1989 46.6265 70.1664 46.6265C70.0973 46.6265 69.951 46.6711 69.8343 46.7277C69.789 46.7497 69.735 46.762 69.7144 46.7551C69.6937 46.7482 69.6608 46.7586 69.6413 46.7781C69.6217 46.7977 69.5766 46.8137 69.5409 46.8137C69.5052 46.8137 69.4761 46.8245 69.4761 46.8376C69.4761 46.8507 69.446 46.869 69.4093 46.8782C69.3726 46.8874 69.3425 46.9068 69.3425 46.9212C69.3425 46.9357 69.3005 46.9475 69.2491 46.9475C69.1977 46.9475 69.1556 46.9595 69.1556 46.9742C69.1556 47.0127 69.0825 47.0072 69.0665 46.9675C69.0591 46.9491 69.0521 46.96 69.0509 46.9917C69.0491 47.0409 69.0284 47.0516 68.9086 47.0655C68.8315 47.0744 68.6801 47.0806 68.5721 47.0793C68.3877 47.0771 68.221 47.116 68.221 47.1613C68.221 47.1723 68.1699 47.1901 68.1075 47.2007C68.0066 47.2179 68.0003 47.2231 68.0507 47.2468C68.0974 47.2688 68.1079 47.2988 68.1106 47.4181C68.1132 47.53 68.1049 47.5626 68.074 47.5626C68.0521 47.5626 68.0341 47.5807 68.0341 47.6028C68.0341 47.6248 68.0161 47.6429 67.994 47.6429C67.972 47.6429 67.954 47.6549 67.954 47.6696C67.954 47.6843 67.966 47.6964 67.9807 47.6964C67.9954 47.6964 68.0074 47.7362 68.0074 47.7849C68.0074 47.8365 68.0297 47.8975 68.0608 47.9309C68.1155 47.9898 68.1304 48.0577 68.0934 48.0805C68.0689 48.0957 68.0738 48.2726 68.1012 48.3583C68.1136 48.3972 68.1095 48.4185 68.0895 48.4185C68.0725 48.4185 68.0431 48.4329 68.0243 48.4506C67.9965 48.4766 67.9969 48.4964 68.0267 48.5561C68.0468 48.5966 68.075 48.7026 68.0893 48.7917C68.1105 48.9233 68.1076 48.9688 68.0741 49.0338C68.0488 49.0828 68.0438 49.1139 68.0613 49.1139C68.0803 49.1139 68.0864 49.1967 68.0794 49.3613C68.0693 49.5974 68.0722 49.613 68.1414 49.7024C68.2548 49.8488 68.3198 49.9972 68.3405 50.157C68.351 50.238 68.3897 50.3725 68.4266 50.456C68.4634 50.5395 68.4856 50.6208 68.4759 50.6365C68.4661 50.6523 68.4699 50.6652 68.4843 50.6652C68.5265 50.6652 68.5971 50.9147 68.6091 51.1063C68.6152 51.2037 68.6286 51.2969 68.6387 51.3134C68.659 51.3462 68.663 51.4005 68.688 51.9825C68.6987 52.2313 68.6954 52.377 68.679 52.377C68.6648 52.377 68.6543 52.4402 68.6557 52.5174C68.6571 52.5947 68.655 52.7573 68.6508 52.8789C68.6444 53.0658 68.6352 53.1043 68.5914 53.1278C68.5492 53.1504 68.5428 53.173 68.5571 53.2492C68.5708 53.3223 68.5628 53.3558 68.5209 53.4016C68.4522 53.4765 68.4336 53.5684 68.422 53.8896C68.4163 54.0484 68.4007 54.157 68.3817 54.1687C68.3647 54.1793 68.3489 54.2468 68.3466 54.3189C68.3444 54.3909 68.3317 54.4575 68.3185 54.4669C68.3053 54.4762 68.293 54.5384 68.2911 54.6051C68.2893 54.6717 68.2787 54.7353 68.2677 54.7463C68.2567 54.7574 68.2477 54.7979 68.2477 54.8365C68.2477 55.0028 68.0406 55.6015 67.9168 55.7931C67.8731 55.8607 67.8418 55.8802 67.7768 55.8805C67.6866 55.8808 67.6445 55.9271 67.5818 56.0948C67.4928 56.3325 67.3547 56.603 67.3222 56.603C67.3025 56.603 67.2864 56.621 67.2864 56.6431C67.2864 56.6652 67.2684 56.6832 67.2463 56.6832C67.2174 56.6832 67.2063 56.6535 67.2063 56.5762C67.2063 56.5174 67.1943 56.4692 67.1796 56.4692C67.1649 56.4692 67.1529 56.4804 67.1529 56.4941C67.1529 56.5077 67.1357 56.5361 67.1148 56.5571C67.0684 56.6035 66.9634 56.8534 66.8987 57.071C66.8388 57.2725 66.7536 57.4321 66.7059 57.4321C66.6705 57.4321 66.6703 57.3187 66.7048 56.9009C66.7104 56.8333 66.6979 56.8013 66.6546 56.7721C66.5987 56.7346 66.5954 56.7382 66.5518 56.8888C66.4622 57.1984 66.2546 57.6461 66.2006 57.6461C66.1809 57.6461 66.1649 57.6341 66.1649 57.6193C66.1649 57.5568 66.1196 57.6025 66.0456 57.7398C65.9919 57.8395 65.95 57.8868 65.9151 57.8868C65.8683 57.8868 65.8654 57.8732 65.8817 57.733C65.8916 57.6484 65.9113 57.5752 65.9255 57.5703C65.9396 57.5654 65.9512 57.5417 65.9512 57.5177C65.9512 57.4937 65.971 57.4221 65.9952 57.3587C66.0299 57.2678 66.0328 57.2293 66.0091 57.1772C65.9761 57.1047 65.8978 57.087 65.8978 57.1521C65.8978 57.1746 65.8798 57.2 65.8578 57.2085C65.8357 57.2169 65.8177 57.2527 65.8177 57.2879C65.8177 57.3231 65.8057 57.3519 65.791 57.3519C65.7763 57.3519 65.7643 57.376 65.7643 57.4054C65.7643 57.4348 65.7523 57.4589 65.7376 57.4589C65.7229 57.4589 65.7109 57.4819 65.7109 57.5101C65.7109 57.5383 65.701 57.5654 65.6888 57.5703C65.6767 57.5752 65.622 57.6695 65.5673 57.7798C65.4359 58.0448 65.36 58.1539 65.3065 58.1541C65.2565 58.1543 65.2306 58.1018 65.2295 57.9983L65.2288 57.9269L65.1501 58.0205C65.1068 58.072 65.0711 58.1292 65.0707 58.1476C65.0693 58.2161 64.996 58.178 64.9806 58.1008C64.9717 58.0567 64.9528 58.0205 64.9385 58.0205C64.908 58.0205 64.7883 58.1728 64.7231 58.2945C64.6954 58.3462 64.6472 58.3879 64.6001 58.4007C64.5428 58.4164 64.4987 58.4638 64.4313 58.5823C64.335 58.7514 64.3078 58.7697 64.2565 58.6994C64.2293 58.662 64.217 58.6611 64.1668 58.6925C64.1349 58.7125 64.1087 58.7493 64.1087 58.7743C64.1087 58.7993 64.0976 58.8266 64.084 58.835C64.0705 58.8434 64.0515 58.8863 64.0419 58.9302C64.0322 58.9742 64.0081 59.0102 63.9882 59.0102C63.9683 59.0102 63.9439 59.0372 63.9339 59.0703C63.9135 59.1381 63.797 59.2509 63.7474 59.2509C63.7295 59.2509 63.7078 59.2863 63.6991 59.3296C63.681 59.4203 63.5197 59.5986 63.4558 59.5986C63.4025 59.5986 63.2651 59.7359 63.2404 59.8139C63.2304 59.8456 63.1753 59.9199 63.118 59.979C63.0607 60.0381 63.0139 60.0971 63.0139 60.11C63.0139 60.1229 62.9958 60.1335 62.9738 60.1335C62.9518 60.1335 62.9337 60.1185 62.9336 60.1001C62.9336 60.0817 62.9176 60.0967 62.8983 60.1335C62.8271 60.2689 62.7859 60.3217 62.7402 60.3362C62.7145 60.3444 62.6934 60.3623 62.6934 60.376C62.6934 60.4078 62.5943 60.508 62.5628 60.508C62.5497 60.508 62.5314 60.4776 62.5221 60.4405L62.5052 60.3731L62.4391 60.4393C62.4027 60.4757 62.373 60.5126 62.373 60.5213C62.373 60.5299 62.3606 60.5515 62.3454 60.5693C62.3302 60.587 62.263 60.6768 62.1959 60.7687C62.0462 60.9741 61.9863 60.9887 62.0058 60.8151C62.0133 60.7487 62.0088 60.6878 61.9959 60.6798C61.983 60.6718 61.9724 60.6827 61.9724 60.7039C61.9724 60.7433 61.8633 60.8289 61.8132 60.8289C61.798 60.8289 61.7855 60.8079 61.7855 60.7823C61.7855 60.7517 61.7319 60.793 61.6293 60.9027C61.4637 61.0798 61.4378 61.0932 61.385 61.0295C61.348 60.9849 61.2782 60.9753 61.2782 61.0148C61.2782 61.039 61.0414 61.2807 60.6937 61.6113C60.5294 61.7674 60.4339 61.8031 60.4073 61.7183C60.3992 61.6925 60.3818 61.6442 60.3685 61.6109L60.3443 61.5503L60.2905 61.6042C60.261 61.6338 60.2367 61.6701 60.2367 61.6848C60.2367 61.6995 60.2176 61.7116 60.1942 61.7116C60.1708 61.7116 60.1454 61.7356 60.1377 61.7651C60.13 61.7945 60.1037 61.8186 60.0793 61.8186C60.055 61.8186 60.0144 61.8426 59.9893 61.872C59.9641 61.9015 59.9284 61.9257 59.9099 61.926C59.8914 61.9263 59.848 61.9563 59.8134 61.9929C59.7788 62.0294 59.7337 62.0593 59.7132 62.0593C59.6927 62.0593 59.676 62.0705 59.676 62.0843C59.676 62.098 59.6339 62.1245 59.5825 62.1432C59.5311 62.1618 59.4891 62.1866 59.4891 62.1984C59.4891 62.2101 59.471 62.2197 59.449 62.2197C59.37 62.2197 59.4114 62.2746 59.545 62.3468C59.6198 62.3873 59.7367 62.4655 59.8049 62.5206C59.8812 62.5825 59.957 62.6209 60.0026 62.6209C60.0748 62.6209 60.1833 62.7013 60.1833 62.7547C60.1833 62.7694 60.2122 62.7814 60.2475 62.7814C60.2919 62.7814 60.3278 62.8089 60.3643 62.871C60.4087 62.9463 60.4369 62.9632 60.5427 62.9777C60.6118 62.9872 60.7065 63.0126 60.753 63.0342C60.8806 63.0933 61.3637 63.1792 61.4166 63.1521C61.525 63.0967 61.8412 63.1478 61.9068 63.2314C61.9427 63.2773 62.6085 63.2965 62.6631 63.2533C62.6832 63.2375 62.7372 63.222 62.7833 63.219C62.8293 63.2161 62.9133 63.2049 62.9698 63.1942C63.0443 63.1801 63.0788 63.1847 63.095 63.211C63.1134 63.2408 63.1706 63.2421 63.4194 63.2181C63.7981 63.1816 63.9734 63.1879 64.171 63.2451C64.5151 63.3446 64.7743 63.6301 64.7759 63.9115C64.7762 63.9702 64.7642 63.9849 64.7162 63.9844C64.6831 63.9841 64.6261 63.9603 64.5894 63.9315C64.5526 63.9028 64.5099 63.879 64.4945 63.8786C64.479 63.8783 64.4256 63.8359 64.3757 63.7844C64.2708 63.676 64.2122 63.6663 64.1751 63.751C64.1552 63.7965 64.1147 63.8172 64.0086 63.8361C63.9009 63.8553 63.8684 63.8722 63.8684 63.909C63.8684 63.9476 63.7493 64.0385 63.6987 64.0385C63.6921 64.0385 63.6517 63.9948 63.6089 63.9414ZM58.1168 62.9849C58.1184 62.9833 58.1266 62.9369 58.1351 62.8817C58.1469 62.8052 58.1415 62.7814 58.1122 62.7814C58.0594 62.7814 58.064 62.728 58.1206 62.6845C58.1642 62.6509 58.1633 62.6474 58.1072 62.6316C58.0742 62.6223 58.0471 62.6041 58.0471 62.5911C58.0471 62.5781 58.0231 62.5674 57.9937 62.5674C57.9643 62.5674 57.9403 62.5513 57.9403 62.5315C57.9403 62.4877 57.8777 62.4316 57.7534 62.3641C57.702 62.3362 57.652 62.3024 57.6424 62.2891C57.6328 62.2757 57.5457 62.2622 57.449 62.2591C57.3523 62.256 57.255 62.2383 57.2329 62.2199C57.2064 62.1979 57.1926 62.1964 57.1926 62.2156C57.1926 62.2319 57.151 62.2433 57.099 62.2413C57.0476 62.2394 56.9974 62.2459 56.9876 62.2557C56.9514 62.292 56.9644 62.4039 57.0062 62.4148C57.0293 62.4209 57.063 62.475 57.081 62.5352C57.101 62.602 57.1342 62.651 57.1665 62.6612C57.1956 62.6705 57.2193 62.6893 57.2193 62.703C57.2193 62.7167 57.2565 62.7279 57.3019 62.7279C57.3617 62.7279 57.3884 62.7425 57.3983 62.7807C57.4078 62.8169 57.4429 62.8385 57.5093 62.8492C57.6879 62.8778 57.7227 62.8883 57.7587 62.9243C57.8145 62.9802 57.9458 63.0171 58.0338 63.0017C58.0778 62.994 58.1152 62.9864 58.1168 62.9849Z"/>
</mask>
<path d="M63.6089 63.9414C63.5461 63.8631 63.5057 63.8401 63.3994 63.8226C63.1727 63.7854 62.9177 63.7929 62.8804 63.8379C62.853 63.871 62.7578 63.878 62.3362 63.878C62.0355 63.878 61.7869 63.8902 61.732 63.9077C61.6807 63.9241 61.3864 63.9435 61.0779 63.9509C60.4263 63.9666 60.1118 63.9276 60.0252 63.8204C59.9779 63.7619 59.9709 63.7612 59.7662 63.7924C59.4624 63.8389 58.5289 63.8439 58.0501 63.8016C57.643 63.7657 57.6382 63.7659 57.5345 63.8243C57.4222 63.8875 57.4185 63.887 57.1659 63.7751C57.0508 63.7241 57.0333 63.7001 57.0328 63.5922C57.0316 63.3394 56.8951 63.285 56.6121 63.4245C56.5142 63.4728 56.3633 63.5675 56.2767 63.635C56.1901 63.7024 56.0934 63.775 56.0618 63.7962C56.0302 63.8173 55.9803 63.8549 55.9509 63.8796C55.9216 63.9043 55.8627 63.9328 55.8202 63.9429L55.7428 63.9613L55.7577 63.7525C55.7659 63.6376 55.7809 63.5226 55.7912 63.4969C55.8084 63.4537 55.7814 63.4501 55.4384 63.4501C55.2051 63.4501 55.0562 63.4392 55.0378 63.4208C55.0197 63.4026 54.9494 63.3972 54.8523 63.4064C54.3723 63.4518 54.2762 63.455 54.2476 63.4264C54.2313 63.41 54.1912 63.3966 54.1586 63.3966C54.0912 63.3966 53.9081 63.2 53.9081 63.1276C53.9081 63.0589 53.8412 63.0171 53.7072 63.0019C53.622 62.9923 53.5728 63.0001 53.5403 63.0286C53.515 63.0507 53.448 63.0837 53.3915 63.1019C53.335 63.1201 53.2569 63.1516 53.218 63.172C53.179 63.1924 53.1327 63.2091 53.1151 63.2092C53.0974 63.2093 53.0734 63.2251 53.0616 63.2442C53.0162 63.3185 52.792 63.4545 52.7297 63.4457C52.6761 63.4381 52.6652 63.4194 52.6582 63.323C52.6511 63.2246 52.6572 63.2094 52.7032 63.2094C52.7324 63.2094 52.7634 63.187 52.7721 63.1597C52.7928 63.0941 53.0069 62.878 53.146 62.7821C53.2068 62.7402 53.3446 62.6792 53.4521 62.6465C53.631 62.5921 53.6796 62.5886 54.0249 62.606C54.2324 62.6164 54.4063 62.6364 54.4113 62.6504C54.4163 62.6645 54.4606 62.6684 54.5098 62.6591C54.5686 62.6481 54.6529 62.661 54.7566 62.697C54.8433 62.727 54.9973 62.7654 55.0988 62.7823C55.2003 62.7993 55.3393 62.8291 55.4076 62.8485C55.476 62.868 55.5794 62.8776 55.6374 62.8698C55.6955 62.862 55.7657 62.8674 55.7935 62.8818C55.8468 62.9093 55.9109 62.8988 55.9109 62.8625C55.9109 62.8508 55.8867 62.8348 55.8572 62.8271C55.8277 62.8194 55.7877 62.7753 55.7684 62.7293C55.749 62.6832 55.6891 62.6155 55.6351 62.5788C55.5812 62.5421 55.537 62.4965 55.537 62.4775C55.537 62.4359 55.4373 62.3423 55.3635 62.3148C55.3341 62.3038 55.1869 62.2869 55.0364 62.2771C54.8248 62.2634 54.7626 62.267 54.7626 62.2931C54.7626 62.3116 54.7356 62.3269 54.7026 62.3271C54.6695 62.3273 54.616 62.3346 54.5836 62.3433C54.5366 62.3559 54.5213 62.3454 54.5078 62.2913C54.4914 62.226 54.4155 62.1678 54.4155 62.2206C54.4155 62.2617 54.2633 62.2506 54.219 62.2064C54.197 62.1843 54.161 62.1662 54.1389 62.1662C54.1104 62.1662 54.0936 62.1239 54.0806 62.0191C54.0607 61.8601 54.0546 61.8538 53.9765 61.913C53.948 61.9346 53.8699 61.9527 53.8029 61.9532C53.736 61.9538 53.6511 61.9714 53.6144 61.9924C53.5777 62.0134 53.5155 62.031 53.4761 62.0316C53.4368 62.0321 53.3866 62.0506 53.3645 62.0726C53.3425 62.0947 53.2822 62.1128 53.2304 62.1128C53.0817 62.1128 52.8725 62.1661 52.8564 62.2081C52.8483 62.2292 52.8231 62.2465 52.8004 62.2465C52.7778 62.2465 52.7383 62.2571 52.7128 62.27C52.5687 62.3431 52.3911 62.3783 52.2454 62.3625C52.1126 62.3482 52.0893 62.3372 52.0756 62.2828C52.067 62.2481 52.0431 62.2197 52.0227 62.2197C52.0022 62.2197 51.9855 62.2017 51.9855 62.1796C51.9855 62.1576 51.9622 62.1395 51.9337 62.1395C51.9052 62.1395 51.8744 62.1275 51.8654 62.1128C51.8563 62.098 51.7965 62.086 51.7325 62.086C51.6228 62.086 51.6132 62.0799 51.5671 61.9797C51.5377 61.9158 51.4996 61.8731 51.4715 61.8727C51.4458 61.8724 51.4248 61.8841 51.4248 61.8988C51.4248 61.9135 51.4054 61.9255 51.3818 61.9255C51.3494 61.9255 51.3429 61.9092 51.3555 61.8592C51.3705 61.7991 51.3664 61.795 51.3116 61.8157C51.2784 61.8283 51.1881 61.8473 51.111 61.8578C50.989 61.8746 50.9708 61.8711 50.9708 61.8313C50.9708 61.7967 50.9561 61.7896 50.9107 61.8023C50.7367 61.8506 50.7305 61.851 50.7305 61.8118C50.7305 61.7843 50.7104 61.7763 50.6637 61.7852C50.6148 61.7946 50.597 61.7865 50.597 61.7548C50.597 61.727 50.5741 61.7116 50.5328 61.7116C50.4851 61.7116 50.4601 61.6893 50.4351 61.6246C50.3863 61.4982 50.381 61.2294 50.4269 61.2117C50.4757 61.1929 50.4737 61.0793 50.4242 61.0603C50.4027 61.052 50.379 61.0551 50.3715 61.0672C50.3535 61.0963 50.143 61.0955 50.143 61.0663C50.143 61.0538 50.0966 61.0361 50.0399 61.027C49.8799 61.0014 49.8579 60.9797 49.8941 60.8836C49.9216 60.8105 49.9195 60.8022 49.8737 60.8022C49.843 60.8022 49.8224 60.7835 49.8222 60.7554C49.8219 60.7288 49.8133 60.7202 49.8021 60.7355C49.7723 60.7764 49.5865 60.8347 49.5527 60.8138C49.4796 60.7685 49.163 60.8109 49.0152 60.8857C48.9897 60.8986 48.9333 60.9092 48.8899 60.9092C48.8465 60.9092 48.8044 60.9199 48.7963 60.9329C48.7882 60.946 48.7425 60.9632 48.6946 60.9711C48.532 60.998 48.0118 61.1401 47.94 61.1772C47.8676 61.2146 47.325 61.2783 47.1923 61.265C47.0027 61.2459 46.9718 61.2328 46.9544 61.1635C46.9452 61.1266 46.9258 61.0964 46.9114 61.0964C46.8791 61.0964 46.877 60.9786 46.9082 60.9155C46.9208 60.8899 46.9522 60.8033 46.978 60.7229C47.0332 60.5512 47.0914 60.4545 47.1395 60.4545C47.1598 60.4545 47.1687 60.4343 47.1611 60.4054C47.1536 60.3765 47.178 60.3209 47.2204 60.2705C47.26 60.2233 47.2879 60.1814 47.2824 60.1774C47.2769 60.1733 47.1883 60.154 47.0855 60.1345C46.8523 60.0903 46.8318 60.0826 46.8318 60.0392C46.8318 60.0018 46.8267 60.0005 46.4252 59.9314C46.2608 59.9031 46.1441 59.8682 46.1073 59.8362C46.0754 59.8085 46.0186 59.7858 45.9812 59.7858C45.8705 59.7858 45.6035 59.6965 45.6035 59.6595C45.6035 59.6374 45.5652 59.6253 45.4949 59.6253C45.4352 59.6253 45.3613 59.6119 45.3307 59.5955C45.3001 59.5791 45.2145 59.5657 45.1405 59.5657C45.0616 59.5657 44.9908 59.5504 44.9691 59.5286C44.9328 59.4923 44.8483 59.4782 44.7289 59.4884C44.6959 59.4913 44.6689 59.4823 44.6689 59.4684C44.6689 59.4545 44.6448 59.4494 44.6155 59.4571C44.5861 59.4648 44.5621 59.4581 44.5621 59.4421C44.5621 59.4261 44.5433 59.4202 44.5203 59.4291C44.4685 59.449 44.0714 59.3512 43.675 59.2208C43.4894 59.1598 43.1799 59.1548 42.9812 59.2097C42.9034 59.2311 42.7255 59.2801 42.586 59.3185C42.431 59.3611 42.2284 59.394 42.0653 59.4029C41.8087 59.4169 41.796 59.415 41.739 59.3534C41.7064 59.3181 41.6695 59.2415 41.6571 59.1831C41.6393 59.0992 41.6237 59.0787 41.5829 59.085C41.4011 59.113 40.5794 59.4019 40.561 59.4443C40.5561 59.4556 40.5261 59.4647 40.4943 59.4645C40.4296 59.464 40.07 59.5743 40.0492 59.601C40.0284 59.6276 39.4891 59.803 39.0612 59.9223C38.8483 59.9817 38.6464 60.0415 38.6127 60.0552C38.5789 60.0688 38.4632 60.08 38.3555 60.08H38.1596L38.1298 59.9612C38.1133 59.8958 38.0999 59.8116 38.0999 59.774C38.0999 59.7241 38.0859 59.7056 38.0481 59.7056C38.0196 59.7056 37.9898 59.716 37.9819 59.7288C37.974 59.7416 37.9081 59.7599 37.8355 59.7696C37.7628 59.7792 37.6995 59.796 37.6947 59.807C37.6899 59.8179 37.5839 59.8549 37.459 59.8892C37.3342 59.9235 37.19 59.9668 37.1386 59.9854C37.0872 60.004 36.982 60.0342 36.9049 60.0523C36.8278 60.0705 36.7647 60.094 36.7647 60.1047C36.7647 60.1315 36.2688 60.1972 36.2331 60.1751C36.1462 60.1213 36.2566 59.973 36.3835 59.973C36.4169 59.973 36.4443 59.9569 36.4443 59.9371C36.4443 59.9174 36.4865 59.8785 36.5381 59.8506C36.6151 59.8091 36.6234 59.797 36.5848 59.7829C36.5589 59.7734 36.5253 59.7756 36.51 59.7877C36.4947 59.7998 36.4347 59.8211 36.3765 59.835C36.3183 59.8489 36.1991 59.8796 36.1116 59.9033C36.024 59.9269 35.8889 59.9463 35.8112 59.9463C35.672 59.9463 35.6699 59.9451 35.6699 59.866C35.6699 59.7988 35.6594 59.7858 35.6047 59.7858C35.5689 59.7858 35.5313 59.7724 35.5212 59.7561C35.5019 59.7247 35.2551 59.745 35.2033 59.7821C35.1882 59.7929 35.0317 59.7952 34.8555 59.7871C34.5654 59.7738 34.535 59.7677 34.535 59.7224C34.535 59.6225 35.1492 59.3281 35.8468 59.0935C36.2223 58.9673 36.4722 58.892 37.6326 58.5553C38.0929 58.4217 38.8527 58.181 38.941 58.1407C38.9851 58.1206 39.0602 58.0965 39.1079 58.087C39.1557 58.0775 39.1947 58.0587 39.1947 58.0452C39.1947 58.0316 39.2196 58.0205 39.25 58.0205C39.2805 58.0205 39.324 58.0018 39.3468 57.979C39.3696 57.9561 39.4138 57.9412 39.4451 57.9458C39.4763 57.9503 39.5139 57.9386 39.5287 57.9198C39.5434 57.9009 39.6019 57.8813 39.6585 57.8762C39.7151 57.8711 39.7696 57.8537 39.7795 57.8376C39.7895 57.8215 39.8392 57.8049 39.89 57.8007C39.9409 57.7966 39.9958 57.7762 40.012 57.7554C40.0282 57.7346 40.0599 57.7247 40.0823 57.7333C40.1366 57.7542 40.3466 57.6995 40.394 57.6522C40.4155 57.6307 40.4642 57.6193 40.5075 57.6257C40.5492 57.6318 40.5833 57.6269 40.5833 57.6147C40.5833 57.6025 40.5995 57.5926 40.6192 57.5926C40.639 57.5926 40.6943 57.573 40.7421 57.5491C40.8167 57.5119 40.8942 57.495 41.0264 57.4873C41.0425 57.4864 41.0906 57.4555 41.1332 57.4188C41.1759 57.382 41.2196 57.3519 41.2303 57.3519C41.2411 57.3519 41.351 57.3037 41.4747 57.2449C41.5983 57.186 41.7097 57.1379 41.7222 57.1378C41.7347 57.1378 41.841 57.0882 41.9585 57.0276C42.1851 56.9107 42.7677 56.6512 42.8798 56.6172C42.9165 56.6061 42.9826 56.5812 43.0266 56.5618C43.2034 56.484 43.7359 56.2838 43.9804 56.2032C44.293 56.1002 44.984 55.7119 45.1228 55.5612C45.1742 55.5054 45.2824 55.4203 45.3631 55.372C45.6819 55.1814 45.7189 55.1509 45.6726 55.117C45.6005 55.0642 45.6252 54.9992 45.7461 54.9238C45.8544 54.8563 45.8618 54.8441 45.8596 54.7373C45.8575 54.6417 45.8711 54.61 45.9425 54.5431C45.9894 54.4992 46.0375 54.4629 46.0493 54.4624C46.0611 54.462 46.0932 54.4445 46.1206 54.4237C46.169 54.387 46.1688 54.3839 46.1139 54.314C46.0215 54.1963 46.039 54.1024 46.1709 54.0078C46.2333 53.9631 46.3056 53.9088 46.3314 53.8873C46.3573 53.8657 46.3839 53.8481 46.3904 53.8481C46.397 53.8481 46.4561 53.8156 46.5217 53.7759C46.6125 53.7209 46.6448 53.6831 46.6572 53.6169C46.6702 53.5473 46.7038 53.5114 46.8261 53.4359C46.91 53.3841 47.0087 53.3174 47.0454 53.2877C47.0822 53.2579 47.1272 53.2335 47.1456 53.2333C47.1639 53.2332 47.179 53.2148 47.179 53.1928C47.179 53.1707 47.19 53.1527 47.2034 53.1527C47.2168 53.1527 47.2559 53.129 47.2902 53.1001C47.4496 52.9658 47.5171 52.9179 47.5704 52.9012C47.6022 52.8912 47.6475 52.8535 47.6712 52.8173C47.6949 52.7811 47.7271 52.7515 47.7428 52.7515C47.7584 52.7515 47.8292 52.6913 47.8999 52.6177C47.9707 52.5442 48.0449 52.484 48.0647 52.484C48.0845 52.484 48.114 52.4626 48.1303 52.4365C48.1466 52.4104 48.2094 52.3653 48.2699 52.3362C48.3305 52.3072 48.3801 52.2744 48.3803 52.2633C48.3805 52.2523 48.392 52.2433 48.406 52.2433C48.42 52.2433 48.4711 52.2037 48.5195 52.1553C48.6895 51.9854 48.9257 51.7886 48.9594 51.7886C48.9782 51.7886 49.014 51.7573 49.0391 51.719C49.0641 51.6807 49.1485 51.602 49.2266 51.5443C49.3047 51.4865 49.3686 51.4215 49.3686 51.3999C49.3686 51.3783 49.3801 51.3606 49.3941 51.3606C49.4081 51.3606 49.4496 51.3306 49.4863 51.2938C49.5231 51.257 49.5627 51.2268 49.5744 51.2266C49.586 51.2264 49.6472 51.1782 49.7102 51.1196C49.7733 51.0609 49.8317 51.0129 49.84 51.0129C49.8483 51.0129 49.8808 50.9897 49.9123 50.9612C49.9437 50.9328 50.0836 50.811 50.2231 50.6907C50.3626 50.5704 50.5025 50.4462 50.5338 50.4148C50.5652 50.3834 50.6306 50.3276 50.6793 50.2908C50.7279 50.254 50.8254 50.1667 50.8958 50.0969C50.9663 50.027 51.0356 49.9698 51.0498 49.9698C51.0641 49.9698 51.0886 49.9457 51.1043 49.9163C51.12 49.8869 51.1475 49.8626 51.1653 49.8623C51.1832 49.8619 51.2719 49.7923 51.3626 49.7074C51.4532 49.6226 51.56 49.5357 51.5998 49.5143C51.6397 49.493 51.6901 49.4483 51.7118 49.4151C51.7335 49.3818 51.7614 49.3546 51.7736 49.3546C51.796 49.3546 52.0405 49.1978 52.0656 49.1674C52.073 49.1585 52.127 49.1226 52.1858 49.0877C52.2445 49.0528 52.4343 48.9301 52.6076 48.815C52.7808 48.6999 52.9285 48.6057 52.9358 48.6057C52.9519 48.6057 53.2173 48.4107 53.2699 48.3602C53.2905 48.3404 53.3431 48.3013 53.3867 48.2732C53.4304 48.2452 53.4785 48.2121 53.4936 48.1999C53.5467 48.1565 53.9351 47.8692 54.0476 47.79C54.1103 47.7458 54.2157 47.6811 54.2819 47.6461C54.348 47.611 54.4562 47.5435 54.5223 47.4959C54.7418 47.338 55.2601 47.0375 55.8041 46.7528C55.9142 46.6951 56.0164 46.6405 56.031 46.6314C56.0457 46.6223 56.1353 46.5877 56.2302 46.5545C56.325 46.5212 56.4872 46.4586 56.5907 46.4153C56.6941 46.372 56.8741 46.3023 56.9908 46.2605C57.178 46.1933 57.2052 46.1751 57.2235 46.1044C57.2374 46.0505 57.2923 45.9896 57.3918 45.9176C57.473 45.8588 57.5395 45.801 57.5396 45.7891C57.5397 45.7772 57.5283 45.7745 57.5143 45.7832C57.475 45.8076 57.3528 45.7688 57.3528 45.732C57.3528 45.714 57.3886 45.6642 57.4322 45.6213C57.4759 45.5784 57.5119 45.5238 57.5123 45.5C57.5127 45.4762 57.5611 45.4249 57.6199 45.386C57.6786 45.347 57.7267 45.3039 57.7267 45.29C57.7267 45.2762 57.7685 45.2451 57.8196 45.2208C57.9487 45.1594 58.0454 44.9499 57.967 44.9013C57.916 44.8698 57.9408 44.8089 58.0216 44.767C58.0663 44.7439 58.1136 44.6964 58.1269 44.6616C58.141 44.6244 58.1899 44.5842 58.2459 44.5639C58.2981 44.545 58.3409 44.5135 58.3409 44.4938C58.3409 44.4246 58.4258 44.3295 58.5027 44.3126C58.5996 44.2912 58.5994 44.2916 58.6323 44.0867C58.6473 43.9939 58.6779 43.8975 58.7004 43.8726C58.723 43.8477 58.7414 43.8072 58.7414 43.7827C58.7414 43.7561 58.7897 43.7154 58.8609 43.6819C58.932 43.6484 58.9959 43.5946 59.0186 43.549C59.0536 43.4787 59.0525 43.4711 59.0059 43.4562C58.9435 43.4364 58.9372 43.3225 58.9973 43.2994C59.0205 43.2905 59.0856 43.2832 59.142 43.2832C59.3086 43.2832 59.3274 43.2679 59.2941 43.1592C59.2609 43.0511 59.2905 43.0168 59.4174 43.0161C59.5286 43.0155 59.5959 42.9696 59.5959 42.8944C59.5959 42.8323 59.6045 42.8285 59.7428 42.8285H59.8896V42.7349C59.8896 42.6834 59.9028 42.6413 59.9188 42.6413C59.9348 42.6413 59.9785 42.6172 60.0159 42.5878C60.0532 42.5583 60.1062 42.5343 60.1336 42.5343C60.1848 42.5343 60.2004 42.462 60.1876 42.2831L60.1822 42.2058L60.3415 42.2202C60.4893 42.2337 60.5014 42.2306 60.509 42.1775C60.5137 42.1446 60.5399 42.1167 60.5706 42.1119C60.5999 42.1073 60.6515 42.0899 60.6851 42.0731C60.7344 42.0486 60.743 42.0283 60.7297 41.9675C60.7142 41.8968 60.7184 41.8924 60.8021 41.893C60.851 41.8933 60.9432 41.9057 61.007 41.9205C61.0984 41.9416 61.1403 41.9386 61.2047 41.9064C61.2496 41.884 61.3028 41.8656 61.3229 41.8656C61.349 41.8656 61.3543 41.8455 61.3416 41.7947L61.3238 41.7237L61.5042 41.7422C61.6549 41.7577 61.69 41.7535 61.7167 41.7169C61.7436 41.68 61.7651 41.6776 61.8527 41.7018C61.929 41.7229 61.9618 41.7225 61.9755 41.7003C61.9858 41.6836 62.0537 41.6688 62.1264 41.6673C62.1991 41.6657 62.2753 41.6507 62.2958 41.6339C62.3225 41.6119 62.4158 41.6096 62.6267 41.6257C62.7883 41.638 62.9636 41.6417 63.0163 41.6338C63.132 41.6165 63.4908 41.6687 63.5407 41.7102C63.5671 41.7322 63.5931 41.731 63.6402 41.7058C63.6881 41.6801 63.7243 41.6788 63.7861 41.7004C63.8607 41.7264 63.8684 41.7239 63.8684 41.6741C63.8684 41.6271 63.879 41.622 63.9418 41.6391C63.9822 41.6502 64.0437 41.6575 64.0785 41.6555C64.1132 41.6534 64.1853 41.676 64.2387 41.7057C64.3778 41.7832 64.8814 41.9435 64.8986 41.9157C64.9207 41.8798 65.0117 41.8879 65.1194 41.9352C65.3199 42.0233 65.3509 42.0402 65.3713 42.072C65.3835 42.0911 65.4223 42.0988 65.4648 42.0905C65.5206 42.0796 65.579 42.1044 65.7182 42.1983C65.8177 42.2654 65.9079 42.3203 65.9188 42.3203C65.9296 42.3203 65.9534 42.3444 65.9718 42.3738C65.9901 42.4032 66.0205 42.4273 66.0393 42.4273C66.058 42.4273 66.1331 42.4882 66.2059 42.5626C66.2788 42.637 66.4002 42.7334 66.4758 42.7769C66.5513 42.8203 66.6331 42.8864 66.6575 42.9237C66.6819 42.9611 66.8184 43.1132 66.9608 43.2619C67.1032 43.4105 67.2887 43.6046 67.3732 43.6932C67.4576 43.7818 67.5267 43.8692 67.5267 43.8875C67.5267 43.9057 67.5357 43.9247 67.5468 43.9296C67.5721 43.9408 67.7694 44.1824 67.8313 44.278C67.857 44.3176 67.8981 44.4037 67.9227 44.4693C67.9642 44.5804 67.9849 44.5979 68.221 44.7214C68.6275 44.934 68.7142 44.9808 68.7284 44.9952C68.7357 45.0027 68.7895 45.0328 68.8478 45.0621C68.9062 45.0914 68.9662 45.125 68.9813 45.1368C68.9964 45.1486 69.1207 45.2244 69.2576 45.3054C69.6405 45.5319 70.13 45.9103 70.2797 46.0954C70.3297 46.1573 70.3929 46.2289 70.4201 46.2545C70.4875 46.3182 70.5442 46.4329 70.5442 46.5057C70.5442 46.5563 70.5261 46.5684 70.4313 46.5811C70.3693 46.5895 70.3046 46.5847 70.2876 46.5706C70.2668 46.5533 70.2516 46.5583 70.2411 46.5857C70.2325 46.6081 70.1989 46.6265 70.1664 46.6265C70.0973 46.6265 69.951 46.6711 69.8343 46.7277C69.789 46.7497 69.735 46.762 69.7144 46.7551C69.6937 46.7482 69.6608 46.7586 69.6413 46.7781C69.6217 46.7977 69.5766 46.8137 69.5409 46.8137C69.5052 46.8137 69.4761 46.8245 69.4761 46.8376C69.4761 46.8507 69.446 46.869 69.4093 46.8782C69.3726 46.8874 69.3425 46.9068 69.3425 46.9212C69.3425 46.9357 69.3005 46.9475 69.2491 46.9475C69.1977 46.9475 69.1556 46.9595 69.1556 46.9742C69.1556 47.0127 69.0825 47.0072 69.0665 46.9675C69.0591 46.9491 69.0521 46.96 69.0509 46.9917C69.0491 47.0409 69.0284 47.0516 68.9086 47.0655C68.8315 47.0744 68.6801 47.0806 68.5721 47.0793C68.3877 47.0771 68.221 47.116 68.221 47.1613C68.221 47.1723 68.1699 47.1901 68.1075 47.2007C68.0066 47.2179 68.0003 47.2231 68.0507 47.2468C68.0974 47.2688 68.1079 47.2988 68.1106 47.4181C68.1132 47.53 68.1049 47.5626 68.074 47.5626C68.0521 47.5626 68.0341 47.5807 68.0341 47.6028C68.0341 47.6248 68.0161 47.6429 67.994 47.6429C67.972 47.6429 67.954 47.6549 67.954 47.6696C67.954 47.6843 67.966 47.6964 67.9807 47.6964C67.9954 47.6964 68.0074 47.7362 68.0074 47.7849C68.0074 47.8365 68.0297 47.8975 68.0608 47.9309C68.1155 47.9898 68.1304 48.0577 68.0934 48.0805C68.0689 48.0957 68.0738 48.2726 68.1012 48.3583C68.1136 48.3972 68.1095 48.4185 68.0895 48.4185C68.0725 48.4185 68.0431 48.4329 68.0243 48.4506C67.9965 48.4766 67.9969 48.4964 68.0267 48.5561C68.0468 48.5966 68.075 48.7026 68.0893 48.7917C68.1105 48.9233 68.1076 48.9688 68.0741 49.0338C68.0488 49.0828 68.0438 49.1139 68.0613 49.1139C68.0803 49.1139 68.0864 49.1967 68.0794 49.3613C68.0693 49.5974 68.0722 49.613 68.1414 49.7024C68.2548 49.8488 68.3198 49.9972 68.3405 50.157C68.351 50.238 68.3897 50.3725 68.4266 50.456C68.4634 50.5395 68.4856 50.6208 68.4759 50.6365C68.4661 50.6523 68.4699 50.6652 68.4843 50.6652C68.5265 50.6652 68.5971 50.9147 68.6091 51.1063C68.6152 51.2037 68.6286 51.2969 68.6387 51.3134C68.659 51.3462 68.663 51.4005 68.688 51.9825C68.6987 52.2313 68.6954 52.377 68.679 52.377C68.6648 52.377 68.6543 52.4402 68.6557 52.5174C68.6571 52.5947 68.655 52.7573 68.6508 52.8789C68.6444 53.0658 68.6352 53.1043 68.5914 53.1278C68.5492 53.1504 68.5428 53.173 68.5571 53.2492C68.5708 53.3223 68.5628 53.3558 68.5209 53.4016C68.4522 53.4765 68.4336 53.5684 68.422 53.8896C68.4163 54.0484 68.4007 54.157 68.3817 54.1687C68.3647 54.1793 68.3489 54.2468 68.3466 54.3189C68.3444 54.3909 68.3317 54.4575 68.3185 54.4669C68.3053 54.4762 68.293 54.5384 68.2911 54.6051C68.2893 54.6717 68.2787 54.7353 68.2677 54.7463C68.2567 54.7574 68.2477 54.7979 68.2477 54.8365C68.2477 55.0028 68.0406 55.6015 67.9168 55.7931C67.8731 55.8607 67.8418 55.8802 67.7768 55.8805C67.6866 55.8808 67.6445 55.9271 67.5818 56.0948C67.4928 56.3325 67.3547 56.603 67.3222 56.603C67.3025 56.603 67.2864 56.621 67.2864 56.6431C67.2864 56.6652 67.2684 56.6832 67.2463 56.6832C67.2174 56.6832 67.2063 56.6535 67.2063 56.5762C67.2063 56.5174 67.1943 56.4692 67.1796 56.4692C67.1649 56.4692 67.1529 56.4804 67.1529 56.4941C67.1529 56.5077 67.1357 56.5361 67.1148 56.5571C67.0684 56.6035 66.9634 56.8534 66.8987 57.071C66.8388 57.2725 66.7536 57.4321 66.7059 57.4321C66.6705 57.4321 66.6703 57.3187 66.7048 56.9009C66.7104 56.8333 66.6979 56.8013 66.6546 56.7721C66.5987 56.7346 66.5954 56.7382 66.5518 56.8888C66.4622 57.1984 66.2546 57.6461 66.2006 57.6461C66.1809 57.6461 66.1649 57.6341 66.1649 57.6193C66.1649 57.5568 66.1196 57.6025 66.0456 57.7398C65.9919 57.8395 65.95 57.8868 65.9151 57.8868C65.8683 57.8868 65.8654 57.8732 65.8817 57.733C65.8916 57.6484 65.9113 57.5752 65.9255 57.5703C65.9396 57.5654 65.9512 57.5417 65.9512 57.5177C65.9512 57.4937 65.971 57.4221 65.9952 57.3587C66.0299 57.2678 66.0328 57.2293 66.0091 57.1772C65.9761 57.1047 65.8978 57.087 65.8978 57.1521C65.8978 57.1746 65.8798 57.2 65.8578 57.2085C65.8357 57.2169 65.8177 57.2527 65.8177 57.2879C65.8177 57.3231 65.8057 57.3519 65.791 57.3519C65.7763 57.3519 65.7643 57.376 65.7643 57.4054C65.7643 57.4348 65.7523 57.4589 65.7376 57.4589C65.7229 57.4589 65.7109 57.4819 65.7109 57.5101C65.7109 57.5383 65.701 57.5654 65.6888 57.5703C65.6767 57.5752 65.622 57.6695 65.5673 57.7798C65.4359 58.0448 65.36 58.1539 65.3065 58.1541C65.2565 58.1543 65.2306 58.1018 65.2295 57.9983L65.2288 57.9269L65.1501 58.0205C65.1068 58.072 65.0711 58.1292 65.0707 58.1476C65.0693 58.2161 64.996 58.178 64.9806 58.1008C64.9717 58.0567 64.9528 58.0205 64.9385 58.0205C64.908 58.0205 64.7883 58.1728 64.7231 58.2945C64.6954 58.3462 64.6472 58.3879 64.6001 58.4007C64.5428 58.4164 64.4987 58.4638 64.4313 58.5823C64.335 58.7514 64.3078 58.7697 64.2565 58.6994C64.2293 58.662 64.217 58.6611 64.1668 58.6925C64.1349 58.7125 64.1087 58.7493 64.1087 58.7743C64.1087 58.7993 64.0976 58.8266 64.084 58.835C64.0705 58.8434 64.0515 58.8863 64.0419 58.9302C64.0322 58.9742 64.0081 59.0102 63.9882 59.0102C63.9683 59.0102 63.9439 59.0372 63.9339 59.0703C63.9135 59.1381 63.797 59.2509 63.7474 59.2509C63.7295 59.2509 63.7078 59.2863 63.6991 59.3296C63.681 59.4203 63.5197 59.5986 63.4558 59.5986C63.4025 59.5986 63.2651 59.7359 63.2404 59.8139C63.2304 59.8456 63.1753 59.9199 63.118 59.979C63.0607 60.0381 63.0139 60.0971 63.0139 60.11C63.0139 60.1229 62.9958 60.1335 62.9738 60.1335C62.9518 60.1335 62.9337 60.1185 62.9336 60.1001C62.9336 60.0817 62.9176 60.0967 62.8983 60.1335C62.8271 60.2689 62.7859 60.3217 62.7402 60.3362C62.7145 60.3444 62.6934 60.3623 62.6934 60.376C62.6934 60.4078 62.5943 60.508 62.5628 60.508C62.5497 60.508 62.5314 60.4776 62.5221 60.4405L62.5052 60.3731L62.4391 60.4393C62.4027 60.4757 62.373 60.5126 62.373 60.5213C62.373 60.5299 62.3606 60.5515 62.3454 60.5693C62.3302 60.587 62.263 60.6768 62.1959 60.7687C62.0462 60.9741 61.9863 60.9887 62.0058 60.8151C62.0133 60.7487 62.0088 60.6878 61.9959 60.6798C61.983 60.6718 61.9724 60.6827 61.9724 60.7039C61.9724 60.7433 61.8633 60.8289 61.8132 60.8289C61.798 60.8289 61.7855 60.8079 61.7855 60.7823C61.7855 60.7517 61.7319 60.793 61.6293 60.9027C61.4637 61.0798 61.4378 61.0932 61.385 61.0295C61.348 60.9849 61.2782 60.9753 61.2782 61.0148C61.2782 61.039 61.0414 61.2807 60.6937 61.6113C60.5294 61.7674 60.4339 61.8031 60.4073 61.7183C60.3992 61.6925 60.3818 61.6442 60.3685 61.6109L60.3443 61.5503L60.2905 61.6042C60.261 61.6338 60.2367 61.6701 60.2367 61.6848C60.2367 61.6995 60.2176 61.7116 60.1942 61.7116C60.1708 61.7116 60.1454 61.7356 60.1377 61.7651C60.13 61.7945 60.1037 61.8186 60.0793 61.8186C60.055 61.8186 60.0144 61.8426 59.9893 61.872C59.9641 61.9015 59.9284 61.9257 59.9099 61.926C59.8914 61.9263 59.848 61.9563 59.8134 61.9929C59.7788 62.0294 59.7337 62.0593 59.7132 62.0593C59.6927 62.0593 59.676 62.0705 59.676 62.0843C59.676 62.098 59.6339 62.1245 59.5825 62.1432C59.5311 62.1618 59.4891 62.1866 59.4891 62.1984C59.4891 62.2101 59.471 62.2197 59.449 62.2197C59.37 62.2197 59.4114 62.2746 59.545 62.3468C59.6198 62.3873 59.7367 62.4655 59.8049 62.5206C59.8812 62.5825 59.957 62.6209 60.0026 62.6209C60.0748 62.6209 60.1833 62.7013 60.1833 62.7547C60.1833 62.7694 60.2122 62.7814 60.2475 62.7814C60.2919 62.7814 60.3278 62.8089 60.3643 62.871C60.4087 62.9463 60.4369 62.9632 60.5427 62.9777C60.6118 62.9872 60.7065 63.0126 60.753 63.0342C60.8806 63.0933 61.3637 63.1792 61.4166 63.1521C61.525 63.0967 61.8412 63.1478 61.9068 63.2314C61.9427 63.2773 62.6085 63.2965 62.6631 63.2533C62.6832 63.2375 62.7372 63.222 62.7833 63.219C62.8293 63.2161 62.9133 63.2049 62.9698 63.1942C63.0443 63.1801 63.0788 63.1847 63.095 63.211C63.1134 63.2408 63.1706 63.2421 63.4194 63.2181C63.7981 63.1816 63.9734 63.1879 64.171 63.2451C64.5151 63.3446 64.7743 63.6301 64.7759 63.9115C64.7762 63.9702 64.7642 63.9849 64.7162 63.9844C64.6831 63.9841 64.6261 63.9603 64.5894 63.9315C64.5526 63.9028 64.5099 63.879 64.4945 63.8786C64.479 63.8783 64.4256 63.8359 64.3757 63.7844C64.2708 63.676 64.2122 63.6663 64.1751 63.751C64.1552 63.7965 64.1147 63.8172 64.0086 63.8361C63.9009 63.8553 63.8684 63.8722 63.8684 63.909C63.8684 63.9476 63.7493 64.0385 63.6987 64.0385C63.6921 64.0385 63.6517 63.9948 63.6089 63.9414ZM58.1168 62.9849C58.1184 62.9833 58.1266 62.9369 58.1351 62.8817C58.1469 62.8052 58.1415 62.7814 58.1122 62.7814C58.0594 62.7814 58.064 62.728 58.1206 62.6845C58.1642 62.6509 58.1633 62.6474 58.1072 62.6316C58.0742 62.6223 58.0471 62.6041 58.0471 62.5911C58.0471 62.5781 58.0231 62.5674 57.9937 62.5674C57.9643 62.5674 57.9403 62.5513 57.9403 62.5315C57.9403 62.4877 57.8777 62.4316 57.7534 62.3641C57.702 62.3362 57.652 62.3024 57.6424 62.2891C57.6328 62.2757 57.5457 62.2622 57.449 62.2591C57.3523 62.256 57.255 62.2383 57.2329 62.2199C57.2064 62.1979 57.1926 62.1964 57.1926 62.2156C57.1926 62.2319 57.151 62.2433 57.099 62.2413C57.0476 62.2394 56.9974 62.2459 56.9876 62.2557C56.9514 62.292 56.9644 62.4039 57.0062 62.4148C57.0293 62.4209 57.063 62.475 57.081 62.5352C57.101 62.602 57.1342 62.651 57.1665 62.6612C57.1956 62.6705 57.2193 62.6893 57.2193 62.703C57.2193 62.7167 57.2565 62.7279 57.3019 62.7279C57.3617 62.7279 57.3884 62.7425 57.3983 62.7807C57.4078 62.8169 57.4429 62.8385 57.5093 62.8492C57.6879 62.8778 57.7227 62.8883 57.7587 62.9243C57.8145 62.9802 57.9458 63.0171 58.0338 63.0017C58.0778 62.994 58.1152 62.9864 58.1168 62.9849Z" fill="#262626" stroke="white" stroke-width="2" mask="url(#path-1-inside-1_401_3560)"/>
</svg>
