<svg width="104" height="104" viewBox="0 0 104 104" fill="none" xmlns="http://www.w3.org/2000/svg">
<mask id="path-1-inside-1_401_3558" fill="white">
<path d="M65.0104 35.3097C65.0657 35.3095 65.121 35.3093 65.178 35.3092C65.2953 35.3089 65.4126 35.3088 65.5299 35.3088C65.7049 35.3087 65.8798 35.3077 66.0547 35.3067C67.0495 35.3041 68.0396 35.3581 69.0227 35.5165C69.0779 35.5252 69.1331 35.5339 69.19 35.5429C69.5577 35.6032 69.9205 35.6774 70.2822 35.7665C70.3257 35.7772 70.3691 35.7879 70.4139 35.799C70.71 35.8763 70.71 35.8763 70.8275 35.9939C70.9898 36.0408 71.1521 36.0809 71.3165 36.1192C71.5149 36.1682 71.6614 36.2199 71.8143 36.3576C71.8111 36.4517 71.8111 36.4517 71.7624 36.5654C71.5666 36.6712 71.4289 36.7177 71.2073 36.744C71.0335 36.7549 71.0335 36.7549 70.9509 36.8692C70.7711 37.0322 70.5747 37.0734 70.3439 37.1369C70.2978 37.1503 70.2517 37.1636 70.2043 37.1773C69.9897 37.2388 69.7746 37.2971 69.5581 37.3517C69.5234 37.3605 69.4886 37.3693 69.4528 37.3785C69.3601 37.4017 69.2671 37.4238 69.1741 37.4458C69.0051 37.4938 69.0051 37.4938 68.861 37.6023C68.6604 37.7331 68.4707 37.784 68.2404 37.8416C68.1568 37.8637 68.0731 37.8858 67.9895 37.908C67.95 37.9184 67.9105 37.9287 67.8698 37.9394C67.7111 37.9824 67.5562 38.0345 67.4009 38.0882C67.2735 38.1318 67.1453 38.1722 67.0167 38.2118C66.9745 38.2249 66.9323 38.2379 66.8889 38.2514C66.7765 38.28 66.7765 38.28 66.6206 38.28C66.6158 38.3121 66.611 38.3442 66.6061 38.3773C66.5687 38.4878 66.5687 38.4878 66.489 38.5479C66.2279 38.667 65.9651 38.7692 65.6923 38.858C65.6512 38.8716 65.6102 38.8851 65.5679 38.8991C65.3178 38.9801 65.0709 39.0448 64.8116 39.0894C64.4929 39.1515 64.2076 39.2757 63.9199 39.4231C63.8856 39.4231 63.8514 39.4231 63.816 39.4231C63.816 39.4574 63.816 39.4917 63.816 39.527C63.3304 39.7694 62.8517 39.9988 62.3326 40.1602C61.9784 40.2708 61.6847 40.4116 61.375 40.6181C61.1134 40.7812 60.8736 40.8778 60.5765 40.9559C60.2554 41.0412 59.9619 41.1525 59.6611 41.2936C59.5787 41.3315 59.4962 41.3693 59.4138 41.407C59.3721 41.4261 59.3305 41.4453 59.2875 41.4649C58.8828 41.6498 58.4815 41.8215 58.0583 41.9603C57.8569 42.0352 57.6702 42.1297 57.4797 42.2288C57.3414 42.3005 57.2028 42.3719 57.0642 42.4432C57.0299 42.4612 56.9957 42.4792 56.9604 42.4977C56.6557 42.6531 56.3723 42.7484 56.0255 42.7484C56.0083 42.7998 55.9912 42.8513 55.9735 42.9043C55.6581 43.1115 55.3226 43.228 54.9575 43.3134C54.7204 43.3686 54.7204 43.3686 54.5445 43.5217C54.5038 43.6298 54.4823 43.7253 54.4674 43.8395C54.4506 43.9089 54.4335 43.9783 54.4154 44.0474C54.3798 44.0524 54.3441 44.0575 54.3073 44.0628C54.2371 44.0744 54.2371 44.0744 54.1655 44.0863C54.0959 44.0972 54.0959 44.0972 54.0249 44.1082C53.8645 44.1618 53.8244 44.2141 53.7403 44.3591C53.684 44.4919 53.6361 44.6263 53.5877 44.7622C53.5325 44.8787 53.5325 44.8787 53.3767 44.9826C53.3253 44.9826 53.2739 44.9826 53.2209 44.9826C53.1652 45.1112 53.1182 45.2378 53.0827 45.3735C53.0705 45.4203 53.0582 45.467 53.0456 45.5152C53.0345 45.5604 53.0234 45.6057 53.0119 45.6524C52.9952 45.6885 52.9784 45.7247 52.9612 45.762C52.8555 45.7955 52.8555 45.7955 52.7535 45.8139C52.6914 45.9476 52.6914 45.9476 52.6496 46.1257C52.6229 46.2178 52.5958 46.3098 52.5684 46.4017C52.5555 46.4465 52.5426 46.4913 52.5293 46.5375C52.4938 46.6453 52.4938 46.6453 52.4418 46.6972C52.3553 46.6993 52.2687 46.6994 52.1821 46.6972C52.2292 46.8133 52.2769 46.929 52.325 47.0447C52.3381 47.0772 52.3512 47.1097 52.3647 47.1432C52.4316 47.3029 52.4986 47.4306 52.6082 47.5653C52.7015 47.6844 52.7015 47.6844 52.7015 47.8923C52.7358 47.8923 52.7701 47.8923 52.8054 47.8923C52.8538 47.9891 52.9022 48.086 52.9504 48.1829C52.9924 48.2665 53.0347 48.3498 53.0775 48.4329C53.2801 48.8296 53.4503 49.2337 53.5844 49.6588C53.5502 49.6588 53.5159 49.6588 53.4806 49.6588C53.4806 49.7103 53.4806 49.7617 53.4806 49.8147C53.532 49.8318 53.5834 49.849 53.6364 49.8667C53.6386 49.9879 53.6385 50.1091 53.6364 50.2304C53.6192 50.2475 53.6021 50.2647 53.5844 50.2823C53.6187 50.2995 53.653 50.3166 53.6883 50.3343C53.6883 50.3 53.6883 50.2657 53.6883 50.2304C53.8441 50.2823 53.8441 50.2823 53.8961 50.3862C53.8981 50.4901 53.8983 50.5941 53.8961 50.698C53.9475 50.698 53.9989 50.698 54.0519 50.698C54.0612 50.9031 54.0567 51.0408 53.948 51.2176C54.0779 51.1046 54.1265 51.0237 54.1558 50.8539C54.19 50.8539 54.2243 50.8539 54.2596 50.8539C54.3274 50.9229 54.3274 50.9229 54.4089 51.0227C54.5755 51.2185 54.7501 51.4028 54.9316 51.5845C54.9564 51.6096 54.9812 51.6346 55.0067 51.6604C55.1479 51.8011 55.2931 51.9345 55.4442 52.0645C55.6869 52.2748 55.9109 52.502 56.1359 52.7308C56.4398 53.0441 56.4398 53.0441 56.7652 53.3345C56.8793 53.4279 56.9823 53.5238 57.0858 53.6284C57.1858 53.7295 57.2866 53.8297 57.3873 53.93C57.5928 54.1348 57.7982 54.3397 58.0035 54.5446C58.1271 54.668 58.2508 54.7914 58.3746 54.9146C58.5183 55.0577 58.6618 55.201 58.8053 55.3444C58.8492 55.388 58.8931 55.4317 58.9383 55.4766C59.2963 55.8347 59.6412 56.1974 59.9208 56.6212C59.9208 56.6555 59.9208 56.6898 59.9208 56.7251C59.5378 56.6676 59.2206 56.5541 58.8755 56.3809C58.8284 56.3578 58.7813 56.3348 58.7327 56.311C58.5917 56.2419 58.4512 56.1719 58.3107 56.1016C58.2317 56.0624 58.1526 56.0233 58.0736 55.9841C57.8267 55.8614 57.5803 55.7376 57.3351 55.6117C57.2109 55.5483 57.086 55.4866 56.9604 55.4262C56.9103 55.4019 56.8602 55.3777 56.8086 55.3527C56.5076 55.2159 56.2719 55.1371 55.9399 55.1674C55.7812 55.1661 55.6539 55.1176 55.5061 55.0625C55.5271 55.7947 55.5552 56.4426 55.9042 57.1016C56.1215 57.5498 56.2447 57.9951 56.2655 58.4927C56.2963 58.7353 56.3951 58.9461 56.4889 59.1704C56.5577 59.3581 56.5677 59.4902 56.5449 59.6867C56.3211 59.6619 56.225 59.5364 56.0774 59.375C56.0453 59.34 56.0132 59.3051 55.98 59.269C55.7139 58.9738 55.7139 58.9738 55.7139 58.8554C55.6624 58.8383 55.611 58.8211 55.5581 58.8034C55.4911 58.7275 55.4911 58.7275 55.4217 58.6281C55.2931 58.4497 55.159 58.2783 55.0192 58.1085C54.8324 57.8816 54.6477 57.6532 54.4645 57.4233C54.3996 57.3419 54.3344 57.2607 54.269 57.1798C54.0177 56.8685 53.7747 56.5513 53.5323 56.2331C53.3492 55.9929 53.1644 55.7543 52.9774 55.5171C52.931 55.458 52.8845 55.399 52.8381 55.3399C52.7695 55.2528 52.701 55.1657 52.6323 55.0787C52.3711 54.7472 52.127 54.4126 51.9046 54.0531C51.6416 53.6441 51.3565 53.3055 50.9454 53.0426C50.7607 52.9228 50.5934 52.8064 50.4358 52.6529C50.2982 52.5282 50.2001 52.4966 50.017 52.4711C49.4212 52.3791 48.9368 51.8545 48.4946 51.4774C48.344 51.3541 48.1929 51.2314 48.0416 51.109C47.9233 51.0097 47.9233 51.0097 47.8391 50.9219C47.7633 50.8402 47.7633 50.8402 47.6117 50.8019C47.6117 50.8705 47.6117 50.9391 47.6117 51.0097C47.5628 51.0166 47.5139 51.0235 47.4636 51.0306C47.3989 51.0398 47.3342 51.049 47.2676 51.0584C47.1718 51.072 47.1718 51.072 47.0741 51.0858C46.9066 51.1104 46.7398 51.1371 46.5729 51.1656C46.5558 51.2342 46.5387 51.3028 46.521 51.3734C46.4784 51.3835 46.4358 51.3935 46.392 51.4039C46.308 51.4242 46.308 51.4242 46.2224 51.4449C46.1669 51.4581 46.1115 51.4714 46.0544 51.4851C45.8607 51.5361 45.8607 51.5361 45.69 51.6332C45.6229 51.7913 45.6229 51.7913 45.5861 51.945C45.5392 51.9501 45.4923 51.9552 45.4439 51.9604C45.352 51.9721 45.352 51.9721 45.2583 51.984C45.167 51.9948 45.167 51.9948 45.0739 52.0059C44.909 52.0348 44.909 52.0348 44.8152 52.1447C44.7335 52.2971 44.6931 52.4532 44.6513 52.6204C44.6067 52.6183 44.5622 52.6162 44.5164 52.6139C44.3095 52.6214 44.166 52.6394 43.9761 52.7244C43.8297 52.9131 43.7598 53.1385 43.6835 53.3623C43.6163 53.5454 43.5854 53.5847 43.4567 53.7116C43.4396 53.763 43.4224 53.8144 43.4048 53.8674C43.3334 53.9551 43.3334 53.9551 43.249 54.0233C43.1976 54.0233 43.1461 54.0233 43.0932 54.0233C43.0921 54.0705 43.091 54.1176 43.0899 54.1662C43.0467 54.4822 42.843 54.7454 42.6777 55.0105C42.6507 55.0563 42.6238 55.102 42.5961 55.1491C42.4636 55.3654 42.3193 55.5439 42.1064 55.686C42.0681 55.7694 42.0305 55.8531 41.9968 55.9384C41.9234 56.1149 41.8343 56.2832 41.7473 56.4532C41.6857 56.5735 41.6857 56.5735 41.6389 56.7251C41.5697 56.7944 41.5004 56.8637 41.4312 56.933C41.3948 56.9887 41.3583 57.0444 41.3208 57.1018C41.2887 57.149 41.2565 57.1961 41.2234 57.2447C41.1891 57.2447 41.1549 57.2447 41.1196 57.2447C41.1046 57.2769 41.0896 57.309 41.0741 57.3421C41.0157 57.4525 41.0157 57.4525 40.9118 57.5565C40.8604 57.5565 40.809 57.5565 40.756 57.5565C40.7517 57.6015 40.7474 57.6465 40.743 57.6928C40.6982 57.8948 40.6144 58.0117 40.4963 58.18C40.4792 58.2228 40.462 58.2657 40.4444 58.3098C40.3413 58.5676 40.1642 58.7832 39.9997 59.0048C39.9696 59.0454 39.9395 59.086 39.9086 59.1278C39.8797 59.1579 39.8509 59.1881 39.8211 59.2191C39.7697 59.2191 39.7183 59.2191 39.6653 59.2191C39.6514 59.2513 39.6375 59.2834 39.6231 59.3165C39.5614 59.4269 39.5614 59.4269 39.4056 59.5309C39.3577 59.6199 39.3139 59.7113 39.2725 59.8036C39.1288 60.1035 38.9559 60.3625 38.7572 60.6273C38.6545 60.7651 38.5678 60.8958 38.4927 61.0508C38.4174 61.1963 38.3719 61.2458 38.2338 61.3267C38.0693 61.4336 38.0017 61.5175 37.9514 61.7131C37.9171 61.7131 37.8828 61.7131 37.8475 61.7131C37.8379 61.7565 37.8379 61.7565 37.828 61.8008C37.7764 61.992 37.7246 62.1423 37.5943 62.2944C37.4659 62.4644 37.4037 62.6312 37.329 62.8294C37.2578 63.0056 37.1671 63.1616 37.0685 63.3238C37.0342 63.3238 36.9999 63.3238 36.9646 63.3238C36.9517 63.3613 36.9389 63.3988 36.9256 63.4375C36.8523 63.6026 36.781 63.7153 36.653 63.8434C36.4842 63.8856 36.4842 63.8856 36.3413 63.8953C36.3369 63.928 36.3324 63.9607 36.3277 63.9944C36.2797 64.287 36.2069 64.4997 36.036 64.7427C35.9682 64.8367 35.9682 64.8367 35.9258 64.9865C35.8916 64.9865 35.8573 64.9865 35.822 64.9865C35.8166 65.0347 35.8113 65.0829 35.8057 65.1326C35.7671 65.3116 35.7419 65.3362 35.6142 65.4541C35.5599 65.5568 35.5075 65.6605 35.4584 65.7658C35.4241 65.7658 35.3899 65.7658 35.3545 65.7658C35.3428 65.8033 35.331 65.8408 35.3188 65.8795C35.2507 66.0256 35.2507 66.0256 35.1273 66.1458C34.9152 66.3631 34.7971 66.6133 34.7313 66.9089C34.697 66.9089 34.6627 66.9089 34.6274 66.9089C34.6124 66.9561 34.5974 67.0032 34.582 67.0518C34.4583 67.4092 34.4583 67.4092 34.3158 67.4804C34.2784 67.5752 34.2784 67.5752 34.2476 67.685C34.1779 67.8861 34.1779 67.8861 34.0204 67.974C33.9808 67.9826 33.9411 67.9912 33.9003 68C33.9003 68.0343 33.9003 68.0686 33.9003 68.1039C33.8489 68.1039 33.7975 68.1039 33.7445 68.1039C33.7274 68.1725 33.7102 68.2411 33.6926 68.3118C33.6583 68.3118 33.624 68.3118 33.5887 68.3118C33.579 68.36 33.579 68.36 33.5692 68.4092C33.5367 68.5196 33.5367 68.5196 33.4329 68.6235C33.3814 68.6235 33.33 68.6235 33.2771 68.6235C33.2067 68.4828 33.2217 68.3632 33.2251 68.2079C33.1908 68.2079 33.1566 68.2079 33.1212 68.2079C33.1156 68.172 33.1099 68.1362 33.104 68.0993C33.0565 67.8176 32.9986 67.5537 32.8971 67.2864C32.8032 66.9752 32.8025 66.6592 32.8046 66.3376C32.8046 66.2943 32.8047 66.251 32.8048 66.2063C32.8051 66.0692 32.8057 65.9321 32.8064 65.7951C32.8066 65.7016 32.8069 65.6081 32.8071 65.5147C32.8077 65.2866 32.8086 65.0586 32.8096 64.8306C32.8439 64.8306 32.8782 64.8306 32.9135 64.8306C32.9129 64.7955 32.9123 64.7604 32.9117 64.7242C32.9112 64.6779 32.9107 64.6315 32.9103 64.5838C32.9096 64.538 32.909 64.4922 32.9084 64.445C32.9135 64.311 32.9135 64.311 32.938 64.2162C32.989 64.0061 32.9865 63.7864 32.9969 63.5709C33.0056 63.4083 33.0176 63.2713 33.0693 63.116C33.0813 62.9637 33.0891 62.8115 33.0965 62.6589C33.1256 62.4629 33.1978 62.3101 33.2771 62.1288C33.317 61.9894 33.3474 61.8484 33.3777 61.7066C33.464 61.3207 33.5696 60.9461 33.6926 60.57C33.7268 60.57 33.7611 60.57 33.7964 60.57C33.7926 60.5022 33.7926 60.5022 33.7887 60.433C33.7971 60.243 33.8403 60.1279 33.9198 59.9563C34.0007 59.7722 34.0708 59.602 34.108 59.4042C34.226 58.7934 34.5301 58.1908 34.7897 57.6279C34.8987 57.3857 34.9705 57.136 35.0429 56.881C35.1044 56.6849 35.1753 56.4977 35.2582 56.3097C35.3303 56.1407 35.3948 55.9687 35.4602 55.797C35.5103 55.686 35.5103 55.686 35.6142 55.582C35.6493 55.4956 35.6838 55.409 35.7181 55.3223C35.7427 55.2826 35.7674 55.243 35.7928 55.2021C35.8814 55.0596 35.8814 55.0596 35.9388 54.8774C36.0658 54.5221 36.2811 54.2059 36.4777 53.8859C36.5564 53.7567 36.5564 53.7567 36.627 53.5817C36.6949 53.4232 36.7724 53.2873 36.8607 53.14C36.8833 53.0862 36.9058 53.0325 36.9291 52.977C37.0213 52.7585 37.1336 52.5526 37.247 52.3444C37.4016 52.0575 37.5433 51.7741 37.6526 51.4662C37.6917 51.3734 37.6917 51.3734 37.7956 51.2695C37.8309 51.1847 37.8662 51.0998 37.9013 51.0148C37.9785 50.8468 38.0762 50.6927 38.1731 50.5354C38.2562 50.3975 38.3345 50.2576 38.4121 50.1166C38.6087 49.7619 38.8331 49.4497 39.094 49.1392C39.2452 48.9458 39.3891 48.7472 39.5312 48.547C39.5538 48.5152 39.5764 48.4833 39.5997 48.4505C39.6444 48.3875 39.6889 48.3243 39.7334 48.2611C40.069 47.7865 40.4607 47.4053 40.9029 47.0329C41.1177 46.8507 41.3221 46.663 41.5105 46.4529C41.9537 45.9665 42.5932 45.6368 43.197 45.3983C43.1312 45.0299 43.0231 44.7184 42.84 44.3948C42.6254 44.0144 42.4879 43.6356 42.366 43.216C42.3469 43.1515 42.3469 43.1515 42.3273 43.0857C42.2715 42.8833 42.2517 42.6983 42.2622 42.4886C42.2279 42.4886 42.1936 42.4886 42.1583 42.4886C42.0736 42.1964 41.9988 41.9097 41.9538 41.6086C41.9169 41.3865 41.871 41.2819 41.6909 41.1377C41.6909 41.0863 41.6909 41.0348 41.6909 40.9818C42.0223 40.939 42.3436 40.9236 42.6777 40.9299C42.6948 40.8784 42.7119 40.827 42.7296 40.774C43.262 40.4528 43.9666 40.6131 44.5344 40.7318C44.5842 40.742 44.6339 40.7521 44.6852 40.7626C45.1418 40.8653 45.53 41.0549 45.9172 41.3163C46.2686 41.5434 46.6215 41.7612 47.0306 41.8619C47.302 41.782 47.4068 41.5729 47.5597 41.3455C47.6308 41.2468 47.7023 41.1483 47.774 41.05C47.8091 41.0018 47.8443 40.9536 47.8805 40.9039C47.9118 40.861 47.943 40.8182 47.9752 40.774C48.0149 40.7193 48.0545 40.6647 48.0953 40.6084C48.3593 40.3321 48.676 40.0996 49.0237 39.9394C49.1751 39.8692 49.2842 39.7898 49.4068 39.6764C50.049 39.0946 50.843 38.697 51.6445 38.3818C51.7687 38.3352 51.7687 38.3352 51.8803 38.2605C52.0485 38.1633 52.2197 38.0956 52.4006 38.0255C52.5502 37.9665 52.697 37.9025 52.8443 37.8384C53.1876 37.6957 53.5374 37.5959 53.8961 37.5006C54.0694 37.4544 54.2428 37.408 54.4161 37.3616C54.5375 37.3291 54.6589 37.2969 54.7803 37.2648C54.8367 37.2498 54.8931 37.2348 54.9512 37.2193C55.0018 37.206 55.0524 37.1926 55.1045 37.1788C55.2427 37.138 55.3725 37.0866 55.5061 37.033C55.579 37.0132 55.6524 36.9951 55.7262 36.9788C55.7681 36.9693 55.8101 36.9598 55.8532 36.95C55.9208 36.9348 55.9208 36.9348 55.9898 36.9194C56.3949 36.826 56.7929 36.7181 57.1908 36.5979C58.3029 36.2654 59.4395 36.0241 60.581 35.8173C60.7565 35.7852 60.9316 35.7515 61.1068 35.7178C62.0322 35.5444 62.9534 35.4532 63.8915 35.3864C64.0739 35.3728 64.0739 35.3728 64.2456 35.343C64.5012 35.3105 64.753 35.31 65.0104 35.3097Z"/>
</mask>
<path d="M65.0104 35.3097C65.0657 35.3095 65.121 35.3093 65.178 35.3092C65.2953 35.3089 65.4126 35.3088 65.5299 35.3088C65.7049 35.3087 65.8798 35.3077 66.0547 35.3067C67.0495 35.3041 68.0396 35.3581 69.0227 35.5165C69.0779 35.5252 69.1331 35.5339 69.19 35.5429C69.5577 35.6032 69.9205 35.6774 70.2822 35.7665C70.3257 35.7772 70.3691 35.7879 70.4139 35.799C70.71 35.8763 70.71 35.8763 70.8275 35.9939C70.9898 36.0408 71.1521 36.0809 71.3165 36.1192C71.5149 36.1682 71.6614 36.2199 71.8143 36.3576C71.8111 36.4517 71.8111 36.4517 71.7624 36.5654C71.5666 36.6712 71.4289 36.7177 71.2073 36.744C71.0335 36.7549 71.0335 36.7549 70.9509 36.8692C70.7711 37.0322 70.5747 37.0734 70.3439 37.1369C70.2978 37.1503 70.2517 37.1636 70.2043 37.1773C69.9897 37.2388 69.7746 37.2971 69.5581 37.3517C69.5234 37.3605 69.4886 37.3693 69.4528 37.3785C69.3601 37.4017 69.2671 37.4238 69.1741 37.4458C69.0051 37.4938 69.0051 37.4938 68.861 37.6023C68.6604 37.7331 68.4707 37.784 68.2404 37.8416C68.1568 37.8637 68.0731 37.8858 67.9895 37.908C67.95 37.9184 67.9105 37.9287 67.8698 37.9394C67.7111 37.9824 67.5562 38.0345 67.4009 38.0882C67.2735 38.1318 67.1453 38.1722 67.0167 38.2118C66.9745 38.2249 66.9323 38.2379 66.8889 38.2514C66.7765 38.28 66.7765 38.28 66.6206 38.28C66.6158 38.3121 66.611 38.3442 66.6061 38.3773C66.5687 38.4878 66.5687 38.4878 66.489 38.5479C66.2279 38.667 65.9651 38.7692 65.6923 38.858C65.6512 38.8716 65.6102 38.8851 65.5679 38.8991C65.3178 38.9801 65.0709 39.0448 64.8116 39.0894C64.4929 39.1515 64.2076 39.2757 63.9199 39.4231C63.8856 39.4231 63.8514 39.4231 63.816 39.4231C63.816 39.4574 63.816 39.4917 63.816 39.527C63.3304 39.7694 62.8517 39.9988 62.3326 40.1602C61.9784 40.2708 61.6847 40.4116 61.375 40.6181C61.1134 40.7812 60.8736 40.8778 60.5765 40.9559C60.2554 41.0412 59.9619 41.1525 59.6611 41.2936C59.5787 41.3315 59.4962 41.3693 59.4138 41.407C59.3721 41.4261 59.3305 41.4453 59.2875 41.4649C58.8828 41.6498 58.4815 41.8215 58.0583 41.9603C57.8569 42.0352 57.6702 42.1297 57.4797 42.2288C57.3414 42.3005 57.2028 42.3719 57.0642 42.4432C57.0299 42.4612 56.9957 42.4792 56.9604 42.4977C56.6557 42.6531 56.3723 42.7484 56.0255 42.7484C56.0083 42.7998 55.9912 42.8513 55.9735 42.9043C55.6581 43.1115 55.3226 43.228 54.9575 43.3134C54.7204 43.3686 54.7204 43.3686 54.5445 43.5217C54.5038 43.6298 54.4823 43.7253 54.4674 43.8395C54.4506 43.9089 54.4335 43.9783 54.4154 44.0474C54.3798 44.0524 54.3441 44.0575 54.3073 44.0628C54.2371 44.0744 54.2371 44.0744 54.1655 44.0863C54.0959 44.0972 54.0959 44.0972 54.0249 44.1082C53.8645 44.1618 53.8244 44.2141 53.7403 44.3591C53.684 44.4919 53.6361 44.6263 53.5877 44.7622C53.5325 44.8787 53.5325 44.8787 53.3767 44.9826C53.3253 44.9826 53.2739 44.9826 53.2209 44.9826C53.1652 45.1112 53.1182 45.2378 53.0827 45.3735C53.0705 45.4203 53.0582 45.467 53.0456 45.5152C53.0345 45.5604 53.0234 45.6057 53.0119 45.6524C52.9952 45.6885 52.9784 45.7247 52.9612 45.762C52.8555 45.7955 52.8555 45.7955 52.7535 45.8139C52.6914 45.9476 52.6914 45.9476 52.6496 46.1257C52.6229 46.2178 52.5958 46.3098 52.5684 46.4017C52.5555 46.4465 52.5426 46.4913 52.5293 46.5375C52.4938 46.6453 52.4938 46.6453 52.4418 46.6972C52.3553 46.6993 52.2687 46.6994 52.1821 46.6972C52.2292 46.8133 52.2769 46.929 52.325 47.0447C52.3381 47.0772 52.3512 47.1097 52.3647 47.1432C52.4316 47.3029 52.4986 47.4306 52.6082 47.5653C52.7015 47.6844 52.7015 47.6844 52.7015 47.8923C52.7358 47.8923 52.7701 47.8923 52.8054 47.8923C52.8538 47.9891 52.9022 48.086 52.9504 48.1829C52.9924 48.2665 53.0347 48.3498 53.0775 48.4329C53.2801 48.8296 53.4503 49.2337 53.5844 49.6588C53.5502 49.6588 53.5159 49.6588 53.4806 49.6588C53.4806 49.7103 53.4806 49.7617 53.4806 49.8147C53.532 49.8318 53.5834 49.849 53.6364 49.8667C53.6386 49.9879 53.6385 50.1091 53.6364 50.2304C53.6192 50.2475 53.6021 50.2647 53.5844 50.2823C53.6187 50.2995 53.653 50.3166 53.6883 50.3343C53.6883 50.3 53.6883 50.2657 53.6883 50.2304C53.8441 50.2823 53.8441 50.2823 53.8961 50.3862C53.8981 50.4901 53.8983 50.5941 53.8961 50.698C53.9475 50.698 53.9989 50.698 54.0519 50.698C54.0612 50.9031 54.0567 51.0408 53.948 51.2176C54.0779 51.1046 54.1265 51.0237 54.1558 50.8539C54.19 50.8539 54.2243 50.8539 54.2596 50.8539C54.3274 50.9229 54.3274 50.9229 54.4089 51.0227C54.5755 51.2185 54.7501 51.4028 54.9316 51.5845C54.9564 51.6096 54.9812 51.6346 55.0067 51.6604C55.1479 51.8011 55.2931 51.9345 55.4442 52.0645C55.6869 52.2748 55.9109 52.502 56.1359 52.7308C56.4398 53.0441 56.4398 53.0441 56.7652 53.3345C56.8793 53.4279 56.9823 53.5238 57.0858 53.6284C57.1858 53.7295 57.2866 53.8297 57.3873 53.93C57.5928 54.1348 57.7982 54.3397 58.0035 54.5446C58.1271 54.668 58.2508 54.7914 58.3746 54.9146C58.5183 55.0577 58.6618 55.201 58.8053 55.3444C58.8492 55.388 58.8931 55.4317 58.9383 55.4766C59.2963 55.8347 59.6412 56.1974 59.9208 56.6212C59.9208 56.6555 59.9208 56.6898 59.9208 56.7251C59.5378 56.6676 59.2206 56.5541 58.8755 56.3809C58.8284 56.3578 58.7813 56.3348 58.7327 56.311C58.5917 56.2419 58.4512 56.1719 58.3107 56.1016C58.2317 56.0624 58.1526 56.0233 58.0736 55.9841C57.8267 55.8614 57.5803 55.7376 57.3351 55.6117C57.2109 55.5483 57.086 55.4866 56.9604 55.4262C56.9103 55.4019 56.8602 55.3777 56.8086 55.3527C56.5076 55.2159 56.2719 55.1371 55.9399 55.1674C55.7812 55.1661 55.6539 55.1176 55.5061 55.0625C55.5271 55.7947 55.5552 56.4426 55.9042 57.1016C56.1215 57.5498 56.2447 57.9951 56.2655 58.4927C56.2963 58.7353 56.3951 58.9461 56.4889 59.1704C56.5577 59.3581 56.5677 59.4902 56.5449 59.6867C56.3211 59.6619 56.225 59.5364 56.0774 59.375C56.0453 59.34 56.0132 59.3051 55.98 59.269C55.7139 58.9738 55.7139 58.9738 55.7139 58.8554C55.6624 58.8383 55.611 58.8211 55.5581 58.8034C55.4911 58.7275 55.4911 58.7275 55.4217 58.6281C55.2931 58.4497 55.159 58.2783 55.0192 58.1085C54.8324 57.8816 54.6477 57.6532 54.4645 57.4233C54.3996 57.3419 54.3344 57.2607 54.269 57.1798C54.0177 56.8685 53.7747 56.5513 53.5323 56.2331C53.3492 55.9929 53.1644 55.7543 52.9774 55.5171C52.931 55.458 52.8845 55.399 52.8381 55.3399C52.7695 55.2528 52.701 55.1657 52.6323 55.0787C52.3711 54.7472 52.127 54.4126 51.9046 54.0531C51.6416 53.6441 51.3565 53.3055 50.9454 53.0426C50.7607 52.9228 50.5934 52.8064 50.4358 52.6529C50.2982 52.5282 50.2001 52.4966 50.017 52.4711C49.4212 52.3791 48.9368 51.8545 48.4946 51.4774C48.344 51.3541 48.1929 51.2314 48.0416 51.109C47.9233 51.0097 47.9233 51.0097 47.8391 50.9219C47.7633 50.8402 47.7633 50.8402 47.6117 50.8019C47.6117 50.8705 47.6117 50.9391 47.6117 51.0097C47.5628 51.0166 47.5139 51.0235 47.4636 51.0306C47.3989 51.0398 47.3342 51.049 47.2676 51.0584C47.1718 51.072 47.1718 51.072 47.0741 51.0858C46.9066 51.1104 46.7398 51.1371 46.5729 51.1656C46.5558 51.2342 46.5387 51.3028 46.521 51.3734C46.4784 51.3835 46.4358 51.3935 46.392 51.4039C46.308 51.4242 46.308 51.4242 46.2224 51.4449C46.1669 51.4581 46.1115 51.4714 46.0544 51.4851C45.8607 51.5361 45.8607 51.5361 45.69 51.6332C45.6229 51.7913 45.6229 51.7913 45.5861 51.945C45.5392 51.9501 45.4923 51.9552 45.4439 51.9604C45.352 51.9721 45.352 51.9721 45.2583 51.984C45.167 51.9948 45.167 51.9948 45.0739 52.0059C44.909 52.0348 44.909 52.0348 44.8152 52.1447C44.7335 52.2971 44.6931 52.4532 44.6513 52.6204C44.6067 52.6183 44.5622 52.6162 44.5164 52.6139C44.3095 52.6214 44.166 52.6394 43.9761 52.7244C43.8297 52.9131 43.7598 53.1385 43.6835 53.3623C43.6163 53.5454 43.5854 53.5847 43.4567 53.7116C43.4396 53.763 43.4224 53.8144 43.4048 53.8674C43.3334 53.9551 43.3334 53.9551 43.249 54.0233C43.1976 54.0233 43.1461 54.0233 43.0932 54.0233C43.0921 54.0705 43.091 54.1176 43.0899 54.1662C43.0467 54.4822 42.843 54.7454 42.6777 55.0105C42.6507 55.0563 42.6238 55.102 42.5961 55.1491C42.4636 55.3654 42.3193 55.5439 42.1064 55.686C42.0681 55.7694 42.0305 55.8531 41.9968 55.9384C41.9234 56.1149 41.8343 56.2832 41.7473 56.4532C41.6857 56.5735 41.6857 56.5735 41.6389 56.7251C41.5697 56.7944 41.5004 56.8637 41.4312 56.933C41.3948 56.9887 41.3583 57.0444 41.3208 57.1018C41.2887 57.149 41.2565 57.1961 41.2234 57.2447C41.1891 57.2447 41.1549 57.2447 41.1196 57.2447C41.1046 57.2769 41.0896 57.309 41.0741 57.3421C41.0157 57.4525 41.0157 57.4525 40.9118 57.5565C40.8604 57.5565 40.809 57.5565 40.756 57.5565C40.7517 57.6015 40.7474 57.6465 40.743 57.6928C40.6982 57.8948 40.6144 58.0117 40.4963 58.18C40.4792 58.2228 40.462 58.2657 40.4444 58.3098C40.3413 58.5676 40.1642 58.7832 39.9997 59.0048C39.9696 59.0454 39.9395 59.086 39.9086 59.1278C39.8797 59.1579 39.8509 59.1881 39.8211 59.2191C39.7697 59.2191 39.7183 59.2191 39.6653 59.2191C39.6514 59.2513 39.6375 59.2834 39.6231 59.3165C39.5614 59.4269 39.5614 59.4269 39.4056 59.5309C39.3577 59.6199 39.3139 59.7113 39.2725 59.8036C39.1288 60.1035 38.9559 60.3625 38.7572 60.6273C38.6545 60.7651 38.5678 60.8958 38.4927 61.0508C38.4174 61.1963 38.3719 61.2458 38.2338 61.3267C38.0693 61.4336 38.0017 61.5175 37.9514 61.7131C37.9171 61.7131 37.8828 61.7131 37.8475 61.7131C37.8379 61.7565 37.8379 61.7565 37.828 61.8008C37.7764 61.992 37.7246 62.1423 37.5943 62.2944C37.4659 62.4644 37.4037 62.6312 37.329 62.8294C37.2578 63.0056 37.1671 63.1616 37.0685 63.3238C37.0342 63.3238 36.9999 63.3238 36.9646 63.3238C36.9517 63.3613 36.9389 63.3988 36.9256 63.4375C36.8523 63.6026 36.781 63.7153 36.653 63.8434C36.4842 63.8856 36.4842 63.8856 36.3413 63.8953C36.3369 63.928 36.3324 63.9607 36.3277 63.9944C36.2797 64.287 36.2069 64.4997 36.036 64.7427C35.9682 64.8367 35.9682 64.8367 35.9258 64.9865C35.8916 64.9865 35.8573 64.9865 35.822 64.9865C35.8166 65.0347 35.8113 65.0829 35.8057 65.1326C35.7671 65.3116 35.7419 65.3362 35.6142 65.4541C35.5599 65.5568 35.5075 65.6605 35.4584 65.7658C35.4241 65.7658 35.3899 65.7658 35.3545 65.7658C35.3428 65.8033 35.331 65.8408 35.3188 65.8795C35.2507 66.0256 35.2507 66.0256 35.1273 66.1458C34.9152 66.3631 34.7971 66.6133 34.7313 66.9089C34.697 66.9089 34.6627 66.9089 34.6274 66.9089C34.6124 66.9561 34.5974 67.0032 34.582 67.0518C34.4583 67.4092 34.4583 67.4092 34.3158 67.4804C34.2784 67.5752 34.2784 67.5752 34.2476 67.685C34.1779 67.8861 34.1779 67.8861 34.0204 67.974C33.9808 67.9826 33.9411 67.9912 33.9003 68C33.9003 68.0343 33.9003 68.0686 33.9003 68.1039C33.8489 68.1039 33.7975 68.1039 33.7445 68.1039C33.7274 68.1725 33.7102 68.2411 33.6926 68.3118C33.6583 68.3118 33.624 68.3118 33.5887 68.3118C33.579 68.36 33.579 68.36 33.5692 68.4092C33.5367 68.5196 33.5367 68.5196 33.4329 68.6235C33.3814 68.6235 33.33 68.6235 33.2771 68.6235C33.2067 68.4828 33.2217 68.3632 33.2251 68.2079C33.1908 68.2079 33.1566 68.2079 33.1212 68.2079C33.1156 68.172 33.1099 68.1362 33.104 68.0993C33.0565 67.8176 32.9986 67.5537 32.8971 67.2864C32.8032 66.9752 32.8025 66.6592 32.8046 66.3376C32.8046 66.2943 32.8047 66.251 32.8048 66.2063C32.8051 66.0692 32.8057 65.9321 32.8064 65.7951C32.8066 65.7016 32.8069 65.6081 32.8071 65.5147C32.8077 65.2866 32.8086 65.0586 32.8096 64.8306C32.8439 64.8306 32.8782 64.8306 32.9135 64.8306C32.9129 64.7955 32.9123 64.7604 32.9117 64.7242C32.9112 64.6779 32.9107 64.6315 32.9103 64.5838C32.9096 64.538 32.909 64.4922 32.9084 64.445C32.9135 64.311 32.9135 64.311 32.938 64.2162C32.989 64.0061 32.9865 63.7864 32.9969 63.5709C33.0056 63.4083 33.0176 63.2713 33.0693 63.116C33.0813 62.9637 33.0891 62.8115 33.0965 62.6589C33.1256 62.4629 33.1978 62.3101 33.2771 62.1288C33.317 61.9894 33.3474 61.8484 33.3777 61.7066C33.464 61.3207 33.5696 60.9461 33.6926 60.57C33.7268 60.57 33.7611 60.57 33.7964 60.57C33.7926 60.5022 33.7926 60.5022 33.7887 60.433C33.7971 60.243 33.8403 60.1279 33.9198 59.9563C34.0007 59.7722 34.0708 59.602 34.108 59.4042C34.226 58.7934 34.5301 58.1908 34.7897 57.6279C34.8987 57.3857 34.9705 57.136 35.0429 56.881C35.1044 56.6849 35.1753 56.4977 35.2582 56.3097C35.3303 56.1407 35.3948 55.9687 35.4602 55.797C35.5103 55.686 35.5103 55.686 35.6142 55.582C35.6493 55.4956 35.6838 55.409 35.7181 55.3223C35.7427 55.2826 35.7674 55.243 35.7928 55.2021C35.8814 55.0596 35.8814 55.0596 35.9388 54.8774C36.0658 54.5221 36.2811 54.2059 36.4777 53.8859C36.5564 53.7567 36.5564 53.7567 36.627 53.5817C36.6949 53.4232 36.7724 53.2873 36.8607 53.14C36.8833 53.0862 36.9058 53.0325 36.9291 52.977C37.0213 52.7585 37.1336 52.5526 37.247 52.3444C37.4016 52.0575 37.5433 51.7741 37.6526 51.4662C37.6917 51.3734 37.6917 51.3734 37.7956 51.2695C37.8309 51.1847 37.8662 51.0998 37.9013 51.0148C37.9785 50.8468 38.0762 50.6927 38.1731 50.5354C38.2562 50.3975 38.3345 50.2576 38.4121 50.1166C38.6087 49.7619 38.8331 49.4497 39.094 49.1392C39.2452 48.9458 39.3891 48.7472 39.5312 48.547C39.5538 48.5152 39.5764 48.4833 39.5997 48.4505C39.6444 48.3875 39.6889 48.3243 39.7334 48.2611C40.069 47.7865 40.4607 47.4053 40.9029 47.0329C41.1177 46.8507 41.3221 46.663 41.5105 46.4529C41.9537 45.9665 42.5932 45.6368 43.197 45.3983C43.1312 45.0299 43.0231 44.7184 42.84 44.3948C42.6254 44.0144 42.4879 43.6356 42.366 43.216C42.3469 43.1515 42.3469 43.1515 42.3273 43.0857C42.2715 42.8833 42.2517 42.6983 42.2622 42.4886C42.2279 42.4886 42.1936 42.4886 42.1583 42.4886C42.0736 42.1964 41.9988 41.9097 41.9538 41.6086C41.9169 41.3865 41.871 41.2819 41.6909 41.1377C41.6909 41.0863 41.6909 41.0348 41.6909 40.9818C42.0223 40.939 42.3436 40.9236 42.6777 40.9299C42.6948 40.8784 42.7119 40.827 42.7296 40.774C43.262 40.4528 43.9666 40.6131 44.5344 40.7318C44.5842 40.742 44.6339 40.7521 44.6852 40.7626C45.1418 40.8653 45.53 41.0549 45.9172 41.3163C46.2686 41.5434 46.6215 41.7612 47.0306 41.8619C47.302 41.782 47.4068 41.5729 47.5597 41.3455C47.6308 41.2468 47.7023 41.1483 47.774 41.05C47.8091 41.0018 47.8443 40.9536 47.8805 40.9039C47.9118 40.861 47.943 40.8182 47.9752 40.774C48.0149 40.7193 48.0545 40.6647 48.0953 40.6084C48.3593 40.3321 48.676 40.0996 49.0237 39.9394C49.1751 39.8692 49.2842 39.7898 49.4068 39.6764C50.049 39.0946 50.843 38.697 51.6445 38.3818C51.7687 38.3352 51.7687 38.3352 51.8803 38.2605C52.0485 38.1633 52.2197 38.0956 52.4006 38.0255C52.5502 37.9665 52.697 37.9025 52.8443 37.8384C53.1876 37.6957 53.5374 37.5959 53.8961 37.5006C54.0694 37.4544 54.2428 37.408 54.4161 37.3616C54.5375 37.3291 54.6589 37.2969 54.7803 37.2648C54.8367 37.2498 54.8931 37.2348 54.9512 37.2193C55.0018 37.206 55.0524 37.1926 55.1045 37.1788C55.2427 37.138 55.3725 37.0866 55.5061 37.033C55.579 37.0132 55.6524 36.9951 55.7262 36.9788C55.7681 36.9693 55.8101 36.9598 55.8532 36.95C55.9208 36.9348 55.9208 36.9348 55.9898 36.9194C56.3949 36.826 56.7929 36.7181 57.1908 36.5979C58.3029 36.2654 59.4395 36.0241 60.581 35.8173C60.7565 35.7852 60.9316 35.7515 61.1068 35.7178C62.0322 35.5444 62.9534 35.4532 63.8915 35.3864C64.0739 35.3728 64.0739 35.3728 64.2456 35.343C64.5012 35.3105 64.753 35.31 65.0104 35.3097Z" fill="#262626" stroke="white" stroke-width="2" mask="url(#path-1-inside-1_401_3558)"/>
</svg>
