<svg width="450" height="609" viewBox="0 0 450 609" fill="none" xmlns="http://www.w3.org/2000/svg">
<path d="M441.419 221.386L442.173 225.073L442.894 228.773L443.579 232.486L444.23 236.209L444.848 239.943L445.43 243.688L445.977 247.442L446.489 251.205L446.967 254.977L447.408 258.756L447.815 262.543L448.188 266.336L448.524 270.135L448.826 273.939L449.092 277.749L449.322 281.562L449.518 285.38L449.678 289.2L449.802 293.023L449.891 296.848L449.944 300.674L449.962 304.5L449.944 308.326L449.891 312.152L449.802 315.977L449.678 319.8L449.518 323.62L449.322 327.437L449.092 331.251L448.826 335.061L448.524 338.864L448.188 342.664L447.815 346.457L447.408 350.243L446.967 354.023L446.489 357.795L445.977 361.558L445.43 365.312L444.848 369.056L444.23 372.79L443.579 376.514L442.894 380.226L442.173 383.926L441.419 387.614L440.63 391.288L439.807 394.949L438.95 398.596L438.06 402.228L437.136 405.844L436.178 409.443L435.187 413.027L434.163 416.594L433.105 420.143L432.016 423.673L430.893 427.185L429.737 430.678L428.55 434.149L427.33 437.602L426.078 441.032L424.795 444.442L423.479 447.829L422.133 451.194L420.756 454.535L419.347 457.854L417.908 461.146L416.438 464.416L414.938 467.659L413.408 470.877L411.849 474.068L410.26 477.233L408.642 480.371L406.994 483.48L405.318 486.562L403.613 489.615L401.881 492.639L400.12 495.632L398.332 498.596L396.516 501.528L394.673 504.431L392.804 507.301L390.907 510.139L388.984 512.944L387.036 515.718L385.062 518.457L383.063 521.162L381.039 523.834L378.991 526.471L376.918 529.072L374.82 531.639L372.7 534.17L370.556 536.664L368.389 539.121L366.199 541.542L363.987 543.925L361.754 546.271L359.498 548.577L357.222 550.846L354.924 553.075L352.605 555.266L350.268 557.416L347.909 559.527L345.531 561.598L343.135 563.628L340.72 565.617L338.286 567.564L335.835 569.471L333.366 571.335L330.88 573.158L328.378 574.938L325.858 576.675L323.323 578.369L320.773 580.02L318.207 581.627L315.627 583.191L313.032 584.711L310.424 586.186L307.802 587.617L305.167 589.003L302.519 590.345L299.858 591.641L297.187 592.892L294.504 594.097L291.81 595.256L289.104 596.37L286.39 597.438L283.665 598.459L280.932 599.434L278.188 600.362L275.438 601.243L272.679 602.078L269.912 602.866L267.138 603.606L264.357 604.3L261.571 604.946L258.778 605.545L255.98 606.096L253.179 606.599L250.371 607.055L247.561 607.463L244.745 607.822L241.928 608.135L239.107 608.399L236.285 608.615L233.46 608.784L230.635 608.904L227.808 608.976L224.98 609L222.153 608.976L219.327 608.904L216.501 608.784L213.677 608.615L210.854 608.399L208.033 608.135L205.216 607.822L202.401 607.463L199.59 607.055L196.783 606.599L193.98 606.096L191.183 605.545L188.391 604.946L185.604 604.3L182.823 603.606L180.05 602.866L177.283 602.078L174.524 601.243L171.772 600.362L169.03 599.434L166.296 598.459L163.571 597.438L160.856 596.37L158.152 595.256L155.458 594.097L152.774 592.892L150.103 591.641L147.442 590.345L144.795 589.003L142.16 587.617L139.538 586.186L136.929 584.711L135.133 583.659L357.71 233.324L441.417 221.377L441.419 221.386Z" fill="white"/>
<path d="M355.64 232.854L133.415 582.634L131.754 581.628L129.188 580.021L126.638 578.37L124.103 576.676L121.584 574.938L119.081 573.158L116.596 571.336L114.126 569.472L111.675 567.565L109.241 565.618L106.826 563.629L104.43 561.599L102.053 559.528L99.6943 557.417L97.3564 555.267L95.0381 553.076L92.7402 550.847L90.4639 548.578L88.208 546.271L85.9736 543.926L83.7617 541.543L81.5723 539.122L79.4053 536.665L77.2617 534.171L75.1406 531.64L73.0439 529.073L70.9707 526.472L68.9219 523.835L66.8975 521.163L64.8984 518.458L62.9248 515.719L60.9766 512.945L59.0547 510.14L57.1582 507.302L55.2881 504.432L53.4453 501.529L51.6299 498.597L49.8418 495.633L48.0811 492.639L46.3477 489.615L44.6436 486.562L42.9668 483.481L41.3203 480.372L39.7012 477.234L38.1123 474.069L36.5527 470.878L35.0234 467.66L33.5234 464.417L32.0537 461.147L30.6143 457.854L29.2061 454.536L27.8281 451.195L26.4824 447.83L25.167 444.443L23.8838 441.033L22.6318 437.603L21.4121 434.15L20.2246 430.678L19.0684 427.186L17.9463 423.674L16.8555 420.144L15.7988 416.595L14.7744 413.028L13.7832 409.444L12.8262 405.845L11.9014 402.229L11.0107 398.597L10.1543 394.95L9.33105 391.289L8.54297 387.614L7.78809 383.927L7.06836 380.227L6.38184 376.515L5.73047 372.791L5.11426 369.057L4.53223 365.312L3.98438 361.559L3.47266 357.795L2.99512 354.023L2.55273 350.244L2.14551 346.458L1.77344 342.665L1.4375 338.865L1.13574 335.061L0.869141 331.252L0.638672 327.438L0.443359 323.62L0.28418 319.8L0.15918 315.978L0.0703125 312.153L0.0175781 308.327L0 304.501L0.0175781 300.675L0.0703125 296.849L0.15918 293.024L0.28418 289.201L0.443359 285.381L0.638672 281.563L0.869141 277.75L1.13574 273.94L1.4375 270.136L1.77344 266.337L2.14551 262.544L2.55273 258.757L2.99512 254.978L3.47266 251.206L3.98438 247.443L4.53223 243.689L5.11426 239.944L5.73047 236.21L6.38184 232.486L7.06836 228.774L7.78809 225.074L8.54297 221.387L9.33203 217.712L10.1543 214.052L11.0107 210.405L11.9014 206.773L12.8262 203.157L13.7832 199.557L14.7744 195.974L15.7988 192.407L16.8555 188.858L17.9463 185.327L19.0684 181.815L20.2246 178.323L21.4121 174.851L22.6318 171.399L23.8838 167.968L25.167 164.559L26.4824 161.171L27.8281 157.807L29.2061 154.465L30.6143 151.147L32.0537 147.854L33.5234 144.585L35.0234 141.342L36.5527 138.124L38.1123 134.932L39.7012 131.768L41.3203 128.63L42.9668 125.521L44.6436 122.438L46.3477 119.386L48.0811 116.362L49.8418 113.369L51.6299 110.405L53.4453 107.472L55.2881 104.57L57.1582 101.7L59.0547 98.8623L60.9766 96.0557L62.9248 93.2832L64.8984 90.5439L66.8975 87.8379L68.9219 85.167L70.9707 82.5293L73.0439 79.9277L75.1406 77.3613L77.2617 74.8311L79.4053 72.3369L81.5723 69.8789L83.7617 67.459L85.9736 65.0762L88.208 62.7305L90.4639 60.4238L92.1064 58.7861L355.64 232.854Z" fill="white"/>
<path d="M227.808 0.0244141L230.635 0.0957031L233.46 0.216797L236.285 0.384766L239.107 0.600586L241.928 0.865234L244.746 1.17773L247.561 1.53711L250.371 1.94531L253.179 2.40137L255.981 2.9043L258.778 3.45508L261.571 4.05371L264.357 4.7002L267.138 5.39355L269.912 6.13379L272.679 6.92188L275.438 7.75684L278.188 8.6377L280.932 9.56641L283.665 10.541L286.39 11.5625L289.104 12.6299L291.81 13.7441L294.504 14.9033L297.188 16.1084L299.858 17.3594L302.519 18.6553L305.167 19.9971L307.802 21.3828L310.424 22.8145L313.032 24.2891L315.627 25.8086L318.207 27.373L320.773 28.9805L323.323 30.6309L325.858 32.3252L328.378 34.0625L330.88 35.8428L333.366 37.665L335.835 39.5293L338.286 41.4355L340.72 43.3828L343.135 45.3721L345.531 47.4023L347.909 49.4727L350.268 51.584L352.605 53.7344L354.924 55.9248L357.222 58.1543L359.498 60.4229L361.754 62.7295L363.987 65.0752L366.199 67.458L368.389 69.8789L370.556 72.3359L372.7 74.8301L374.821 77.3613L376.918 79.9277L378.991 82.5293L381.04 85.166L383.063 87.8379L385.062 90.543L387.037 93.2822L388.985 96.0557L390.907 98.8613L392.804 101.699L394.673 104.569L396.516 107.472L398.332 110.404L400.12 113.368L401.881 116.361L403.613 119.386L405.318 122.438L406.994 125.52L408.642 128.629L410.26 131.767L411.849 134.932L413.408 138.123L414.938 141.341L416.438 144.584L417.908 147.854L419.347 151.146L420.756 154.465L422.133 157.806L423.479 161.171L424.795 164.558L426.078 167.968L427.33 171.398L428.55 174.851L429.737 178.322L430.893 181.815L432.016 185.327L433.105 188.857L434.163 192.406L435.188 195.973L436.178 199.557L437.136 203.156L438.06 206.772L438.95 210.404L439.808 214.051L440.63 217.712L440.995 219.416L357.062 231.396L93.5654 57.3525L95.0381 55.9248L97.3564 53.7344L99.6943 51.584L102.053 49.4727L104.43 47.4023L106.826 45.3721L109.242 43.3828L111.675 41.4355L114.127 39.5293L116.596 37.665L119.081 35.8428L121.584 34.0625L124.104 32.3252L126.638 30.6309L129.188 28.9805L131.754 27.373L134.335 25.8086L136.929 24.2891L139.538 22.8145L142.16 21.3828L144.795 19.9971L147.442 18.6553L150.103 17.3594L152.774 16.1084L155.458 14.9033L158.152 13.7441L160.856 12.6299L163.572 11.5625L166.297 10.541L169.03 9.56641L171.773 8.6377L174.524 7.75684L177.283 6.92188L180.05 6.13379L182.823 5.39355L185.604 4.7002L188.391 4.05371L191.183 3.45508L193.98 2.9043L196.783 2.40137L199.59 1.94531L202.401 1.53711L205.216 1.17773L208.034 0.865234L210.854 0.600586L213.677 0.384766L216.501 0.216797L219.327 0.0957031L222.153 0.0244141L224.98 0L227.808 0.0244141Z" fill="white"/>
</svg>
