<svg width="450" height="609" viewBox="0 0 450 609" fill="none" xmlns="http://www.w3.org/2000/svg">
<path d="M442.173 225.073L442.894 228.773L443.579 232.486L444.23 236.209L444.848 239.943L445.43 243.688L445.977 247.442L446.489 251.205L446.967 254.977L447.408 258.756L447.815 262.543L448.188 266.336L448.524 270.135L448.826 273.939L449.092 277.749L449.322 281.562L449.518 285.38L449.678 289.2L449.802 293.023L449.891 296.848L449.944 300.674L449.962 304.5L449.944 308.326L449.891 312.152L449.802 315.977L449.678 319.8L449.518 323.62L449.322 327.437L449.092 331.251L448.826 335.061L448.524 338.864L448.188 342.664L447.815 346.457L447.408 350.243L446.967 354.023L446.489 357.795L445.977 361.558L445.43 365.312L444.848 369.056L444.23 372.79L443.579 376.514L442.894 380.226L442.173 383.926L441.419 387.614L440.63 391.288L439.807 394.949L438.95 398.596L438.06 402.228L437.136 405.844L436.178 409.443L435.187 413.027L434.163 416.594L433.105 420.143L432.016 423.673L430.893 427.185L429.737 430.678L428.55 434.149L427.33 437.602L426.078 441.032L424.795 444.442L423.479 447.829L422.133 451.194L420.756 454.535L419.347 457.854L417.908 461.146L416.438 464.416L414.938 467.659L413.408 470.877L411.849 474.068L410.26 477.233L408.642 480.371L406.994 483.48L405.318 486.562L403.613 489.615L401.881 492.639L400.12 495.632L398.332 498.596L396.516 501.528L394.673 504.431L392.804 507.301L390.907 510.139L388.984 512.944L387.036 515.718L385.062 518.457L383.063 521.162L381.039 523.834L378.991 526.471L376.918 529.072L374.82 531.639L372.7 534.17L370.556 536.664L368.389 539.121L366.199 541.542L363.987 543.925L361.754 546.271L359.498 548.577L357.222 550.846L354.924 553.075L352.605 555.266L350.268 557.416L347.909 559.527L345.531 561.598L343.135 563.628L340.72 565.617L338.286 567.564L335.835 569.471L333.366 571.335L330.88 573.158L328.378 574.938L325.858 576.675L323.323 578.369L320.773 580.02L318.207 581.627L315.627 583.191L313.032 584.711L310.424 586.186L307.802 587.617L305.167 589.003L302.519 590.345L299.858 591.641L297.187 592.892L294.504 594.097L291.81 595.256L289.104 596.37L286.39 597.438L283.665 598.459L280.932 599.434L278.188 600.362L275.438 601.243L272.679 602.078L269.912 602.866L267.138 603.606L264.357 604.3L261.571 604.946L258.778 605.545L255.98 606.096L253.179 606.599L250.371 607.055L247.561 607.463L244.745 607.822L241.928 608.135L239.107 608.399L236.285 608.615L233.46 608.784L230.635 608.904L227.808 608.976L224.98 609L222.153 608.976L219.327 608.904L216.501 608.784L213.677 608.615L210.854 608.399L208.033 608.135L205.216 607.822L202.401 607.463L199.59 607.055L196.783 606.599L193.98 606.096L191.183 605.545L188.391 604.946L185.604 604.3L182.823 603.606L180.05 602.866L177.283 602.078L174.524 601.243L171.772 600.362L169.03 599.434L166.296 598.459L163.571 597.438L160.856 596.37L158.152 595.256L155.458 594.097L152.774 592.892L150.103 591.641L147.442 590.345L144.795 589.003L142.16 587.617L139.538 586.186L136.929 584.711L134.884 583.514L357.422 234.774L441.585 222.198L442.173 225.073Z" fill="white"/>
<path d="M159.917 104L210.917 137L213.917 138.5L215.246 139.496L215.245 139.498L215.035 139.528L215.06 139.568L214.829 139.682L214.797 139.645L214.701 139.686L214.729 139.714L214.705 139.738L214.929 139.995L214.869 140.056L214.776 140.407L214.695 140.492L214.877 140.61L214.931 140.566L215.038 140.684L215.009 140.712L215.054 140.763L215.07 140.818L215.06 140.927L214.943 141.044L214.783 141.234L214.881 141.337L214.873 141.38L214.905 141.392L214.919 141.419L215.04 141.436L215.093 141.477L215.104 141.526L215.072 141.565L215.13 141.685L215.196 141.697L215.181 141.781L215.268 141.751L215.255 141.693L215.298 141.581L215.376 141.441L215.581 141.341L215.666 141.402L215.771 141.437L215.802 141.419L215.862 141.43L215.906 141.429L215.94 141.402L215.978 141.444L216.043 141.455L215.979 141.528L216.021 141.69H215.965L215.979 141.905L215.921 141.883L215.949 141.936L215.931 141.955L216.012 142.089L216.103 142.137L216.102 142.083L216.144 142.021L216.222 142.028L216.259 142.009L216.361 142.022L216.427 142.078L216.495 142.265L216.432 142.314L216.459 142.373L216.436 142.432L216.483 142.494L216.597 142.526L216.622 142.564L216.762 142.491L216.827 142.545L216.939 142.735L216.896 142.797L216.987 142.945L216.943 142.982L216.881 142.981L216.803 143.086L216.721 143.041L216.751 143.117L216.861 143.159L216.784 143.284L216.977 143.34L217.088 143.408L217.131 143.363L217.166 143.442L217.267 143.51L217.325 143.485L217.344 143.389L217.406 143.404L217.434 143.179L217.416 143.17L217.42 143.081L217.517 143.075L217.522 143.089L218.318 142.991L218.291 142.924L218.297 142.864L218.327 142.857L218.319 142.782L218.34 142.656L218.407 142.672L218.467 142.629L218.507 142.659L218.535 142.667L218.591 142.64L218.606 142.656L218.593 142.721L218.629 142.742L219.175 142.048L219.206 142.076L219.279 142.114L219.441 142.119L219.476 142.179L219.509 142.306L219.635 142.364L219.703 142.414L219.809 142.336L219.92 142.359L219.947 142.323L219.975 142.322L219.992 142.28L220.08 142.282L220.126 142.26L220.159 142.245L220.854 142.662L220.871 142.83L220.976 142.972L221.081 143.051L221.148 143.154L221.19 143.242L221.196 143.331L221.286 143.443L221.377 143.468L221.524 143.435H221.681L221.803 143.468L221.892 143.527L221.953 143.634L221.966 143.768L221.988 143.946L221.953 144.082L221.934 144.228L222.038 144.455L222.112 144.502L222.188 144.542L222.176 144.196L222.202 143.962L222.226 143.851L222.28 143.647L223.417 144.5L224.417 146.5L225.417 147L227.917 148L248.417 162.5L292.416 191.501L355.509 234.054L133.168 582.484L131.754 581.628L129.188 580.021L126.638 578.37L124.103 576.676L121.584 574.938L119.081 573.158L116.596 571.336L114.126 569.472L111.675 567.565L109.241 565.618L106.826 563.629L104.43 561.599L102.053 559.528L99.6943 557.417L97.3564 555.267L95.0381 553.076L92.7402 550.847L90.4639 548.578L88.208 546.271L85.9736 543.926L83.7617 541.543L81.5723 539.122L79.4053 536.665L77.2617 534.171L75.1406 531.64L73.0439 529.073L70.9707 526.472L68.9219 523.835L66.8975 521.163L64.8984 518.458L62.9248 515.719L60.9766 512.945L59.0547 510.14L57.1582 507.302L55.2881 504.432L53.4453 501.529L51.6299 498.597L49.8418 495.633L48.0811 492.639L46.3477 489.615L44.6436 486.562L42.9668 483.481L41.3203 480.372L39.7012 477.234L38.1123 474.069L36.5527 470.878L35.0234 467.66L33.5234 464.417L32.0537 461.147L30.6143 457.854L29.2061 454.536L27.8281 451.195L26.4824 447.83L25.167 444.443L23.8838 441.033L22.6318 437.603L21.4121 434.15L20.2246 430.678L19.0684 427.186L17.9463 423.674L16.8555 420.144L15.7988 416.595L14.7744 413.028L13.7832 409.444L12.8262 405.845L11.9014 402.229L11.0107 398.597L10.1543 394.95L9.33105 391.289L8.54297 387.614L7.78809 383.927L7.06836 380.227L6.38184 376.515L5.73047 372.791L5.11426 369.057L4.53223 365.312L3.98438 361.559L3.47266 357.795L2.99512 354.023L2.55273 350.244L2.14551 346.458L1.77344 342.665L1.4375 338.865L1.13574 335.061L0.869141 331.252L0.638672 327.438L0.443359 323.62L0.28418 319.8L0.15918 315.978L0.0703125 312.153L0.0175781 308.327L0 304.501L0.0175781 300.675L0.0703125 296.849L0.15918 293.024L0.28418 289.201L0.443359 285.381L0.638672 281.563L0.869141 277.75L1.13574 273.94L1.4375 270.136L1.77344 266.337L2.14551 262.544L2.55273 258.757L2.99512 254.978L3.47266 251.206L3.98438 247.443L4.53223 243.689L5.11426 239.944L5.73047 236.21L6.38184 232.486L7.06836 228.774L7.78809 225.074L8.54297 221.387L9.33105 217.712L10.1543 214.052L11.0107 210.405L11.9014 206.773L12.8262 203.157L13.7832 199.557L14.7744 195.974L15.7988 192.407L16.8555 188.858L17.9463 185.327L19.0684 181.815L20.2246 178.323L21.4121 174.851L22.6318 171.399L23.8838 167.968L25.167 164.559L26.4824 161.171L27.8281 157.807L29.2061 154.465L30.6143 151.147L32.0537 147.854L33.5234 144.585L35.0234 141.342L36.5527 138.124L38.1123 134.932L39.7012 131.768L41.3203 128.63L42.9668 125.521L44.6436 122.438L46.3477 119.386L48.0811 116.362L49.8418 113.369L51.6299 110.405L53.4453 107.472L55.2881 104.57L57.1582 101.7L59.0547 98.8623L60.9766 96.0557L62.9248 93.2832L64.8984 90.5439L66.8975 87.8379L68.9219 85.167L70.9707 82.5293L73.0439 79.9277L75.1406 77.3613L77.2617 74.8311L79.4053 72.3369L81.5723 69.8789L83.7617 67.459L85.9736 65.0762L88.208 62.7305L90.4639 60.4238L92.4971 58.3965L159.917 104Z" fill="white"/>
<path d="M227.808 0.0244141L230.635 0.0957031L233.46 0.216797L236.285 0.384766L239.107 0.600586L241.928 0.865234L244.746 1.17773L247.561 1.53711L250.371 1.94531L253.179 2.40137L255.981 2.9043L258.778 3.45508L261.571 4.05371L264.357 4.7002L267.138 5.39355L269.912 6.13379L272.679 6.92188L275.438 7.75684L278.188 8.6377L280.932 9.56641L283.665 10.541L286.39 11.5625L289.104 12.6299L291.81 13.7441L294.504 14.9033L297.187 16.1084L299.858 17.3594L302.519 18.6553L305.167 19.9971L307.802 21.3828L310.424 22.8145L313.032 24.2891L315.627 25.8086L318.207 27.373L320.773 28.9805L323.323 30.6309L325.858 32.3252L328.378 34.0625L330.88 35.8428L333.366 37.665L335.835 39.5293L338.286 41.4355L340.72 43.3828L343.135 45.3721L345.531 47.4023L347.909 49.4727L350.268 51.584L352.605 53.7344L354.924 55.9248L357.222 58.1543L359.498 60.4229L361.754 62.7295L363.987 65.0752L366.199 67.458L368.389 69.8789L370.556 72.3359L372.7 74.8301L374.82 77.3613L376.918 79.9277L378.991 82.5293L381.04 85.166L383.063 87.8379L385.062 90.543L387.036 93.2822L388.984 96.0557L390.907 98.8613L392.804 101.699L394.673 104.569L396.516 107.472L398.332 110.404L400.12 113.368L401.881 116.361L403.613 119.386L405.318 122.438L406.994 125.52L408.642 128.629L410.26 131.767L411.849 134.932L413.408 138.123L414.938 141.341L416.438 144.584L417.908 147.854L419.347 151.146L420.756 154.465L422.133 157.806L423.479 161.171L424.795 164.558L426.078 167.968L427.33 171.398L428.55 174.851L429.737 178.322L430.893 181.815L432.016 185.327L433.105 188.857L434.163 192.406L435.187 195.973L436.178 199.557L437.136 203.156L438.06 206.772L438.95 210.404L439.807 214.051L440.63 217.712L441.172 220.237L357.196 232.785L222.583 142.944L222.743 142.608L222.851 142.435L222.779 142.445L222.82 142.37L222.86 142.354L222.861 142.304L222.63 142.403L222.686 142.415L222.657 142.513L222.548 142.593L222.383 142.645L222.28 142.654L222.047 142.587L221.917 142.5L221.354 142.312L221.343 142.307L220.997 142.087L220.779 141.929L220.298 141.559L220.246 141.479L220.222 141.331L220.202 141.334L220.224 141.463L220.044 141.408L219.792 141.271L219.559 141.198L219.413 141.104L219.277 140.968L219.328 140.872L219.438 140.801L219.396 140.724L219.252 140.819L219.196 140.736L219.204 140.707L219.189 140.649L219.343 140.606L219.337 140.583L219.179 140.626L219.16 140.429L219.267 140.416L219.268 140.399L219.06 140.416L219.061 140.401L218.956 140.404L218.958 140.355L219.049 140.338V140.352L219.097 140.353L219.1 140.323L219.329 140.283L219.435 140.387L219.45 140.379L219.352 140.281L219.414 140.234L219.49 140.335L219.511 140.322L219.423 140.226L219.466 140.195L219.633 140.385L219.646 140.373L219.466 140.177L219.316 140.2L219.32 140.218L219.378 140.201L219.396 140.225L219.348 140.258L219.09 140.299L219.016 140.237L218.9 140.195L218.866 140.105L218.797 140.021L218.688 139.943L218.597 139.854L218.573 139.736L218.584 139.876L218.456 139.949L218.358 139.925L218.263 139.891L218.181 139.836L217.976 139.649L217.82 139.468L217.583 139.101L217.431 139.19L217.414 139.154L217.358 139.163L217.371 139.225L217.103 139.169L217.062 139.202L217.031 139.167L216.971 139.252L216.889 139.17L216.807 139.127L216.749 139.138L216.658 139.115L216.601 139.069L216.525 139.043L216.371 139.063L216.294 139.018L216.209 138.986L216.143 138.91L216.152 138.821L216.146 138.793L216.057 138.763L215.993 138.775L215.837 138.724L215.855 138.681L215.984 138.727L216.016 138.697L215.963 138.621L216.001 138.533L215.946 138.482L215.92 138.533L215.9 138.522L215.808 138.614L215.772 138.613L215.672 138.467L215.683 138.353L215.604 138.204L215.61 138.185L215.528 138.136L215.536 138.112L215.511 138.096L215.377 138.303L215.369 138.27L215.319 138.256L215.275 138.282L215.19 138.241L215.254 138.358L215.391 138.421L215.397 138.394L215.499 138.419L215.449 138.458L215.443 138.523L215.359 138.624L93.9609 56.9688L95.0381 55.9248L97.3564 53.7344L99.6943 51.584L102.053 49.4727L104.43 47.4023L106.826 45.3721L109.241 43.3828L111.675 41.4355L114.127 39.5293L116.596 37.665L119.081 35.8428L121.584 34.0625L124.104 32.3252L126.638 30.6309L129.188 28.9805L131.754 27.373L134.335 25.8086L136.929 24.2891L139.538 22.8145L142.16 21.3828L144.795 19.9971L147.442 18.6553L150.103 17.3594L152.774 16.1084L155.458 14.9033L158.152 13.7441L160.856 12.6299L163.572 11.5625L166.297 10.541L169.03 9.56641L171.773 8.6377L174.524 7.75684L177.283 6.92188L180.05 6.13379L182.823 5.39355L185.604 4.7002L188.391 4.05371L191.183 3.45508L193.98 2.9043L196.783 2.40137L199.59 1.94531L202.401 1.53711L205.216 1.17773L208.033 0.865234L210.854 0.600586L213.677 0.384766L216.501 0.216797L219.327 0.0957031L222.153 0.0244141L224.98 0L227.808 0.0244141Z" fill="white"/>
</svg>
