<svg width="1440" height="810" viewBox="0 0 1440 810" fill="none" xmlns="http://www.w3.org/2000/svg">
<path d="M1477.36 387.483L1467.12 422.087L1452.03 503.778L1442.92 560.79L1438.09 591.709L1435.81 612.414L1435.52 657.514L1436.66 677.655L1442.92 718.783L1460.57 777.214L1446.06 773.811L1431.25 769.272L1403.08 735.235L1399.66 709.423L1399.38 684.746L1387.42 655.246L1379.17 633.122L1363.8 617.804L1345.86 611.565H1323.66L1296.91 618.655L1273.29 631.136H1256.78L1236.28 616.102L1231.16 601.069L1220.06 588.02L1203.84 573.554L1182.2 564.761L1158.01 545.472L1144.92 511.151L1130.4 491.295L1110.76 477.68L1076.32 465.2L1042.16 463.497L1021.1 459.242L1015.69 473.992L1004.88 482.217L998.048 488.174L982.962 491.861L981.823 499.803L977.27 501.221L974.138 508.596L954.215 509.732L939.698 527.885L925.753 522.496L901.558 518.241L890.172 498.102L881.634 489.592L853.74 496.116L839.509 492.997L832.962 489.592L771.482 632.833L764.367 630.849L763.797 619.219L760.381 617.235L752.126 624.326H747.002L738.748 620.922L730.493 631.133L718.254 631.418L720.531 653.826L725.369 666.306L720.531 668.859L722.238 679.355L729.923 689.566L598.708 742.608L597.001 740.622L580.777 746.011L584.192 761.329L587.609 761.896L593.301 801.607L581.915 801.891L583.055 819.194L574.231 826L554.022 819.194L544.344 807.28L539.221 816.925L517.019 810.401L481.725 809.549L489.126 784.872L468.348 782.603L459.81 770.973L475.749 774.944L484.287 753.672L495.102 750.834L500.796 742.609L478.594 721.335L483.148 708.855L455.254 681.625L441.592 675.384L421.099 694.389L415.122 689.001L394.344 688.716L383.244 680.207L384.667 669.145L377.266 660.351L385.804 649.004L365.595 620.357L351.932 613.832L333.716 616.102L328.309 621.208L314.646 623.476L310.376 635.956L312.939 645.034L295.291 641.062L275.367 622.058L277.644 617.803L270.528 610.145L281.344 611.28L269.104 575.257L278.781 572.703L264.265 546.892L271.666 531.575L259.996 532.709L251.741 527.321L247.188 533.277L239.787 535.546L228.972 536.398L224.418 540.936L205.062 539.8L187.701 533.276L157.245 559.656L150.414 587.169L148.137 608.159L152.977 617.521L139.599 626.597L138.461 611.565L126.506 612.416L111.135 594.829L114.835 586.603L110.565 578.66L99.7501 574.122L78.4029 576.676L74.703 572.704L68.7262 572.138L68.1576 564.48L46.8103 551.431L65.312 511.72L79.8282 486.476L76.697 467.472L71.2901 458.678L61.3278 452.154L65.0276 445.913L41.4123 430.882L34.2957 440.808L-2.13647 428.896L7.82577 410.743L7.54019 346.638L14.9411 333.59L-34.8688 299.836L-32.0232 294.73L-38 291.044L-23.4837 279.697L-16.3671 284.519L17.788 254.736L11.8112 249.063L46.2519 234.315L59.9139 215.026L65.3222 215.877L64.468 209.353L59.3441 204.53L67.3136 197.439L66.1751 178.151L-3.55928 178.718L14.9424 126.243L-2.13647 127.094L16.6482 100.148L35.4342 59.0181L33.4415 47.6723L40.2725 38.5956L21.7709 38.879V43.9852L-4.41475 39.4469L-20.6381 22.4282L-4.13044 25.5473L2.1307 19.0232H11.24L14.0856 24.4128L27.4634 -17L32.5873 -15.2975L32.3017 -11.0425L48.5263 -6.50419L48.2408 -2.81839L68.4508 19.0219L71.8663 38.8777L95.7749 59.3001L101.752 57.8822L113.421 38.0265L117.121 38.8777L119.398 28.9511L131.067 35.1906L128.505 51.926L141.028 62.4218L137.044 68.946L112.85 66.9614L111.71 75.1868L140.741 76.8893L150.988 71.783L167.497 72.9176L170.058 77.4559L172.335 93.0567L187.136 102.983L203.075 104.401L218.445 108.656L243.777 98.1617L257.723 99.2963L269.678 104.403L286.186 104.118L295.578 99.5809L311.518 103.268L329.165 113.479L335.711 96.1759L342.542 100.714L347.951 93.3388L396.338 90.503L391.214 80.5764L400.322 76.6047L404.876 81.9943L426.792 59.586L484.002 111.492L518.726 135.319L562.274 157.728L578.783 163.401L596.713 164.819L614.361 164.534L632.862 146.097L624.607 122.838L634 141.842L653.638 152.904L675.84 161.13L691.493 172.476L701.456 186.092L723.087 188.077L738.458 195.168L780.582 176.448L787.413 168.506L783.144 165.385L774.034 170.775L772.612 167.939L797.09 157.161L836.653 182.405L834.945 184.958L797.944 160.28L791.967 167.372L811.322 179.851L808.476 182.972L790.829 169.357L782.291 180.135L803.638 192.332L801.361 194.318L778.591 181.553L741.305 198.855L742.159 203.961L733.904 205.947L733.335 203.678L718.534 210.768L720.527 219.277L738.173 213.889L738.743 216.441L773.467 204.244L774.036 207.08L756.388 214.171L768.629 246.79L793.676 232.324L795.668 236.011L771.474 250.477L776.598 259.555V264.945L789.975 276.574L810.185 253.598L820.716 264.945L805.345 281.964L801.075 300.683L830.392 317.703L859.423 327.063L902.688 328.766L951.929 340.678L984.945 341.814L975.552 320.824L978.683 319.406L989.499 343.517L1002.02 354.862L1101.07 395.991L1145.47 413.011L1214.35 434.568L1274.98 446.765L1299.46 449.318L1390.25 451.021L1407.33 444.78L1432.95 428.329L1448.04 409.608L1448.32 391.739L1438.36 392.306L1473.37 364.793L1475.36 373.303L1469.38 377.84L1465.68 392.589L1477.36 387.483Z" fill="#087BFF"/>
</svg>
